<svg width="958" height="365" viewBox="0 0 958 365" fill="none" xmlns="http://www.w3.org/2000/svg">
<g clip-path="url(#clip0)">
<line x1="400.185" y1="83.0172" x2="597.185" y2="120.017" stroke="white" stroke-opacity="0.67" stroke-width="2"/>
<line x1="400.177" y1="82.9842" x2="194.177" y2="119.984" stroke="white" stroke-opacity="0.67" stroke-width="2"/>
<path d="M190.5 163.5L97.3614 200.933" stroke="white" stroke-opacity="0.67" stroke-width="2"/>
<line x1="190.309" y1="163.049" x2="307.309" y2="201.049" stroke="white" stroke-opacity="0.67" stroke-width="2"/>
<line x1="600.353" y1="163.936" x2="441.353" y2="223.936" stroke="white" stroke-opacity="0.67" stroke-width="2"/>
<line x1="600.346" y1="164.062" x2="703.346" y2="202.062" stroke="white" stroke-opacity="0.67" stroke-width="2"/>
<line x1="703.537" y1="245.844" x2="648.537" y2="280.844" stroke="white" stroke-opacity="0.67" stroke-width="2"/>
<line x1="703.407" y1="244.087" x2="786.407" y2="281.087" stroke="white" stroke-opacity="0.67" stroke-width="2"/>
<path d="M363 38H435V84H363V38Z" fill="#485763"/>
<path d="M363.5 38.5H434.5V83.5H363.5V38.5Z" stroke="white" stroke-opacity="0.37"/>
<path d="M389.098 62.5469H381.949L380.344 67H378.023L384.539 49.9375H386.508L393.035 67H390.727L389.098 62.5469ZM382.629 60.6953H388.43L385.523 52.7148L382.629 60.6953ZM405.703 60.8008C405.703 62.7305 405.262 64.2852 404.379 65.4648C403.496 66.6445 402.301 67.2344 400.793 67.2344C399.254 67.2344 398.043 66.7461 397.16 65.7695V71.875H394.992V54.3203H396.973L397.078 55.7266C397.961 54.6328 399.188 54.0859 400.758 54.0859C402.281 54.0859 403.484 54.6602 404.367 55.8086C405.258 56.957 405.703 58.5547 405.703 60.6016V60.8008ZM403.535 60.5547C403.535 59.125 403.23 57.9961 402.621 57.168C402.012 56.3398 401.176 55.9258 400.113 55.9258C398.801 55.9258 397.816 56.5078 397.16 57.6719V63.7305C397.809 64.8867 398.801 65.4648 400.137 65.4648C401.176 65.4648 402 65.0547 402.609 64.2344C403.227 63.4062 403.535 62.1797 403.535 60.5547ZM419.18 60.8008C419.18 62.7305 418.738 64.2852 417.855 65.4648C416.973 66.6445 415.777 67.2344 414.27 67.2344C412.73 67.2344 411.52 66.7461 410.637 65.7695V71.875H408.469V54.3203H410.449L410.555 55.7266C411.438 54.6328 412.664 54.0859 414.234 54.0859C415.758 54.0859 416.961 54.6602 417.844 55.8086C418.734 56.957 419.18 58.5547 419.18 60.6016V60.8008ZM417.012 60.5547C417.012 59.125 416.707 57.9961 416.098 57.168C415.488 56.3398 414.652 55.9258 413.59 55.9258C412.277 55.9258 411.293 56.5078 410.637 57.6719V63.7305C411.285 64.8867 412.277 65.4648 413.613 65.4648C414.652 65.4648 415.477 65.0547 416.086 64.2344C416.703 63.4062 417.012 62.1797 417.012 60.5547Z" fill="white"/>
<path d="M139 119H247V165H139V119Z" fill="#485763"/>
<path d="M139.5 119.5H246.5V164.5H139.5V119.5Z" stroke="white" stroke-opacity="0.37"/>
<path d="M158.758 140.395C156.828 139.84 155.422 139.16 154.539 138.355C153.664 137.543 153.227 136.543 153.227 135.355C153.227 134.012 153.762 132.902 154.832 132.027C155.91 131.145 157.309 130.703 159.027 130.703C160.199 130.703 161.242 130.93 162.156 131.383C163.078 131.836 163.789 132.461 164.289 133.258C164.797 134.055 165.051 134.926 165.051 135.871H162.789C162.789 134.84 162.461 134.031 161.805 133.445C161.148 132.852 160.223 132.555 159.027 132.555C157.918 132.555 157.051 132.801 156.426 133.293C155.809 133.777 155.5 134.453 155.5 135.32C155.5 136.016 155.793 136.605 156.379 137.09C156.973 137.566 157.977 138.004 159.391 138.402C160.812 138.801 161.922 139.242 162.719 139.727C163.523 140.203 164.117 140.762 164.5 141.402C164.891 142.043 165.086 142.797 165.086 143.664C165.086 145.047 164.547 146.156 163.469 146.992C162.391 147.82 160.949 148.234 159.145 148.234C157.973 148.234 156.879 148.012 155.863 147.566C154.848 147.113 154.062 146.496 153.508 145.715C152.961 144.934 152.688 144.047 152.688 143.055H154.949C154.949 144.086 155.328 144.902 156.086 145.504C156.852 146.098 157.871 146.395 159.145 146.395C160.332 146.395 161.242 146.152 161.875 145.668C162.508 145.184 162.824 144.523 162.824 143.688C162.824 142.852 162.531 142.207 161.945 141.754C161.359 141.293 160.297 140.84 158.758 140.395ZM169.996 148H167.828V135.32H169.996V148ZM167.652 131.957C167.652 131.605 167.758 131.309 167.969 131.066C168.188 130.824 168.508 130.703 168.93 130.703C169.352 130.703 169.672 130.824 169.891 131.066C170.109 131.309 170.219 131.605 170.219 131.957C170.219 132.309 170.109 132.602 169.891 132.836C169.672 133.07 169.352 133.188 168.93 133.188C168.508 133.188 168.188 133.07 167.969 132.836C167.758 132.602 167.652 132.309 167.652 131.957ZM172.949 141.555C172.949 139.609 173.41 138.047 174.332 136.867C175.254 135.68 176.461 135.086 177.953 135.086C179.438 135.086 180.613 135.594 181.48 136.609V130H183.648V148H181.656L181.551 146.641C180.684 147.703 179.477 148.234 177.93 148.234C176.461 148.234 175.262 147.633 174.332 146.43C173.41 145.227 172.949 143.656 172.949 141.719V141.555ZM175.117 141.801C175.117 143.238 175.414 144.363 176.008 145.176C176.602 145.988 177.422 146.395 178.469 146.395C179.844 146.395 180.848 145.777 181.48 144.543V138.719C180.832 137.523 179.836 136.926 178.492 136.926C177.43 136.926 176.602 137.336 176.008 138.156C175.414 138.977 175.117 140.191 175.117 141.801ZM192.285 148.234C190.566 148.234 189.168 147.672 188.09 146.547C187.012 145.414 186.473 143.902 186.473 142.012V141.613C186.473 140.355 186.711 139.234 187.188 138.25C187.672 137.258 188.344 136.484 189.203 135.93C190.07 135.367 191.008 135.086 192.016 135.086C193.664 135.086 194.945 135.629 195.859 136.715C196.773 137.801 197.23 139.355 197.23 141.379V142.281H188.641C188.672 143.531 189.035 144.543 189.73 145.316C190.434 146.082 191.324 146.465 192.402 146.465C193.168 146.465 193.816 146.309 194.348 145.996C194.879 145.684 195.344 145.27 195.742 144.754L197.066 145.785C196.004 147.418 194.41 148.234 192.285 148.234ZM192.016 136.867C191.141 136.867 190.406 137.188 189.812 137.828C189.219 138.461 188.852 139.352 188.711 140.5H195.062V140.336C195 139.234 194.703 138.383 194.172 137.781C193.641 137.172 192.922 136.867 192.016 136.867ZM200.09 148V130.938H205.668C207.52 130.938 208.91 131.32 209.84 132.086C210.777 132.852 211.246 133.984 211.246 135.484C211.246 136.281 211.02 136.988 210.566 137.605C210.113 138.215 209.496 138.688 208.715 139.023C209.637 139.281 210.363 139.773 210.895 140.5C211.434 141.219 211.703 142.078 211.703 143.078C211.703 144.609 211.207 145.812 210.215 146.688C209.223 147.562 207.82 148 206.008 148H200.09ZM202.34 140.02V146.16H206.055C207.102 146.16 207.926 145.891 208.527 145.352C209.137 144.805 209.441 144.055 209.441 143.102C209.441 141.047 208.324 140.02 206.09 140.02H202.34ZM202.34 138.215H205.738C206.723 138.215 207.508 137.969 208.094 137.477C208.688 136.984 208.984 136.316 208.984 135.473C208.984 134.535 208.711 133.855 208.164 133.434C207.617 133.004 206.785 132.789 205.668 132.789H202.34V138.215ZM222.531 148C222.406 147.75 222.305 147.305 222.227 146.664C221.219 147.711 220.016 148.234 218.617 148.234C217.367 148.234 216.34 147.883 215.535 147.18C214.738 146.469 214.34 145.57 214.34 144.484C214.34 143.164 214.84 142.141 215.84 141.414C216.848 140.68 218.262 140.312 220.082 140.312H222.191V139.316C222.191 138.559 221.965 137.957 221.512 137.512C221.059 137.059 220.391 136.832 219.508 136.832C218.734 136.832 218.086 137.027 217.562 137.418C217.039 137.809 216.777 138.281 216.777 138.836H214.598C214.598 138.203 214.82 137.594 215.266 137.008C215.719 136.414 216.328 135.945 217.094 135.602C217.867 135.258 218.715 135.086 219.637 135.086C221.098 135.086 222.242 135.453 223.07 136.188C223.898 136.914 224.328 137.918 224.359 139.199V145.035C224.359 146.199 224.508 147.125 224.805 147.812V148H222.531ZM218.934 146.348C219.613 146.348 220.258 146.172 220.867 145.82C221.477 145.469 221.918 145.012 222.191 144.449V141.848H220.492C217.836 141.848 216.508 142.625 216.508 144.18C216.508 144.859 216.734 145.391 217.188 145.773C217.641 146.156 218.223 146.348 218.934 146.348ZM233.887 137.266C233.559 137.211 233.203 137.184 232.82 137.184C231.398 137.184 230.434 137.789 229.926 139V148H227.758V135.32H229.867L229.902 136.785C230.613 135.652 231.621 135.086 232.926 135.086C233.348 135.086 233.668 135.141 233.887 135.25V137.266Z" fill="white"/>
<path d="M543 119H651V165H543V119Z" fill="#485763"/>
<path d="M543.5 119.5H650.5V164.5H543.5V119.5Z" stroke="white" stroke-opacity="0.37"/>
<path d="M575.344 130.938L580.922 144.859L586.5 130.938H589.418V148H587.168V141.355L587.379 134.184L581.777 148H580.055L574.465 134.219L574.688 141.355V148H572.438V130.938H575.344ZM600.879 148C600.754 147.75 600.652 147.305 600.574 146.664C599.566 147.711 598.363 148.234 596.965 148.234C595.715 148.234 594.688 147.883 593.883 147.18C593.086 146.469 592.688 145.57 592.688 144.484C592.688 143.164 593.188 142.141 594.188 141.414C595.195 140.68 596.609 140.312 598.43 140.312H600.539V139.316C600.539 138.559 600.312 137.957 599.859 137.512C599.406 137.059 598.738 136.832 597.855 136.832C597.082 136.832 596.434 137.027 595.91 137.418C595.387 137.809 595.125 138.281 595.125 138.836H592.945C592.945 138.203 593.168 137.594 593.613 137.008C594.066 136.414 594.676 135.945 595.441 135.602C596.215 135.258 597.062 135.086 597.984 135.086C599.445 135.086 600.59 135.453 601.418 136.188C602.246 136.914 602.676 137.918 602.707 139.199V145.035C602.707 146.199 602.855 147.125 603.152 147.812V148H600.879ZM597.281 146.348C597.961 146.348 598.605 146.172 599.215 145.82C599.824 145.469 600.266 145.012 600.539 144.449V141.848H598.84C596.184 141.848 594.855 142.625 594.855 144.18C594.855 144.859 595.082 145.391 595.535 145.773C595.988 146.156 596.57 146.348 597.281 146.348ZM608.461 148H606.293V135.32H608.461V148ZM606.117 131.957C606.117 131.605 606.223 131.309 606.434 131.066C606.652 130.824 606.973 130.703 607.395 130.703C607.816 130.703 608.137 130.824 608.355 131.066C608.574 131.309 608.684 131.605 608.684 131.957C608.684 132.309 608.574 132.602 608.355 132.836C608.137 133.07 607.816 133.188 607.395 133.188C606.973 133.188 606.652 133.07 606.434 132.836C606.223 132.602 606.117 132.309 606.117 131.957ZM613.992 135.32L614.062 136.914C615.031 135.695 616.297 135.086 617.859 135.086C620.539 135.086 621.891 136.598 621.914 139.621V148H619.746V139.609C619.738 138.695 619.527 138.02 619.113 137.582C618.707 137.145 618.07 136.926 617.203 136.926C616.5 136.926 615.883 137.113 615.352 137.488C614.82 137.863 614.406 138.355 614.109 138.965V148H611.941V135.32H613.992Z" fill="white"/>
<path d="M42 200H150V246H42V200Z" fill="#485763"/>
<path d="M42.5 200.5H149.5V245.5H42.5V200.5Z" stroke="white" stroke-opacity="0.37"/>
<path d="M68.2148 229H65.9531L57.3633 215.852V229H55.1016V211.938H57.3633L65.9766 225.145V211.938H68.2148V229ZM79.6992 229C79.5742 228.75 79.4727 228.305 79.3945 227.664C78.3867 228.711 77.1836 229.234 75.7852 229.234C74.5352 229.234 73.5078 228.883 72.7031 228.18C71.9062 227.469 71.5078 226.57 71.5078 225.484C71.5078 224.164 72.0078 223.141 73.0078 222.414C74.0156 221.68 75.4297 221.312 77.25 221.312H79.3594V220.316C79.3594 219.559 79.1328 218.957 78.6797 218.512C78.2266 218.059 77.5586 217.832 76.6758 217.832C75.9023 217.832 75.2539 218.027 74.7305 218.418C74.207 218.809 73.9453 219.281 73.9453 219.836H71.7656C71.7656 219.203 71.9883 218.594 72.4336 218.008C72.8867 217.414 73.4961 216.945 74.2617 216.602C75.0352 216.258 75.8828 216.086 76.8047 216.086C78.2656 216.086 79.4102 216.453 80.2383 217.188C81.0664 217.914 81.4961 218.918 81.5273 220.199V226.035C81.5273 227.199 81.6758 228.125 81.9727 228.812V229H79.6992ZM76.1016 227.348C76.7812 227.348 77.4258 227.172 78.0352 226.82C78.6445 226.469 79.0859 226.012 79.3594 225.449V222.848H77.6602C75.0039 222.848 73.6758 223.625 73.6758 225.18C73.6758 225.859 73.9023 226.391 74.3555 226.773C74.8086 227.156 75.3906 227.348 76.1016 227.348ZM88.9219 226.059L92.0625 216.32H94.2773L89.7305 229H88.0781L83.4844 216.32H85.6992L88.9219 226.059ZM98.9648 227.16H107.051V229H96.7031V211.938H98.9648V227.16ZM111.633 229H109.465V216.32H111.633V229ZM109.289 212.957C109.289 212.605 109.395 212.309 109.605 212.066C109.824 211.824 110.145 211.703 110.566 211.703C110.988 211.703 111.309 211.824 111.527 212.066C111.746 212.309 111.855 212.605 111.855 212.957C111.855 213.309 111.746 213.602 111.527 213.836C111.309 214.07 110.988 214.188 110.566 214.188C110.145 214.188 109.824 214.07 109.605 213.836C109.395 213.602 109.289 213.309 109.289 212.957ZM117.164 216.32L117.234 217.914C118.203 216.695 119.469 216.086 121.031 216.086C123.711 216.086 125.062 217.598 125.086 220.621V229H122.918V220.609C122.91 219.695 122.699 219.02 122.285 218.582C121.879 218.145 121.242 217.926 120.375 217.926C119.672 217.926 119.055 218.113 118.523 218.488C117.992 218.863 117.578 219.355 117.281 219.965V229H115.113V216.32H117.164ZM131.895 223.129L130.535 224.547V229H128.367V211H130.535V221.887L131.695 220.492L135.645 216.32H138.281L133.348 221.617L138.855 229H136.312L131.895 223.129Z" fill="white"/>
<path d="M253 200H361V246H253V200Z" fill="#485763"/>
<path d="M253.5 200.5H360.5V245.5H253.5V200.5Z" stroke="white" stroke-opacity="0.37"/>
<path d="M272.406 227.16H280.492V229H270.145V211.938H272.406V227.16ZM282.145 222.543C282.145 221.301 282.387 220.184 282.871 219.191C283.363 218.199 284.043 217.434 284.91 216.895C285.785 216.355 286.781 216.086 287.898 216.086C289.625 216.086 291.02 216.684 292.082 217.879C293.152 219.074 293.688 220.664 293.688 222.648V222.801C293.688 224.035 293.449 225.145 292.973 226.129C292.504 227.105 291.828 227.867 290.945 228.414C290.07 228.961 289.062 229.234 287.922 229.234C286.203 229.234 284.809 228.637 283.738 227.441C282.676 226.246 282.145 224.664 282.145 222.695V222.543ZM284.324 222.801C284.324 224.207 284.648 225.336 285.297 226.188C285.953 227.039 286.828 227.465 287.922 227.465C289.023 227.465 289.898 227.035 290.547 226.176C291.195 225.309 291.52 224.098 291.52 222.543C291.52 221.152 291.188 220.027 290.523 219.168C289.867 218.301 288.992 217.867 287.898 217.867C286.828 217.867 285.965 218.293 285.309 219.145C284.652 219.996 284.324 221.215 284.324 222.801ZM295.891 222.555C295.891 220.578 296.348 219.008 297.262 217.844C298.176 216.672 299.387 216.086 300.895 216.086C302.441 216.086 303.648 216.633 304.516 217.727L304.621 216.32H306.602V228.695C306.602 230.336 306.113 231.629 305.137 232.574C304.168 233.52 302.863 233.992 301.223 233.992C300.309 233.992 299.414 233.797 298.539 233.406C297.664 233.016 296.996 232.48 296.535 231.801L297.66 230.5C298.59 231.648 299.727 232.223 301.07 232.223C302.125 232.223 302.945 231.926 303.531 231.332C304.125 230.738 304.422 229.902 304.422 228.824V227.734C303.555 228.734 302.371 229.234 300.871 229.234C299.387 229.234 298.184 228.637 297.262 227.441C296.348 226.246 295.891 224.617 295.891 222.555ZM298.07 222.801C298.07 224.23 298.363 225.355 298.949 226.176C299.535 226.988 300.355 227.395 301.41 227.395C302.777 227.395 303.781 226.773 304.422 225.531V219.742C303.758 218.531 302.762 217.926 301.434 217.926C300.379 217.926 299.555 218.336 298.961 219.156C298.367 219.977 298.07 221.191 298.07 222.801ZM323.348 221.02C323.348 222.691 323.066 224.152 322.504 225.402C321.941 226.645 321.145 227.594 320.113 228.25C319.082 228.906 317.879 229.234 316.504 229.234C315.16 229.234 313.969 228.906 312.93 228.25C311.891 227.586 311.082 226.645 310.504 225.426C309.934 224.199 309.641 222.781 309.625 221.172V219.941C309.625 218.301 309.91 216.852 310.48 215.594C311.051 214.336 311.855 213.375 312.895 212.711C313.941 212.039 315.137 211.703 316.48 211.703C317.848 211.703 319.051 212.035 320.09 212.699C321.137 213.355 321.941 214.312 322.504 215.57C323.066 216.82 323.348 218.277 323.348 219.941V221.02ZM321.109 219.918C321.109 217.895 320.703 216.344 319.891 215.266C319.078 214.18 317.941 213.637 316.48 213.637C315.059 213.637 313.938 214.18 313.117 215.266C312.305 216.344 311.887 217.844 311.863 219.766V221.02C311.863 222.98 312.273 224.523 313.094 225.648C313.922 226.766 315.059 227.324 316.504 227.324C317.957 227.324 319.082 226.797 319.879 225.742C320.676 224.68 321.086 223.16 321.109 221.184V219.918ZM334.211 227.746C333.367 228.738 332.129 229.234 330.496 229.234C329.145 229.234 328.113 228.844 327.402 228.062C326.699 227.273 326.344 226.109 326.336 224.57V216.32H328.504V224.512C328.504 226.434 329.285 227.395 330.848 227.395C332.504 227.395 333.605 226.777 334.152 225.543V216.32H336.32V229H334.258L334.211 227.746ZM342.566 213.25V216.32H344.934V217.996H342.566V225.859C342.566 226.367 342.672 226.75 342.883 227.008C343.094 227.258 343.453 227.383 343.961 227.383C344.211 227.383 344.555 227.336 344.992 227.242V229C344.422 229.156 343.867 229.234 343.328 229.234C342.359 229.234 341.629 228.941 341.137 228.355C340.645 227.77 340.398 226.938 340.398 225.859V217.996H338.09V216.32H340.398V213.25H342.566Z" fill="white"/>
<path d="M435 200H543V246H435V200Z" fill="#485763"/>
<path d="M435.5 200.5H542.5V245.5H435.5V200.5Z" stroke="white" stroke-opacity="0.37"/>
<path d="M465.445 229H463.184V221.113H454.582V229H452.332V211.938H454.582V219.273H463.184V211.938H465.445V229ZM474.363 229.234C472.645 229.234 471.246 228.672 470.168 227.547C469.09 226.414 468.551 224.902 468.551 223.012V222.613C468.551 221.355 468.789 220.234 469.266 219.25C469.75 218.258 470.422 217.484 471.281 216.93C472.148 216.367 473.086 216.086 474.094 216.086C475.742 216.086 477.023 216.629 477.938 217.715C478.852 218.801 479.309 220.355 479.309 222.379V223.281H470.719C470.75 224.531 471.113 225.543 471.809 226.316C472.512 227.082 473.402 227.465 474.48 227.465C475.246 227.465 475.895 227.309 476.426 226.996C476.957 226.684 477.422 226.27 477.82 225.754L479.145 226.785C478.082 228.418 476.488 229.234 474.363 229.234ZM474.094 217.867C473.219 217.867 472.484 218.188 471.891 218.828C471.297 219.461 470.93 220.352 470.789 221.5H477.141V221.336C477.078 220.234 476.781 219.383 476.25 218.781C475.719 218.172 475 217.867 474.094 217.867ZM489.656 229C489.531 228.75 489.43 228.305 489.352 227.664C488.344 228.711 487.141 229.234 485.742 229.234C484.492 229.234 483.465 228.883 482.66 228.18C481.863 227.469 481.465 226.57 481.465 225.484C481.465 224.164 481.965 223.141 482.965 222.414C483.973 221.68 485.387 221.312 487.207 221.312H489.316V220.316C489.316 219.559 489.09 218.957 488.637 218.512C488.184 218.059 487.516 217.832 486.633 217.832C485.859 217.832 485.211 218.027 484.688 218.418C484.164 218.809 483.902 219.281 483.902 219.836H481.723C481.723 219.203 481.945 218.594 482.391 218.008C482.844 217.414 483.453 216.945 484.219 216.602C484.992 216.258 485.84 216.086 486.762 216.086C488.223 216.086 489.367 216.453 490.195 217.188C491.023 217.914 491.453 218.918 491.484 220.199V226.035C491.484 227.199 491.633 228.125 491.93 228.812V229H489.656ZM486.059 227.348C486.738 227.348 487.383 227.172 487.992 226.82C488.602 226.469 489.043 226.012 489.316 225.449V222.848H487.617C484.961 222.848 483.633 223.625 483.633 225.18C483.633 225.859 483.859 226.391 484.312 226.773C484.766 227.156 485.348 227.348 486.059 227.348ZM494.355 222.555C494.355 220.609 494.816 219.047 495.738 217.867C496.66 216.68 497.867 216.086 499.359 216.086C500.844 216.086 502.02 216.594 502.887 217.609V211H505.055V229H503.062L502.957 227.641C502.09 228.703 500.883 229.234 499.336 229.234C497.867 229.234 496.668 228.633 495.738 227.43C494.816 226.227 494.355 224.656 494.355 222.719V222.555ZM496.523 222.801C496.523 224.238 496.82 225.363 497.414 226.176C498.008 226.988 498.828 227.395 499.875 227.395C501.25 227.395 502.254 226.777 502.887 225.543V219.719C502.238 218.523 501.242 217.926 499.898 217.926C498.836 217.926 498.008 218.336 497.414 219.156C496.82 219.977 496.523 221.191 496.523 222.801ZM513.691 229.234C511.973 229.234 510.574 228.672 509.496 227.547C508.418 226.414 507.879 224.902 507.879 223.012V222.613C507.879 221.355 508.117 220.234 508.594 219.25C509.078 218.258 509.75 217.484 510.609 216.93C511.477 216.367 512.414 216.086 513.422 216.086C515.07 216.086 516.352 216.629 517.266 217.715C518.18 218.801 518.637 220.355 518.637 222.379V223.281H510.047C510.078 224.531 510.441 225.543 511.137 226.316C511.84 227.082 512.73 227.465 513.809 227.465C514.574 227.465 515.223 227.309 515.754 226.996C516.285 226.684 516.75 226.27 517.148 225.754L518.473 226.785C517.41 228.418 515.816 229.234 513.691 229.234ZM513.422 217.867C512.547 217.867 511.812 218.188 511.219 218.828C510.625 219.461 510.258 220.352 510.117 221.5H516.469V221.336C516.406 220.234 516.109 219.383 515.578 218.781C515.047 218.172 514.328 217.867 513.422 217.867ZM527.285 218.266C526.957 218.211 526.602 218.184 526.219 218.184C524.797 218.184 523.832 218.789 523.324 220V229H521.156V216.32H523.266L523.301 217.785C524.012 216.652 525.02 216.086 526.324 216.086C526.746 216.086 527.066 216.141 527.285 216.25V218.266Z" fill="white"/>
<path d="M645 201H753V247H645V201Z" fill="#485763"/>
<path d="M645.5 201.5H752.5V246.5H645.5V201.5Z" stroke="white" stroke-opacity="0.37"/>
<path d="M671.914 224.586C671.703 226.391 671.035 227.785 669.91 228.77C668.793 229.746 667.305 230.234 665.445 230.234C663.43 230.234 661.812 229.512 660.594 228.066C659.383 226.621 658.777 224.688 658.777 222.266V220.625C658.777 219.039 659.059 217.645 659.621 216.441C660.191 215.238 660.996 214.316 662.035 213.676C663.074 213.027 664.277 212.703 665.645 212.703C667.457 212.703 668.91 213.211 670.004 214.227C671.098 215.234 671.734 216.633 671.914 218.422H669.652C669.457 217.062 669.031 216.078 668.375 215.469C667.727 214.859 666.816 214.555 665.645 214.555C664.207 214.555 663.078 215.086 662.258 216.148C661.445 217.211 661.039 218.723 661.039 220.684V222.336C661.039 224.188 661.426 225.66 662.199 226.754C662.973 227.848 664.055 228.395 665.445 228.395C666.695 228.395 667.652 228.113 668.316 227.551C668.988 226.98 669.434 225.992 669.652 224.586H671.914ZM674.082 223.543C674.082 222.301 674.324 221.184 674.809 220.191C675.301 219.199 675.98 218.434 676.848 217.895C677.723 217.355 678.719 217.086 679.836 217.086C681.562 217.086 682.957 217.684 684.02 218.879C685.09 220.074 685.625 221.664 685.625 223.648V223.801C685.625 225.035 685.387 226.145 684.91 227.129C684.441 228.105 683.766 228.867 682.883 229.414C682.008 229.961 681 230.234 679.859 230.234C678.141 230.234 676.746 229.637 675.676 228.441C674.613 227.246 674.082 225.664 674.082 223.695V223.543ZM676.262 223.801C676.262 225.207 676.586 226.336 677.234 227.188C677.891 228.039 678.766 228.465 679.859 228.465C680.961 228.465 681.836 228.035 682.484 227.176C683.133 226.309 683.457 225.098 683.457 223.543C683.457 222.152 683.125 221.027 682.461 220.168C681.805 219.301 680.93 218.867 679.836 218.867C678.766 218.867 677.902 219.293 677.246 220.145C676.59 220.996 676.262 222.215 676.262 223.801ZM690.395 217.32L690.465 218.914C691.434 217.695 692.699 217.086 694.262 217.086C696.941 217.086 698.293 218.598 698.316 221.621V230H696.148V221.609C696.141 220.695 695.93 220.02 695.516 219.582C695.109 219.145 694.473 218.926 693.605 218.926C692.902 218.926 692.285 219.113 691.754 219.488C691.223 219.863 690.809 220.355 690.512 220.965V230H688.344V217.32H690.395ZM704.527 214.25V217.32H706.895V218.996H704.527V226.859C704.527 227.367 704.633 227.75 704.844 228.008C705.055 228.258 705.414 228.383 705.922 228.383C706.172 228.383 706.516 228.336 706.953 228.242V230C706.383 230.156 705.828 230.234 705.289 230.234C704.32 230.234 703.59 229.941 703.098 229.355C702.605 228.77 702.359 227.938 702.359 226.859V218.996H700.051V217.32H702.359V214.25H704.527ZM714.699 230.234C712.98 230.234 711.582 229.672 710.504 228.547C709.426 227.414 708.887 225.902 708.887 224.012V223.613C708.887 222.355 709.125 221.234 709.602 220.25C710.086 219.258 710.758 218.484 711.617 217.93C712.484 217.367 713.422 217.086 714.43 217.086C716.078 217.086 717.359 217.629 718.273 218.715C719.188 219.801 719.645 221.355 719.645 223.379V224.281H711.055C711.086 225.531 711.449 226.543 712.145 227.316C712.848 228.082 713.738 228.465 714.816 228.465C715.582 228.465 716.23 228.309 716.762 227.996C717.293 227.684 717.758 227.27 718.156 226.754L719.48 227.785C718.418 229.418 716.824 230.234 714.699 230.234ZM714.43 218.867C713.555 218.867 712.82 219.188 712.227 219.828C711.633 220.461 711.266 221.352 711.125 222.5H717.477V222.336C717.414 221.234 717.117 220.383 716.586 219.781C716.055 219.172 715.336 218.867 714.43 218.867ZM724.215 217.32L724.285 218.914C725.254 217.695 726.52 217.086 728.082 217.086C730.762 217.086 732.113 218.598 732.137 221.621V230H729.969V221.609C729.961 220.695 729.75 220.02 729.336 219.582C728.93 219.145 728.293 218.926 727.426 218.926C726.723 218.926 726.105 219.113 725.574 219.488C725.043 219.863 724.629 220.355 724.332 220.965V230H722.164V217.32H724.215ZM738.348 214.25V217.32H740.715V218.996H738.348V226.859C738.348 227.367 738.453 227.75 738.664 228.008C738.875 228.258 739.234 228.383 739.742 228.383C739.992 228.383 740.336 228.336 740.773 228.242V230C740.203 230.156 739.648 230.234 739.109 230.234C738.141 230.234 737.41 229.941 736.918 229.355C736.426 228.77 736.18 227.938 736.18 226.859V218.996H733.871V217.32H736.18V214.25H738.348Z" fill="white"/>
<path d="M593 280H701V326H593V280Z" fill="#485763"/>
<path d="M593.5 280.5H700.5V325.5H593.5V280.5Z" stroke="white" stroke-opacity="0.37"/>
<path d="M632.254 307.16H640.34V309H629.992V291.938H632.254V307.16ZM644.922 309H642.754V296.32H644.922V309ZM642.578 292.957C642.578 292.605 642.684 292.309 642.895 292.066C643.113 291.824 643.434 291.703 643.855 291.703C644.277 291.703 644.598 291.824 644.816 292.066C645.035 292.309 645.145 292.605 645.145 292.957C645.145 293.309 645.035 293.602 644.816 293.836C644.598 294.07 644.277 294.188 643.855 294.188C643.434 294.188 643.113 294.07 642.895 293.836C642.684 293.602 642.578 293.309 642.578 292.957ZM655.785 305.637C655.785 305.051 655.562 304.598 655.117 304.277C654.68 303.949 653.91 303.668 652.809 303.434C651.715 303.199 650.844 302.918 650.195 302.59C649.555 302.262 649.078 301.871 648.766 301.418C648.461 300.965 648.309 300.426 648.309 299.801C648.309 298.762 648.746 297.883 649.621 297.164C650.504 296.445 651.629 296.086 652.996 296.086C654.434 296.086 655.598 296.457 656.488 297.199C657.387 297.941 657.836 298.891 657.836 300.047H655.656C655.656 299.453 655.402 298.941 654.895 298.512C654.395 298.082 653.762 297.867 652.996 297.867C652.207 297.867 651.59 298.039 651.145 298.383C650.699 298.727 650.477 299.176 650.477 299.73C650.477 300.254 650.684 300.648 651.098 300.914C651.512 301.18 652.258 301.434 653.336 301.676C654.422 301.918 655.301 302.207 655.973 302.543C656.645 302.879 657.141 303.285 657.461 303.762C657.789 304.23 657.953 304.805 657.953 305.484C657.953 306.617 657.5 307.527 656.594 308.215C655.688 308.895 654.512 309.234 653.066 309.234C652.051 309.234 651.152 309.055 650.371 308.695C649.59 308.336 648.977 307.836 648.531 307.195C648.094 306.547 647.875 305.848 647.875 305.098H650.043C650.082 305.824 650.371 306.402 650.91 306.832C651.457 307.254 652.176 307.465 653.066 307.465C653.887 307.465 654.543 307.301 655.035 306.973C655.535 306.637 655.785 306.191 655.785 305.637ZM663.719 293.25V296.32H666.086V297.996H663.719V305.859C663.719 306.367 663.824 306.75 664.035 307.008C664.246 307.258 664.605 307.383 665.113 307.383C665.363 307.383 665.707 307.336 666.145 307.242V309C665.574 309.156 665.02 309.234 664.48 309.234C663.512 309.234 662.781 308.941 662.289 308.355C661.797 307.77 661.551 306.938 661.551 305.859V297.996H659.242V296.32H661.551V293.25H663.719Z" fill="white"/>
<path d="M730 280H838V326H730V280Z" fill="#485763"/>
<path d="M730.5 280.5H837.5V325.5H730.5V280.5Z" stroke="white" stroke-opacity="0.37"/>
<path d="M750.445 304.547H743.297L741.691 309H739.371L745.887 291.938H747.855L754.383 309H752.074L750.445 304.547ZM743.977 302.695H749.777L746.871 294.715L743.977 302.695ZM755.812 302.555C755.812 300.609 756.273 299.047 757.195 297.867C758.117 296.68 759.324 296.086 760.816 296.086C762.301 296.086 763.477 296.594 764.344 297.609V291H766.512V309H764.52L764.414 307.641C763.547 308.703 762.34 309.234 760.793 309.234C759.324 309.234 758.125 308.633 757.195 307.43C756.273 306.227 755.812 304.656 755.812 302.719V302.555ZM757.98 302.801C757.98 304.238 758.277 305.363 758.871 306.176C759.465 306.988 760.285 307.395 761.332 307.395C762.707 307.395 763.711 306.777 764.344 305.543V299.719C763.695 298.523 762.699 297.926 761.355 297.926C760.293 297.926 759.465 298.336 758.871 299.156C758.277 299.977 757.98 301.191 757.98 302.801ZM769.359 302.555C769.359 300.609 769.82 299.047 770.742 297.867C771.664 296.68 772.871 296.086 774.363 296.086C775.848 296.086 777.023 296.594 777.891 297.609V291H780.059V309H778.066L777.961 307.641C777.094 308.703 775.887 309.234 774.34 309.234C772.871 309.234 771.672 308.633 770.742 307.43C769.82 306.227 769.359 304.656 769.359 302.719V302.555ZM771.527 302.801C771.527 304.238 771.824 305.363 772.418 306.176C773.012 306.988 773.832 307.395 774.879 307.395C776.254 307.395 777.258 306.777 777.891 305.543V299.719C777.242 298.523 776.246 297.926 774.902 297.926C773.84 297.926 773.012 298.336 772.418 299.156C771.824 299.977 771.527 301.191 771.527 302.801ZM786.188 309H783.938V291.938H786.188V309ZM792.914 293.25V296.32H795.281V297.996H792.914V305.859C792.914 306.367 793.02 306.75 793.23 307.008C793.441 307.258 793.801 307.383 794.309 307.383C794.559 307.383 794.902 307.336 795.34 307.242V309C794.77 309.156 794.215 309.234 793.676 309.234C792.707 309.234 791.977 308.941 791.484 308.355C790.992 307.77 790.746 306.938 790.746 305.859V297.996H788.438V296.32H790.746V293.25H792.914ZM803.086 309.234C801.367 309.234 799.969 308.672 798.891 307.547C797.812 306.414 797.273 304.902 797.273 303.012V302.613C797.273 301.355 797.512 300.234 797.988 299.25C798.473 298.258 799.145 297.484 800.004 296.93C800.871 296.367 801.809 296.086 802.816 296.086C804.465 296.086 805.746 296.629 806.66 297.715C807.574 298.801 808.031 300.355 808.031 302.379V303.281H799.441C799.473 304.531 799.836 305.543 800.531 306.316C801.234 307.082 802.125 307.465 803.203 307.465C803.969 307.465 804.617 307.309 805.148 306.996C805.68 306.684 806.145 306.27 806.543 305.754L807.867 306.785C806.805 308.418 805.211 309.234 803.086 309.234ZM802.816 297.867C801.941 297.867 801.207 298.188 800.613 298.828C800.02 299.461 799.652 300.352 799.512 301.5H805.863V301.336C805.801 300.234 805.504 299.383 804.973 298.781C804.441 298.172 803.723 297.867 802.816 297.867ZM812.59 296.32L812.648 297.727C813.578 296.633 814.832 296.086 816.41 296.086C818.184 296.086 819.391 296.766 820.031 298.125C820.453 297.516 821 297.023 821.672 296.648C822.352 296.273 823.152 296.086 824.074 296.086C826.855 296.086 828.27 297.559 828.316 300.504V309H826.148V300.633C826.148 299.727 825.941 299.051 825.527 298.605C825.113 298.152 824.418 297.926 823.441 297.926C822.637 297.926 821.969 298.168 821.438 298.652C820.906 299.129 820.598 299.773 820.512 300.586V309H818.332V300.691C818.332 298.848 817.43 297.926 815.625 297.926C814.203 297.926 813.23 298.531 812.707 299.742V309H810.539V296.32H812.59Z" fill="white"/>
<path d="M436 201H542V245H436V201Z" stroke="#FCC438" stroke-width="2"/>
<path d="M594 281H700V325H594V281Z" stroke="#FCC438" stroke-width="2"/>
<path d="M43 201H149V245H43V201Z" stroke="#FCC438" stroke-width="2"/>
<path d="M851.582 172.25V175.32H853.949V176.996H851.582V184.859C851.582 185.367 851.688 185.75 851.898 186.008C852.109 186.258 852.469 186.383 852.977 186.383C853.227 186.383 853.57 186.336 854.008 186.242V188C853.438 188.156 852.883 188.234 852.344 188.234C851.375 188.234 850.645 187.941 850.152 187.355C849.66 186.77 849.414 185.938 849.414 184.859V176.996H847.105V175.32H849.414V172.25H851.582ZM858.66 176.855C859.621 175.676 860.871 175.086 862.41 175.086C865.09 175.086 866.441 176.598 866.465 179.621V188H864.297V179.609C864.289 178.695 864.078 178.02 863.664 177.582C863.258 177.145 862.621 176.926 861.754 176.926C861.051 176.926 860.434 177.113 859.902 177.488C859.371 177.863 858.957 178.355 858.66 178.965V188H856.492V170H858.66V176.855ZM874.973 188.234C873.254 188.234 871.855 187.672 870.777 186.547C869.699 185.414 869.16 183.902 869.16 182.012V181.613C869.16 180.355 869.398 179.234 869.875 178.25C870.359 177.258 871.031 176.484 871.891 175.93C872.758 175.367 873.695 175.086 874.703 175.086C876.352 175.086 877.633 175.629 878.547 176.715C879.461 177.801 879.918 179.355 879.918 181.379V182.281H871.328C871.359 183.531 871.723 184.543 872.418 185.316C873.121 186.082 874.012 186.465 875.09 186.465C875.855 186.465 876.504 186.309 877.035 185.996C877.566 185.684 878.031 185.27 878.43 184.754L879.754 185.785C878.691 187.418 877.098 188.234 874.973 188.234ZM874.703 176.867C873.828 176.867 873.094 177.188 872.5 177.828C871.906 178.461 871.539 179.352 871.398 180.5H877.75V180.336C877.688 179.234 877.391 178.383 876.859 177.781C876.328 177.172 875.609 176.867 874.703 176.867ZM884.477 175.32L884.535 176.727C885.465 175.633 886.719 175.086 888.297 175.086C890.07 175.086 891.277 175.766 891.918 177.125C892.34 176.516 892.887 176.023 893.559 175.648C894.238 175.273 895.039 175.086 895.961 175.086C898.742 175.086 900.156 176.559 900.203 179.504V188H898.035V179.633C898.035 178.727 897.828 178.051 897.414 177.605C897 177.152 896.305 176.926 895.328 176.926C894.523 176.926 893.855 177.168 893.324 177.652C892.793 178.129 892.484 178.773 892.398 179.586V188H890.219V179.691C890.219 177.848 889.316 176.926 887.512 176.926C886.09 176.926 885.117 177.531 884.594 178.742V188H882.426V175.32H884.477ZM908.746 188.234C907.027 188.234 905.629 187.672 904.551 186.547C903.473 185.414 902.934 183.902 902.934 182.012V181.613C902.934 180.355 903.172 179.234 903.648 178.25C904.133 177.258 904.805 176.484 905.664 175.93C906.531 175.367 907.469 175.086 908.477 175.086C910.125 175.086 911.406 175.629 912.32 176.715C913.234 177.801 913.691 179.355 913.691 181.379V182.281H905.102C905.133 183.531 905.496 184.543 906.191 185.316C906.895 186.082 907.785 186.465 908.863 186.465C909.629 186.465 910.277 186.309 910.809 185.996C911.34 185.684 911.805 185.27 912.203 184.754L913.527 185.785C912.465 187.418 910.871 188.234 908.746 188.234ZM908.477 176.867C907.602 176.867 906.867 177.188 906.273 177.828C905.68 178.461 905.312 179.352 905.172 180.5H911.523V180.336C911.461 179.234 911.164 178.383 910.633 177.781C910.102 177.172 909.383 176.867 908.477 176.867ZM916.258 186.863C916.258 186.488 916.367 186.176 916.586 185.926C916.812 185.676 917.148 185.551 917.594 185.551C918.039 185.551 918.375 185.676 918.602 185.926C918.836 186.176 918.953 186.488 918.953 186.863C918.953 187.223 918.836 187.523 918.602 187.766C918.375 188.008 918.039 188.129 917.594 188.129C917.148 188.129 916.812 188.008 916.586 187.766C916.367 187.523 916.258 187.223 916.258 186.863ZM924.777 175.32V189.465C924.777 191.902 923.672 193.121 921.461 193.121C920.984 193.121 920.543 193.051 920.137 192.91V191.176C920.387 191.238 920.715 191.27 921.121 191.27C921.605 191.27 921.973 191.137 922.223 190.871C922.48 190.613 922.609 190.16 922.609 189.512V175.32H924.777ZM922.387 171.957C922.387 171.613 922.492 171.32 922.703 171.078C922.922 170.828 923.238 170.703 923.652 170.703C924.074 170.703 924.395 170.824 924.613 171.066C924.832 171.309 924.941 171.605 924.941 171.957C924.941 172.309 924.832 172.602 924.613 172.836C924.395 173.07 924.074 173.188 923.652 173.188C923.23 173.188 922.914 173.07 922.703 172.836C922.492 172.602 922.387 172.309 922.387 171.957ZM935.664 184.637C935.664 184.051 935.441 183.598 934.996 183.277C934.559 182.949 933.789 182.668 932.688 182.434C931.594 182.199 930.723 181.918 930.074 181.59C929.434 181.262 928.957 180.871 928.645 180.418C928.34 179.965 928.188 179.426 928.188 178.801C928.188 177.762 928.625 176.883 929.5 176.164C930.383 175.445 931.508 175.086 932.875 175.086C934.312 175.086 935.477 175.457 936.367 176.199C937.266 176.941 937.715 177.891 937.715 179.047H935.535C935.535 178.453 935.281 177.941 934.773 177.512C934.273 177.082 933.641 176.867 932.875 176.867C932.086 176.867 931.469 177.039 931.023 177.383C930.578 177.727 930.355 178.176 930.355 178.73C930.355 179.254 930.562 179.648 930.977 179.914C931.391 180.18 932.137 180.434 933.215 180.676C934.301 180.918 935.18 181.207 935.852 181.543C936.523 181.879 937.02 182.285 937.34 182.762C937.668 183.23 937.832 183.805 937.832 184.484C937.832 185.617 937.379 186.527 936.473 187.215C935.566 187.895 934.391 188.234 932.945 188.234C931.93 188.234 931.031 188.055 930.25 187.695C929.469 187.336 928.855 186.836 928.41 186.195C927.973 185.547 927.754 184.848 927.754 184.098H929.922C929.961 184.824 930.25 185.402 930.789 185.832C931.336 186.254 932.055 186.465 932.945 186.465C933.766 186.465 934.422 186.301 934.914 185.973C935.414 185.637 935.664 185.191 935.664 184.637Z" fill="#FCC438"/>
<path d="M478.998 192L477.998 192L478.998 192ZM488.998 182L488.998 183L488.998 182ZM841.207 182.707C841.598 182.317 841.598 181.683 841.207 181.293L834.843 174.929C834.453 174.538 833.819 174.538 833.429 174.929C833.038 175.32 833.038 175.953 833.429 176.343L839.086 182L833.429 187.657C833.038 188.047 833.038 188.681 833.429 189.071C833.819 189.462 834.453 189.462 834.843 189.071L841.207 182.707ZM479.998 194.911L479.998 192L477.998 192L477.998 194.911L479.998 194.911ZM488.998 183L840.5 183L840.5 181L488.998 181L488.998 183ZM479.998 192C479.998 187.03 484.027 183 488.998 183L488.998 181C482.923 181 477.998 185.925 477.998 192L479.998 192Z" fill="#FCC438"/>
<path d="M81.0109 192L80.0109 192L81.0109 192ZM91.0109 182L91.0109 181L91.0109 182ZM841.207 182.707C841.598 182.317 841.598 181.683 841.207 181.293L834.843 174.929C834.453 174.538 833.819 174.538 833.429 174.929C833.038 175.319 833.038 175.953 833.429 176.343L839.086 182L833.429 187.657C833.038 188.047 833.038 188.68 833.429 189.071C833.819 189.462 834.453 189.462 834.843 189.071L841.207 182.707ZM82.0109 194.77L82.0109 192L80.0109 192L80.0109 194.77L82.0109 194.77ZM91.0109 183L840.5 183L840.5 181L91.0109 181L91.0109 183ZM82.0109 192C82.0108 187.029 86.0403 183 91.0109 183L91.0109 181C84.9357 181 80.0108 185.925 80.0109 192L82.0109 192Z" fill="#FCC438"/>
<path d="M612 192L613 192V192L612 192ZM622 182L622 181H622L622 182ZM841.207 182.707C841.598 182.317 841.598 181.683 841.207 181.293L834.843 174.929C834.453 174.538 833.819 174.538 833.429 174.929C833.038 175.319 833.038 175.953 833.429 176.343L839.086 182L833.429 187.657C833.038 188.047 833.038 188.681 833.429 189.071C833.819 189.462 834.453 189.462 834.843 189.071L841.207 182.707ZM613 273L613 192L611 192L611 273L613 273ZM622 183L840.5 183L840.5 181L622 181L622 183ZM613 192C613 187.029 617.029 183 622 183L622 181C615.925 181 611 185.925 611 192L613 192Z" fill="#FCC438"/>
</g>
<defs>
<clipPath id="clip0">
<rect width="958" height="365" fill="white"/>
</clipPath>
</defs>
</svg>
