<svg width="277" height="148" viewBox="0 0 277 148" fill="none" xmlns="http://www.w3.org/2000/svg">
<path d="M0 0H164V148H0V0Z" fill="white" fill-opacity="0.29"/>
<path d="M0.5 0.5H163.5V147.5H0.5V0.5Z" stroke="white" stroke-opacity="0.24"/>
<path d="M8 92H155V141H8V92Z" fill="white" fill-opacity="0.28"/>
<path d="M8.5 92.5H154.5V140.5H8.5V92.5Z" stroke="white" stroke-opacity="0.37"/>
<path d="M11.984 104V98.168H12.968V104H11.984ZM12.488 96.968C12.296 96.968 12.132 96.908 11.996 96.788C11.868 96.668 11.804 96.516 11.804 96.332C11.804 96.14 11.868 95.988 11.996 95.876C12.132 95.756 12.296 95.696 12.488 95.696C12.68 95.696 12.84 95.756 12.968 95.876C13.104 95.988 13.172 96.14 13.172 96.332C13.172 96.516 13.104 96.668 12.968 96.788C12.84 96.908 12.68 96.968 12.488 96.968ZM14.9371 104V98.168H15.7531L15.8371 99.008H15.8731C16.1531 98.728 16.4451 98.496 16.7491 98.312C17.0611 98.12 17.4211 98.024 17.8291 98.024C18.4451 98.024 18.8931 98.216 19.1731 98.6C19.4611 98.984 19.6051 99.552 19.6051 100.304V104H18.6211V100.436C18.6211 99.884 18.5331 99.488 18.3571 99.248C18.1811 99 17.9011 98.876 17.5171 98.876C17.2131 98.876 16.9451 98.952 16.7131 99.104C16.4811 99.256 16.2171 99.48 15.9211 99.776V104H14.9371ZM21.4996 106.46V98.168H22.3156L22.3996 98.84H22.4356C22.6996 98.616 22.9876 98.424 23.2996 98.264C23.6196 98.104 23.9516 98.024 24.2956 98.024C24.6716 98.024 25.0036 98.096 25.2916 98.24C25.5796 98.376 25.8196 98.576 26.0116 98.84C26.2036 99.096 26.3476 99.408 26.4436 99.776C26.5476 100.136 26.5996 100.544 26.5996 101C26.5996 101.496 26.5316 101.94 26.3956 102.332C26.2596 102.716 26.0756 103.044 25.8436 103.316C25.6116 103.588 25.3436 103.796 25.0396 103.94C24.7356 104.076 24.4156 104.144 24.0796 104.144C23.8076 104.144 23.5356 104.084 23.2636 103.964C22.9996 103.844 22.7316 103.68 22.4596 103.472L22.4836 104.492V106.46H21.4996ZM23.9116 103.316C24.1516 103.316 24.3716 103.264 24.5716 103.16C24.7796 103.048 24.9556 102.896 25.0996 102.704C25.2516 102.504 25.3676 102.26 25.4476 101.972C25.5356 101.684 25.5796 101.36 25.5796 101C25.5796 100.68 25.5516 100.388 25.4956 100.124C25.4396 99.86 25.3476 99.636 25.2196 99.452C25.0996 99.26 24.9396 99.112 24.7396 99.008C24.5476 98.904 24.3156 98.852 24.0436 98.852C23.7956 98.852 23.5436 98.92 23.2876 99.056C23.0396 99.192 22.7716 99.388 22.4836 99.644V102.704C22.7476 102.928 23.0036 103.088 23.2516 103.184C23.4996 103.272 23.7196 103.316 23.9116 103.316ZM29.8599 104.144C29.2359 104.144 28.7799 103.952 28.4919 103.568C28.2119 103.184 28.0719 102.616 28.0719 101.864V98.168H29.0679V101.732C29.0679 102.284 29.1519 102.684 29.3199 102.932C29.4959 103.172 29.7759 103.292 30.1599 103.292C30.4639 103.292 30.7319 103.216 30.9639 103.064C31.1959 102.904 31.4519 102.652 31.7319 102.308V98.168H32.7159V104H31.8999L31.8159 103.088H31.7799C31.5079 103.408 31.2199 103.664 30.9159 103.856C30.6199 104.048 30.2679 104.144 29.8599 104.144ZM36.5192 104.144C36.2072 104.144 35.9432 104.096 35.7272 104C35.5192 103.904 35.3472 103.772 35.2112 103.604C35.0832 103.436 34.9912 103.232 34.9352 102.992C34.8792 102.752 34.8512 102.488 34.8512 102.2V98.972H33.9872V98.228L34.8992 98.168L35.0192 96.536H35.8472V98.168H37.4192V98.972H35.8472V102.212C35.8472 102.572 35.9112 102.852 36.0392 103.052C36.1752 103.244 36.4112 103.34 36.7472 103.34C36.8512 103.34 36.9632 103.324 37.0832 103.292C37.2032 103.26 37.3112 103.224 37.4072 103.184L37.5992 103.928C37.4392 103.984 37.2632 104.032 37.0712 104.072C36.8872 104.12 36.7032 104.144 36.5192 104.144Z" fill="white"/>
<path d="M15.612 125.168H16.608L17.952 128.48C18.072 128.776 18.184 129.068 18.288 129.356C18.4 129.636 18.508 129.916 18.612 130.196H18.66C18.764 129.916 18.864 129.636 18.96 129.356C19.064 129.068 19.176 128.776 19.296 128.48L20.64 125.168H21.588L19.176 131H18.072L15.612 125.168ZM23.1673 129.488C23.1673 129.16 23.2433 128.876 23.3953 128.636C23.5553 128.388 23.8033 128.176 24.1393 128C24.4833 127.824 24.9233 127.68 25.4593 127.568C25.9953 127.456 26.6393 127.368 27.3913 127.304C27.3833 127.104 27.3513 126.916 27.2953 126.74C27.2393 126.564 27.1513 126.412 27.0313 126.284C26.9113 126.148 26.7513 126.04 26.5513 125.96C26.3593 125.88 26.1233 125.84 25.8433 125.84C25.4593 125.84 25.0913 125.916 24.7393 126.068C24.3873 126.212 24.0753 126.368 23.8033 126.536L23.4193 125.864C23.5633 125.768 23.7313 125.672 23.9233 125.576C24.1233 125.472 24.3313 125.38 24.5473 125.3C24.7713 125.22 25.0073 125.156 25.2553 125.108C25.5033 125.052 25.7553 125.024 26.0113 125.024C26.8113 125.024 27.4033 125.244 27.7873 125.684C28.1793 126.116 28.3753 126.696 28.3753 127.424V131H27.5713L27.4873 130.208H27.4513C27.1233 130.464 26.7593 130.684 26.3593 130.868C25.9673 131.052 25.5633 131.144 25.1473 131.144C24.8753 131.144 24.6193 131.104 24.3793 131.024C24.1393 130.952 23.9273 130.848 23.7433 130.712C23.5673 130.568 23.4273 130.396 23.3233 130.196C23.2193 129.988 23.1673 129.752 23.1673 129.488ZM24.1273 129.416C24.1273 129.584 24.1633 129.728 24.2353 129.848C24.3073 129.96 24.3993 130.056 24.5113 130.136C24.6313 130.208 24.7673 130.264 24.9193 130.304C25.0793 130.336 25.2433 130.352 25.4113 130.352C25.7473 130.352 26.0753 130.28 26.3953 130.136C26.7233 129.984 27.0553 129.768 27.3913 129.488V127.952C26.7673 128 26.2433 128.068 25.8193 128.156C25.4033 128.244 25.0673 128.352 24.8113 128.48C24.5633 128.6 24.3873 128.74 24.2833 128.9C24.1793 129.052 24.1273 129.224 24.1273 129.416ZM30.3626 122.456H33.3386V129.116C33.3386 129.548 33.4386 129.86 33.6386 130.052C33.8466 130.236 34.1266 130.328 34.4786 130.328C34.7986 130.328 35.1666 130.236 35.5826 130.052L35.8346 130.796C35.5706 130.892 35.3226 130.972 35.0906 131.036C34.8586 131.108 34.5826 131.144 34.2626 131.144C33.6386 131.144 33.1626 130.968 32.8346 130.616C32.5146 130.264 32.3546 129.74 32.3546 129.044V123.26H30.3626V122.456ZM42.6459 131H41.8419L41.7579 129.98H41.7099C41.4139 130.324 41.0899 130.604 40.7379 130.82C40.3939 131.036 39.9939 131.144 39.5379 131.144C38.8339 131.144 38.3179 130.948 37.9899 130.556C37.6699 130.156 37.5099 129.568 37.5099 128.792V125.168H38.5059V128.66C38.5059 129.212 38.6059 129.624 38.8059 129.896C39.0139 130.16 39.3619 130.292 39.8499 130.292C40.1859 130.292 40.4899 130.208 40.7619 130.04C41.0339 129.864 41.3339 129.588 41.6619 129.212V125.168H42.6459V131ZM44.6093 128.096C44.6093 127.616 44.6933 127.188 44.8613 126.812C45.0293 126.428 45.2493 126.104 45.5213 125.84C45.8013 125.576 46.1173 125.376 46.4693 125.24C46.8293 125.096 47.1973 125.024 47.5733 125.024C47.9893 125.024 48.3613 125.092 48.6893 125.228C49.0173 125.356 49.2933 125.54 49.5173 125.78C49.7493 126.02 49.9253 126.308 50.0453 126.644C50.1653 126.98 50.2253 127.352 50.2253 127.76C50.2253 127.864 50.2213 127.968 50.2133 128.072C50.2133 128.168 50.2053 128.252 50.1893 128.324H45.6293C45.6373 128.636 45.6973 128.916 45.8093 129.164C45.9293 129.412 46.0853 129.624 46.2773 129.8C46.4773 129.976 46.7093 130.112 46.9733 130.208C47.2453 130.304 47.5413 130.352 47.8613 130.352C48.2053 130.352 48.5173 130.304 48.7973 130.208C49.0853 130.112 49.3653 129.98 49.6373 129.812L49.9853 130.46C49.6973 130.644 49.3693 130.804 49.0013 130.94C48.6333 131.076 48.2133 131.144 47.7413 131.144C47.3093 131.144 46.9013 131.076 46.5173 130.94C46.1413 130.796 45.8093 130.596 45.5213 130.34C45.2413 130.076 45.0173 129.756 44.8493 129.38C44.6893 129.004 44.6093 128.576 44.6093 128.096ZM49.3133 127.616C49.3133 127.032 49.1613 126.584 48.8573 126.272C48.5533 125.96 48.1293 125.804 47.5853 125.804C47.3453 125.804 47.1133 125.844 46.8893 125.924C46.6733 126.004 46.4773 126.124 46.3013 126.284C46.1253 126.436 45.9773 126.624 45.8573 126.848C45.7373 127.072 45.6573 127.328 45.6173 127.616H49.3133ZM59.1919 125.384H64.3519V126.128H59.1919V125.384ZM59.1919 127.94H64.3519V128.684H59.1919V127.94ZM73.9065 129.584C74.2345 129.824 74.5865 130.016 74.9625 130.16C75.3385 130.304 75.7905 130.376 76.3185 130.376C76.8465 130.376 77.2385 130.288 77.4945 130.112C77.7505 129.936 77.8785 129.72 77.8785 129.464C77.8785 129.24 77.7385 129.04 77.4585 128.864C77.1865 128.688 76.6945 128.512 75.9825 128.336C75.6785 128.264 75.3905 128.176 75.1185 128.072C74.8545 127.968 74.6225 127.848 74.4225 127.712C74.2225 127.568 74.0625 127.412 73.9425 127.244C73.8225 127.076 73.7625 126.888 73.7625 126.68C73.7625 126.448 73.8145 126.232 73.9185 126.032C74.0225 125.824 74.1745 125.648 74.3745 125.504C74.5825 125.352 74.8385 125.236 75.1425 125.156C75.4545 125.068 75.8105 125.024 76.2105 125.024C76.6505 125.024 77.0785 125.1 77.4945 125.252C77.9105 125.396 78.2625 125.568 78.5505 125.768L78.0705 126.404C77.8145 126.22 77.5305 126.072 77.2185 125.96C76.9065 125.848 76.5705 125.792 76.2105 125.792C75.9385 125.792 75.7105 125.816 75.5265 125.864C75.3425 125.904 75.1945 125.964 75.0825 126.044C74.9705 126.116 74.8905 126.204 74.8425 126.308C74.7945 126.412 74.7705 126.52 74.7705 126.632C74.7705 126.872 74.9345 127.072 75.2625 127.232C75.5905 127.384 76.0185 127.528 76.5465 127.664C77.3385 127.864 77.9225 128.092 78.2985 128.348C78.6825 128.604 78.8745 128.956 78.8745 129.404C78.8745 129.644 78.8185 129.868 78.7065 130.076C78.5945 130.284 78.4265 130.468 78.2025 130.628C77.9865 130.788 77.7145 130.912 77.3865 131C77.0665 131.096 76.6985 131.144 76.2825 131.144C75.7065 131.144 75.1745 131.056 74.6865 130.88C74.2065 130.696 73.7865 130.48 73.4265 130.232L73.9065 129.584ZM82.2298 125.972H80.5858V125.228L82.2658 125.168L82.3978 123.536H83.2138V125.168H86.0818V125.972H83.2138V128.744C83.2138 129.008 83.2378 129.24 83.2858 129.44C83.3338 129.632 83.4138 129.796 83.5258 129.932C83.6378 130.068 83.7898 130.172 83.9818 130.244C84.1738 130.308 84.4098 130.34 84.6898 130.34C84.9698 130.34 85.2218 130.316 85.4458 130.268C85.6698 130.22 85.8858 130.156 86.0938 130.076L86.3098 130.796C86.0458 130.892 85.7538 130.972 85.4338 131.036C85.1138 131.108 84.7938 131.144 84.4738 131.144C84.0498 131.144 83.6938 131.088 83.4058 130.976C83.1178 130.856 82.8858 130.692 82.7098 130.484C82.5418 130.268 82.4178 130.012 82.3378 129.716C82.2658 129.42 82.2298 129.092 82.2298 128.732V125.972ZM87.9251 129.488C87.9251 129.16 88.0011 128.876 88.1531 128.636C88.3131 128.388 88.5611 128.176 88.8971 128C89.2411 127.824 89.6811 127.68 90.2171 127.568C90.7531 127.456 91.3971 127.368 92.1491 127.304C92.1411 127.104 92.1091 126.916 92.0531 126.74C91.9971 126.564 91.9091 126.412 91.7891 126.284C91.6691 126.148 91.5091 126.04 91.3091 125.96C91.1171 125.88 90.8811 125.84 90.6011 125.84C90.2171 125.84 89.8491 125.916 89.4971 126.068C89.1451 126.212 88.8331 126.368 88.5611 126.536L88.1771 125.864C88.3211 125.768 88.4891 125.672 88.6811 125.576C88.8811 125.472 89.0891 125.38 89.3051 125.3C89.5291 125.22 89.7651 125.156 90.0131 125.108C90.2611 125.052 90.5131 125.024 90.7691 125.024C91.5691 125.024 92.1611 125.244 92.5451 125.684C92.9371 126.116 93.1331 126.696 93.1331 127.424V131H92.3291L92.2451 130.208H92.2091C91.8811 130.464 91.5171 130.684 91.1171 130.868C90.7251 131.052 90.3211 131.144 89.9051 131.144C89.6331 131.144 89.3771 131.104 89.1371 131.024C88.8971 130.952 88.6851 130.848 88.5011 130.712C88.3251 130.568 88.1851 130.396 88.0811 130.196C87.9771 129.988 87.9251 129.752 87.9251 129.488ZM88.8851 129.416C88.8851 129.584 88.9211 129.728 88.9931 129.848C89.0651 129.96 89.1571 130.056 89.2691 130.136C89.3891 130.208 89.5251 130.264 89.6771 130.304C89.8371 130.336 90.0011 130.352 90.1691 130.352C90.5051 130.352 90.8331 130.28 91.1531 130.136C91.4811 129.984 91.8131 129.768 92.1491 129.488V127.952C91.5251 128 91.0011 128.068 90.5771 128.156C90.1611 128.244 89.8251 128.352 89.5691 128.48C89.3211 128.6 89.1451 128.74 89.0411 128.9C88.9371 129.052 88.8851 129.224 88.8851 129.416ZM96.6204 125.972H94.9764V125.228L96.6564 125.168L96.7884 123.536H97.6044V125.168H100.472V125.972H97.6044V128.744C97.6044 129.008 97.6284 129.24 97.6764 129.44C97.7244 129.632 97.8044 129.796 97.9164 129.932C98.0284 130.068 98.1804 130.172 98.3724 130.244C98.5644 130.308 98.8004 130.34 99.0804 130.34C99.3604 130.34 99.6124 130.316 99.8364 130.268C100.06 130.22 100.276 130.156 100.484 130.076L100.7 130.796C100.436 130.892 100.144 130.972 99.8244 131.036C99.5044 131.108 99.1844 131.144 98.8644 131.144C98.4404 131.144 98.0844 131.088 97.7964 130.976C97.5084 130.856 97.2764 130.692 97.1004 130.484C96.9324 130.268 96.8084 130.012 96.7284 129.716C96.6564 129.42 96.6204 129.092 96.6204 128.732V125.972ZM102.172 128.096C102.172 127.616 102.256 127.188 102.424 126.812C102.592 126.428 102.812 126.104 103.084 125.84C103.364 125.576 103.68 125.376 104.032 125.24C104.392 125.096 104.76 125.024 105.136 125.024C105.552 125.024 105.924 125.092 106.252 125.228C106.58 125.356 106.856 125.54 107.08 125.78C107.312 126.02 107.488 126.308 107.608 126.644C107.728 126.98 107.788 127.352 107.788 127.76C107.788 127.864 107.784 127.968 107.776 128.072C107.776 128.168 107.768 128.252 107.752 128.324H103.192C103.2 128.636 103.26 128.916 103.372 129.164C103.492 129.412 103.648 129.624 103.84 129.8C104.04 129.976 104.272 130.112 104.536 130.208C104.808 130.304 105.104 130.352 105.424 130.352C105.768 130.352 106.08 130.304 106.36 130.208C106.648 130.112 106.928 129.98 107.2 129.812L107.548 130.46C107.26 130.644 106.932 130.804 106.564 130.94C106.196 131.076 105.776 131.144 105.304 131.144C104.872 131.144 104.464 131.076 104.08 130.94C103.704 130.796 103.372 130.596 103.084 130.34C102.804 130.076 102.58 129.756 102.412 129.38C102.252 129.004 102.172 128.576 102.172 128.096ZM106.876 127.616C106.876 127.032 106.724 126.584 106.42 126.272C106.116 125.96 105.692 125.804 105.148 125.804C104.908 125.804 104.676 125.844 104.452 125.924C104.236 126.004 104.04 126.124 103.864 126.284C103.688 126.436 103.54 126.624 103.42 126.848C103.3 127.072 103.22 127.328 103.18 127.616H106.876ZM111.167 130.136C111.167 129.832 111.259 129.588 111.443 129.404C111.635 129.212 111.867 129.116 112.139 129.116C112.411 129.116 112.639 129.212 112.823 129.404C113.015 129.588 113.111 129.832 113.111 130.136C113.111 130.44 113.015 130.684 112.823 130.868C112.639 131.052 112.411 131.144 112.139 131.144C111.867 131.144 111.635 131.052 111.443 130.868C111.259 130.684 111.167 130.44 111.167 130.136ZM116.346 125.168H117.342L118.686 128.48C118.806 128.776 118.918 129.068 119.022 129.356C119.134 129.636 119.242 129.916 119.346 130.196H119.394C119.498 129.916 119.598 129.636 119.694 129.356C119.798 129.068 119.91 128.776 120.03 128.48L121.374 125.168H122.322L119.91 131H118.806L116.346 125.168ZM123.902 129.488C123.902 129.16 123.978 128.876 124.13 128.636C124.29 128.388 124.538 128.176 124.874 128C125.218 127.824 125.658 127.68 126.194 127.568C126.73 127.456 127.374 127.368 128.126 127.304C128.118 127.104 128.086 126.916 128.03 126.74C127.974 126.564 127.886 126.412 127.766 126.284C127.646 126.148 127.486 126.04 127.286 125.96C127.094 125.88 126.858 125.84 126.578 125.84C126.194 125.84 125.826 125.916 125.474 126.068C125.122 126.212 124.81 126.368 124.538 126.536L124.154 125.864C124.298 125.768 124.466 125.672 124.658 125.576C124.858 125.472 125.066 125.38 125.282 125.3C125.506 125.22 125.742 125.156 125.99 125.108C126.238 125.052 126.49 125.024 126.746 125.024C127.546 125.024 128.138 125.244 128.522 125.684C128.914 126.116 129.11 126.696 129.11 127.424V131H128.306L128.222 130.208H128.186C127.858 130.464 127.494 130.684 127.094 130.868C126.702 131.052 126.298 131.144 125.882 131.144C125.61 131.144 125.354 131.104 125.114 131.024C124.874 130.952 124.662 130.848 124.478 130.712C124.302 130.568 124.162 130.396 124.058 130.196C123.954 129.988 123.902 129.752 123.902 129.488ZM124.862 129.416C124.862 129.584 124.898 129.728 124.97 129.848C125.042 129.96 125.134 130.056 125.246 130.136C125.366 130.208 125.502 130.264 125.654 130.304C125.814 130.336 125.978 130.352 126.146 130.352C126.482 130.352 126.81 130.28 127.13 130.136C127.458 129.984 127.79 129.768 128.126 129.488V127.952C127.502 128 126.978 128.068 126.554 128.156C126.138 128.244 125.802 128.352 125.546 128.48C125.298 128.6 125.122 128.74 125.018 128.9C124.914 129.052 124.862 129.224 124.862 129.416ZM131.097 122.456H134.073V129.116C134.073 129.548 134.173 129.86 134.373 130.052C134.581 130.236 134.861 130.328 135.213 130.328C135.533 130.328 135.901 130.236 136.317 130.052L136.569 130.796C136.305 130.892 136.057 130.972 135.825 131.036C135.593 131.108 135.317 131.144 134.997 131.144C134.373 131.144 133.897 130.968 133.569 130.616C133.249 130.264 133.089 129.74 133.089 129.044V123.26H131.097V122.456ZM143.38 131H142.576L142.492 129.98H142.444C142.148 130.324 141.824 130.604 141.472 130.82C141.128 131.036 140.728 131.144 140.272 131.144C139.568 131.144 139.052 130.948 138.724 130.556C138.404 130.156 138.244 129.568 138.244 128.792V125.168H139.24V128.66C139.24 129.212 139.34 129.624 139.54 129.896C139.748 130.16 140.096 130.292 140.584 130.292C140.92 130.292 141.224 130.208 141.496 130.04C141.768 129.864 142.068 129.588 142.396 129.212V125.168H143.38V131ZM145.344 128.096C145.344 127.616 145.428 127.188 145.596 126.812C145.764 126.428 145.984 126.104 146.256 125.84C146.536 125.576 146.852 125.376 147.204 125.24C147.564 125.096 147.932 125.024 148.308 125.024C148.724 125.024 149.096 125.092 149.424 125.228C149.752 125.356 150.028 125.54 150.252 125.78C150.484 126.02 150.66 126.308 150.78 126.644C150.9 126.98 150.96 127.352 150.96 127.76C150.96 127.864 150.956 127.968 150.948 128.072C150.948 128.168 150.94 128.252 150.924 128.324H146.364C146.372 128.636 146.432 128.916 146.544 129.164C146.664 129.412 146.82 129.624 147.012 129.8C147.212 129.976 147.444 130.112 147.708 130.208C147.98 130.304 148.276 130.352 148.596 130.352C148.94 130.352 149.252 130.304 149.532 130.208C149.82 130.112 150.1 129.98 150.372 129.812L150.72 130.46C150.432 130.644 150.104 130.804 149.736 130.94C149.368 131.076 148.948 131.144 148.476 131.144C148.044 131.144 147.636 131.076 147.252 130.94C146.876 130.796 146.544 130.596 146.256 130.34C145.976 130.076 145.752 129.756 145.584 129.38C145.424 129.004 145.344 128.576 145.344 128.096ZM150.048 127.616C150.048 127.032 149.896 126.584 149.592 126.272C149.288 125.96 148.864 125.804 148.32 125.804C148.08 125.804 147.848 125.844 147.624 125.924C147.408 126.004 147.212 126.124 147.036 126.284C146.86 126.436 146.712 126.624 146.592 126.848C146.472 127.072 146.392 127.328 146.352 127.616H150.048Z" fill="white"/>
<path d="M3.08 12V4.128H7.616V4.968H4.076V7.632H7.076V8.472H4.076V12H3.08ZM11.0176 12.144C10.6576 12.144 10.3136 12.076 9.98563 11.94C9.66563 11.804 9.38163 11.608 9.13363 11.352C8.88563 11.088 8.68563 10.768 8.53363 10.392C8.38963 10.008 8.31763 9.576 8.31763 9.096C8.31763 8.608 8.38963 8.176 8.53363 7.8C8.68563 7.416 8.88563 7.092 9.13363 6.828C9.38163 6.564 9.66563 6.364 9.98563 6.228C10.3136 6.092 10.6576 6.024 11.0176 6.024C11.3776 6.024 11.7176 6.092 12.0376 6.228C12.3656 6.364 12.6536 6.564 12.9016 6.828C13.1496 7.092 13.3456 7.416 13.4896 7.8C13.6416 8.176 13.7176 8.608 13.7176 9.096C13.7176 9.576 13.6416 10.008 13.4896 10.392C13.3456 10.768 13.1496 11.088 12.9016 11.352C12.6536 11.608 12.3656 11.804 12.0376 11.94C11.7176 12.076 11.3776 12.144 11.0176 12.144ZM11.0176 11.328C11.2656 11.328 11.4936 11.276 11.7016 11.172C11.9096 11.06 12.0856 10.908 12.2296 10.716C12.3816 10.516 12.4976 10.28 12.5776 10.008C12.6576 9.736 12.6976 9.432 12.6976 9.096C12.6976 8.76 12.6576 8.456 12.5776 8.184C12.4976 7.904 12.3816 7.664 12.2296 7.464C12.0856 7.264 11.9096 7.112 11.7016 7.008C11.4936 6.896 11.2656 6.84 11.0176 6.84C10.7696 6.84 10.5416 6.896 10.3336 7.008C10.1256 7.112 9.94563 7.264 9.79363 7.464C9.64963 7.664 9.53763 7.904 9.45763 8.184C9.37763 8.456 9.33763 8.76 9.33763 9.096C9.33763 9.432 9.37763 9.736 9.45763 10.008C9.53763 10.28 9.64963 10.516 9.79363 10.716C9.94563 10.908 10.1256 11.06 10.3336 11.172C10.5416 11.276 10.7696 11.328 11.0176 11.328ZM15.2535 12V6.168H16.0695L16.1535 7.224H16.1895C16.3895 6.856 16.6295 6.564 16.9095 6.348C17.1975 6.132 17.5095 6.024 17.8455 6.024C18.0775 6.024 18.2855 6.064 18.4695 6.144L18.2775 7.008C18.1815 6.976 18.0935 6.952 18.0135 6.936C17.9335 6.92 17.8335 6.912 17.7135 6.912C17.4655 6.912 17.2055 7.012 16.9335 7.212C16.6695 7.412 16.4375 7.76 16.2375 8.256V12H15.2535ZM19.4137 12V6.168H20.2297L20.3137 7.008H20.3497C20.6057 6.728 20.8817 6.496 21.1777 6.312C21.4817 6.12 21.8097 6.024 22.1617 6.024C22.6097 6.024 22.9577 6.124 23.2057 6.324C23.4617 6.516 23.6497 6.788 23.7697 7.14C24.0737 6.804 24.3777 6.536 24.6817 6.336C24.9937 6.128 25.3297 6.024 25.6897 6.024C26.2897 6.024 26.7337 6.216 27.0217 6.6C27.3177 6.984 27.4657 7.552 27.4657 8.304V12H26.4817V8.436C26.4817 7.884 26.3937 7.488 26.2177 7.248C26.0417 7 25.7697 6.876 25.4017 6.876C24.9617 6.876 24.4737 7.176 23.9377 7.776V12H22.9537V8.436C22.9537 7.884 22.8657 7.488 22.6897 7.248C22.5137 7 22.2377 6.876 21.8617 6.876C21.4217 6.876 20.9337 7.176 20.3977 7.776V12H19.4137Z" fill="white"/>
<path d="M12.344 26.584C12.672 26.824 13.024 27.016 13.4 27.16C13.776 27.304 14.228 27.376 14.756 27.376C15.284 27.376 15.676 27.288 15.932 27.112C16.188 26.936 16.316 26.72 16.316 26.464C16.316 26.24 16.176 26.04 15.896 25.864C15.624 25.688 15.132 25.512 14.42 25.336C14.116 25.264 13.828 25.176 13.556 25.072C13.292 24.968 13.06 24.848 12.86 24.712C12.66 24.568 12.5 24.412 12.38 24.244C12.26 24.076 12.2 23.888 12.2 23.68C12.2 23.448 12.252 23.232 12.356 23.032C12.46 22.824 12.612 22.648 12.812 22.504C13.02 22.352 13.276 22.236 13.58 22.156C13.892 22.068 14.248 22.024 14.648 22.024C15.088 22.024 15.516 22.1 15.932 22.252C16.348 22.396 16.7 22.568 16.988 22.768L16.508 23.404C16.252 23.22 15.968 23.072 15.656 22.96C15.344 22.848 15.008 22.792 14.648 22.792C14.376 22.792 14.148 22.816 13.964 22.864C13.78 22.904 13.632 22.964 13.52 23.044C13.408 23.116 13.328 23.204 13.28 23.308C13.232 23.412 13.208 23.52 13.208 23.632C13.208 23.872 13.372 24.072 13.7 24.232C14.028 24.384 14.456 24.528 14.984 24.664C15.776 24.864 16.36 25.092 16.736 25.348C17.12 25.604 17.312 25.956 17.312 26.404C17.312 26.644 17.256 26.868 17.144 27.076C17.032 27.284 16.864 27.468 16.64 27.628C16.424 27.788 16.152 27.912 15.824 28C15.504 28.096 15.136 28.144 14.72 28.144C14.144 28.144 13.612 28.056 13.124 27.88C12.644 27.696 12.224 27.48 11.864 27.232L12.344 26.584ZM20.6673 22.972H19.0233V22.228L20.7033 22.168L20.8353 20.536H21.6513V22.168H24.5193V22.972H21.6513V25.744C21.6513 26.008 21.6753 26.24 21.7233 26.44C21.7713 26.632 21.8513 26.796 21.9633 26.932C22.0753 27.068 22.2273 27.172 22.4193 27.244C22.6113 27.308 22.8473 27.34 23.1273 27.34C23.4073 27.34 23.6593 27.316 23.8833 27.268C24.1073 27.22 24.3233 27.156 24.5313 27.076L24.7473 27.796C24.4833 27.892 24.1913 27.972 23.8713 28.036C23.5513 28.108 23.2313 28.144 22.9113 28.144C22.4873 28.144 22.1313 28.088 21.8433 27.976C21.5553 27.856 21.3233 27.692 21.1473 27.484C20.9793 27.268 20.8553 27.012 20.7753 26.716C20.7033 26.42 20.6673 26.092 20.6673 25.732V22.972ZM26.3626 26.488C26.3626 26.16 26.4386 25.876 26.5906 25.636C26.7506 25.388 26.9986 25.176 27.3346 25C27.6786 24.824 28.1186 24.68 28.6546 24.568C29.1906 24.456 29.8346 24.368 30.5866 24.304C30.5786 24.104 30.5466 23.916 30.4906 23.74C30.4346 23.564 30.3466 23.412 30.2266 23.284C30.1066 23.148 29.9466 23.04 29.7466 22.96C29.5546 22.88 29.3186 22.84 29.0386 22.84C28.6546 22.84 28.2866 22.916 27.9346 23.068C27.5826 23.212 27.2706 23.368 26.9986 23.536L26.6146 22.864C26.7586 22.768 26.9266 22.672 27.1186 22.576C27.3186 22.472 27.5266 22.38 27.7426 22.3C27.9666 22.22 28.2026 22.156 28.4506 22.108C28.6986 22.052 28.9506 22.024 29.2066 22.024C30.0066 22.024 30.5986 22.244 30.9826 22.684C31.3746 23.116 31.5706 23.696 31.5706 24.424V28H30.7666L30.6826 27.208H30.6466C30.3186 27.464 29.9546 27.684 29.5546 27.868C29.1626 28.052 28.7586 28.144 28.3426 28.144C28.0706 28.144 27.8146 28.104 27.5746 28.024C27.3346 27.952 27.1226 27.848 26.9386 27.712C26.7626 27.568 26.6226 27.396 26.5186 27.196C26.4146 26.988 26.3626 26.752 26.3626 26.488ZM27.3226 26.416C27.3226 26.584 27.3586 26.728 27.4306 26.848C27.5026 26.96 27.5946 27.056 27.7066 27.136C27.8266 27.208 27.9626 27.264 28.1146 27.304C28.2746 27.336 28.4386 27.352 28.6066 27.352C28.9426 27.352 29.2706 27.28 29.5906 27.136C29.9186 26.984 30.2506 26.768 30.5866 26.488V24.952C29.9626 25 29.4386 25.068 29.0146 25.156C28.5986 25.244 28.2626 25.352 28.0066 25.48C27.7586 25.6 27.5826 25.74 27.4786 25.9C27.3746 26.052 27.3226 26.224 27.3226 26.416ZM35.0579 22.972H33.4139V22.228L35.0939 22.168L35.2259 20.536H36.0419V22.168H38.9099V22.972H36.0419V25.744C36.0419 26.008 36.0659 26.24 36.1139 26.44C36.1619 26.632 36.2419 26.796 36.3539 26.932C36.4659 27.068 36.6179 27.172 36.8099 27.244C37.0019 27.308 37.2379 27.34 37.5179 27.34C37.7979 27.34 38.0499 27.316 38.2739 27.268C38.4979 27.22 38.7139 27.156 38.9219 27.076L39.1379 27.796C38.8739 27.892 38.5819 27.972 38.2619 28.036C37.9419 28.108 37.6219 28.144 37.3019 28.144C36.8779 28.144 36.5219 28.088 36.2339 27.976C35.9459 27.856 35.7139 27.692 35.5379 27.484C35.3699 27.268 35.2459 27.012 35.1659 26.716C35.0939 26.42 35.0579 26.092 35.0579 25.732V22.972ZM40.6093 25.096C40.6093 24.616 40.6933 24.188 40.8613 23.812C41.0293 23.428 41.2493 23.104 41.5213 22.84C41.8013 22.576 42.1173 22.376 42.4693 22.24C42.8293 22.096 43.1973 22.024 43.5733 22.024C43.9893 22.024 44.3613 22.092 44.6893 22.228C45.0173 22.356 45.2933 22.54 45.5173 22.78C45.7493 23.02 45.9253 23.308 46.0453 23.644C46.1653 23.98 46.2253 24.352 46.2253 24.76C46.2253 24.864 46.2213 24.968 46.2133 25.072C46.2133 25.168 46.2053 25.252 46.1893 25.324H41.6293C41.6373 25.636 41.6973 25.916 41.8093 26.164C41.9293 26.412 42.0853 26.624 42.2773 26.8C42.4773 26.976 42.7093 27.112 42.9733 27.208C43.2453 27.304 43.5413 27.352 43.8613 27.352C44.2053 27.352 44.5173 27.304 44.7973 27.208C45.0853 27.112 45.3653 26.98 45.6373 26.812L45.9853 27.46C45.6973 27.644 45.3693 27.804 45.0013 27.94C44.6333 28.076 44.2133 28.144 43.7413 28.144C43.3093 28.144 42.9013 28.076 42.5173 27.94C42.1413 27.796 41.8093 27.596 41.5213 27.34C41.2413 27.076 41.0173 26.756 40.8493 26.38C40.6893 26.004 40.6093 25.576 40.6093 25.096ZM45.3133 24.616C45.3133 24.032 45.1613 23.584 44.8573 23.272C44.5533 22.96 44.1293 22.804 43.5853 22.804C43.3453 22.804 43.1133 22.844 42.8893 22.924C42.6733 23.004 42.4773 23.124 42.3013 23.284C42.1253 23.436 41.9773 23.624 41.8573 23.848C41.7373 24.072 41.6573 24.328 41.6173 24.616H45.3133ZM55.1919 22.384H60.3519V23.128H55.1919V22.384ZM55.1919 24.94H60.3519V25.684H55.1919V24.94ZM71.6345 28.228C71.6345 28.012 71.6385 27.808 71.6465 27.616C71.6625 27.416 71.6745 27.224 71.6825 27.04C71.6985 26.856 71.7105 26.672 71.7185 26.488C71.7345 26.304 71.7425 26.112 71.7425 25.912C71.7425 25.792 71.7185 25.68 71.6705 25.576C71.6225 25.464 71.5345 25.364 71.4065 25.276C71.2785 25.188 71.0985 25.116 70.8665 25.06C70.6425 25.004 70.3545 24.976 70.0025 24.976V24.352C70.3545 24.352 70.6425 24.324 70.8665 24.268C71.0985 24.212 71.2785 24.14 71.4065 24.052C71.5345 23.964 71.6225 23.868 71.6705 23.764C71.7185 23.652 71.7425 23.536 71.7425 23.416C71.7425 23.032 71.7225 22.656 71.6825 22.288C71.6505 21.912 71.6345 21.516 71.6345 21.1C71.6345 20.788 71.6785 20.532 71.7665 20.332C71.8545 20.124 71.9905 19.96 72.1745 19.84C72.3585 19.72 72.5905 19.636 72.8705 19.588C73.1505 19.532 73.4785 19.504 73.8545 19.504H74.5865V20.08H73.9625C73.6585 20.08 73.4065 20.1 73.2065 20.14C73.0145 20.18 72.8625 20.244 72.7505 20.332C72.6465 20.412 72.5745 20.524 72.5345 20.668C72.4945 20.804 72.4745 20.968 72.4745 21.16C72.4745 21.504 72.4865 21.86 72.5105 22.228C72.5345 22.588 72.5465 22.956 72.5465 23.332C72.5465 23.724 72.4665 24.024 72.3065 24.232C72.1545 24.432 71.8705 24.568 71.4545 24.64V24.688C71.8705 24.76 72.1545 24.9 72.3065 25.108C72.4665 25.308 72.5465 25.604 72.5465 25.996C72.5465 26.404 72.5345 26.776 72.5105 27.112C72.4865 27.448 72.4745 27.8 72.4745 28.168C72.4745 28.36 72.4945 28.524 72.5345 28.66C72.5745 28.804 72.6465 28.916 72.7505 28.996C72.8625 29.084 73.0145 29.148 73.2065 29.188C73.4065 29.228 73.6585 29.248 73.9625 29.248H74.5865V29.824H73.8545C73.4785 29.824 73.1505 29.796 72.8705 29.74C72.5905 29.692 72.3585 29.608 72.1745 29.488C71.9905 29.368 71.8545 29.204 71.7665 28.996C71.6785 28.796 71.6345 28.54 71.6345 28.228ZM26.0026 37.168H26.9986L28.3426 40.48C28.4626 40.776 28.5746 41.068 28.6786 41.356C28.7906 41.636 28.8986 41.916 29.0026 42.196H29.0506C29.1546 41.916 29.2546 41.636 29.3506 41.356C29.4546 41.068 29.5666 40.776 29.6866 40.48L31.0306 37.168H31.9786L29.5666 43H28.4626L26.0026 37.168ZM33.5579 41.488C33.5579 41.16 33.6339 40.876 33.7859 40.636C33.9459 40.388 34.1939 40.176 34.5299 40C34.8739 39.824 35.3139 39.68 35.8499 39.568C36.3859 39.456 37.0299 39.368 37.7819 39.304C37.7739 39.104 37.7419 38.916 37.6859 38.74C37.6299 38.564 37.5419 38.412 37.4219 38.284C37.3019 38.148 37.1419 38.04 36.9419 37.96C36.7499 37.88 36.5139 37.84 36.2339 37.84C35.8499 37.84 35.4819 37.916 35.1299 38.068C34.7779 38.212 34.4659 38.368 34.1939 38.536L33.8099 37.864C33.9539 37.768 34.1219 37.672 34.3139 37.576C34.5139 37.472 34.7219 37.38 34.9379 37.3C35.1619 37.22 35.3979 37.156 35.6459 37.108C35.8939 37.052 36.1459 37.024 36.4019 37.024C37.2019 37.024 37.7939 37.244 38.1779 37.684C38.5699 38.116 38.7659 38.696 38.7659 39.424V43H37.9619L37.8779 42.208H37.8419C37.5139 42.464 37.1499 42.684 36.7499 42.868C36.3579 43.052 35.9539 43.144 35.5379 43.144C35.2659 43.144 35.0099 43.104 34.7699 43.024C34.5299 42.952 34.3179 42.848 34.1339 42.712C33.9579 42.568 33.8179 42.396 33.7139 42.196C33.6099 41.988 33.5579 41.752 33.5579 41.488ZM34.5179 41.416C34.5179 41.584 34.5539 41.728 34.6259 41.848C34.6979 41.96 34.7899 42.056 34.9019 42.136C35.0219 42.208 35.1579 42.264 35.3099 42.304C35.4699 42.336 35.6339 42.352 35.8019 42.352C36.1379 42.352 36.4659 42.28 36.7859 42.136C37.1139 41.984 37.4459 41.768 37.7819 41.488V39.952C37.1579 40 36.6339 40.068 36.2099 40.156C35.7939 40.244 35.4579 40.352 35.2019 40.48C34.9539 40.6 34.7779 40.74 34.6739 40.9C34.5699 41.052 34.5179 41.224 34.5179 41.416ZM40.7533 34.456H43.7293V41.116C43.7293 41.548 43.8293 41.86 44.0293 42.052C44.2373 42.236 44.5173 42.328 44.8693 42.328C45.1893 42.328 45.5573 42.236 45.9733 42.052L46.2253 42.796C45.9613 42.892 45.7133 42.972 45.4813 43.036C45.2493 43.108 44.9733 43.144 44.6533 43.144C44.0293 43.144 43.5533 42.968 43.2253 42.616C42.9053 42.264 42.7453 41.74 42.7453 41.044V35.26H40.7533V34.456ZM53.0366 43H52.2326L52.1486 41.98H52.1006C51.8046 42.324 51.4806 42.604 51.1286 42.82C50.7846 43.036 50.3846 43.144 49.9286 43.144C49.2246 43.144 48.7086 42.948 48.3806 42.556C48.0606 42.156 47.9006 41.568 47.9006 40.792V37.168H48.8966V40.66C48.8966 41.212 48.9966 41.624 49.1966 41.896C49.4046 42.16 49.7526 42.292 50.2406 42.292C50.5766 42.292 50.8806 42.208 51.1526 42.04C51.4246 41.864 51.7246 41.588 52.0526 41.212V37.168H53.0366V43ZM54.9999 40.096C54.9999 39.616 55.0839 39.188 55.2519 38.812C55.4199 38.428 55.6399 38.104 55.9119 37.84C56.1919 37.576 56.5079 37.376 56.8599 37.24C57.2199 37.096 57.5879 37.024 57.9639 37.024C58.3799 37.024 58.7519 37.092 59.0799 37.228C59.4079 37.356 59.6839 37.54 59.9079 37.78C60.1399 38.02 60.3159 38.308 60.4359 38.644C60.5559 38.98 60.6159 39.352 60.6159 39.76C60.6159 39.864 60.6119 39.968 60.6039 40.072C60.6039 40.168 60.5959 40.252 60.5799 40.324H56.0199C56.0279 40.636 56.0879 40.916 56.1999 41.164C56.3199 41.412 56.4759 41.624 56.6679 41.8C56.8679 41.976 57.0999 42.112 57.3639 42.208C57.6359 42.304 57.9319 42.352 58.2519 42.352C58.5959 42.352 58.9079 42.304 59.1879 42.208C59.4759 42.112 59.7559 41.98 60.0279 41.812L60.3759 42.46C60.0879 42.644 59.7599 42.804 59.3919 42.94C59.0239 43.076 58.6039 43.144 58.1319 43.144C57.6999 43.144 57.2919 43.076 56.9079 42.94C56.5319 42.796 56.1999 42.596 55.9119 42.34C55.6319 42.076 55.4079 41.756 55.2399 41.38C55.0799 41.004 54.9999 40.576 54.9999 40.096ZM59.7039 39.616C59.7039 39.032 59.5519 38.584 59.2479 38.272C58.9439 37.96 58.5199 37.804 57.9759 37.804C57.7359 37.804 57.5039 37.844 57.2799 37.924C57.0639 38.004 56.8679 38.124 56.6919 38.284C56.5159 38.436 56.3679 38.624 56.2479 38.848C56.1279 39.072 56.0479 39.328 56.0079 39.616H59.7039ZM63.9952 37.84C63.9952 37.536 64.0872 37.292 64.2712 37.108C64.4632 36.916 64.6952 36.82 64.9672 36.82C65.2392 36.82 65.4672 36.916 65.6512 37.108C65.8432 37.292 65.9392 37.536 65.9392 37.84C65.9392 38.144 65.8432 38.388 65.6512 38.572C65.4672 38.756 65.2392 38.848 64.9672 38.848C64.6952 38.848 64.4632 38.756 64.2712 38.572C64.0872 38.388 63.9952 38.144 63.9952 37.84ZM63.9952 42.136C63.9952 41.832 64.0872 41.588 64.2712 41.404C64.4632 41.212 64.6952 41.116 64.9672 41.116C65.2392 41.116 65.4672 41.212 65.6512 41.404C65.8432 41.588 65.9392 41.832 65.9392 42.136C65.9392 42.44 65.8432 42.684 65.6512 42.868C65.4672 43.052 65.2392 43.144 64.9672 43.144C64.6952 43.144 64.4632 43.052 64.2712 42.868C64.0872 42.684 63.9952 42.44 63.9952 42.136ZM78.9498 35.188C78.5738 35.404 78.2778 35.672 78.0618 35.992C77.8538 36.304 77.7378 36.668 77.7138 37.084C77.8098 37.036 77.9138 37.012 78.0258 37.012C78.2738 37.012 78.4738 37.092 78.6258 37.252C78.7858 37.412 78.8658 37.62 78.8658 37.876C78.8658 38.156 78.7818 38.38 78.6138 38.548C78.4458 38.716 78.2338 38.8 77.9778 38.8C77.6658 38.8 77.4058 38.676 77.1978 38.428C76.9978 38.172 76.8978 37.816 76.8978 37.36C76.8978 36.76 77.0498 36.224 77.3538 35.752C77.6578 35.272 78.0818 34.892 78.6258 34.612L78.9498 35.188ZM81.6978 35.188C81.3218 35.404 81.0258 35.672 80.8098 35.992C80.6018 36.304 80.4858 36.668 80.4618 37.084C80.5578 37.036 80.6618 37.012 80.7738 37.012C81.0218 37.012 81.2218 37.092 81.3738 37.252C81.5338 37.412 81.6138 37.62 81.6138 37.876C81.6138 38.156 81.5298 38.38 81.3618 38.548C81.1938 38.716 80.9818 38.8 80.7258 38.8C80.4138 38.8 80.1538 38.676 79.9458 38.428C79.7458 38.172 79.6458 37.816 79.6458 37.36C79.6458 36.76 79.7978 36.224 80.1018 35.752C80.4058 35.272 80.8298 34.892 81.3738 34.612L81.6978 35.188ZM84.1891 38.224C84.5731 38.016 84.8691 37.756 85.0771 37.444C85.2931 37.124 85.4131 36.752 85.4371 36.328C85.3411 36.376 85.2371 36.4 85.1251 36.4C84.8691 36.4 84.6611 36.324 84.5011 36.172C84.3491 36.012 84.2731 35.804 84.2731 35.548C84.2731 35.268 84.3571 35.044 84.5251 34.876C84.6931 34.7 84.9051 34.612 85.1611 34.612C85.4811 34.612 85.7411 34.74 85.9411 34.996C86.1411 35.252 86.2411 35.608 86.2411 36.064C86.2411 36.664 86.0891 37.2 85.7851 37.672C85.4811 38.144 85.0611 38.52 84.5251 38.8L84.1891 38.224ZM86.9371 38.224C87.3211 38.016 87.6171 37.756 87.8251 37.444C88.0411 37.124 88.1611 36.752 88.1851 36.328C88.0891 36.376 87.9851 36.4 87.8731 36.4C87.6171 36.4 87.4091 36.324 87.2491 36.172C87.0971 36.012 87.0211 35.804 87.0211 35.548C87.0211 35.268 87.1051 35.044 87.2731 34.876C87.4411 34.7 87.6531 34.612 87.9091 34.612C88.2291 34.612 88.4891 34.74 88.6891 34.996C88.8891 35.252 88.9891 35.608 88.9891 36.064C88.9891 36.664 88.8371 37.2 88.5331 37.672C88.2291 38.144 87.8091 38.52 87.2731 38.8L86.9371 38.224ZM12.8 59.248C13.104 59.248 13.352 59.228 13.544 59.188C13.744 59.148 13.9 59.084 14.012 58.996C14.124 58.916 14.2 58.804 14.24 58.66C14.28 58.524 14.3 58.36 14.3 58.168C14.3 57.8 14.288 57.448 14.264 57.112C14.24 56.776 14.228 56.404 14.228 55.996C14.228 55.604 14.304 55.308 14.456 55.108C14.608 54.9 14.892 54.76 15.308 54.688V54.64C14.892 54.568 14.608 54.432 14.456 54.232C14.304 54.024 14.228 53.724 14.228 53.332C14.228 52.956 14.24 52.588 14.264 52.228C14.288 51.86 14.3 51.504 14.3 51.16C14.3 50.968 14.28 50.804 14.24 50.668C14.2 50.524 14.124 50.412 14.012 50.332C13.9 50.244 13.744 50.18 13.544 50.14C13.352 50.1 13.104 50.08 12.8 50.08H12.188V49.504H12.92C13.296 49.504 13.62 49.532 13.892 49.588C14.172 49.636 14.404 49.72 14.588 49.84C14.772 49.96 14.908 50.124 14.996 50.332C15.084 50.532 15.128 50.788 15.128 51.1C15.128 51.516 15.108 51.912 15.068 52.288C15.036 52.656 15.02 53.032 15.02 53.416C15.02 53.536 15.044 53.652 15.092 53.764C15.14 53.868 15.228 53.964 15.356 54.052C15.484 54.14 15.66 54.212 15.884 54.268C16.116 54.324 16.408 54.352 16.76 54.352V54.976C16.408 54.976 16.116 55.004 15.884 55.06C15.66 55.116 15.484 55.188 15.356 55.276C15.228 55.364 15.14 55.464 15.092 55.576C15.044 55.68 15.02 55.792 15.02 55.912C15.02 56.112 15.024 56.304 15.032 56.488C15.048 56.672 15.06 56.856 15.068 57.04C15.084 57.224 15.096 57.416 15.104 57.616C15.12 57.808 15.128 58.012 15.128 58.228C15.128 58.54 15.084 58.796 14.996 58.996C14.908 59.204 14.772 59.368 14.588 59.488C14.404 59.608 14.172 59.692 13.892 59.74C13.62 59.796 13.296 59.824 12.92 59.824H12.188V59.248H12.8Z" fill="white"/>
<path d="M181.688 131.144C181.064 131.144 180.608 130.952 180.32 130.568C180.04 130.184 179.9 129.616 179.9 128.864V125.168H180.896V128.732C180.896 129.284 180.98 129.684 181.148 129.932C181.324 130.172 181.604 130.292 181.988 130.292C182.292 130.292 182.56 130.216 182.792 130.064C183.024 129.904 183.28 129.652 183.56 129.308V125.168H184.544V131H183.728L183.644 130.088H183.608C183.336 130.408 183.048 130.664 182.744 130.856C182.448 131.048 182.096 131.144 181.688 131.144ZM188.035 131.144C187.619 131.144 187.223 131.068 186.847 130.916C186.471 130.764 186.143 130.572 185.863 130.34L186.355 129.68C186.611 129.888 186.871 130.056 187.135 130.184C187.407 130.312 187.719 130.376 188.071 130.376C188.455 130.376 188.743 130.288 188.935 130.112C189.127 129.936 189.223 129.72 189.223 129.464C189.223 129.312 189.183 129.18 189.103 129.068C189.023 128.956 188.919 128.86 188.791 128.78C188.671 128.692 188.531 128.616 188.371 128.552C188.211 128.488 188.051 128.424 187.891 128.36C187.683 128.288 187.475 128.208 187.267 128.12C187.059 128.024 186.871 127.912 186.703 127.784C186.543 127.648 186.411 127.492 186.307 127.316C186.203 127.14 186.151 126.928 186.151 126.68C186.151 126.448 186.195 126.232 186.283 126.032C186.379 125.824 186.511 125.648 186.679 125.504C186.855 125.352 187.067 125.236 187.315 125.156C187.563 125.068 187.843 125.024 188.155 125.024C188.523 125.024 188.859 125.088 189.163 125.216C189.475 125.344 189.743 125.5 189.967 125.684L189.499 126.308C189.299 126.156 189.091 126.032 188.875 125.936C188.659 125.84 188.423 125.792 188.167 125.792C187.799 125.792 187.527 125.876 187.351 126.044C187.183 126.212 187.099 126.408 187.099 126.632C187.099 126.768 187.135 126.888 187.207 126.992C187.279 127.088 187.375 127.176 187.495 127.256C187.615 127.328 187.751 127.396 187.903 127.46C188.063 127.516 188.227 127.576 188.395 127.64C188.603 127.72 188.811 127.804 189.019 127.892C189.235 127.98 189.427 128.092 189.595 128.228C189.763 128.356 189.899 128.516 190.003 128.708C190.115 128.9 190.171 129.132 190.171 129.404C190.171 129.644 190.123 129.868 190.027 130.076C189.939 130.284 189.803 130.468 189.619 130.628C189.443 130.788 189.219 130.912 188.947 131C188.683 131.096 188.379 131.144 188.035 131.144ZM193.903 131.144C193.511 131.144 193.143 131.076 192.799 130.94C192.463 130.796 192.167 130.596 191.911 130.34C191.663 130.076 191.467 129.756 191.323 129.38C191.179 129.004 191.107 128.576 191.107 128.096C191.107 127.616 191.179 127.188 191.323 126.812C191.475 126.428 191.671 126.104 191.911 125.84C192.159 125.576 192.439 125.376 192.751 125.24C193.063 125.096 193.387 125.024 193.723 125.024C194.091 125.024 194.419 125.088 194.707 125.216C195.003 125.344 195.247 125.528 195.439 125.768C195.639 126.008 195.791 126.296 195.895 126.632C195.999 126.968 196.051 127.344 196.051 127.76C196.051 127.864 196.047 127.968 196.039 128.072C196.039 128.168 196.031 128.252 196.015 128.324H192.079C192.119 128.948 192.311 129.444 192.655 129.812C193.007 130.172 193.463 130.352 194.023 130.352C194.303 130.352 194.559 130.312 194.791 130.232C195.031 130.144 195.259 130.032 195.475 129.896L195.823 130.544C195.567 130.704 195.283 130.844 194.971 130.964C194.659 131.084 194.303 131.144 193.903 131.144ZM192.067 127.616H195.187C195.187 127.024 195.059 126.576 194.803 126.272C194.555 125.96 194.203 125.804 193.747 125.804C193.539 125.804 193.339 125.844 193.147 125.924C192.963 126.004 192.795 126.124 192.643 126.284C192.491 126.436 192.363 126.624 192.259 126.848C192.163 127.072 192.099 127.328 192.067 127.616ZM197.492 131V125.168H198.308L198.392 126.224H198.428C198.628 125.856 198.868 125.564 199.148 125.348C199.436 125.132 199.748 125.024 200.084 125.024C200.316 125.024 200.524 125.064 200.708 125.144L200.516 126.008C200.42 125.976 200.332 125.952 200.252 125.936C200.172 125.92 200.072 125.912 199.952 125.912C199.704 125.912 199.444 126.012 199.172 126.212C198.908 126.412 198.676 126.76 198.476 127.256V131H197.492ZM204.978 131L203.358 125.168H204.366L205.23 128.54C205.294 128.82 205.354 129.092 205.41 129.356C205.466 129.62 205.522 129.888 205.578 130.16H205.626C205.69 129.888 205.754 129.62 205.818 129.356C205.882 129.084 205.95 128.812 206.022 128.54L206.922 125.168H207.882L208.794 128.54C208.866 128.82 208.934 129.092 208.998 129.356C209.07 129.62 209.138 129.888 209.202 130.16H209.25C209.314 129.888 209.374 129.62 209.43 129.356C209.486 129.092 209.546 128.82 209.61 128.54L210.462 125.168H211.398L209.838 131H208.638L207.798 127.868C207.726 127.588 207.658 127.312 207.594 127.04C207.538 126.768 207.474 126.484 207.402 126.188H207.354C207.29 126.484 207.226 126.772 207.162 127.052C207.098 127.324 207.026 127.6 206.946 127.88L206.13 131H204.978ZM212.668 131V125.168H213.484L213.568 126.224H213.604C213.804 125.856 214.044 125.564 214.324 125.348C214.612 125.132 214.924 125.024 215.26 125.024C215.492 125.024 215.7 125.064 215.884 125.144L215.692 126.008C215.596 125.976 215.508 125.952 215.428 125.936C215.348 125.92 215.248 125.912 215.128 125.912C214.88 125.912 214.62 126.012 214.348 126.212C214.084 126.412 213.852 126.76 213.652 127.256V131H212.668ZM216.828 131V125.168H217.812V131H216.828ZM217.332 123.968C217.14 123.968 216.976 123.908 216.84 123.788C216.712 123.668 216.648 123.516 216.648 123.332C216.648 123.14 216.712 122.988 216.84 122.876C216.976 122.756 217.14 122.696 217.332 122.696C217.524 122.696 217.684 122.756 217.812 122.876C217.948 122.988 218.016 123.14 218.016 123.332C218.016 123.516 217.948 123.668 217.812 123.788C217.684 123.908 217.524 123.968 217.332 123.968ZM221.617 131.144C221.305 131.144 221.041 131.096 220.825 131C220.617 130.904 220.445 130.772 220.309 130.604C220.181 130.436 220.089 130.232 220.033 129.992C219.977 129.752 219.949 129.488 219.949 129.2V125.972H219.085V125.228L219.997 125.168L220.117 123.536H220.945V125.168H222.517V125.972H220.945V129.212C220.945 129.572 221.009 129.852 221.137 130.052C221.273 130.244 221.509 130.34 221.845 130.34C221.949 130.34 222.061 130.324 222.181 130.292C222.301 130.26 222.409 130.224 222.505 130.184L222.697 130.928C222.537 130.984 222.361 131.032 222.169 131.072C221.985 131.12 221.801 131.144 221.617 131.144ZM226.036 131.144C225.644 131.144 225.276 131.076 224.932 130.94C224.596 130.796 224.3 130.596 224.044 130.34C223.796 130.076 223.6 129.756 223.456 129.38C223.312 129.004 223.24 128.576 223.24 128.096C223.24 127.616 223.312 127.188 223.456 126.812C223.608 126.428 223.804 126.104 224.044 125.84C224.292 125.576 224.572 125.376 224.884 125.24C225.196 125.096 225.52 125.024 225.855 125.024C226.224 125.024 226.552 125.088 226.84 125.216C227.136 125.344 227.38 125.528 227.572 125.768C227.772 126.008 227.924 126.296 228.028 126.632C228.132 126.968 228.184 127.344 228.184 127.76C228.184 127.864 228.18 127.968 228.172 128.072C228.172 128.168 228.164 128.252 228.148 128.324H224.212C224.252 128.948 224.444 129.444 224.788 129.812C225.14 130.172 225.596 130.352 226.156 130.352C226.436 130.352 226.692 130.312 226.924 130.232C227.164 130.144 227.392 130.032 227.608 129.896L227.956 130.544C227.7 130.704 227.416 130.844 227.104 130.964C226.792 131.084 226.436 131.144 226.036 131.144ZM224.2 127.616H227.32C227.32 127.024 227.192 126.576 226.936 126.272C226.688 125.96 226.336 125.804 225.88 125.804C225.672 125.804 225.472 125.844 225.28 125.924C225.096 126.004 224.928 126.124 224.776 126.284C224.624 126.436 224.496 126.624 224.392 126.848C224.296 127.072 224.232 127.328 224.2 127.616ZM231.149 131.144C230.733 131.144 230.337 131.068 229.961 130.916C229.585 130.764 229.257 130.572 228.977 130.34L229.469 129.68C229.725 129.888 229.985 130.056 230.249 130.184C230.521 130.312 230.833 130.376 231.185 130.376C231.569 130.376 231.857 130.288 232.049 130.112C232.241 129.936 232.337 129.72 232.337 129.464C232.337 129.312 232.297 129.18 232.217 129.068C232.137 128.956 232.033 128.86 231.905 128.78C231.785 128.692 231.645 128.616 231.485 128.552C231.325 128.488 231.165 128.424 231.005 128.36C230.797 128.288 230.589 128.208 230.381 128.12C230.173 128.024 229.985 127.912 229.817 127.784C229.657 127.648 229.525 127.492 229.421 127.316C229.317 127.14 229.265 126.928 229.265 126.68C229.265 126.448 229.309 126.232 229.397 126.032C229.493 125.824 229.625 125.648 229.793 125.504C229.969 125.352 230.181 125.236 230.429 125.156C230.677 125.068 230.957 125.024 231.269 125.024C231.637 125.024 231.973 125.088 232.277 125.216C232.589 125.344 232.857 125.5 233.081 125.684L232.613 126.308C232.413 126.156 232.205 126.032 231.989 125.936C231.773 125.84 231.537 125.792 231.281 125.792C230.913 125.792 230.641 125.876 230.465 126.044C230.297 126.212 230.213 126.408 230.213 126.632C230.213 126.768 230.249 126.888 230.321 126.992C230.393 127.088 230.489 127.176 230.609 127.256C230.729 127.328 230.865 127.396 231.017 127.46C231.177 127.516 231.341 127.576 231.509 127.64C231.717 127.72 231.925 127.804 232.133 127.892C232.349 127.98 232.541 128.092 232.709 128.228C232.877 128.356 233.013 128.516 233.117 128.708C233.229 128.9 233.285 129.132 233.285 129.404C233.285 129.644 233.237 129.868 233.141 130.076C233.053 130.284 232.917 130.468 232.733 130.628C232.557 130.788 232.333 130.912 232.061 131C231.797 131.096 231.493 131.144 231.149 131.144Z" fill="#FFCD50"/>
<path d="M229.252 88.144C228.892 88.144 228.548 88.076 228.22 87.94C227.9 87.804 227.616 87.608 227.368 87.352C227.12 87.088 226.92 86.768 226.768 86.392C226.624 86.008 226.552 85.576 226.552 85.096C226.552 84.608 226.624 84.176 226.768 83.8C226.92 83.416 227.12 83.092 227.368 82.828C227.616 82.564 227.9 82.364 228.22 82.228C228.548 82.092 228.892 82.024 229.252 82.024C229.612 82.024 229.952 82.092 230.272 82.228C230.6 82.364 230.888 82.564 231.136 82.828C231.384 83.092 231.58 83.416 231.724 83.8C231.876 84.176 231.952 84.608 231.952 85.096C231.952 85.576 231.876 86.008 231.724 86.392C231.58 86.768 231.384 87.088 231.136 87.352C230.888 87.608 230.6 87.804 230.272 87.94C229.952 88.076 229.612 88.144 229.252 88.144ZM229.252 87.328C229.5 87.328 229.728 87.276 229.936 87.172C230.144 87.06 230.32 86.908 230.464 86.716C230.616 86.516 230.732 86.28 230.812 86.008C230.892 85.736 230.932 85.432 230.932 85.096C230.932 84.76 230.892 84.456 230.812 84.184C230.732 83.904 230.616 83.664 230.464 83.464C230.32 83.264 230.144 83.112 229.936 83.008C229.728 82.896 229.5 82.84 229.252 82.84C229.004 82.84 228.776 82.896 228.568 83.008C228.36 83.112 228.18 83.264 228.028 83.464C227.884 83.664 227.772 83.904 227.692 84.184C227.612 84.456 227.572 84.76 227.572 85.096C227.572 85.432 227.612 85.736 227.692 86.008C227.772 86.28 227.884 86.516 228.028 86.716C228.18 86.908 228.36 87.06 228.568 87.172C228.776 87.276 229.004 87.328 229.252 87.328ZM233.488 88V82.168H234.304L234.388 83.008H234.424C234.704 82.728 234.996 82.496 235.3 82.312C235.612 82.12 235.972 82.024 236.38 82.024C236.996 82.024 237.444 82.216 237.724 82.6C238.012 82.984 238.156 83.552 238.156 84.304V88H237.172V84.436C237.172 83.884 237.084 83.488 236.908 83.248C236.732 83 236.452 82.876 236.068 82.876C235.764 82.876 235.496 82.952 235.264 83.104C235.032 83.256 234.768 83.48 234.472 83.776V88H233.488ZM243.122 88.144C242.626 88.144 242.17 88.052 241.754 87.868C241.338 87.684 240.974 87.42 240.662 87.076C240.358 86.724 240.118 86.296 239.942 85.792C239.774 85.28 239.69 84.704 239.69 84.064C239.69 83.432 239.778 82.864 239.954 82.36C240.13 81.856 240.374 81.428 240.686 81.076C240.998 80.724 241.366 80.456 241.79 80.272C242.214 80.08 242.678 79.984 243.182 79.984C243.662 79.984 244.082 80.084 244.442 80.284C244.81 80.476 245.11 80.7 245.342 80.956L244.802 81.604C244.594 81.38 244.358 81.2 244.094 81.064C243.83 80.928 243.53 80.86 243.194 80.86C242.818 80.86 242.478 80.936 242.174 81.088C241.87 81.232 241.61 81.444 241.394 81.724C241.178 81.996 241.01 82.328 240.89 82.72C240.778 83.112 240.722 83.552 240.722 84.04C240.722 84.536 240.778 84.984 240.89 85.384C241.01 85.776 241.174 86.112 241.382 86.392C241.59 86.672 241.842 86.888 242.138 87.04C242.442 87.192 242.782 87.268 243.158 87.268C243.542 87.268 243.878 87.192 244.166 87.04C244.454 86.88 244.726 86.66 244.982 86.38L245.534 87.004C245.222 87.364 244.87 87.644 244.478 87.844C244.086 88.044 243.634 88.144 243.122 88.144ZM246.906 88V79.456H247.89V81.784L247.854 82.984C248.134 82.72 248.426 82.496 248.73 82.312C249.034 82.12 249.39 82.024 249.798 82.024C250.414 82.024 250.862 82.216 251.142 82.6C251.43 82.984 251.574 83.552 251.574 84.304V88H250.59V84.436C250.59 83.884 250.502 83.488 250.326 83.248C250.15 83 249.87 82.876 249.486 82.876C249.182 82.876 248.914 82.952 248.682 83.104C248.45 83.256 248.186 83.48 247.89 83.776V88H246.906ZM254.777 88.144C254.289 88.144 253.881 88 253.553 87.712C253.233 87.424 253.073 87.016 253.073 86.488C253.073 85.848 253.357 85.36 253.925 85.024C254.493 84.68 255.401 84.44 256.649 84.304C256.649 84.12 256.629 83.94 256.589 83.764C256.557 83.588 256.497 83.432 256.409 83.296C256.321 83.16 256.197 83.052 256.037 82.972C255.885 82.884 255.689 82.84 255.449 82.84C255.113 82.84 254.797 82.904 254.501 83.032C254.205 83.16 253.941 83.304 253.709 83.464L253.325 82.78C253.597 82.604 253.929 82.436 254.321 82.276C254.713 82.108 255.145 82.024 255.617 82.024C256.329 82.024 256.845 82.244 257.165 82.684C257.485 83.116 257.645 83.696 257.645 84.424V88H256.829L256.745 87.304H256.709C256.429 87.536 256.129 87.736 255.809 87.904C255.489 88.064 255.145 88.144 254.777 88.144ZM255.065 87.352C255.345 87.352 255.609 87.288 255.857 87.16C256.105 87.024 256.369 86.828 256.649 86.572V84.952C256.161 85.016 255.749 85.092 255.413 85.18C255.085 85.268 254.817 85.372 254.609 85.492C254.409 85.612 254.261 85.752 254.165 85.912C254.077 86.064 254.033 86.232 254.033 86.416C254.033 86.752 254.133 86.992 254.333 87.136C254.533 87.28 254.777 87.352 255.065 87.352ZM259.48 88V82.168H260.296L260.38 83.008H260.416C260.696 82.728 260.988 82.496 261.292 82.312C261.604 82.12 261.964 82.024 262.372 82.024C262.988 82.024 263.436 82.216 263.716 82.6C264.004 82.984 264.148 83.552 264.148 84.304V88H263.164V84.436C263.164 83.884 263.076 83.488 262.9 83.248C262.724 83 262.444 82.876 262.06 82.876C261.756 82.876 261.488 82.952 261.256 83.104C261.024 83.256 260.76 83.48 260.464 83.776V88H259.48ZM268.011 90.688C267.651 90.688 267.323 90.652 267.027 90.58C266.731 90.516 266.475 90.416 266.259 90.28C266.051 90.144 265.887 89.98 265.767 89.788C265.655 89.596 265.599 89.372 265.599 89.116C265.599 88.868 265.675 88.632 265.827 88.408C265.979 88.184 266.187 87.98 266.451 87.796V87.748C266.307 87.66 266.183 87.54 266.079 87.388C265.983 87.228 265.935 87.032 265.935 86.8C265.935 86.552 266.003 86.336 266.139 86.152C266.275 85.968 266.419 85.824 266.571 85.72V85.672C266.379 85.512 266.203 85.3 266.043 85.036C265.891 84.764 265.815 84.452 265.815 84.1C265.815 83.78 265.871 83.492 265.983 83.236C266.103 82.98 266.263 82.764 266.463 82.588C266.663 82.404 266.895 82.264 267.159 82.168C267.431 82.072 267.715 82.024 268.011 82.024C268.171 82.024 268.319 82.04 268.455 82.072C268.599 82.096 268.727 82.128 268.839 82.168H270.867V82.924H269.667C269.803 83.06 269.915 83.232 270.003 83.44C270.099 83.648 270.147 83.876 270.147 84.124C270.147 84.436 270.091 84.72 269.979 84.976C269.867 85.224 269.715 85.436 269.523 85.612C269.331 85.78 269.103 85.912 268.839 86.008C268.583 86.104 268.307 86.152 268.011 86.152C267.867 86.152 267.719 86.136 267.567 86.104C267.415 86.064 267.271 86.012 267.135 85.948C267.031 86.036 266.943 86.136 266.871 86.248C266.799 86.352 266.763 86.484 266.763 86.644C266.763 86.828 266.835 86.98 266.979 87.1C267.123 87.22 267.395 87.28 267.795 87.28H268.923C269.603 87.28 270.111 87.392 270.447 87.616C270.791 87.832 270.963 88.184 270.963 88.672C270.963 88.944 270.895 89.2 270.759 89.44C270.623 89.688 270.427 89.904 270.171 90.088C269.915 90.272 269.603 90.416 269.235 90.52C268.875 90.632 268.467 90.688 268.011 90.688ZM268.011 85.492C268.179 85.492 268.335 85.46 268.479 85.396C268.631 85.332 268.763 85.24 268.875 85.12C268.995 85 269.087 84.856 269.151 84.688C269.215 84.512 269.247 84.316 269.247 84.1C269.247 83.668 269.127 83.336 268.887 83.104C268.647 82.864 268.355 82.744 268.011 82.744C267.667 82.744 267.375 82.864 267.135 83.104C266.895 83.336 266.775 83.668 266.775 84.1C266.775 84.316 266.807 84.512 266.871 84.688C266.935 84.856 267.023 85 267.135 85.12C267.255 85.24 267.387 85.332 267.531 85.396C267.683 85.46 267.843 85.492 268.011 85.492ZM268.155 90.004C268.435 90.004 268.687 89.968 268.911 89.896C269.143 89.832 269.339 89.744 269.499 89.632C269.659 89.528 269.783 89.404 269.871 89.26C269.959 89.116 270.003 88.968 270.003 88.816C270.003 88.544 269.903 88.356 269.703 88.252C269.503 88.148 269.211 88.096 268.827 88.096H267.819C267.707 88.096 267.583 88.088 267.447 88.072C267.319 88.064 267.191 88.04 267.063 88C266.855 88.152 266.703 88.312 266.607 88.48C266.511 88.648 266.463 88.816 266.463 88.984C266.463 89.296 266.611 89.544 266.907 89.728C267.211 89.912 267.627 90.004 268.155 90.004ZM274.289 88.144C273.897 88.144 273.529 88.076 273.185 87.94C272.849 87.796 272.553 87.596 272.297 87.34C272.049 87.076 271.853 86.756 271.709 86.38C271.565 86.004 271.493 85.576 271.493 85.096C271.493 84.616 271.565 84.188 271.709 83.812C271.861 83.428 272.057 83.104 272.297 82.84C272.545 82.576 272.825 82.376 273.137 82.24C273.449 82.096 273.773 82.024 274.109 82.024C274.477 82.024 274.805 82.088 275.093 82.216C275.389 82.344 275.633 82.528 275.825 82.768C276.025 83.008 276.177 83.296 276.281 83.632C276.385 83.968 276.437 84.344 276.437 84.76C276.437 84.864 276.433 84.968 276.425 85.072C276.425 85.168 276.417 85.252 276.401 85.324H272.465C272.505 85.948 272.697 86.444 273.041 86.812C273.393 87.172 273.849 87.352 274.409 87.352C274.689 87.352 274.945 87.312 275.177 87.232C275.417 87.144 275.645 87.032 275.861 86.896L276.209 87.544C275.953 87.704 275.669 87.844 275.357 87.964C275.045 88.084 274.689 88.144 274.289 88.144ZM272.453 84.616H275.573C275.573 84.024 275.445 83.576 275.189 83.272C274.941 82.96 274.589 82.804 274.133 82.804C273.925 82.804 273.725 82.844 273.533 82.924C273.349 83.004 273.181 83.124 273.029 83.284C272.877 83.436 272.749 83.624 272.645 83.848C272.549 84.072 272.485 84.328 272.453 84.616Z" fill="#FFCD50"/>
<path d="M233.508 41.144C233.092 41.144 232.696 41.068 232.32 40.916C231.944 40.764 231.616 40.572 231.336 40.34L231.828 39.68C232.084 39.888 232.344 40.056 232.608 40.184C232.88 40.312 233.192 40.376 233.544 40.376C233.928 40.376 234.216 40.288 234.408 40.112C234.6 39.936 234.696 39.72 234.696 39.464C234.696 39.312 234.656 39.18 234.576 39.068C234.496 38.956 234.392 38.86 234.264 38.78C234.144 38.692 234.004 38.616 233.844 38.552C233.684 38.488 233.524 38.424 233.364 38.36C233.156 38.288 232.948 38.208 232.74 38.12C232.532 38.024 232.344 37.912 232.176 37.784C232.016 37.648 231.884 37.492 231.78 37.316C231.676 37.14 231.624 36.928 231.624 36.68C231.624 36.448 231.668 36.232 231.756 36.032C231.852 35.824 231.984 35.648 232.152 35.504C232.328 35.352 232.54 35.236 232.788 35.156C233.036 35.068 233.316 35.024 233.628 35.024C233.996 35.024 234.332 35.088 234.636 35.216C234.948 35.344 235.216 35.5 235.44 35.684L234.972 36.308C234.772 36.156 234.564 36.032 234.348 35.936C234.132 35.84 233.896 35.792 233.64 35.792C233.272 35.792 233 35.876 232.824 36.044C232.656 36.212 232.572 36.408 232.572 36.632C232.572 36.768 232.608 36.888 232.68 36.992C232.752 37.088 232.848 37.176 232.968 37.256C233.088 37.328 233.224 37.396 233.376 37.46C233.536 37.516 233.7 37.576 233.868 37.64C234.076 37.72 234.284 37.804 234.492 37.892C234.708 37.98 234.9 38.092 235.068 38.228C235.236 38.356 235.372 38.516 235.476 38.708C235.588 38.9 235.644 39.132 235.644 39.404C235.644 39.644 235.596 39.868 235.5 40.076C235.412 40.284 235.276 40.468 235.092 40.628C234.916 40.788 234.692 40.912 234.42 41C234.156 41.096 233.852 41.144 233.508 41.144ZM239.375 41.144C238.983 41.144 238.615 41.076 238.271 40.94C237.935 40.796 237.639 40.596 237.383 40.34C237.135 40.076 236.939 39.756 236.795 39.38C236.651 39.004 236.579 38.576 236.579 38.096C236.579 37.616 236.651 37.188 236.795 36.812C236.947 36.428 237.143 36.104 237.383 35.84C237.631 35.576 237.911 35.376 238.223 35.24C238.535 35.096 238.859 35.024 239.195 35.024C239.563 35.024 239.891 35.088 240.179 35.216C240.475 35.344 240.719 35.528 240.911 35.768C241.111 36.008 241.263 36.296 241.367 36.632C241.471 36.968 241.523 37.344 241.523 37.76C241.523 37.864 241.519 37.968 241.511 38.072C241.511 38.168 241.503 38.252 241.487 38.324H237.551C237.591 38.948 237.783 39.444 238.127 39.812C238.479 40.172 238.935 40.352 239.495 40.352C239.775 40.352 240.031 40.312 240.263 40.232C240.503 40.144 240.731 40.032 240.947 39.896L241.295 40.544C241.039 40.704 240.755 40.844 240.443 40.964C240.131 41.084 239.775 41.144 239.375 41.144ZM237.539 37.616H240.659C240.659 37.024 240.531 36.576 240.275 36.272C240.027 35.96 239.675 35.804 239.219 35.804C239.011 35.804 238.811 35.844 238.619 35.924C238.435 36.004 238.267 36.124 238.115 36.284C237.963 36.436 237.835 36.624 237.731 36.848C237.635 37.072 237.571 37.328 237.539 37.616ZM244.683 41.144C244.371 41.144 244.107 41.096 243.891 41C243.683 40.904 243.511 40.772 243.375 40.604C243.247 40.436 243.155 40.232 243.099 39.992C243.043 39.752 243.015 39.488 243.015 39.2V35.972H242.151V35.228L243.063 35.168L243.183 33.536H244.011V35.168H245.583V35.972H244.011V39.212C244.011 39.572 244.075 39.852 244.203 40.052C244.339 40.244 244.575 40.34 244.911 40.34C245.015 40.34 245.127 40.324 245.247 40.292C245.367 40.26 245.475 40.224 245.571 40.184L245.763 40.928C245.603 40.984 245.427 41.032 245.235 41.072C245.051 41.12 244.867 41.144 244.683 41.144ZM249.182 41.144C248.63 41.144 248.118 41.04 247.646 40.832C247.174 40.624 246.766 40.34 246.422 39.98L247.022 39.284C247.302 39.58 247.63 39.82 248.006 40.004C248.39 40.18 248.786 40.268 249.194 40.268C249.714 40.268 250.118 40.152 250.406 39.92C250.694 39.68 250.838 39.368 250.838 38.984C250.838 38.784 250.802 38.616 250.73 38.48C250.666 38.336 250.574 38.216 250.454 38.12C250.342 38.016 250.206 37.924 250.046 37.844C249.886 37.764 249.714 37.68 249.53 37.592L248.402 37.1C248.218 37.02 248.03 36.924 247.838 36.812C247.646 36.7 247.474 36.564 247.322 36.404C247.17 36.244 247.046 36.056 246.95 35.84C246.854 35.616 246.806 35.36 246.806 35.072C246.806 34.776 246.866 34.5 246.986 34.244C247.114 33.988 247.286 33.768 247.502 33.584C247.726 33.392 247.986 33.244 248.282 33.14C248.586 33.036 248.918 32.984 249.278 32.984C249.75 32.984 250.186 33.076 250.586 33.26C250.986 33.436 251.326 33.668 251.606 33.956L251.066 34.604C250.826 34.372 250.558 34.192 250.262 34.064C249.974 33.928 249.646 33.86 249.278 33.86C248.838 33.86 248.482 33.964 248.21 34.172C247.946 34.372 247.814 34.652 247.814 35.012C247.814 35.204 247.85 35.368 247.922 35.504C248.002 35.632 248.106 35.748 248.234 35.852C248.362 35.948 248.502 36.036 248.654 36.116C248.806 36.188 248.962 36.256 249.122 36.32L250.238 36.8C250.462 36.896 250.674 37.008 250.874 37.136C251.074 37.256 251.246 37.4 251.39 37.568C251.534 37.728 251.646 37.92 251.726 38.144C251.814 38.36 251.858 38.612 251.858 38.9C251.858 39.212 251.794 39.504 251.666 39.776C251.546 40.048 251.37 40.288 251.138 40.496C250.906 40.696 250.626 40.856 250.298 40.976C249.97 41.088 249.598 41.144 249.182 41.144ZM254.855 41.144C254.543 41.144 254.279 41.096 254.063 41C253.855 40.904 253.683 40.772 253.547 40.604C253.419 40.436 253.327 40.232 253.271 39.992C253.215 39.752 253.187 39.488 253.187 39.2V35.972H252.323V35.228L253.235 35.168L253.355 33.536H254.183V35.168H255.755V35.972H254.183V39.212C254.183 39.572 254.247 39.852 254.375 40.052C254.511 40.244 254.747 40.34 255.083 40.34C255.187 40.34 255.299 40.324 255.419 40.292C255.539 40.26 255.647 40.224 255.743 40.184L255.935 40.928C255.775 40.984 255.599 41.032 255.407 41.072C255.223 41.12 255.039 41.144 254.855 41.144ZM258.16 41.144C257.672 41.144 257.264 41 256.936 40.712C256.616 40.424 256.456 40.016 256.456 39.488C256.456 38.848 256.74 38.36 257.308 38.024C257.876 37.68 258.784 37.44 260.032 37.304C260.032 37.12 260.012 36.94 259.972 36.764C259.94 36.588 259.88 36.432 259.792 36.296C259.704 36.16 259.58 36.052 259.42 35.972C259.268 35.884 259.072 35.84 258.832 35.84C258.496 35.84 258.18 35.904 257.884 36.032C257.588 36.16 257.324 36.304 257.092 36.464L256.708 35.78C256.98 35.604 257.312 35.436 257.704 35.276C258.096 35.108 258.528 35.024 259 35.024C259.712 35.024 260.228 35.244 260.548 35.684C260.868 36.116 261.028 36.696 261.028 37.424V41H260.212L260.128 40.304H260.092C259.812 40.536 259.512 40.736 259.192 40.904C258.872 41.064 258.528 41.144 258.16 41.144ZM258.448 40.352C258.728 40.352 258.992 40.288 259.24 40.16C259.488 40.024 259.752 39.828 260.032 39.572V37.952C259.544 38.016 259.132 38.092 258.796 38.18C258.468 38.268 258.2 38.372 257.992 38.492C257.792 38.612 257.644 38.752 257.548 38.912C257.46 39.064 257.416 39.232 257.416 39.416C257.416 39.752 257.516 39.992 257.716 40.136C257.916 40.28 258.16 40.352 258.448 40.352ZM264.535 41.144C264.223 41.144 263.959 41.096 263.743 41C263.535 40.904 263.363 40.772 263.227 40.604C263.099 40.436 263.007 40.232 262.951 39.992C262.895 39.752 262.867 39.488 262.867 39.2V35.972H262.003V35.228L262.915 35.168L263.035 33.536H263.863V35.168H265.435V35.972H263.863V39.212C263.863 39.572 263.927 39.852 264.055 40.052C264.191 40.244 264.427 40.34 264.763 40.34C264.867 40.34 264.979 40.324 265.099 40.292C265.219 40.26 265.327 40.224 265.423 40.184L265.615 40.928C265.455 40.984 265.279 41.032 265.087 41.072C264.903 41.12 264.719 41.144 264.535 41.144ZM268.953 41.144C268.561 41.144 268.193 41.076 267.849 40.94C267.513 40.796 267.217 40.596 266.961 40.34C266.713 40.076 266.517 39.756 266.373 39.38C266.229 39.004 266.157 38.576 266.157 38.096C266.157 37.616 266.229 37.188 266.373 36.812C266.525 36.428 266.721 36.104 266.961 35.84C267.209 35.576 267.489 35.376 267.801 35.24C268.113 35.096 268.437 35.024 268.773 35.024C269.141 35.024 269.469 35.088 269.757 35.216C270.053 35.344 270.297 35.528 270.489 35.768C270.689 36.008 270.841 36.296 270.945 36.632C271.049 36.968 271.101 37.344 271.101 37.76C271.101 37.864 271.097 37.968 271.089 38.072C271.089 38.168 271.081 38.252 271.065 38.324H267.129C267.169 38.948 267.361 39.444 267.705 39.812C268.057 40.172 268.513 40.352 269.073 40.352C269.353 40.352 269.609 40.312 269.841 40.232C270.081 40.144 270.309 40.032 270.525 39.896L270.873 40.544C270.617 40.704 270.333 40.844 270.021 40.964C269.709 41.084 269.353 41.144 268.953 41.144ZM267.117 37.616H270.237C270.237 37.024 270.109 36.576 269.853 36.272C269.605 35.96 269.253 35.804 268.797 35.804C268.589 35.804 268.389 35.844 268.197 35.924C268.013 36.004 267.845 36.124 267.693 36.284C267.541 36.436 267.413 36.624 267.309 36.848C267.213 37.072 267.149 37.328 267.117 37.616Z" fill="#FFCD50"/>
<path d="M250.5 44V75M250.5 93V127.5H236" stroke="#FCC438"/>
<path d="M96.1464 36.6464C95.9512 36.8417 95.9512 37.1583 96.1464 37.3536L99.3284 40.5355C99.5237 40.7308 99.8403 40.7308 100.036 40.5355C100.231 40.3403 100.231 40.0237 100.036 39.8284L97.2071 37L100.036 34.1716C100.231 33.9763 100.231 33.6597 100.036 33.4645C99.8403 33.2692 99.5237 33.2692 99.3284 33.4645L96.1464 36.6464ZM226 36.5L96.5 36.5V37.5L226 37.5V36.5Z" fill="#FCC438"/>
<path d="M45.6464 119.354C45.8417 119.549 46.1583 119.549 46.3536 119.354L49.5355 116.172C49.7308 115.976 49.7308 115.66 49.5355 115.464C49.3403 115.269 49.0237 115.269 48.8284 115.464L46 118.293L43.1716 115.464C42.9763 115.269 42.6597 115.269 42.4645 115.464C42.2692 115.66 42.2692 115.976 42.4645 116.172L45.6464 119.354ZM45.5 49L45.5 119L46.5 119L46.5 49L45.5 49Z" fill="#FCC438"/>
</svg>
