<svg width="958" height="365" viewBox="0 0 958 365" fill="none" xmlns="http://www.w3.org/2000/svg">
<g clip-path="url(#clip0)">
<rect width="958" height="365" fill="#011627"/>
<line x1="400.185" y1="83.0172" x2="597.185" y2="120.017" stroke="#ABB2B8" stroke-width="2"/>
<line x1="400.177" y1="82.9842" x2="194.177" y2="119.984" stroke="#ABB2B8" stroke-width="2"/>
<path d="M190.5 163.5L97.3614 200.933" stroke="#ABB2B8" stroke-width="2"/>
<line x1="190.309" y1="163.049" x2="307.309" y2="201.049" stroke="#ABB2B8" stroke-width="2"/>
<line x1="600.353" y1="163.936" x2="441.353" y2="223.936" stroke="#ABB2B8" stroke-width="2"/>
<line x1="600.346" y1="164.062" x2="703.346" y2="202.062" stroke="#ABB2B8" stroke-width="2"/>
<line x1="703.537" y1="245.844" x2="648.537" y2="280.844" stroke="#ABB2B8" stroke-width="2"/>
<line x1="703.407" y1="244.087" x2="786.407" y2="281.087" stroke="#ABB2B8" stroke-width="2"/>
<path d="M363 38H435V84H363V38Z" fill="#485763"/>
<path d="M363.5 38.5H434.5V83.5H363.5V38.5Z" stroke="white" stroke-opacity="0.37"/>
<path d="M389.098 62.5469H381.949L380.344 67H378.023L384.539 49.9375H386.508L393.035 67H390.727L389.098 62.5469ZM382.629 60.6953H388.43L385.523 52.7148L382.629 60.6953ZM405.703 60.8008C405.703 62.7305 405.262 64.2852 404.379 65.4648C403.496 66.6445 402.301 67.2344 400.793 67.2344C399.254 67.2344 398.043 66.7461 397.16 65.7695V71.875H394.992V54.3203H396.973L397.078 55.7266C397.961 54.6328 399.188 54.0859 400.758 54.0859C402.281 54.0859 403.484 54.6602 404.367 55.8086C405.258 56.957 405.703 58.5547 405.703 60.6016V60.8008ZM403.535 60.5547C403.535 59.125 403.23 57.9961 402.621 57.168C402.012 56.3398 401.176 55.9258 400.113 55.9258C398.801 55.9258 397.816 56.5078 397.16 57.6719V63.7305C397.809 64.8867 398.801 65.4648 400.137 65.4648C401.176 65.4648 402 65.0547 402.609 64.2344C403.227 63.4062 403.535 62.1797 403.535 60.5547ZM419.18 60.8008C419.18 62.7305 418.738 64.2852 417.855 65.4648C416.973 66.6445 415.777 67.2344 414.27 67.2344C412.73 67.2344 411.52 66.7461 410.637 65.7695V71.875H408.469V54.3203H410.449L410.555 55.7266C411.438 54.6328 412.664 54.0859 414.234 54.0859C415.758 54.0859 416.961 54.6602 417.844 55.8086C418.734 56.957 419.18 58.5547 419.18 60.6016V60.8008ZM417.012 60.5547C417.012 59.125 416.707 57.9961 416.098 57.168C415.488 56.3398 414.652 55.9258 413.59 55.9258C412.277 55.9258 411.293 56.5078 410.637 57.6719V63.7305C411.285 64.8867 412.277 65.4648 413.613 65.4648C414.652 65.4648 415.477 65.0547 416.086 64.2344C416.703 63.4062 417.012 62.1797 417.012 60.5547Z" fill="white"/>
<path d="M139 119H247V165H139V119Z" fill="#485763"/>
<path d="M139.5 119.5H246.5V164.5H139.5V119.5Z" stroke="white" stroke-opacity="0.37"/>
<path d="M158.758 140.395C156.828 139.84 155.422 139.16 154.539 138.355C153.664 137.543 153.227 136.543 153.227 135.355C153.227 134.012 153.762 132.902 154.832 132.027C155.91 131.145 157.309 130.703 159.027 130.703C160.199 130.703 161.242 130.93 162.156 131.383C163.078 131.836 163.789 132.461 164.289 133.258C164.797 134.055 165.051 134.926 165.051 135.871H162.789C162.789 134.84 162.461 134.031 161.805 133.445C161.148 132.852 160.223 132.555 159.027 132.555C157.918 132.555 157.051 132.801 156.426 133.293C155.809 133.777 155.5 134.453 155.5 135.32C155.5 136.016 155.793 136.605 156.379 137.09C156.973 137.566 157.977 138.004 159.391 138.402C160.812 138.801 161.922 139.242 162.719 139.727C163.523 140.203 164.117 140.762 164.5 141.402C164.891 142.043 165.086 142.797 165.086 143.664C165.086 145.047 164.547 146.156 163.469 146.992C162.391 147.82 160.949 148.234 159.145 148.234C157.973 148.234 156.879 148.012 155.863 147.566C154.848 147.113 154.062 146.496 153.508 145.715C152.961 144.934 152.688 144.047 152.688 143.055H154.949C154.949 144.086 155.328 144.902 156.086 145.504C156.852 146.098 157.871 146.395 159.145 146.395C160.332 146.395 161.242 146.152 161.875 145.668C162.508 145.184 162.824 144.523 162.824 143.688C162.824 142.852 162.531 142.207 161.945 141.754C161.359 141.293 160.297 140.84 158.758 140.395ZM169.996 148H167.828V135.32H169.996V148ZM167.652 131.957C167.652 131.605 167.758 131.309 167.969 131.066C168.188 130.824 168.508 130.703 168.93 130.703C169.352 130.703 169.672 130.824 169.891 131.066C170.109 131.309 170.219 131.605 170.219 131.957C170.219 132.309 170.109 132.602 169.891 132.836C169.672 133.07 169.352 133.188 168.93 133.188C168.508 133.188 168.188 133.07 167.969 132.836C167.758 132.602 167.652 132.309 167.652 131.957ZM172.949 141.555C172.949 139.609 173.41 138.047 174.332 136.867C175.254 135.68 176.461 135.086 177.953 135.086C179.438 135.086 180.613 135.594 181.48 136.609V130H183.648V148H181.656L181.551 146.641C180.684 147.703 179.477 148.234 177.93 148.234C176.461 148.234 175.262 147.633 174.332 146.43C173.41 145.227 172.949 143.656 172.949 141.719V141.555ZM175.117 141.801C175.117 143.238 175.414 144.363 176.008 145.176C176.602 145.988 177.422 146.395 178.469 146.395C179.844 146.395 180.848 145.777 181.48 144.543V138.719C180.832 137.523 179.836 136.926 178.492 136.926C177.43 136.926 176.602 137.336 176.008 138.156C175.414 138.977 175.117 140.191 175.117 141.801ZM192.285 148.234C190.566 148.234 189.168 147.672 188.09 146.547C187.012 145.414 186.473 143.902 186.473 142.012V141.613C186.473 140.355 186.711 139.234 187.188 138.25C187.672 137.258 188.344 136.484 189.203 135.93C190.07 135.367 191.008 135.086 192.016 135.086C193.664 135.086 194.945 135.629 195.859 136.715C196.773 137.801 197.23 139.355 197.23 141.379V142.281H188.641C188.672 143.531 189.035 144.543 189.73 145.316C190.434 146.082 191.324 146.465 192.402 146.465C193.168 146.465 193.816 146.309 194.348 145.996C194.879 145.684 195.344 145.27 195.742 144.754L197.066 145.785C196.004 147.418 194.41 148.234 192.285 148.234ZM192.016 136.867C191.141 136.867 190.406 137.188 189.812 137.828C189.219 138.461 188.852 139.352 188.711 140.5H195.062V140.336C195 139.234 194.703 138.383 194.172 137.781C193.641 137.172 192.922 136.867 192.016 136.867ZM200.09 148V130.938H205.668C207.52 130.938 208.91 131.32 209.84 132.086C210.777 132.852 211.246 133.984 211.246 135.484C211.246 136.281 211.02 136.988 210.566 137.605C210.113 138.215 209.496 138.688 208.715 139.023C209.637 139.281 210.363 139.773 210.895 140.5C211.434 141.219 211.703 142.078 211.703 143.078C211.703 144.609 211.207 145.812 210.215 146.688C209.223 147.562 207.82 148 206.008 148H200.09ZM202.34 140.02V146.16H206.055C207.102 146.16 207.926 145.891 208.527 145.352C209.137 144.805 209.441 144.055 209.441 143.102C209.441 141.047 208.324 140.02 206.09 140.02H202.34ZM202.34 138.215H205.738C206.723 138.215 207.508 137.969 208.094 137.477C208.688 136.984 208.984 136.316 208.984 135.473C208.984 134.535 208.711 133.855 208.164 133.434C207.617 133.004 206.785 132.789 205.668 132.789H202.34V138.215ZM222.531 148C222.406 147.75 222.305 147.305 222.227 146.664C221.219 147.711 220.016 148.234 218.617 148.234C217.367 148.234 216.34 147.883 215.535 147.18C214.738 146.469 214.34 145.57 214.34 144.484C214.34 143.164 214.84 142.141 215.84 141.414C216.848 140.68 218.262 140.312 220.082 140.312H222.191V139.316C222.191 138.559 221.965 137.957 221.512 137.512C221.059 137.059 220.391 136.832 219.508 136.832C218.734 136.832 218.086 137.027 217.562 137.418C217.039 137.809 216.777 138.281 216.777 138.836H214.598C214.598 138.203 214.82 137.594 215.266 137.008C215.719 136.414 216.328 135.945 217.094 135.602C217.867 135.258 218.715 135.086 219.637 135.086C221.098 135.086 222.242 135.453 223.07 136.188C223.898 136.914 224.328 137.918 224.359 139.199V145.035C224.359 146.199 224.508 147.125 224.805 147.812V148H222.531ZM218.934 146.348C219.613 146.348 220.258 146.172 220.867 145.82C221.477 145.469 221.918 145.012 222.191 144.449V141.848H220.492C217.836 141.848 216.508 142.625 216.508 144.18C216.508 144.859 216.734 145.391 217.188 145.773C217.641 146.156 218.223 146.348 218.934 146.348ZM233.887 137.266C233.559 137.211 233.203 137.184 232.82 137.184C231.398 137.184 230.434 137.789 229.926 139V148H227.758V135.32H229.867L229.902 136.785C230.613 135.652 231.621 135.086 232.926 135.086C233.348 135.086 233.668 135.141 233.887 135.25V137.266Z" fill="white"/>
<path d="M543 119H651V165H543V119Z" fill="#485763"/>
<path d="M543.5 119.5H650.5V164.5H543.5V119.5Z" stroke="white" stroke-opacity="0.37"/>
<path d="M575.344 130.938L580.922 144.859L586.5 130.938H589.418V148H587.168V141.355L587.379 134.184L581.777 148H580.055L574.465 134.219L574.688 141.355V148H572.438V130.938H575.344ZM600.879 148C600.754 147.75 600.652 147.305 600.574 146.664C599.566 147.711 598.363 148.234 596.965 148.234C595.715 148.234 594.688 147.883 593.883 147.18C593.086 146.469 592.688 145.57 592.688 144.484C592.688 143.164 593.188 142.141 594.188 141.414C595.195 140.68 596.609 140.312 598.43 140.312H600.539V139.316C600.539 138.559 600.312 137.957 599.859 137.512C599.406 137.059 598.738 136.832 597.855 136.832C597.082 136.832 596.434 137.027 595.91 137.418C595.387 137.809 595.125 138.281 595.125 138.836H592.945C592.945 138.203 593.168 137.594 593.613 137.008C594.066 136.414 594.676 135.945 595.441 135.602C596.215 135.258 597.062 135.086 597.984 135.086C599.445 135.086 600.59 135.453 601.418 136.188C602.246 136.914 602.676 137.918 602.707 139.199V145.035C602.707 146.199 602.855 147.125 603.152 147.812V148H600.879ZM597.281 146.348C597.961 146.348 598.605 146.172 599.215 145.82C599.824 145.469 600.266 145.012 600.539 144.449V141.848H598.84C596.184 141.848 594.855 142.625 594.855 144.18C594.855 144.859 595.082 145.391 595.535 145.773C595.988 146.156 596.57 146.348 597.281 146.348ZM608.461 148H606.293V135.32H608.461V148ZM606.117 131.957C606.117 131.605 606.223 131.309 606.434 131.066C606.652 130.824 606.973 130.703 607.395 130.703C607.816 130.703 608.137 130.824 608.355 131.066C608.574 131.309 608.684 131.605 608.684 131.957C608.684 132.309 608.574 132.602 608.355 132.836C608.137 133.07 607.816 133.188 607.395 133.188C606.973 133.188 606.652 133.07 606.434 132.836C606.223 132.602 606.117 132.309 606.117 131.957ZM613.992 135.32L614.062 136.914C615.031 135.695 616.297 135.086 617.859 135.086C620.539 135.086 621.891 136.598 621.914 139.621V148H619.746V139.609C619.738 138.695 619.527 138.02 619.113 137.582C618.707 137.145 618.07 136.926 617.203 136.926C616.5 136.926 615.883 137.113 615.352 137.488C614.82 137.863 614.406 138.355 614.109 138.965V148H611.941V135.32H613.992Z" fill="white"/>
<path d="M62 200H130V246H62V200Z" fill="#485763"/>
<path d="M62.5 200.5H129.5V245.5H62.5V200.5Z" stroke="white" stroke-opacity="0.37"/>
<path d="M78.6641 227.16H86.75V229H76.4023V211.938H78.6641V227.16ZM91.332 229H89.1641V216.32H91.332V229ZM88.9883 212.957C88.9883 212.605 89.0938 212.309 89.3047 212.066C89.5234 211.824 89.8438 211.703 90.2656 211.703C90.6875 211.703 91.0078 211.824 91.2266 212.066C91.4453 212.309 91.5547 212.605 91.5547 212.957C91.5547 213.309 91.4453 213.602 91.2266 213.836C91.0078 214.07 90.6875 214.188 90.2656 214.188C89.8438 214.188 89.5234 214.07 89.3047 213.836C89.0938 213.602 88.9883 213.309 88.9883 212.957ZM96.8633 216.32L96.9336 217.914C97.9023 216.695 99.168 216.086 100.73 216.086C103.41 216.086 104.762 217.598 104.785 220.621V229H102.617V220.609C102.609 219.695 102.398 219.02 101.984 218.582C101.578 218.145 100.941 217.926 100.074 217.926C99.3711 217.926 98.7539 218.113 98.2227 218.488C97.6914 218.863 97.2773 219.355 96.9805 219.965V229H94.8125V216.32H96.8633ZM111.594 223.129L110.234 224.547V229H108.066V211H110.234V221.887L111.395 220.492L115.344 216.32H117.98L113.047 221.617L118.555 229H116.012L111.594 223.129Z" fill="white"/>
<path d="M253 200H361V246H253V200Z" fill="#485763"/>
<path d="M253.5 200.5H360.5V245.5H253.5V200.5Z" stroke="white" stroke-opacity="0.37"/>
<path d="M272.406 227.16H280.492V229H270.145V211.938H272.406V227.16ZM282.145 222.543C282.145 221.301 282.387 220.184 282.871 219.191C283.363 218.199 284.043 217.434 284.91 216.895C285.785 216.355 286.781 216.086 287.898 216.086C289.625 216.086 291.02 216.684 292.082 217.879C293.152 219.074 293.688 220.664 293.688 222.648V222.801C293.688 224.035 293.449 225.145 292.973 226.129C292.504 227.105 291.828 227.867 290.945 228.414C290.07 228.961 289.062 229.234 287.922 229.234C286.203 229.234 284.809 228.637 283.738 227.441C282.676 226.246 282.145 224.664 282.145 222.695V222.543ZM284.324 222.801C284.324 224.207 284.648 225.336 285.297 226.188C285.953 227.039 286.828 227.465 287.922 227.465C289.023 227.465 289.898 227.035 290.547 226.176C291.195 225.309 291.52 224.098 291.52 222.543C291.52 221.152 291.188 220.027 290.523 219.168C289.867 218.301 288.992 217.867 287.898 217.867C286.828 217.867 285.965 218.293 285.309 219.145C284.652 219.996 284.324 221.215 284.324 222.801ZM295.891 222.555C295.891 220.578 296.348 219.008 297.262 217.844C298.176 216.672 299.387 216.086 300.895 216.086C302.441 216.086 303.648 216.633 304.516 217.727L304.621 216.32H306.602V228.695C306.602 230.336 306.113 231.629 305.137 232.574C304.168 233.52 302.863 233.992 301.223 233.992C300.309 233.992 299.414 233.797 298.539 233.406C297.664 233.016 296.996 232.48 296.535 231.801L297.66 230.5C298.59 231.648 299.727 232.223 301.07 232.223C302.125 232.223 302.945 231.926 303.531 231.332C304.125 230.738 304.422 229.902 304.422 228.824V227.734C303.555 228.734 302.371 229.234 300.871 229.234C299.387 229.234 298.184 228.637 297.262 227.441C296.348 226.246 295.891 224.617 295.891 222.555ZM298.07 222.801C298.07 224.23 298.363 225.355 298.949 226.176C299.535 226.988 300.355 227.395 301.41 227.395C302.777 227.395 303.781 226.773 304.422 225.531V219.742C303.758 218.531 302.762 217.926 301.434 217.926C300.379 217.926 299.555 218.336 298.961 219.156C298.367 219.977 298.07 221.191 298.07 222.801ZM323.348 221.02C323.348 222.691 323.066 224.152 322.504 225.402C321.941 226.645 321.145 227.594 320.113 228.25C319.082 228.906 317.879 229.234 316.504 229.234C315.16 229.234 313.969 228.906 312.93 228.25C311.891 227.586 311.082 226.645 310.504 225.426C309.934 224.199 309.641 222.781 309.625 221.172V219.941C309.625 218.301 309.91 216.852 310.48 215.594C311.051 214.336 311.855 213.375 312.895 212.711C313.941 212.039 315.137 211.703 316.48 211.703C317.848 211.703 319.051 212.035 320.09 212.699C321.137 213.355 321.941 214.312 322.504 215.57C323.066 216.82 323.348 218.277 323.348 219.941V221.02ZM321.109 219.918C321.109 217.895 320.703 216.344 319.891 215.266C319.078 214.18 317.941 213.637 316.48 213.637C315.059 213.637 313.938 214.18 313.117 215.266C312.305 216.344 311.887 217.844 311.863 219.766V221.02C311.863 222.98 312.273 224.523 313.094 225.648C313.922 226.766 315.059 227.324 316.504 227.324C317.957 227.324 319.082 226.797 319.879 225.742C320.676 224.68 321.086 223.16 321.109 221.184V219.918ZM334.211 227.746C333.367 228.738 332.129 229.234 330.496 229.234C329.145 229.234 328.113 228.844 327.402 228.062C326.699 227.273 326.344 226.109 326.336 224.57V216.32H328.504V224.512C328.504 226.434 329.285 227.395 330.848 227.395C332.504 227.395 333.605 226.777 334.152 225.543V216.32H336.32V229H334.258L334.211 227.746ZM342.566 213.25V216.32H344.934V217.996H342.566V225.859C342.566 226.367 342.672 226.75 342.883 227.008C343.094 227.258 343.453 227.383 343.961 227.383C344.211 227.383 344.555 227.336 344.992 227.242V229C344.422 229.156 343.867 229.234 343.328 229.234C342.359 229.234 341.629 228.941 341.137 228.355C340.645 227.77 340.398 226.938 340.398 225.859V217.996H338.09V216.32H340.398V213.25H342.566Z" fill="white"/>
<path d="M435 200H543V246H435V200Z" fill="#485763"/>
<path d="M435.5 200.5H542.5V245.5H435.5V200.5Z" stroke="white" stroke-opacity="0.37"/>
<path d="M465.445 229H463.184V221.113H454.582V229H452.332V211.938H454.582V219.273H463.184V211.938H465.445V229ZM474.363 229.234C472.645 229.234 471.246 228.672 470.168 227.547C469.09 226.414 468.551 224.902 468.551 223.012V222.613C468.551 221.355 468.789 220.234 469.266 219.25C469.75 218.258 470.422 217.484 471.281 216.93C472.148 216.367 473.086 216.086 474.094 216.086C475.742 216.086 477.023 216.629 477.938 217.715C478.852 218.801 479.309 220.355 479.309 222.379V223.281H470.719C470.75 224.531 471.113 225.543 471.809 226.316C472.512 227.082 473.402 227.465 474.48 227.465C475.246 227.465 475.895 227.309 476.426 226.996C476.957 226.684 477.422 226.27 477.82 225.754L479.145 226.785C478.082 228.418 476.488 229.234 474.363 229.234ZM474.094 217.867C473.219 217.867 472.484 218.188 471.891 218.828C471.297 219.461 470.93 220.352 470.789 221.5H477.141V221.336C477.078 220.234 476.781 219.383 476.25 218.781C475.719 218.172 475 217.867 474.094 217.867ZM489.656 229C489.531 228.75 489.43 228.305 489.352 227.664C488.344 228.711 487.141 229.234 485.742 229.234C484.492 229.234 483.465 228.883 482.66 228.18C481.863 227.469 481.465 226.57 481.465 225.484C481.465 224.164 481.965 223.141 482.965 222.414C483.973 221.68 485.387 221.312 487.207 221.312H489.316V220.316C489.316 219.559 489.09 218.957 488.637 218.512C488.184 218.059 487.516 217.832 486.633 217.832C485.859 217.832 485.211 218.027 484.688 218.418C484.164 218.809 483.902 219.281 483.902 219.836H481.723C481.723 219.203 481.945 218.594 482.391 218.008C482.844 217.414 483.453 216.945 484.219 216.602C484.992 216.258 485.84 216.086 486.762 216.086C488.223 216.086 489.367 216.453 490.195 217.188C491.023 217.914 491.453 218.918 491.484 220.199V226.035C491.484 227.199 491.633 228.125 491.93 228.812V229H489.656ZM486.059 227.348C486.738 227.348 487.383 227.172 487.992 226.82C488.602 226.469 489.043 226.012 489.316 225.449V222.848H487.617C484.961 222.848 483.633 223.625 483.633 225.18C483.633 225.859 483.859 226.391 484.312 226.773C484.766 227.156 485.348 227.348 486.059 227.348ZM494.355 222.555C494.355 220.609 494.816 219.047 495.738 217.867C496.66 216.68 497.867 216.086 499.359 216.086C500.844 216.086 502.02 216.594 502.887 217.609V211H505.055V229H503.062L502.957 227.641C502.09 228.703 500.883 229.234 499.336 229.234C497.867 229.234 496.668 228.633 495.738 227.43C494.816 226.227 494.355 224.656 494.355 222.719V222.555ZM496.523 222.801C496.523 224.238 496.82 225.363 497.414 226.176C498.008 226.988 498.828 227.395 499.875 227.395C501.25 227.395 502.254 226.777 502.887 225.543V219.719C502.238 218.523 501.242 217.926 499.898 217.926C498.836 217.926 498.008 218.336 497.414 219.156C496.82 219.977 496.523 221.191 496.523 222.801ZM513.691 229.234C511.973 229.234 510.574 228.672 509.496 227.547C508.418 226.414 507.879 224.902 507.879 223.012V222.613C507.879 221.355 508.117 220.234 508.594 219.25C509.078 218.258 509.75 217.484 510.609 216.93C511.477 216.367 512.414 216.086 513.422 216.086C515.07 216.086 516.352 216.629 517.266 217.715C518.18 218.801 518.637 220.355 518.637 222.379V223.281H510.047C510.078 224.531 510.441 225.543 511.137 226.316C511.84 227.082 512.73 227.465 513.809 227.465C514.574 227.465 515.223 227.309 515.754 226.996C516.285 226.684 516.75 226.27 517.148 225.754L518.473 226.785C517.41 228.418 515.816 229.234 513.691 229.234ZM513.422 217.867C512.547 217.867 511.812 218.188 511.219 218.828C510.625 219.461 510.258 220.352 510.117 221.5H516.469V221.336C516.406 220.234 516.109 219.383 515.578 218.781C515.047 218.172 514.328 217.867 513.422 217.867ZM527.285 218.266C526.957 218.211 526.602 218.184 526.219 218.184C524.797 218.184 523.832 218.789 523.324 220V229H521.156V216.32H523.266L523.301 217.785C524.012 216.652 525.02 216.086 526.324 216.086C526.746 216.086 527.066 216.141 527.285 216.25V218.266Z" fill="white"/>
<path d="M645 201H753V247H645V201Z" fill="#485763"/>
<path d="M645.5 201.5H752.5V246.5H645.5V201.5Z" stroke="white" stroke-opacity="0.37"/>
<path d="M671.914 224.586C671.703 226.391 671.035 227.785 669.91 228.77C668.793 229.746 667.305 230.234 665.445 230.234C663.43 230.234 661.812 229.512 660.594 228.066C659.383 226.621 658.777 224.688 658.777 222.266V220.625C658.777 219.039 659.059 217.645 659.621 216.441C660.191 215.238 660.996 214.316 662.035 213.676C663.074 213.027 664.277 212.703 665.645 212.703C667.457 212.703 668.91 213.211 670.004 214.227C671.098 215.234 671.734 216.633 671.914 218.422H669.652C669.457 217.062 669.031 216.078 668.375 215.469C667.727 214.859 666.816 214.555 665.645 214.555C664.207 214.555 663.078 215.086 662.258 216.148C661.445 217.211 661.039 218.723 661.039 220.684V222.336C661.039 224.188 661.426 225.66 662.199 226.754C662.973 227.848 664.055 228.395 665.445 228.395C666.695 228.395 667.652 228.113 668.316 227.551C668.988 226.98 669.434 225.992 669.652 224.586H671.914ZM674.082 223.543C674.082 222.301 674.324 221.184 674.809 220.191C675.301 219.199 675.98 218.434 676.848 217.895C677.723 217.355 678.719 217.086 679.836 217.086C681.562 217.086 682.957 217.684 684.02 218.879C685.09 220.074 685.625 221.664 685.625 223.648V223.801C685.625 225.035 685.387 226.145 684.91 227.129C684.441 228.105 683.766 228.867 682.883 229.414C682.008 229.961 681 230.234 679.859 230.234C678.141 230.234 676.746 229.637 675.676 228.441C674.613 227.246 674.082 225.664 674.082 223.695V223.543ZM676.262 223.801C676.262 225.207 676.586 226.336 677.234 227.188C677.891 228.039 678.766 228.465 679.859 228.465C680.961 228.465 681.836 228.035 682.484 227.176C683.133 226.309 683.457 225.098 683.457 223.543C683.457 222.152 683.125 221.027 682.461 220.168C681.805 219.301 680.93 218.867 679.836 218.867C678.766 218.867 677.902 219.293 677.246 220.145C676.59 220.996 676.262 222.215 676.262 223.801ZM690.395 217.32L690.465 218.914C691.434 217.695 692.699 217.086 694.262 217.086C696.941 217.086 698.293 218.598 698.316 221.621V230H696.148V221.609C696.141 220.695 695.93 220.02 695.516 219.582C695.109 219.145 694.473 218.926 693.605 218.926C692.902 218.926 692.285 219.113 691.754 219.488C691.223 219.863 690.809 220.355 690.512 220.965V230H688.344V217.32H690.395ZM704.527 214.25V217.32H706.895V218.996H704.527V226.859C704.527 227.367 704.633 227.75 704.844 228.008C705.055 228.258 705.414 228.383 705.922 228.383C706.172 228.383 706.516 228.336 706.953 228.242V230C706.383 230.156 705.828 230.234 705.289 230.234C704.32 230.234 703.59 229.941 703.098 229.355C702.605 228.77 702.359 227.938 702.359 226.859V218.996H700.051V217.32H702.359V214.25H704.527ZM714.699 230.234C712.98 230.234 711.582 229.672 710.504 228.547C709.426 227.414 708.887 225.902 708.887 224.012V223.613C708.887 222.355 709.125 221.234 709.602 220.25C710.086 219.258 710.758 218.484 711.617 217.93C712.484 217.367 713.422 217.086 714.43 217.086C716.078 217.086 717.359 217.629 718.273 218.715C719.188 219.801 719.645 221.355 719.645 223.379V224.281H711.055C711.086 225.531 711.449 226.543 712.145 227.316C712.848 228.082 713.738 228.465 714.816 228.465C715.582 228.465 716.23 228.309 716.762 227.996C717.293 227.684 717.758 227.27 718.156 226.754L719.48 227.785C718.418 229.418 716.824 230.234 714.699 230.234ZM714.43 218.867C713.555 218.867 712.82 219.188 712.227 219.828C711.633 220.461 711.266 221.352 711.125 222.5H717.477V222.336C717.414 221.234 717.117 220.383 716.586 219.781C716.055 219.172 715.336 218.867 714.43 218.867ZM724.215 217.32L724.285 218.914C725.254 217.695 726.52 217.086 728.082 217.086C730.762 217.086 732.113 218.598 732.137 221.621V230H729.969V221.609C729.961 220.695 729.75 220.02 729.336 219.582C728.93 219.145 728.293 218.926 727.426 218.926C726.723 218.926 726.105 219.113 725.574 219.488C725.043 219.863 724.629 220.355 724.332 220.965V230H722.164V217.32H724.215ZM738.348 214.25V217.32H740.715V218.996H738.348V226.859C738.348 227.367 738.453 227.75 738.664 228.008C738.875 228.258 739.234 228.383 739.742 228.383C739.992 228.383 740.336 228.336 740.773 228.242V230C740.203 230.156 739.648 230.234 739.109 230.234C738.141 230.234 737.41 229.941 736.918 229.355C736.426 228.77 736.18 227.938 736.18 226.859V218.996H733.871V217.32H736.18V214.25H738.348Z" fill="white"/>
<path d="M593 280H701V326H593V280Z" fill="#485763"/>
<path d="M593.5 280.5H700.5V325.5H593.5V280.5Z" stroke="white" stroke-opacity="0.37"/>
<path d="M632.254 307.16H640.34V309H629.992V291.938H632.254V307.16ZM644.922 309H642.754V296.32H644.922V309ZM642.578 292.957C642.578 292.605 642.684 292.309 642.895 292.066C643.113 291.824 643.434 291.703 643.855 291.703C644.277 291.703 644.598 291.824 644.816 292.066C645.035 292.309 645.145 292.605 645.145 292.957C645.145 293.309 645.035 293.602 644.816 293.836C644.598 294.07 644.277 294.188 643.855 294.188C643.434 294.188 643.113 294.07 642.895 293.836C642.684 293.602 642.578 293.309 642.578 292.957ZM655.785 305.637C655.785 305.051 655.562 304.598 655.117 304.277C654.68 303.949 653.91 303.668 652.809 303.434C651.715 303.199 650.844 302.918 650.195 302.59C649.555 302.262 649.078 301.871 648.766 301.418C648.461 300.965 648.309 300.426 648.309 299.801C648.309 298.762 648.746 297.883 649.621 297.164C650.504 296.445 651.629 296.086 652.996 296.086C654.434 296.086 655.598 296.457 656.488 297.199C657.387 297.941 657.836 298.891 657.836 300.047H655.656C655.656 299.453 655.402 298.941 654.895 298.512C654.395 298.082 653.762 297.867 652.996 297.867C652.207 297.867 651.59 298.039 651.145 298.383C650.699 298.727 650.477 299.176 650.477 299.73C650.477 300.254 650.684 300.648 651.098 300.914C651.512 301.18 652.258 301.434 653.336 301.676C654.422 301.918 655.301 302.207 655.973 302.543C656.645 302.879 657.141 303.285 657.461 303.762C657.789 304.23 657.953 304.805 657.953 305.484C657.953 306.617 657.5 307.527 656.594 308.215C655.688 308.895 654.512 309.234 653.066 309.234C652.051 309.234 651.152 309.055 650.371 308.695C649.59 308.336 648.977 307.836 648.531 307.195C648.094 306.547 647.875 305.848 647.875 305.098H650.043C650.082 305.824 650.371 306.402 650.91 306.832C651.457 307.254 652.176 307.465 653.066 307.465C653.887 307.465 654.543 307.301 655.035 306.973C655.535 306.637 655.785 306.191 655.785 305.637ZM663.719 293.25V296.32H666.086V297.996H663.719V305.859C663.719 306.367 663.824 306.75 664.035 307.008C664.246 307.258 664.605 307.383 665.113 307.383C665.363 307.383 665.707 307.336 666.145 307.242V309C665.574 309.156 665.02 309.234 664.48 309.234C663.512 309.234 662.781 308.941 662.289 308.355C661.797 307.77 661.551 306.938 661.551 305.859V297.996H659.242V296.32H661.551V293.25H663.719Z" fill="white"/>
<path d="M730 280H838V326H730V280Z" fill="#485763"/>
<path d="M730.5 280.5H837.5V325.5H730.5V280.5Z" stroke="white" stroke-opacity="0.37"/>
<path d="M750.445 304.547H743.297L741.691 309H739.371L745.887 291.938H747.855L754.383 309H752.074L750.445 304.547ZM743.977 302.695H749.777L746.871 294.715L743.977 302.695ZM755.812 302.555C755.812 300.609 756.273 299.047 757.195 297.867C758.117 296.68 759.324 296.086 760.816 296.086C762.301 296.086 763.477 296.594 764.344 297.609V291H766.512V309H764.52L764.414 307.641C763.547 308.703 762.34 309.234 760.793 309.234C759.324 309.234 758.125 308.633 757.195 307.43C756.273 306.227 755.812 304.656 755.812 302.719V302.555ZM757.98 302.801C757.98 304.238 758.277 305.363 758.871 306.176C759.465 306.988 760.285 307.395 761.332 307.395C762.707 307.395 763.711 306.777 764.344 305.543V299.719C763.695 298.523 762.699 297.926 761.355 297.926C760.293 297.926 759.465 298.336 758.871 299.156C758.277 299.977 757.98 301.191 757.98 302.801ZM769.359 302.555C769.359 300.609 769.82 299.047 770.742 297.867C771.664 296.68 772.871 296.086 774.363 296.086C775.848 296.086 777.023 296.594 777.891 297.609V291H780.059V309H778.066L777.961 307.641C777.094 308.703 775.887 309.234 774.34 309.234C772.871 309.234 771.672 308.633 770.742 307.43C769.82 306.227 769.359 304.656 769.359 302.719V302.555ZM771.527 302.801C771.527 304.238 771.824 305.363 772.418 306.176C773.012 306.988 773.832 307.395 774.879 307.395C776.254 307.395 777.258 306.777 777.891 305.543V299.719C777.242 298.523 776.246 297.926 774.902 297.926C773.84 297.926 773.012 298.336 772.418 299.156C771.824 299.977 771.527 301.191 771.527 302.801ZM786.188 309H783.938V291.938H786.188V309ZM792.914 293.25V296.32H795.281V297.996H792.914V305.859C792.914 306.367 793.02 306.75 793.23 307.008C793.441 307.258 793.801 307.383 794.309 307.383C794.559 307.383 794.902 307.336 795.34 307.242V309C794.77 309.156 794.215 309.234 793.676 309.234C792.707 309.234 791.977 308.941 791.484 308.355C790.992 307.77 790.746 306.938 790.746 305.859V297.996H788.438V296.32H790.746V293.25H792.914ZM803.086 309.234C801.367 309.234 799.969 308.672 798.891 307.547C797.812 306.414 797.273 304.902 797.273 303.012V302.613C797.273 301.355 797.512 300.234 797.988 299.25C798.473 298.258 799.145 297.484 800.004 296.93C800.871 296.367 801.809 296.086 802.816 296.086C804.465 296.086 805.746 296.629 806.66 297.715C807.574 298.801 808.031 300.355 808.031 302.379V303.281H799.441C799.473 304.531 799.836 305.543 800.531 306.316C801.234 307.082 802.125 307.465 803.203 307.465C803.969 307.465 804.617 307.309 805.148 306.996C805.68 306.684 806.145 306.27 806.543 305.754L807.867 306.785C806.805 308.418 805.211 309.234 803.086 309.234ZM802.816 297.867C801.941 297.867 801.207 298.188 800.613 298.828C800.02 299.461 799.652 300.352 799.512 301.5H805.863V301.336C805.801 300.234 805.504 299.383 804.973 298.781C804.441 298.172 803.723 297.867 802.816 297.867ZM812.59 296.32L812.648 297.727C813.578 296.633 814.832 296.086 816.41 296.086C818.184 296.086 819.391 296.766 820.031 298.125C820.453 297.516 821 297.023 821.672 296.648C822.352 296.273 823.152 296.086 824.074 296.086C826.855 296.086 828.27 297.559 828.316 300.504V309H826.148V300.633C826.148 299.727 825.941 299.051 825.527 298.605C825.113 298.152 824.418 297.926 823.441 297.926C822.637 297.926 821.969 298.168 821.438 298.652C820.906 299.129 820.598 299.773 820.512 300.586V309H818.332V300.691C818.332 298.848 817.43 297.926 815.625 297.926C814.203 297.926 813.23 298.531 812.707 299.742V309H810.539V296.32H812.59Z" fill="white"/>
<path d="M454.77 41.7891H449.285V57H447.047V41.7891H441.574V39.9375H454.77V41.7891ZM459.129 45.8555C460.09 44.6758 461.34 44.0859 462.879 44.0859C465.559 44.0859 466.91 45.5977 466.934 48.6211V57H464.766V48.6094C464.758 47.6953 464.547 47.0195 464.133 46.582C463.727 46.1445 463.09 45.9258 462.223 45.9258C461.52 45.9258 460.902 46.1133 460.371 46.4883C459.84 46.8633 459.426 47.3555 459.129 47.9648V57H456.961V39H459.129V45.8555ZM475.441 57.2344C473.723 57.2344 472.324 56.6719 471.246 55.5469C470.168 54.4141 469.629 52.9023 469.629 51.0117V50.6133C469.629 49.3555 469.867 48.2344 470.344 47.25C470.828 46.2578 471.5 45.4844 472.359 44.9297C473.227 44.3672 474.164 44.0859 475.172 44.0859C476.82 44.0859 478.102 44.6289 479.016 45.7148C479.93 46.8008 480.387 48.3555 480.387 50.3789V51.2812H471.797C471.828 52.5312 472.191 53.543 472.887 54.3164C473.59 55.082 474.48 55.4648 475.559 55.4648C476.324 55.4648 476.973 55.3086 477.504 54.9961C478.035 54.6836 478.5 54.2695 478.898 53.7539L480.223 54.7852C479.16 56.418 477.566 57.2344 475.441 57.2344ZM475.172 45.8672C474.297 45.8672 473.562 46.1875 472.969 46.8281C472.375 47.4609 472.008 48.3516 471.867 49.5H478.219V49.3359C478.156 48.2344 477.859 47.3828 477.328 46.7812C476.797 46.1719 476.078 45.8672 475.172 45.8672ZM484.945 44.3203L485.004 45.7266C485.934 44.6328 487.188 44.0859 488.766 44.0859C490.539 44.0859 491.746 44.7656 492.387 46.125C492.809 45.5156 493.355 45.0234 494.027 44.6484C494.707 44.2734 495.508 44.0859 496.43 44.0859C499.211 44.0859 500.625 45.5586 500.672 48.5039V57H498.504V48.6328C498.504 47.7266 498.297 47.0508 497.883 46.6055C497.469 46.1523 496.773 45.9258 495.797 45.9258C494.992 45.9258 494.324 46.168 493.793 46.6523C493.262 47.1289 492.953 47.7734 492.867 48.5859V57H490.688V48.6914C490.688 46.8477 489.785 45.9258 487.98 45.9258C486.559 45.9258 485.586 46.5312 485.062 47.7422V57H482.895V44.3203H484.945ZM509.215 57.2344C507.496 57.2344 506.098 56.6719 505.02 55.5469C503.941 54.4141 503.402 52.9023 503.402 51.0117V50.6133C503.402 49.3555 503.641 48.2344 504.117 47.25C504.602 46.2578 505.273 45.4844 506.133 44.9297C507 44.3672 507.938 44.0859 508.945 44.0859C510.594 44.0859 511.875 44.6289 512.789 45.7148C513.703 46.8008 514.16 48.3555 514.16 50.3789V51.2812H505.57C505.602 52.5312 505.965 53.543 506.66 54.3164C507.363 55.082 508.254 55.4648 509.332 55.4648C510.098 55.4648 510.746 55.3086 511.277 54.9961C511.809 54.6836 512.273 54.2695 512.672 53.7539L513.996 54.7852C512.934 56.418 511.34 57.2344 509.215 57.2344ZM508.945 45.8672C508.07 45.8672 507.336 46.1875 506.742 46.8281C506.148 47.4609 505.781 48.3516 505.641 49.5H511.992V49.3359C511.93 48.2344 511.633 47.3828 511.102 46.7812C510.57 46.1719 509.852 45.8672 508.945 45.8672Z" fill="#FCC438"/>
<line x1="703.161" y1="245.987" x2="489.161" y2="280.987" stroke="#ABB2B8" stroke-width="2"/>
<path d="M420 280H578V326H420V280Z" fill="#485763"/>
<path d="M420.5 280.5H577.5V325.5H420.5V280.5Z" stroke="white" stroke-opacity="0.37"/>
<path d="M421 281H577V325H421V281Z" stroke="#FCC438" stroke-width="2"/>
<path d="M440.953 293.789H435.469V309H433.23V293.789H427.758V291.938H440.953V293.789ZM445.312 297.855C446.273 296.676 447.523 296.086 449.062 296.086C451.742 296.086 453.094 297.598 453.117 300.621V309H450.949V300.609C450.941 299.695 450.73 299.02 450.316 298.582C449.91 298.145 449.273 297.926 448.406 297.926C447.703 297.926 447.086 298.113 446.555 298.488C446.023 298.863 445.609 299.355 445.312 299.965V309H443.145V291H445.312V297.855ZM461.625 309.234C459.906 309.234 458.508 308.672 457.43 307.547C456.352 306.414 455.812 304.902 455.812 303.012V302.613C455.812 301.355 456.051 300.234 456.527 299.25C457.012 298.258 457.684 297.484 458.543 296.93C459.41 296.367 460.348 296.086 461.355 296.086C463.004 296.086 464.285 296.629 465.199 297.715C466.113 298.801 466.57 300.355 466.57 302.379V303.281H457.98C458.012 304.531 458.375 305.543 459.07 306.316C459.773 307.082 460.664 307.465 461.742 307.465C462.508 307.465 463.156 307.309 463.688 306.996C464.219 306.684 464.684 306.27 465.082 305.754L466.406 306.785C465.344 308.418 463.75 309.234 461.625 309.234ZM461.355 297.867C460.48 297.867 459.746 298.188 459.152 298.828C458.559 299.461 458.191 300.352 458.051 301.5H464.402V301.336C464.34 300.234 464.043 299.383 463.512 298.781C462.98 298.172 462.262 297.867 461.355 297.867ZM471.129 296.32L471.188 297.727C472.117 296.633 473.371 296.086 474.949 296.086C476.723 296.086 477.93 296.766 478.57 298.125C478.992 297.516 479.539 297.023 480.211 296.648C480.891 296.273 481.691 296.086 482.613 296.086C485.395 296.086 486.809 297.559 486.855 300.504V309H484.688V300.633C484.688 299.727 484.48 299.051 484.066 298.605C483.652 298.152 482.957 297.926 481.98 297.926C481.176 297.926 480.508 298.168 479.977 298.652C479.445 299.129 479.137 299.773 479.051 300.586V309H476.871V300.691C476.871 298.848 475.969 297.926 474.164 297.926C472.742 297.926 471.77 298.531 471.246 299.742V309H469.078V296.32H471.129ZM495.398 309.234C493.68 309.234 492.281 308.672 491.203 307.547C490.125 306.414 489.586 304.902 489.586 303.012V302.613C489.586 301.355 489.824 300.234 490.301 299.25C490.785 298.258 491.457 297.484 492.316 296.93C493.184 296.367 494.121 296.086 495.129 296.086C496.777 296.086 498.059 296.629 498.973 297.715C499.887 298.801 500.344 300.355 500.344 302.379V303.281H491.754C491.785 304.531 492.148 305.543 492.844 306.316C493.547 307.082 494.438 307.465 495.516 307.465C496.281 307.465 496.93 307.309 497.461 306.996C497.992 306.684 498.457 306.27 498.855 305.754L500.18 306.785C499.117 308.418 497.523 309.234 495.398 309.234ZM495.129 297.867C494.254 297.867 493.52 298.188 492.926 298.828C492.332 299.461 491.965 300.352 491.824 301.5H498.176V301.336C498.113 300.234 497.816 299.383 497.285 298.781C496.754 298.172 496.035 297.867 495.129 297.867ZM503.203 309V291.938H508.781C510.633 291.938 512.023 292.32 512.953 293.086C513.891 293.852 514.359 294.984 514.359 296.484C514.359 297.281 514.133 297.988 513.68 298.605C513.227 299.215 512.609 299.688 511.828 300.023C512.75 300.281 513.477 300.773 514.008 301.5C514.547 302.219 514.816 303.078 514.816 304.078C514.816 305.609 514.32 306.812 513.328 307.688C512.336 308.562 510.934 309 509.121 309H503.203ZM505.453 301.02V307.16H509.168C510.215 307.16 511.039 306.891 511.641 306.352C512.25 305.805 512.555 305.055 512.555 304.102C512.555 302.047 511.438 301.02 509.203 301.02H505.453ZM505.453 299.215H508.852C509.836 299.215 510.621 298.969 511.207 298.477C511.801 297.984 512.098 297.316 512.098 296.473C512.098 295.535 511.824 294.855 511.277 294.434C510.73 294.004 509.898 293.789 508.781 293.789H505.453V299.215ZM525.645 307.746C524.801 308.738 523.562 309.234 521.93 309.234C520.578 309.234 519.547 308.844 518.836 308.062C518.133 307.273 517.777 306.109 517.77 304.57V296.32H519.938V304.512C519.938 306.434 520.719 307.395 522.281 307.395C523.938 307.395 525.039 306.777 525.586 305.543V296.32H527.754V309H525.691L525.645 307.746ZM534 293.25V296.32H536.367V297.996H534V305.859C534 306.367 534.105 306.75 534.316 307.008C534.527 307.258 534.887 307.383 535.395 307.383C535.645 307.383 535.988 307.336 536.426 307.242V309C535.855 309.156 535.301 309.234 534.762 309.234C533.793 309.234 533.062 308.941 532.57 308.355C532.078 307.77 531.832 306.938 531.832 305.859V297.996H529.523V296.32H531.832V293.25H534ZM541.852 293.25V296.32H544.219V297.996H541.852V305.859C541.852 306.367 541.957 306.75 542.168 307.008C542.379 307.258 542.738 307.383 543.246 307.383C543.496 307.383 543.84 307.336 544.277 307.242V309C543.707 309.156 543.152 309.234 542.613 309.234C541.645 309.234 540.914 308.941 540.422 308.355C539.93 307.77 539.684 306.938 539.684 305.859V297.996H537.375V296.32H539.684V293.25H541.852ZM545.953 302.543C545.953 301.301 546.195 300.184 546.68 299.191C547.172 298.199 547.852 297.434 548.719 296.895C549.594 296.355 550.59 296.086 551.707 296.086C553.434 296.086 554.828 296.684 555.891 297.879C556.961 299.074 557.496 300.664 557.496 302.648V302.801C557.496 304.035 557.258 305.145 556.781 306.129C556.312 307.105 555.637 307.867 554.754 308.414C553.879 308.961 552.871 309.234 551.73 309.234C550.012 309.234 548.617 308.637 547.547 307.441C546.484 306.246 545.953 304.664 545.953 302.695V302.543ZM548.133 302.801C548.133 304.207 548.457 305.336 549.105 306.188C549.762 307.039 550.637 307.465 551.73 307.465C552.832 307.465 553.707 307.035 554.355 306.176C555.004 305.309 555.328 304.098 555.328 302.543C555.328 301.152 554.996 300.027 554.332 299.168C553.676 298.301 552.801 297.867 551.707 297.867C550.637 297.867 549.773 298.293 549.117 299.145C548.461 299.996 548.133 301.215 548.133 302.801ZM562.266 296.32L562.336 297.914C563.305 296.695 564.57 296.086 566.133 296.086C568.812 296.086 570.164 297.598 570.188 300.621V309H568.02V300.609C568.012 299.695 567.801 299.02 567.387 298.582C566.98 298.145 566.344 297.926 565.477 297.926C564.773 297.926 564.156 298.113 563.625 298.488C563.094 298.863 562.68 299.355 562.383 299.965V309H560.215V296.32H562.266Z" fill="white"/>
<path d="M408.531 269.586C408.32 271.391 407.652 272.785 406.527 273.77C405.41 274.746 403.922 275.234 402.062 275.234C400.047 275.234 398.43 274.512 397.211 273.066C396 271.621 395.395 269.688 395.395 267.266V265.625C395.395 264.039 395.676 262.645 396.238 261.441C396.809 260.238 397.613 259.316 398.652 258.676C399.691 258.027 400.895 257.703 402.262 257.703C404.074 257.703 405.527 258.211 406.621 259.227C407.715 260.234 408.352 261.633 408.531 263.422H406.27C406.074 262.062 405.648 261.078 404.992 260.469C404.344 259.859 403.434 259.555 402.262 259.555C400.824 259.555 399.695 260.086 398.875 261.148C398.062 262.211 397.656 263.723 397.656 265.684V267.336C397.656 269.188 398.043 270.66 398.816 271.754C399.59 272.848 400.672 273.395 402.062 273.395C403.312 273.395 404.27 273.113 404.934 272.551C405.605 271.98 406.051 270.992 406.27 269.586H408.531ZM410.699 268.543C410.699 267.301 410.941 266.184 411.426 265.191C411.918 264.199 412.598 263.434 413.465 262.895C414.34 262.355 415.336 262.086 416.453 262.086C418.18 262.086 419.574 262.684 420.637 263.879C421.707 265.074 422.242 266.664 422.242 268.648V268.801C422.242 270.035 422.004 271.145 421.527 272.129C421.059 273.105 420.383 273.867 419.5 274.414C418.625 274.961 417.617 275.234 416.477 275.234C414.758 275.234 413.363 274.637 412.293 273.441C411.23 272.246 410.699 270.664 410.699 268.695V268.543ZM412.879 268.801C412.879 270.207 413.203 271.336 413.852 272.188C414.508 273.039 415.383 273.465 416.477 273.465C417.578 273.465 418.453 273.035 419.102 272.176C419.75 271.309 420.074 270.098 420.074 268.543C420.074 267.152 419.742 266.027 419.078 265.168C418.422 264.301 417.547 263.867 416.453 263.867C415.383 263.867 414.52 264.293 413.863 265.145C413.207 265.996 412.879 267.215 412.879 268.801ZM427.012 262.32L427.082 263.914C428.051 262.695 429.316 262.086 430.879 262.086C433.559 262.086 434.91 263.598 434.934 266.621V275H432.766V266.609C432.758 265.695 432.547 265.02 432.133 264.582C431.727 264.145 431.09 263.926 430.223 263.926C429.52 263.926 428.902 264.113 428.371 264.488C427.84 264.863 427.426 265.355 427.129 265.965V275H424.961V262.32H427.012ZM445.586 271.637C445.586 271.051 445.363 270.598 444.918 270.277C444.48 269.949 443.711 269.668 442.609 269.434C441.516 269.199 440.645 268.918 439.996 268.59C439.355 268.262 438.879 267.871 438.566 267.418C438.262 266.965 438.109 266.426 438.109 265.801C438.109 264.762 438.547 263.883 439.422 263.164C440.305 262.445 441.43 262.086 442.797 262.086C444.234 262.086 445.398 262.457 446.289 263.199C447.188 263.941 447.637 264.891 447.637 266.047H445.457C445.457 265.453 445.203 264.941 444.695 264.512C444.195 264.082 443.562 263.867 442.797 263.867C442.008 263.867 441.391 264.039 440.945 264.383C440.5 264.727 440.277 265.176 440.277 265.73C440.277 266.254 440.484 266.648 440.898 266.914C441.312 267.18 442.059 267.434 443.137 267.676C444.223 267.918 445.102 268.207 445.773 268.543C446.445 268.879 446.941 269.285 447.262 269.762C447.59 270.23 447.754 270.805 447.754 271.484C447.754 272.617 447.301 273.527 446.395 274.215C445.488 274.895 444.312 275.234 442.867 275.234C441.852 275.234 440.953 275.055 440.172 274.695C439.391 274.336 438.777 273.836 438.332 273.195C437.895 272.547 437.676 271.848 437.676 271.098H439.844C439.883 271.824 440.172 272.402 440.711 272.832C441.258 273.254 441.977 273.465 442.867 273.465C443.688 273.465 444.344 273.301 444.836 272.973C445.336 272.637 445.586 272.191 445.586 271.637ZM458.406 273.746C457.562 274.738 456.324 275.234 454.691 275.234C453.34 275.234 452.309 274.844 451.598 274.062C450.895 273.273 450.539 272.109 450.531 270.57V262.32H452.699V270.512C452.699 272.434 453.48 273.395 455.043 273.395C456.699 273.395 457.801 272.777 458.348 271.543V262.32H460.516V275H458.453L458.406 273.746ZM465.859 262.32L465.918 263.727C466.848 262.633 468.102 262.086 469.68 262.086C471.453 262.086 472.66 262.766 473.301 264.125C473.723 263.516 474.27 263.023 474.941 262.648C475.621 262.273 476.422 262.086 477.344 262.086C480.125 262.086 481.539 263.559 481.586 266.504V275H479.418V266.633C479.418 265.727 479.211 265.051 478.797 264.605C478.383 264.152 477.688 263.926 476.711 263.926C475.906 263.926 475.238 264.168 474.707 264.652C474.176 265.129 473.867 265.773 473.781 266.586V275H471.602V266.691C471.602 264.848 470.699 263.926 468.895 263.926C467.473 263.926 466.5 264.531 465.977 265.742V275H463.809V262.32H465.859ZM490.129 275.234C488.41 275.234 487.012 274.672 485.934 273.547C484.855 272.414 484.316 270.902 484.316 269.012V268.613C484.316 267.355 484.555 266.234 485.031 265.25C485.516 264.258 486.188 263.484 487.047 262.93C487.914 262.367 488.852 262.086 489.859 262.086C491.508 262.086 492.789 262.629 493.703 263.715C494.617 264.801 495.074 266.355 495.074 268.379V269.281H486.484C486.516 270.531 486.879 271.543 487.574 272.316C488.277 273.082 489.168 273.465 490.246 273.465C491.012 273.465 491.66 273.309 492.191 272.996C492.723 272.684 493.188 272.27 493.586 271.754L494.91 272.785C493.848 274.418 492.254 275.234 490.129 275.234ZM489.859 263.867C488.984 263.867 488.25 264.188 487.656 264.828C487.062 265.461 486.695 266.352 486.555 267.5H492.906V267.336C492.844 266.234 492.547 265.383 492.016 264.781C491.484 264.172 490.766 263.867 489.859 263.867ZM503.723 264.266C503.395 264.211 503.039 264.184 502.656 264.184C501.234 264.184 500.27 264.789 499.762 266V275H497.594V262.32H499.703L499.738 263.785C500.449 262.652 501.457 262.086 502.762 262.086C503.184 262.086 503.504 262.141 503.723 262.25V264.266Z" fill="#FCC438"/>
<path d="M448.23 75.3203V82H445.98V64.9375H452.273C454.141 64.9375 455.602 65.4141 456.656 66.3672C457.719 67.3203 458.25 68.582 458.25 70.1523C458.25 71.8086 457.73 73.0859 456.691 73.9844C455.66 74.875 454.18 75.3203 452.25 75.3203H448.23ZM448.23 73.4805H452.273C453.477 73.4805 454.398 73.1992 455.039 72.6367C455.68 72.0664 456 71.2461 456 70.1758C456 69.1602 455.68 68.3477 455.039 67.7383C454.398 67.1289 453.52 66.8125 452.402 66.7891H448.23V73.4805ZM466.91 71.2656C466.582 71.2109 466.227 71.1836 465.844 71.1836C464.422 71.1836 463.457 71.7891 462.949 73V82H460.781V69.3203H462.891L462.926 70.7852C463.637 69.6523 464.645 69.0859 465.949 69.0859C466.371 69.0859 466.691 69.1406 466.91 69.25V71.2656ZM468.105 75.543C468.105 74.3008 468.348 73.1836 468.832 72.1914C469.324 71.1992 470.004 70.4336 470.871 69.8945C471.746 69.3555 472.742 69.0859 473.859 69.0859C475.586 69.0859 476.98 69.6836 478.043 70.8789C479.113 72.0742 479.648 73.6641 479.648 75.6484V75.8008C479.648 77.0352 479.41 78.1445 478.934 79.1289C478.465 80.1055 477.789 80.8672 476.906 81.4141C476.031 81.9609 475.023 82.2344 473.883 82.2344C472.164 82.2344 470.77 81.6367 469.699 80.4414C468.637 79.2461 468.105 77.6641 468.105 75.6953V75.543ZM470.285 75.8008C470.285 77.207 470.609 78.3359 471.258 79.1875C471.914 80.0391 472.789 80.4648 473.883 80.4648C474.984 80.4648 475.859 80.0352 476.508 79.1758C477.156 78.3086 477.48 77.0977 477.48 75.543C477.48 74.1523 477.148 73.0273 476.484 72.168C475.828 71.3008 474.953 70.8672 473.859 70.8672C472.789 70.8672 471.926 71.293 471.27 72.1445C470.613 72.9961 470.285 74.2148 470.285 75.8008ZM486.363 79.0586L489.504 69.3203H491.719L487.172 82H485.52L480.926 69.3203H483.141L486.363 79.0586ZM496.16 82H493.992V69.3203H496.16V82ZM493.816 65.957C493.816 65.6055 493.922 65.3086 494.133 65.0664C494.352 64.8242 494.672 64.7031 495.094 64.7031C495.516 64.7031 495.836 64.8242 496.055 65.0664C496.273 65.3086 496.383 65.6055 496.383 65.957C496.383 66.3086 496.273 66.6016 496.055 66.8359C495.836 67.0703 495.516 67.1875 495.094 67.1875C494.672 67.1875 494.352 67.0703 494.133 66.8359C493.922 66.6016 493.816 66.3086 493.816 65.957ZM499.113 75.5547C499.113 73.6094 499.574 72.0469 500.496 70.8672C501.418 69.6797 502.625 69.0859 504.117 69.0859C505.602 69.0859 506.777 69.5938 507.645 70.6094V64H509.812V82H507.82L507.715 80.6406C506.848 81.7031 505.641 82.2344 504.094 82.2344C502.625 82.2344 501.426 81.6328 500.496 80.4297C499.574 79.2266 499.113 77.6562 499.113 75.7188V75.5547ZM501.281 75.8008C501.281 77.2383 501.578 78.3633 502.172 79.1758C502.766 79.9883 503.586 80.3945 504.633 80.3945C506.008 80.3945 507.012 79.7773 507.645 78.543V72.7188C506.996 71.5234 506 70.9258 504.656 70.9258C503.594 70.9258 502.766 71.3359 502.172 72.1562C501.578 72.9766 501.281 74.1914 501.281 75.8008ZM518.449 82.2344C516.73 82.2344 515.332 81.6719 514.254 80.5469C513.176 79.4141 512.637 77.9023 512.637 76.0117V75.6133C512.637 74.3555 512.875 73.2344 513.352 72.25C513.836 71.2578 514.508 70.4844 515.367 69.9297C516.234 69.3672 517.172 69.0859 518.18 69.0859C519.828 69.0859 521.109 69.6289 522.023 70.7148C522.938 71.8008 523.395 73.3555 523.395 75.3789V76.2812H514.805C514.836 77.5312 515.199 78.543 515.895 79.3164C516.598 80.082 517.488 80.4648 518.566 80.4648C519.332 80.4648 519.98 80.3086 520.512 79.9961C521.043 79.6836 521.508 79.2695 521.906 78.7539L523.23 79.7852C522.168 81.418 520.574 82.2344 518.449 82.2344ZM518.18 70.8672C517.305 70.8672 516.57 71.1875 515.977 71.8281C515.383 72.4609 515.016 73.3516 514.875 74.5H521.227V74.3359C521.164 73.2344 520.867 72.3828 520.336 71.7812C519.805 71.1719 519.086 70.8672 518.18 70.8672ZM532.043 71.2656C531.715 71.2109 531.359 71.1836 530.977 71.1836C529.555 71.1836 528.59 71.7891 528.082 73V82H525.914V69.3203H528.023L528.059 70.7852C528.77 69.6523 529.777 69.0859 531.082 69.0859C531.504 69.0859 531.824 69.1406 532.043 69.25V71.2656Z" fill="#FCC438"/>
<path d="M479 99.4999L480 99.4999L479 99.4999ZM469 109.5L469 110.5L469 109.5ZM437 109.5L437 108.5L437 109.5ZM427 119.5L428 119.5L427 119.5ZM426.293 253.707C426.683 254.098 427.316 254.098 427.707 253.707L434.071 247.343C434.461 246.953 434.461 246.319 434.071 245.929C433.68 245.538 433.047 245.538 432.657 245.929L427 251.586L421.343 245.929C420.952 245.538 420.319 245.538 419.929 245.929C419.538 246.319 419.538 246.953 419.929 247.343L426.293 253.707ZM478 84.9999L478 99.4999L480 99.4999L480 84.9999L478 84.9999ZM469 108.5L437 108.5L437 110.5L469 110.5L469 108.5ZM426 119.5L426 253L428 253L428 119.5L426 119.5ZM437 108.5C430.925 108.5 426 113.425 426 119.5L428 119.5C428 114.529 432.03 110.5 437 110.5L437 108.5ZM478 99.4999C478 104.47 473.97 108.5 469 108.5L469 110.5C475.075 110.5 480 105.575 480 99.4999L478 99.4999Z" fill="#FCC438"/>
</g>
<defs>
<clipPath id="clip0">
<rect width="958" height="365" fill="white"/>
</clipPath>
</defs>
</svg>
