<svg width="958" height="365" viewBox="0 0 958 365" fill="none" xmlns="http://www.w3.org/2000/svg">
<g clip-path="url(#clip0)">
<rect width="958" height="365" fill="#011627"/>
<line x1="400.185" y1="83.0172" x2="597.185" y2="120.017" stroke="#ABB2B8" stroke-width="2"/>
<line x1="400.177" y1="82.9842" x2="194.177" y2="119.984" stroke="#ABB2B8" stroke-width="2"/>
<path d="M190.5 163.5L97.3614 200.933" stroke="#ABB2B8" stroke-width="2"/>
<line x1="190.309" y1="163.049" x2="307.309" y2="201.049" stroke="#ABB2B8" stroke-width="2"/>
<line x1="600.353" y1="163.936" x2="441.353" y2="223.936" stroke="#ABB2B8" stroke-width="2"/>
<line x1="600.346" y1="164.062" x2="703.346" y2="202.062" stroke="#ABB2B8" stroke-width="2"/>
<line x1="703.537" y1="245.844" x2="648.537" y2="280.844" stroke="#ABB2B8" stroke-width="2"/>
<line x1="703.407" y1="244.087" x2="786.407" y2="281.087" stroke="#ABB2B8" stroke-width="2"/>
<path d="M363 38H435V84H363V38Z" fill="#485763"/>
<path d="M363.5 38.5H434.5V83.5H363.5V38.5Z" stroke="white" stroke-opacity="0.37"/>
<path d="M389.098 62.5469H381.949L380.344 67H378.023L384.539 49.9375H386.508L393.035 67H390.727L389.098 62.5469ZM382.629 60.6953H388.43L385.523 52.7148L382.629 60.6953ZM405.703 60.8008C405.703 62.7305 405.262 64.2852 404.379 65.4648C403.496 66.6445 402.301 67.2344 400.793 67.2344C399.254 67.2344 398.043 66.7461 397.16 65.7695V71.875H394.992V54.3203H396.973L397.078 55.7266C397.961 54.6328 399.188 54.0859 400.758 54.0859C402.281 54.0859 403.484 54.6602 404.367 55.8086C405.258 56.957 405.703 58.5547 405.703 60.6016V60.8008ZM403.535 60.5547C403.535 59.125 403.23 57.9961 402.621 57.168C402.012 56.3398 401.176 55.9258 400.113 55.9258C398.801 55.9258 397.816 56.5078 397.16 57.6719V63.7305C397.809 64.8867 398.801 65.4648 400.137 65.4648C401.176 65.4648 402 65.0547 402.609 64.2344C403.227 63.4062 403.535 62.1797 403.535 60.5547ZM419.18 60.8008C419.18 62.7305 418.738 64.2852 417.855 65.4648C416.973 66.6445 415.777 67.2344 414.27 67.2344C412.73 67.2344 411.52 66.7461 410.637 65.7695V71.875H408.469V54.3203H410.449L410.555 55.7266C411.438 54.6328 412.664 54.0859 414.234 54.0859C415.758 54.0859 416.961 54.6602 417.844 55.8086C418.734 56.957 419.18 58.5547 419.18 60.6016V60.8008ZM417.012 60.5547C417.012 59.125 416.707 57.9961 416.098 57.168C415.488 56.3398 414.652 55.9258 413.59 55.9258C412.277 55.9258 411.293 56.5078 410.637 57.6719V63.7305C411.285 64.8867 412.277 65.4648 413.613 65.4648C414.652 65.4648 415.477 65.0547 416.086 64.2344C416.703 63.4062 417.012 62.1797 417.012 60.5547Z" fill="white"/>
<path d="M139 119H247V165H139V119Z" fill="#485763"/>
<path d="M139.5 119.5H246.5V164.5H139.5V119.5Z" stroke="white" stroke-opacity="0.37"/>
<path d="M158.758 140.395C156.828 139.84 155.422 139.16 154.539 138.355C153.664 137.543 153.227 136.543 153.227 135.355C153.227 134.012 153.762 132.902 154.832 132.027C155.91 131.145 157.309 130.703 159.027 130.703C160.199 130.703 161.242 130.93 162.156 131.383C163.078 131.836 163.789 132.461 164.289 133.258C164.797 134.055 165.051 134.926 165.051 135.871H162.789C162.789 134.84 162.461 134.031 161.805 133.445C161.148 132.852 160.223 132.555 159.027 132.555C157.918 132.555 157.051 132.801 156.426 133.293C155.809 133.777 155.5 134.453 155.5 135.32C155.5 136.016 155.793 136.605 156.379 137.09C156.973 137.566 157.977 138.004 159.391 138.402C160.812 138.801 161.922 139.242 162.719 139.727C163.523 140.203 164.117 140.762 164.5 141.402C164.891 142.043 165.086 142.797 165.086 143.664C165.086 145.047 164.547 146.156 163.469 146.992C162.391 147.82 160.949 148.234 159.145 148.234C157.973 148.234 156.879 148.012 155.863 147.566C154.848 147.113 154.062 146.496 153.508 145.715C152.961 144.934 152.688 144.047 152.688 143.055H154.949C154.949 144.086 155.328 144.902 156.086 145.504C156.852 146.098 157.871 146.395 159.145 146.395C160.332 146.395 161.242 146.152 161.875 145.668C162.508 145.184 162.824 144.523 162.824 143.688C162.824 142.852 162.531 142.207 161.945 141.754C161.359 141.293 160.297 140.84 158.758 140.395ZM169.996 148H167.828V135.32H169.996V148ZM167.652 131.957C167.652 131.605 167.758 131.309 167.969 131.066C168.188 130.824 168.508 130.703 168.93 130.703C169.352 130.703 169.672 130.824 169.891 131.066C170.109 131.309 170.219 131.605 170.219 131.957C170.219 132.309 170.109 132.602 169.891 132.836C169.672 133.07 169.352 133.188 168.93 133.188C168.508 133.188 168.188 133.07 167.969 132.836C167.758 132.602 167.652 132.309 167.652 131.957ZM172.949 141.555C172.949 139.609 173.41 138.047 174.332 136.867C175.254 135.68 176.461 135.086 177.953 135.086C179.438 135.086 180.613 135.594 181.48 136.609V130H183.648V148H181.656L181.551 146.641C180.684 147.703 179.477 148.234 177.93 148.234C176.461 148.234 175.262 147.633 174.332 146.43C173.41 145.227 172.949 143.656 172.949 141.719V141.555ZM175.117 141.801C175.117 143.238 175.414 144.363 176.008 145.176C176.602 145.988 177.422 146.395 178.469 146.395C179.844 146.395 180.848 145.777 181.48 144.543V138.719C180.832 137.523 179.836 136.926 178.492 136.926C177.43 136.926 176.602 137.336 176.008 138.156C175.414 138.977 175.117 140.191 175.117 141.801ZM192.285 148.234C190.566 148.234 189.168 147.672 188.09 146.547C187.012 145.414 186.473 143.902 186.473 142.012V141.613C186.473 140.355 186.711 139.234 187.188 138.25C187.672 137.258 188.344 136.484 189.203 135.93C190.07 135.367 191.008 135.086 192.016 135.086C193.664 135.086 194.945 135.629 195.859 136.715C196.773 137.801 197.23 139.355 197.23 141.379V142.281H188.641C188.672 143.531 189.035 144.543 189.73 145.316C190.434 146.082 191.324 146.465 192.402 146.465C193.168 146.465 193.816 146.309 194.348 145.996C194.879 145.684 195.344 145.27 195.742 144.754L197.066 145.785C196.004 147.418 194.41 148.234 192.285 148.234ZM192.016 136.867C191.141 136.867 190.406 137.188 189.812 137.828C189.219 138.461 188.852 139.352 188.711 140.5H195.062V140.336C195 139.234 194.703 138.383 194.172 137.781C193.641 137.172 192.922 136.867 192.016 136.867ZM200.09 148V130.938H205.668C207.52 130.938 208.91 131.32 209.84 132.086C210.777 132.852 211.246 133.984 211.246 135.484C211.246 136.281 211.02 136.988 210.566 137.605C210.113 138.215 209.496 138.688 208.715 139.023C209.637 139.281 210.363 139.773 210.895 140.5C211.434 141.219 211.703 142.078 211.703 143.078C211.703 144.609 211.207 145.812 210.215 146.688C209.223 147.562 207.82 148 206.008 148H200.09ZM202.34 140.02V146.16H206.055C207.102 146.16 207.926 145.891 208.527 145.352C209.137 144.805 209.441 144.055 209.441 143.102C209.441 141.047 208.324 140.02 206.09 140.02H202.34ZM202.34 138.215H205.738C206.723 138.215 207.508 137.969 208.094 137.477C208.688 136.984 208.984 136.316 208.984 135.473C208.984 134.535 208.711 133.855 208.164 133.434C207.617 133.004 206.785 132.789 205.668 132.789H202.34V138.215ZM222.531 148C222.406 147.75 222.305 147.305 222.227 146.664C221.219 147.711 220.016 148.234 218.617 148.234C217.367 148.234 216.34 147.883 215.535 147.18C214.738 146.469 214.34 145.57 214.34 144.484C214.34 143.164 214.84 142.141 215.84 141.414C216.848 140.68 218.262 140.312 220.082 140.312H222.191V139.316C222.191 138.559 221.965 137.957 221.512 137.512C221.059 137.059 220.391 136.832 219.508 136.832C218.734 136.832 218.086 137.027 217.562 137.418C217.039 137.809 216.777 138.281 216.777 138.836H214.598C214.598 138.203 214.82 137.594 215.266 137.008C215.719 136.414 216.328 135.945 217.094 135.602C217.867 135.258 218.715 135.086 219.637 135.086C221.098 135.086 222.242 135.453 223.07 136.188C223.898 136.914 224.328 137.918 224.359 139.199V145.035C224.359 146.199 224.508 147.125 224.805 147.812V148H222.531ZM218.934 146.348C219.613 146.348 220.258 146.172 220.867 145.82C221.477 145.469 221.918 145.012 222.191 144.449V141.848H220.492C217.836 141.848 216.508 142.625 216.508 144.18C216.508 144.859 216.734 145.391 217.188 145.773C217.641 146.156 218.223 146.348 218.934 146.348ZM233.887 137.266C233.559 137.211 233.203 137.184 232.82 137.184C231.398 137.184 230.434 137.789 229.926 139V148H227.758V135.32H229.867L229.902 136.785C230.613 135.652 231.621 135.086 232.926 135.086C233.348 135.086 233.668 135.141 233.887 135.25V137.266Z" fill="white"/>
<path d="M543 119H651V165H543V119Z" fill="#485763"/>
<path d="M543.5 119.5H650.5V164.5H543.5V119.5Z" stroke="white" stroke-opacity="0.37"/>
<path d="M575.344 130.938L580.922 144.859L586.5 130.938H589.418V148H587.168V141.355L587.379 134.184L581.777 148H580.055L574.465 134.219L574.688 141.355V148H572.438V130.938H575.344ZM600.879 148C600.754 147.75 600.652 147.305 600.574 146.664C599.566 147.711 598.363 148.234 596.965 148.234C595.715 148.234 594.688 147.883 593.883 147.18C593.086 146.469 592.688 145.57 592.688 144.484C592.688 143.164 593.188 142.141 594.188 141.414C595.195 140.68 596.609 140.312 598.43 140.312H600.539V139.316C600.539 138.559 600.312 137.957 599.859 137.512C599.406 137.059 598.738 136.832 597.855 136.832C597.082 136.832 596.434 137.027 595.91 137.418C595.387 137.809 595.125 138.281 595.125 138.836H592.945C592.945 138.203 593.168 137.594 593.613 137.008C594.066 136.414 594.676 135.945 595.441 135.602C596.215 135.258 597.062 135.086 597.984 135.086C599.445 135.086 600.59 135.453 601.418 136.188C602.246 136.914 602.676 137.918 602.707 139.199V145.035C602.707 146.199 602.855 147.125 603.152 147.812V148H600.879ZM597.281 146.348C597.961 146.348 598.605 146.172 599.215 145.82C599.824 145.469 600.266 145.012 600.539 144.449V141.848H598.84C596.184 141.848 594.855 142.625 594.855 144.18C594.855 144.859 595.082 145.391 595.535 145.773C595.988 146.156 596.57 146.348 597.281 146.348ZM608.461 148H606.293V135.32H608.461V148ZM606.117 131.957C606.117 131.605 606.223 131.309 606.434 131.066C606.652 130.824 606.973 130.703 607.395 130.703C607.816 130.703 608.137 130.824 608.355 131.066C608.574 131.309 608.684 131.605 608.684 131.957C608.684 132.309 608.574 132.602 608.355 132.836C608.137 133.07 607.816 133.188 607.395 133.188C606.973 133.188 606.652 133.07 606.434 132.836C606.223 132.602 606.117 132.309 606.117 131.957ZM613.992 135.32L614.062 136.914C615.031 135.695 616.297 135.086 617.859 135.086C620.539 135.086 621.891 136.598 621.914 139.621V148H619.746V139.609C619.738 138.695 619.527 138.02 619.113 137.582C618.707 137.145 618.07 136.926 617.203 136.926C616.5 136.926 615.883 137.113 615.352 137.488C614.82 137.863 614.406 138.355 614.109 138.965V148H611.941V135.32H613.992Z" fill="white"/>
<path d="M42 200H150V246H42V200Z" fill="#485763"/>
<path d="M42.5 200.5H149.5V245.5H42.5V200.5Z" stroke="white" stroke-opacity="0.37"/>
<path d="M68.2148 229H65.9531L57.3633 215.852V229H55.1016V211.938H57.3633L65.9766 225.145V211.938H68.2148V229ZM79.6992 229C79.5742 228.75 79.4727 228.305 79.3945 227.664C78.3867 228.711 77.1836 229.234 75.7852 229.234C74.5352 229.234 73.5078 228.883 72.7031 228.18C71.9062 227.469 71.5078 226.57 71.5078 225.484C71.5078 224.164 72.0078 223.141 73.0078 222.414C74.0156 221.68 75.4297 221.312 77.25 221.312H79.3594V220.316C79.3594 219.559 79.1328 218.957 78.6797 218.512C78.2266 218.059 77.5586 217.832 76.6758 217.832C75.9023 217.832 75.2539 218.027 74.7305 218.418C74.207 218.809 73.9453 219.281 73.9453 219.836H71.7656C71.7656 219.203 71.9883 218.594 72.4336 218.008C72.8867 217.414 73.4961 216.945 74.2617 216.602C75.0352 216.258 75.8828 216.086 76.8047 216.086C78.2656 216.086 79.4102 216.453 80.2383 217.188C81.0664 217.914 81.4961 218.918 81.5273 220.199V226.035C81.5273 227.199 81.6758 228.125 81.9727 228.812V229H79.6992ZM76.1016 227.348C76.7812 227.348 77.4258 227.172 78.0352 226.82C78.6445 226.469 79.0859 226.012 79.3594 225.449V222.848H77.6602C75.0039 222.848 73.6758 223.625 73.6758 225.18C73.6758 225.859 73.9023 226.391 74.3555 226.773C74.8086 227.156 75.3906 227.348 76.1016 227.348ZM88.9219 226.059L92.0625 216.32H94.2773L89.7305 229H88.0781L83.4844 216.32H85.6992L88.9219 226.059ZM98.9648 227.16H107.051V229H96.7031V211.938H98.9648V227.16ZM111.633 229H109.465V216.32H111.633V229ZM109.289 212.957C109.289 212.605 109.395 212.309 109.605 212.066C109.824 211.824 110.145 211.703 110.566 211.703C110.988 211.703 111.309 211.824 111.527 212.066C111.746 212.309 111.855 212.605 111.855 212.957C111.855 213.309 111.746 213.602 111.527 213.836C111.309 214.07 110.988 214.188 110.566 214.188C110.145 214.188 109.824 214.07 109.605 213.836C109.395 213.602 109.289 213.309 109.289 212.957ZM117.164 216.32L117.234 217.914C118.203 216.695 119.469 216.086 121.031 216.086C123.711 216.086 125.062 217.598 125.086 220.621V229H122.918V220.609C122.91 219.695 122.699 219.02 122.285 218.582C121.879 218.145 121.242 217.926 120.375 217.926C119.672 217.926 119.055 218.113 118.523 218.488C117.992 218.863 117.578 219.355 117.281 219.965V229H115.113V216.32H117.164ZM131.895 223.129L130.535 224.547V229H128.367V211H130.535V221.887L131.695 220.492L135.645 216.32H138.281L133.348 221.617L138.855 229H136.312L131.895 223.129Z" fill="white"/>
<path d="M253 200H361V246H253V200Z" fill="#485763"/>
<path d="M253.5 200.5H360.5V245.5H253.5V200.5Z" stroke="white" stroke-opacity="0.37"/>
<path d="M272.406 227.16H280.492V229H270.145V211.938H272.406V227.16ZM282.145 222.543C282.145 221.301 282.387 220.184 282.871 219.191C283.363 218.199 284.043 217.434 284.91 216.895C285.785 216.355 286.781 216.086 287.898 216.086C289.625 216.086 291.02 216.684 292.082 217.879C293.152 219.074 293.688 220.664 293.688 222.648V222.801C293.688 224.035 293.449 225.145 292.973 226.129C292.504 227.105 291.828 227.867 290.945 228.414C290.07 228.961 289.062 229.234 287.922 229.234C286.203 229.234 284.809 228.637 283.738 227.441C282.676 226.246 282.145 224.664 282.145 222.695V222.543ZM284.324 222.801C284.324 224.207 284.648 225.336 285.297 226.188C285.953 227.039 286.828 227.465 287.922 227.465C289.023 227.465 289.898 227.035 290.547 226.176C291.195 225.309 291.52 224.098 291.52 222.543C291.52 221.152 291.188 220.027 290.523 219.168C289.867 218.301 288.992 217.867 287.898 217.867C286.828 217.867 285.965 218.293 285.309 219.145C284.652 219.996 284.324 221.215 284.324 222.801ZM295.891 222.555C295.891 220.578 296.348 219.008 297.262 217.844C298.176 216.672 299.387 216.086 300.895 216.086C302.441 216.086 303.648 216.633 304.516 217.727L304.621 216.32H306.602V228.695C306.602 230.336 306.113 231.629 305.137 232.574C304.168 233.52 302.863 233.992 301.223 233.992C300.309 233.992 299.414 233.797 298.539 233.406C297.664 233.016 296.996 232.48 296.535 231.801L297.66 230.5C298.59 231.648 299.727 232.223 301.07 232.223C302.125 232.223 302.945 231.926 303.531 231.332C304.125 230.738 304.422 229.902 304.422 228.824V227.734C303.555 228.734 302.371 229.234 300.871 229.234C299.387 229.234 298.184 228.637 297.262 227.441C296.348 226.246 295.891 224.617 295.891 222.555ZM298.07 222.801C298.07 224.23 298.363 225.355 298.949 226.176C299.535 226.988 300.355 227.395 301.41 227.395C302.777 227.395 303.781 226.773 304.422 225.531V219.742C303.758 218.531 302.762 217.926 301.434 217.926C300.379 217.926 299.555 218.336 298.961 219.156C298.367 219.977 298.07 221.191 298.07 222.801ZM323.348 221.02C323.348 222.691 323.066 224.152 322.504 225.402C321.941 226.645 321.145 227.594 320.113 228.25C319.082 228.906 317.879 229.234 316.504 229.234C315.16 229.234 313.969 228.906 312.93 228.25C311.891 227.586 311.082 226.645 310.504 225.426C309.934 224.199 309.641 222.781 309.625 221.172V219.941C309.625 218.301 309.91 216.852 310.48 215.594C311.051 214.336 311.855 213.375 312.895 212.711C313.941 212.039 315.137 211.703 316.48 211.703C317.848 211.703 319.051 212.035 320.09 212.699C321.137 213.355 321.941 214.312 322.504 215.57C323.066 216.82 323.348 218.277 323.348 219.941V221.02ZM321.109 219.918C321.109 217.895 320.703 216.344 319.891 215.266C319.078 214.18 317.941 213.637 316.48 213.637C315.059 213.637 313.938 214.18 313.117 215.266C312.305 216.344 311.887 217.844 311.863 219.766V221.02C311.863 222.98 312.273 224.523 313.094 225.648C313.922 226.766 315.059 227.324 316.504 227.324C317.957 227.324 319.082 226.797 319.879 225.742C320.676 224.68 321.086 223.16 321.109 221.184V219.918ZM334.211 227.746C333.367 228.738 332.129 229.234 330.496 229.234C329.145 229.234 328.113 228.844 327.402 228.062C326.699 227.273 326.344 226.109 326.336 224.57V216.32H328.504V224.512C328.504 226.434 329.285 227.395 330.848 227.395C332.504 227.395 333.605 226.777 334.152 225.543V216.32H336.32V229H334.258L334.211 227.746ZM342.566 213.25V216.32H344.934V217.996H342.566V225.859C342.566 226.367 342.672 226.75 342.883 227.008C343.094 227.258 343.453 227.383 343.961 227.383C344.211 227.383 344.555 227.336 344.992 227.242V229C344.422 229.156 343.867 229.234 343.328 229.234C342.359 229.234 341.629 228.941 341.137 228.355C340.645 227.77 340.398 226.938 340.398 225.859V217.996H338.09V216.32H340.398V213.25H342.566Z" fill="white"/>
<path d="M435 200H543V246H435V200Z" fill="#485763"/>
<path d="M435.5 200.5H542.5V245.5H435.5V200.5Z" stroke="white" stroke-opacity="0.37"/>
<path d="M465.445 229H463.184V221.113H454.582V229H452.332V211.938H454.582V219.273H463.184V211.938H465.445V229ZM474.363 229.234C472.645 229.234 471.246 228.672 470.168 227.547C469.09 226.414 468.551 224.902 468.551 223.012V222.613C468.551 221.355 468.789 220.234 469.266 219.25C469.75 218.258 470.422 217.484 471.281 216.93C472.148 216.367 473.086 216.086 474.094 216.086C475.742 216.086 477.023 216.629 477.938 217.715C478.852 218.801 479.309 220.355 479.309 222.379V223.281H470.719C470.75 224.531 471.113 225.543 471.809 226.316C472.512 227.082 473.402 227.465 474.48 227.465C475.246 227.465 475.895 227.309 476.426 226.996C476.957 226.684 477.422 226.27 477.82 225.754L479.145 226.785C478.082 228.418 476.488 229.234 474.363 229.234ZM474.094 217.867C473.219 217.867 472.484 218.188 471.891 218.828C471.297 219.461 470.93 220.352 470.789 221.5H477.141V221.336C477.078 220.234 476.781 219.383 476.25 218.781C475.719 218.172 475 217.867 474.094 217.867ZM489.656 229C489.531 228.75 489.43 228.305 489.352 227.664C488.344 228.711 487.141 229.234 485.742 229.234C484.492 229.234 483.465 228.883 482.66 228.18C481.863 227.469 481.465 226.57 481.465 225.484C481.465 224.164 481.965 223.141 482.965 222.414C483.973 221.68 485.387 221.312 487.207 221.312H489.316V220.316C489.316 219.559 489.09 218.957 488.637 218.512C488.184 218.059 487.516 217.832 486.633 217.832C485.859 217.832 485.211 218.027 484.688 218.418C484.164 218.809 483.902 219.281 483.902 219.836H481.723C481.723 219.203 481.945 218.594 482.391 218.008C482.844 217.414 483.453 216.945 484.219 216.602C484.992 216.258 485.84 216.086 486.762 216.086C488.223 216.086 489.367 216.453 490.195 217.188C491.023 217.914 491.453 218.918 491.484 220.199V226.035C491.484 227.199 491.633 228.125 491.93 228.812V229H489.656ZM486.059 227.348C486.738 227.348 487.383 227.172 487.992 226.82C488.602 226.469 489.043 226.012 489.316 225.449V222.848H487.617C484.961 222.848 483.633 223.625 483.633 225.18C483.633 225.859 483.859 226.391 484.312 226.773C484.766 227.156 485.348 227.348 486.059 227.348ZM494.355 222.555C494.355 220.609 494.816 219.047 495.738 217.867C496.66 216.68 497.867 216.086 499.359 216.086C500.844 216.086 502.02 216.594 502.887 217.609V211H505.055V229H503.062L502.957 227.641C502.09 228.703 500.883 229.234 499.336 229.234C497.867 229.234 496.668 228.633 495.738 227.43C494.816 226.227 494.355 224.656 494.355 222.719V222.555ZM496.523 222.801C496.523 224.238 496.82 225.363 497.414 226.176C498.008 226.988 498.828 227.395 499.875 227.395C501.25 227.395 502.254 226.777 502.887 225.543V219.719C502.238 218.523 501.242 217.926 499.898 217.926C498.836 217.926 498.008 218.336 497.414 219.156C496.82 219.977 496.523 221.191 496.523 222.801ZM513.691 229.234C511.973 229.234 510.574 228.672 509.496 227.547C508.418 226.414 507.879 224.902 507.879 223.012V222.613C507.879 221.355 508.117 220.234 508.594 219.25C509.078 218.258 509.75 217.484 510.609 216.93C511.477 216.367 512.414 216.086 513.422 216.086C515.07 216.086 516.352 216.629 517.266 217.715C518.18 218.801 518.637 220.355 518.637 222.379V223.281H510.047C510.078 224.531 510.441 225.543 511.137 226.316C511.84 227.082 512.73 227.465 513.809 227.465C514.574 227.465 515.223 227.309 515.754 226.996C516.285 226.684 516.75 226.27 517.148 225.754L518.473 226.785C517.41 228.418 515.816 229.234 513.691 229.234ZM513.422 217.867C512.547 217.867 511.812 218.188 511.219 218.828C510.625 219.461 510.258 220.352 510.117 221.5H516.469V221.336C516.406 220.234 516.109 219.383 515.578 218.781C515.047 218.172 514.328 217.867 513.422 217.867ZM527.285 218.266C526.957 218.211 526.602 218.184 526.219 218.184C524.797 218.184 523.832 218.789 523.324 220V229H521.156V216.32H523.266L523.301 217.785C524.012 216.652 525.02 216.086 526.324 216.086C526.746 216.086 527.066 216.141 527.285 216.25V218.266Z" fill="white"/>
<path d="M645 201H753V247H645V201Z" fill="#485763"/>
<path d="M645.5 201.5H752.5V246.5H645.5V201.5Z" stroke="white" stroke-opacity="0.37"/>
<path d="M671.914 224.586C671.703 226.391 671.035 227.785 669.91 228.77C668.793 229.746 667.305 230.234 665.445 230.234C663.43 230.234 661.812 229.512 660.594 228.066C659.383 226.621 658.777 224.688 658.777 222.266V220.625C658.777 219.039 659.059 217.645 659.621 216.441C660.191 215.238 660.996 214.316 662.035 213.676C663.074 213.027 664.277 212.703 665.645 212.703C667.457 212.703 668.91 213.211 670.004 214.227C671.098 215.234 671.734 216.633 671.914 218.422H669.652C669.457 217.062 669.031 216.078 668.375 215.469C667.727 214.859 666.816 214.555 665.645 214.555C664.207 214.555 663.078 215.086 662.258 216.148C661.445 217.211 661.039 218.723 661.039 220.684V222.336C661.039 224.188 661.426 225.66 662.199 226.754C662.973 227.848 664.055 228.395 665.445 228.395C666.695 228.395 667.652 228.113 668.316 227.551C668.988 226.98 669.434 225.992 669.652 224.586H671.914ZM674.082 223.543C674.082 222.301 674.324 221.184 674.809 220.191C675.301 219.199 675.98 218.434 676.848 217.895C677.723 217.355 678.719 217.086 679.836 217.086C681.562 217.086 682.957 217.684 684.02 218.879C685.09 220.074 685.625 221.664 685.625 223.648V223.801C685.625 225.035 685.387 226.145 684.91 227.129C684.441 228.105 683.766 228.867 682.883 229.414C682.008 229.961 681 230.234 679.859 230.234C678.141 230.234 676.746 229.637 675.676 228.441C674.613 227.246 674.082 225.664 674.082 223.695V223.543ZM676.262 223.801C676.262 225.207 676.586 226.336 677.234 227.188C677.891 228.039 678.766 228.465 679.859 228.465C680.961 228.465 681.836 228.035 682.484 227.176C683.133 226.309 683.457 225.098 683.457 223.543C683.457 222.152 683.125 221.027 682.461 220.168C681.805 219.301 680.93 218.867 679.836 218.867C678.766 218.867 677.902 219.293 677.246 220.145C676.59 220.996 676.262 222.215 676.262 223.801ZM690.395 217.32L690.465 218.914C691.434 217.695 692.699 217.086 694.262 217.086C696.941 217.086 698.293 218.598 698.316 221.621V230H696.148V221.609C696.141 220.695 695.93 220.02 695.516 219.582C695.109 219.145 694.473 218.926 693.605 218.926C692.902 218.926 692.285 219.113 691.754 219.488C691.223 219.863 690.809 220.355 690.512 220.965V230H688.344V217.32H690.395ZM704.527 214.25V217.32H706.895V218.996H704.527V226.859C704.527 227.367 704.633 227.75 704.844 228.008C705.055 228.258 705.414 228.383 705.922 228.383C706.172 228.383 706.516 228.336 706.953 228.242V230C706.383 230.156 705.828 230.234 705.289 230.234C704.32 230.234 703.59 229.941 703.098 229.355C702.605 228.77 702.359 227.938 702.359 226.859V218.996H700.051V217.32H702.359V214.25H704.527ZM714.699 230.234C712.98 230.234 711.582 229.672 710.504 228.547C709.426 227.414 708.887 225.902 708.887 224.012V223.613C708.887 222.355 709.125 221.234 709.602 220.25C710.086 219.258 710.758 218.484 711.617 217.93C712.484 217.367 713.422 217.086 714.43 217.086C716.078 217.086 717.359 217.629 718.273 218.715C719.188 219.801 719.645 221.355 719.645 223.379V224.281H711.055C711.086 225.531 711.449 226.543 712.145 227.316C712.848 228.082 713.738 228.465 714.816 228.465C715.582 228.465 716.23 228.309 716.762 227.996C717.293 227.684 717.758 227.27 718.156 226.754L719.48 227.785C718.418 229.418 716.824 230.234 714.699 230.234ZM714.43 218.867C713.555 218.867 712.82 219.188 712.227 219.828C711.633 220.461 711.266 221.352 711.125 222.5H717.477V222.336C717.414 221.234 717.117 220.383 716.586 219.781C716.055 219.172 715.336 218.867 714.43 218.867ZM724.215 217.32L724.285 218.914C725.254 217.695 726.52 217.086 728.082 217.086C730.762 217.086 732.113 218.598 732.137 221.621V230H729.969V221.609C729.961 220.695 729.75 220.02 729.336 219.582C728.93 219.145 728.293 218.926 727.426 218.926C726.723 218.926 726.105 219.113 725.574 219.488C725.043 219.863 724.629 220.355 724.332 220.965V230H722.164V217.32H724.215ZM738.348 214.25V217.32H740.715V218.996H738.348V226.859C738.348 227.367 738.453 227.75 738.664 228.008C738.875 228.258 739.234 228.383 739.742 228.383C739.992 228.383 740.336 228.336 740.773 228.242V230C740.203 230.156 739.648 230.234 739.109 230.234C738.141 230.234 737.41 229.941 736.918 229.355C736.426 228.77 736.18 227.938 736.18 226.859V218.996H733.871V217.32H736.18V214.25H738.348Z" fill="white"/>
<path d="M593 280H701V326H593V280Z" fill="#485763"/>
<path d="M593.5 280.5H700.5V325.5H593.5V280.5Z" stroke="white" stroke-opacity="0.37"/>
<path d="M632.254 307.16H640.34V309H629.992V291.938H632.254V307.16ZM644.922 309H642.754V296.32H644.922V309ZM642.578 292.957C642.578 292.605 642.684 292.309 642.895 292.066C643.113 291.824 643.434 291.703 643.855 291.703C644.277 291.703 644.598 291.824 644.816 292.066C645.035 292.309 645.145 292.605 645.145 292.957C645.145 293.309 645.035 293.602 644.816 293.836C644.598 294.07 644.277 294.188 643.855 294.188C643.434 294.188 643.113 294.07 642.895 293.836C642.684 293.602 642.578 293.309 642.578 292.957ZM655.785 305.637C655.785 305.051 655.562 304.598 655.117 304.277C654.68 303.949 653.91 303.668 652.809 303.434C651.715 303.199 650.844 302.918 650.195 302.59C649.555 302.262 649.078 301.871 648.766 301.418C648.461 300.965 648.309 300.426 648.309 299.801C648.309 298.762 648.746 297.883 649.621 297.164C650.504 296.445 651.629 296.086 652.996 296.086C654.434 296.086 655.598 296.457 656.488 297.199C657.387 297.941 657.836 298.891 657.836 300.047H655.656C655.656 299.453 655.402 298.941 654.895 298.512C654.395 298.082 653.762 297.867 652.996 297.867C652.207 297.867 651.59 298.039 651.145 298.383C650.699 298.727 650.477 299.176 650.477 299.73C650.477 300.254 650.684 300.648 651.098 300.914C651.512 301.18 652.258 301.434 653.336 301.676C654.422 301.918 655.301 302.207 655.973 302.543C656.645 302.879 657.141 303.285 657.461 303.762C657.789 304.23 657.953 304.805 657.953 305.484C657.953 306.617 657.5 307.527 656.594 308.215C655.688 308.895 654.512 309.234 653.066 309.234C652.051 309.234 651.152 309.055 650.371 308.695C649.59 308.336 648.977 307.836 648.531 307.195C648.094 306.547 647.875 305.848 647.875 305.098H650.043C650.082 305.824 650.371 306.402 650.91 306.832C651.457 307.254 652.176 307.465 653.066 307.465C653.887 307.465 654.543 307.301 655.035 306.973C655.535 306.637 655.785 306.191 655.785 305.637ZM663.719 293.25V296.32H666.086V297.996H663.719V305.859C663.719 306.367 663.824 306.75 664.035 307.008C664.246 307.258 664.605 307.383 665.113 307.383C665.363 307.383 665.707 307.336 666.145 307.242V309C665.574 309.156 665.02 309.234 664.48 309.234C663.512 309.234 662.781 308.941 662.289 308.355C661.797 307.77 661.551 306.938 661.551 305.859V297.996H659.242V296.32H661.551V293.25H663.719Z" fill="white"/>
<path d="M730 280H838V326H730V280Z" fill="#485763"/>
<path d="M730.5 280.5H837.5V325.5H730.5V280.5Z" stroke="white" stroke-opacity="0.37"/>
<path d="M750.445 304.547H743.297L741.691 309H739.371L745.887 291.938H747.855L754.383 309H752.074L750.445 304.547ZM743.977 302.695H749.777L746.871 294.715L743.977 302.695ZM755.812 302.555C755.812 300.609 756.273 299.047 757.195 297.867C758.117 296.68 759.324 296.086 760.816 296.086C762.301 296.086 763.477 296.594 764.344 297.609V291H766.512V309H764.52L764.414 307.641C763.547 308.703 762.34 309.234 760.793 309.234C759.324 309.234 758.125 308.633 757.195 307.43C756.273 306.227 755.812 304.656 755.812 302.719V302.555ZM757.98 302.801C757.98 304.238 758.277 305.363 758.871 306.176C759.465 306.988 760.285 307.395 761.332 307.395C762.707 307.395 763.711 306.777 764.344 305.543V299.719C763.695 298.523 762.699 297.926 761.355 297.926C760.293 297.926 759.465 298.336 758.871 299.156C758.277 299.977 757.98 301.191 757.98 302.801ZM769.359 302.555C769.359 300.609 769.82 299.047 770.742 297.867C771.664 296.68 772.871 296.086 774.363 296.086C775.848 296.086 777.023 296.594 777.891 297.609V291H780.059V309H778.066L777.961 307.641C777.094 308.703 775.887 309.234 774.34 309.234C772.871 309.234 771.672 308.633 770.742 307.43C769.82 306.227 769.359 304.656 769.359 302.719V302.555ZM771.527 302.801C771.527 304.238 771.824 305.363 772.418 306.176C773.012 306.988 773.832 307.395 774.879 307.395C776.254 307.395 777.258 306.777 777.891 305.543V299.719C777.242 298.523 776.246 297.926 774.902 297.926C773.84 297.926 773.012 298.336 772.418 299.156C771.824 299.977 771.527 301.191 771.527 302.801ZM786.188 309H783.938V291.938H786.188V309ZM792.914 293.25V296.32H795.281V297.996H792.914V305.859C792.914 306.367 793.02 306.75 793.23 307.008C793.441 307.258 793.801 307.383 794.309 307.383C794.559 307.383 794.902 307.336 795.34 307.242V309C794.77 309.156 794.215 309.234 793.676 309.234C792.707 309.234 791.977 308.941 791.484 308.355C790.992 307.77 790.746 306.938 790.746 305.859V297.996H788.438V296.32H790.746V293.25H792.914ZM803.086 309.234C801.367 309.234 799.969 308.672 798.891 307.547C797.812 306.414 797.273 304.902 797.273 303.012V302.613C797.273 301.355 797.512 300.234 797.988 299.25C798.473 298.258 799.145 297.484 800.004 296.93C800.871 296.367 801.809 296.086 802.816 296.086C804.465 296.086 805.746 296.629 806.66 297.715C807.574 298.801 808.031 300.355 808.031 302.379V303.281H799.441C799.473 304.531 799.836 305.543 800.531 306.316C801.234 307.082 802.125 307.465 803.203 307.465C803.969 307.465 804.617 307.309 805.148 306.996C805.68 306.684 806.145 306.27 806.543 305.754L807.867 306.785C806.805 308.418 805.211 309.234 803.086 309.234ZM802.816 297.867C801.941 297.867 801.207 298.188 800.613 298.828C800.02 299.461 799.652 300.352 799.512 301.5H805.863V301.336C805.801 300.234 805.504 299.383 804.973 298.781C804.441 298.172 803.723 297.867 802.816 297.867ZM812.59 296.32L812.648 297.727C813.578 296.633 814.832 296.086 816.41 296.086C818.184 296.086 819.391 296.766 820.031 298.125C820.453 297.516 821 297.023 821.672 296.648C822.352 296.273 823.152 296.086 824.074 296.086C826.855 296.086 828.27 297.559 828.316 300.504V309H826.148V300.633C826.148 299.727 825.941 299.051 825.527 298.605C825.113 298.152 824.418 297.926 823.441 297.926C822.637 297.926 821.969 298.168 821.438 298.652C820.906 299.129 820.598 299.773 820.512 300.586V309H818.332V300.691C818.332 298.848 817.43 297.926 815.625 297.926C814.203 297.926 813.23 298.531 812.707 299.742V309H810.539V296.32H812.59Z" fill="white"/>
<path d="M436 201H542V245H436V201Z" stroke="#FCC438" stroke-width="2"/>
<path d="M594 281H700V325H594V281Z" stroke="#FCC438" stroke-width="2"/>
<path d="M43 201H149V245H43V201Z" stroke="#FCC438" stroke-width="2"/>
<path d="M454.77 41.7891H449.285V57H447.047V41.7891H441.574V39.9375H454.77V41.7891ZM459.129 45.8555C460.09 44.6758 461.34 44.0859 462.879 44.0859C465.559 44.0859 466.91 45.5977 466.934 48.6211V57H464.766V48.6094C464.758 47.6953 464.547 47.0195 464.133 46.582C463.727 46.1445 463.09 45.9258 462.223 45.9258C461.52 45.9258 460.902 46.1133 460.371 46.4883C459.84 46.8633 459.426 47.3555 459.129 47.9648V57H456.961V39H459.129V45.8555ZM475.441 57.2344C473.723 57.2344 472.324 56.6719 471.246 55.5469C470.168 54.4141 469.629 52.9023 469.629 51.0117V50.6133C469.629 49.3555 469.867 48.2344 470.344 47.25C470.828 46.2578 471.5 45.4844 472.359 44.9297C473.227 44.3672 474.164 44.0859 475.172 44.0859C476.82 44.0859 478.102 44.6289 479.016 45.7148C479.93 46.8008 480.387 48.3555 480.387 50.3789V51.2812H471.797C471.828 52.5312 472.191 53.543 472.887 54.3164C473.59 55.082 474.48 55.4648 475.559 55.4648C476.324 55.4648 476.973 55.3086 477.504 54.9961C478.035 54.6836 478.5 54.2695 478.898 53.7539L480.223 54.7852C479.16 56.418 477.566 57.2344 475.441 57.2344ZM475.172 45.8672C474.297 45.8672 473.562 46.1875 472.969 46.8281C472.375 47.4609 472.008 48.3516 471.867 49.5H478.219V49.3359C478.156 48.2344 477.859 47.3828 477.328 46.7812C476.797 46.1719 476.078 45.8672 475.172 45.8672ZM484.945 44.3203L485.004 45.7266C485.934 44.6328 487.188 44.0859 488.766 44.0859C490.539 44.0859 491.746 44.7656 492.387 46.125C492.809 45.5156 493.355 45.0234 494.027 44.6484C494.707 44.2734 495.508 44.0859 496.43 44.0859C499.211 44.0859 500.625 45.5586 500.672 48.5039V57H498.504V48.6328C498.504 47.7266 498.297 47.0508 497.883 46.6055C497.469 46.1523 496.773 45.9258 495.797 45.9258C494.992 45.9258 494.324 46.168 493.793 46.6523C493.262 47.1289 492.953 47.7734 492.867 48.5859V57H490.688V48.6914C490.688 46.8477 489.785 45.9258 487.98 45.9258C486.559 45.9258 485.586 46.5312 485.062 47.7422V57H482.895V44.3203H484.945ZM509.215 57.2344C507.496 57.2344 506.098 56.6719 505.02 55.5469C503.941 54.4141 503.402 52.9023 503.402 51.0117V50.6133C503.402 49.3555 503.641 48.2344 504.117 47.25C504.602 46.2578 505.273 45.4844 506.133 44.9297C507 44.3672 507.938 44.0859 508.945 44.0859C510.594 44.0859 511.875 44.6289 512.789 45.7148C513.703 46.8008 514.16 48.3555 514.16 50.3789V51.2812H505.57C505.602 52.5312 505.965 53.543 506.66 54.3164C507.363 55.082 508.254 55.4648 509.332 55.4648C510.098 55.4648 510.746 55.3086 511.277 54.9961C511.809 54.6836 512.273 54.2695 512.672 53.7539L513.996 54.7852C512.934 56.418 511.34 57.2344 509.215 57.2344ZM508.945 45.8672C508.07 45.8672 507.336 46.1875 506.742 46.8281C506.148 47.4609 505.781 48.3516 505.641 49.5H511.992V49.3359C511.93 48.2344 511.633 47.3828 511.102 46.7812C510.57 46.1719 509.852 45.8672 508.945 45.8672Z" fill="#FCC438"/>
<path d="M445.23 79.3203V86H442.98V68.9375H449.273C451.141 68.9375 452.602 69.4141 453.656 70.3672C454.719 71.3203 455.25 72.582 455.25 74.1523C455.25 75.8086 454.73 77.0859 453.691 77.9844C452.66 78.875 451.18 79.3203 449.25 79.3203H445.23ZM445.23 77.4805H449.273C450.477 77.4805 451.398 77.1992 452.039 76.6367C452.68 76.0664 453 75.2461 453 74.1758C453 73.1602 452.68 72.3477 452.039 71.7383C451.398 71.1289 450.52 70.8125 449.402 70.7891H445.23V77.4805ZM463.91 75.2656C463.582 75.2109 463.227 75.1836 462.844 75.1836C461.422 75.1836 460.457 75.7891 459.949 77V86H457.781V73.3203H459.891L459.926 74.7852C460.637 73.6523 461.645 73.0859 462.949 73.0859C463.371 73.0859 463.691 73.1406 463.91 73.25V75.2656ZM465.105 79.543C465.105 78.3008 465.348 77.1836 465.832 76.1914C466.324 75.1992 467.004 74.4336 467.871 73.8945C468.746 73.3555 469.742 73.0859 470.859 73.0859C472.586 73.0859 473.98 73.6836 475.043 74.8789C476.113 76.0742 476.648 77.6641 476.648 79.6484V79.8008C476.648 81.0352 476.41 82.1445 475.934 83.1289C475.465 84.1055 474.789 84.8672 473.906 85.4141C473.031 85.9609 472.023 86.2344 470.883 86.2344C469.164 86.2344 467.77 85.6367 466.699 84.4414C465.637 83.2461 465.105 81.6641 465.105 79.6953V79.543ZM467.285 79.8008C467.285 81.207 467.609 82.3359 468.258 83.1875C468.914 84.0391 469.789 84.4648 470.883 84.4648C471.984 84.4648 472.859 84.0352 473.508 83.1758C474.156 82.3086 474.48 81.0977 474.48 79.543C474.48 78.1523 474.148 77.0273 473.484 76.168C472.828 75.3008 471.953 74.8672 470.859 74.8672C469.789 74.8672 468.926 75.293 468.27 76.1445C467.613 76.9961 467.285 78.2148 467.285 79.8008ZM483.363 83.0586L486.504 73.3203H488.719L484.172 86H482.52L477.926 73.3203H480.141L483.363 83.0586ZM493.16 86H490.992V73.3203H493.16V86ZM490.816 69.957C490.816 69.6055 490.922 69.3086 491.133 69.0664C491.352 68.8242 491.672 68.7031 492.094 68.7031C492.516 68.7031 492.836 68.8242 493.055 69.0664C493.273 69.3086 493.383 69.6055 493.383 69.957C493.383 70.3086 493.273 70.6016 493.055 70.8359C492.836 71.0703 492.516 71.1875 492.094 71.1875C491.672 71.1875 491.352 71.0703 491.133 70.8359C490.922 70.6016 490.816 70.3086 490.816 69.957ZM496.113 79.5547C496.113 77.6094 496.574 76.0469 497.496 74.8672C498.418 73.6797 499.625 73.0859 501.117 73.0859C502.602 73.0859 503.777 73.5938 504.645 74.6094V68H506.812V86H504.82L504.715 84.6406C503.848 85.7031 502.641 86.2344 501.094 86.2344C499.625 86.2344 498.426 85.6328 497.496 84.4297C496.574 83.2266 496.113 81.6562 496.113 79.7188V79.5547ZM498.281 79.8008C498.281 81.2383 498.578 82.3633 499.172 83.1758C499.766 83.9883 500.586 84.3945 501.633 84.3945C503.008 84.3945 504.012 83.7773 504.645 82.543V76.7188C503.996 75.5234 503 74.9258 501.656 74.9258C500.594 74.9258 499.766 75.3359 499.172 76.1562C498.578 76.9766 498.281 78.1914 498.281 79.8008ZM515.449 86.2344C513.73 86.2344 512.332 85.6719 511.254 84.5469C510.176 83.4141 509.637 81.9023 509.637 80.0117V79.6133C509.637 78.3555 509.875 77.2344 510.352 76.25C510.836 75.2578 511.508 74.4844 512.367 73.9297C513.234 73.3672 514.172 73.0859 515.18 73.0859C516.828 73.0859 518.109 73.6289 519.023 74.7148C519.938 75.8008 520.395 77.3555 520.395 79.3789V80.2812H511.805C511.836 81.5312 512.199 82.543 512.895 83.3164C513.598 84.082 514.488 84.4648 515.566 84.4648C516.332 84.4648 516.98 84.3086 517.512 83.9961C518.043 83.6836 518.508 83.2695 518.906 82.7539L520.23 83.7852C519.168 85.418 517.574 86.2344 515.449 86.2344ZM515.18 74.8672C514.305 74.8672 513.57 75.1875 512.977 75.8281C512.383 76.4609 512.016 77.3516 511.875 78.5H518.227V78.3359C518.164 77.2344 517.867 76.3828 517.336 75.7812C516.805 75.1719 516.086 74.8672 515.18 74.8672ZM529.043 75.2656C528.715 75.2109 528.359 75.1836 527.977 75.1836C526.555 75.1836 525.59 75.7891 525.082 77V86H522.914V73.3203H525.023L525.059 74.7852C525.77 73.6523 526.777 73.0859 528.082 73.0859C528.504 73.0859 528.824 73.1406 529.043 73.25V75.2656Z" fill="#FCC438"/>
<path d="M412.531 188.586C412.32 190.391 411.652 191.785 410.527 192.77C409.41 193.746 407.922 194.235 406.062 194.235C404.047 194.235 402.43 193.512 401.211 192.067C400 190.621 399.395 188.688 399.395 186.266V184.625C399.395 183.039 399.676 181.645 400.238 180.442C400.809 179.239 401.613 178.317 402.652 177.676C403.691 177.028 404.895 176.703 406.262 176.703C408.074 176.703 409.527 177.211 410.621 178.227C411.715 179.235 412.352 180.633 412.531 182.422H410.27C410.074 181.063 409.648 180.078 408.992 179.469C408.344 178.86 407.434 178.555 406.262 178.555C404.824 178.555 403.695 179.086 402.875 180.149C402.062 181.211 401.656 182.723 401.656 184.684V186.336C401.656 188.188 402.043 189.66 402.816 190.754C403.59 191.848 404.672 192.395 406.062 192.395C407.312 192.395 408.27 192.114 408.934 191.551C409.605 190.981 410.051 189.992 410.27 188.586H412.531ZM414.699 187.543C414.699 186.301 414.941 185.184 415.426 184.192C415.918 183.199 416.598 182.434 417.465 181.895C418.34 181.356 419.336 181.086 420.453 181.086C422.18 181.086 423.574 181.684 424.637 182.879C425.707 184.074 426.242 185.664 426.242 187.649V187.801C426.242 189.035 426.004 190.145 425.527 191.129C425.059 192.106 424.383 192.867 423.5 193.414C422.625 193.961 421.617 194.235 420.477 194.235C418.758 194.235 417.363 193.637 416.293 192.442C415.23 191.246 414.699 189.664 414.699 187.696V187.543ZM416.879 187.801C416.879 189.207 417.203 190.336 417.852 191.188C418.508 192.039 419.383 192.465 420.477 192.465C421.578 192.465 422.453 192.035 423.102 191.176C423.75 190.309 424.074 189.098 424.074 187.543C424.074 186.153 423.742 185.028 423.078 184.168C422.422 183.301 421.547 182.867 420.453 182.867C419.383 182.867 418.52 183.293 417.863 184.145C417.207 184.996 416.879 186.215 416.879 187.801ZM431.012 181.321L431.082 182.914C432.051 181.696 433.316 181.086 434.879 181.086C437.559 181.086 438.91 182.598 438.934 185.621V194H436.766V185.61C436.758 184.696 436.547 184.02 436.133 183.582C435.727 183.145 435.09 182.926 434.223 182.926C433.52 182.926 432.902 183.114 432.371 183.489C431.84 183.864 431.426 184.356 431.129 184.965V194H428.961V181.321H431.012ZM449.586 190.637C449.586 190.051 449.363 189.598 448.918 189.278C448.48 188.949 447.711 188.668 446.609 188.434C445.516 188.199 444.645 187.918 443.996 187.59C443.355 187.262 442.879 186.871 442.566 186.418C442.262 185.965 442.109 185.426 442.109 184.801C442.109 183.762 442.547 182.883 443.422 182.164C444.305 181.446 445.43 181.086 446.797 181.086C448.234 181.086 449.398 181.457 450.289 182.199C451.188 182.942 451.637 183.891 451.637 185.047H449.457C449.457 184.453 449.203 183.942 448.695 183.512C448.195 183.082 447.562 182.867 446.797 182.867C446.008 182.867 445.391 183.039 444.945 183.383C444.5 183.727 444.277 184.176 444.277 184.731C444.277 185.254 444.484 185.649 444.898 185.914C445.312 186.18 446.059 186.434 447.137 186.676C448.223 186.918 449.102 187.207 449.773 187.543C450.445 187.879 450.941 188.285 451.262 188.762C451.59 189.231 451.754 189.805 451.754 190.485C451.754 191.617 451.301 192.528 450.395 193.215C449.488 193.895 448.312 194.235 446.867 194.235C445.852 194.235 444.953 194.055 444.172 193.696C443.391 193.336 442.777 192.836 442.332 192.196C441.895 191.547 441.676 190.848 441.676 190.098H443.844C443.883 190.824 444.172 191.403 444.711 191.832C445.258 192.254 445.977 192.465 446.867 192.465C447.688 192.465 448.344 192.301 448.836 191.973C449.336 191.637 449.586 191.192 449.586 190.637ZM462.406 192.746C461.562 193.739 460.324 194.235 458.691 194.235C457.34 194.235 456.309 193.844 455.598 193.063C454.895 192.274 454.539 191.11 454.531 189.571V181.321H456.699V189.512C456.699 191.434 457.48 192.395 459.043 192.395C460.699 192.395 461.801 191.778 462.348 190.543V181.321H464.516V194H462.453L462.406 192.746ZM469.859 181.321L469.918 182.727C470.848 181.633 472.102 181.086 473.68 181.086C475.453 181.086 476.66 181.766 477.301 183.125C477.723 182.516 478.27 182.024 478.941 181.649C479.621 181.274 480.422 181.086 481.344 181.086C484.125 181.086 485.539 182.559 485.586 185.504V194H483.418V185.633C483.418 184.727 483.211 184.051 482.797 183.606C482.383 183.153 481.688 182.926 480.711 182.926C479.906 182.926 479.238 183.168 478.707 183.653C478.176 184.129 477.867 184.774 477.781 185.586V194H475.602V185.692C475.602 183.848 474.699 182.926 472.895 182.926C471.473 182.926 470.5 183.531 469.977 184.742V194H467.809V181.321H469.859ZM494.129 194.235C492.41 194.235 491.012 193.672 489.934 192.547C488.855 191.414 488.316 189.903 488.316 188.012V187.614C488.316 186.356 488.555 185.235 489.031 184.25C489.516 183.258 490.188 182.485 491.047 181.93C491.914 181.367 492.852 181.086 493.859 181.086C495.508 181.086 496.789 181.629 497.703 182.715C498.617 183.801 499.074 185.356 499.074 187.379V188.281H490.484C490.516 189.531 490.879 190.543 491.574 191.317C492.277 192.082 493.168 192.465 494.246 192.465C495.012 192.465 495.66 192.309 496.191 191.996C496.723 191.684 497.188 191.27 497.586 190.754L498.91 191.785C497.848 193.418 496.254 194.235 494.129 194.235ZM493.859 182.867C492.984 182.867 492.25 183.188 491.656 183.828C491.062 184.461 490.695 185.352 490.555 186.5H496.906V186.336C496.844 185.235 496.547 184.383 496.016 183.781C495.484 183.172 494.766 182.867 493.859 182.867ZM507.723 183.266C507.395 183.211 507.039 183.184 506.656 183.184C505.234 183.184 504.27 183.789 503.762 185V194H501.594V181.321H503.703L503.738 182.785C504.449 181.653 505.457 181.086 506.762 181.086C507.184 181.086 507.504 181.141 507.723 181.25V183.266Z" fill="#FCC438"/>
<path d="M14.5312 187.586C14.3203 189.391 13.6523 190.785 12.5273 191.77C11.4102 192.746 9.92188 193.235 8.0625 193.235C6.04688 193.235 4.42969 192.512 3.21094 191.067C2 189.621 1.39453 187.688 1.39453 185.266V183.625C1.39453 182.039 1.67578 180.645 2.23828 179.442C2.80859 178.239 3.61328 177.317 4.65234 176.676C5.69141 176.028 6.89453 175.703 8.26172 175.703C10.0742 175.703 11.5273 176.211 12.6211 177.227C13.7148 178.235 14.3516 179.633 14.5312 181.422H12.2695C12.0742 180.063 11.6484 179.078 10.9922 178.469C10.3438 177.86 9.43359 177.555 8.26172 177.555C6.82422 177.555 5.69531 178.086 4.875 179.149C4.0625 180.211 3.65625 181.723 3.65625 183.684V185.336C3.65625 187.188 4.04297 188.66 4.81641 189.754C5.58984 190.848 6.67188 191.395 8.0625 191.395C9.3125 191.395 10.2695 191.114 10.9336 190.551C11.6055 189.981 12.0508 188.992 12.2695 187.586H14.5312ZM16.6992 186.543C16.6992 185.301 16.9414 184.184 17.4258 183.192C17.918 182.199 18.5977 181.434 19.4648 180.895C20.3398 180.356 21.3359 180.086 22.4531 180.086C24.1797 180.086 25.5742 180.684 26.6367 181.879C27.707 183.074 28.2422 184.664 28.2422 186.649V186.801C28.2422 188.035 28.0039 189.145 27.5273 190.129C27.0586 191.106 26.3828 191.867 25.5 192.414C24.625 192.961 23.6172 193.235 22.4766 193.235C20.7578 193.235 19.3633 192.637 18.293 191.442C17.2305 190.246 16.6992 188.664 16.6992 186.696V186.543ZM18.8789 186.801C18.8789 188.207 19.2031 189.336 19.8516 190.188C20.5078 191.039 21.3828 191.465 22.4766 191.465C23.5781 191.465 24.4531 191.035 25.1016 190.176C25.75 189.309 26.0742 188.098 26.0742 186.543C26.0742 185.153 25.7422 184.028 25.0781 183.168C24.4219 182.301 23.5469 181.867 22.4531 181.867C21.3828 181.867 20.5195 182.293 19.8633 183.145C19.207 183.996 18.8789 185.215 18.8789 186.801ZM33.0117 180.321L33.082 181.914C34.0508 180.696 35.3164 180.086 36.8789 180.086C39.5586 180.086 40.9102 181.598 40.9336 184.621V193H38.7656V184.61C38.7578 183.696 38.5469 183.02 38.1328 182.582C37.7266 182.145 37.0898 181.926 36.2227 181.926C35.5195 181.926 34.9023 182.114 34.3711 182.489C33.8398 182.864 33.4258 183.356 33.1289 183.965V193H30.9609V180.321H33.0117ZM51.5859 189.637C51.5859 189.051 51.3633 188.598 50.918 188.278C50.4805 187.949 49.7109 187.668 48.6094 187.434C47.5156 187.199 46.6445 186.918 45.9961 186.59C45.3555 186.262 44.8789 185.871 44.5664 185.418C44.2617 184.965 44.1094 184.426 44.1094 183.801C44.1094 182.762 44.5469 181.883 45.4219 181.164C46.3047 180.446 47.4297 180.086 48.7969 180.086C50.2344 180.086 51.3984 180.457 52.2891 181.199C53.1875 181.942 53.6367 182.891 53.6367 184.047H51.457C51.457 183.453 51.2031 182.942 50.6953 182.512C50.1953 182.082 49.5625 181.867 48.7969 181.867C48.0078 181.867 47.3906 182.039 46.9453 182.383C46.5 182.727 46.2773 183.176 46.2773 183.731C46.2773 184.254 46.4844 184.649 46.8984 184.914C47.3125 185.18 48.0586 185.434 49.1367 185.676C50.2227 185.918 51.1016 186.207 51.7734 186.543C52.4453 186.879 52.9414 187.285 53.2617 187.762C53.5898 188.231 53.7539 188.805 53.7539 189.485C53.7539 190.617 53.3008 191.528 52.3945 192.215C51.4883 192.895 50.3125 193.235 48.8672 193.235C47.8516 193.235 46.9531 193.055 46.1719 192.696C45.3906 192.336 44.7773 191.836 44.332 191.196C43.8945 190.547 43.6758 189.848 43.6758 189.098H45.8438C45.8828 189.824 46.1719 190.403 46.7109 190.832C47.2578 191.254 47.9766 191.465 48.8672 191.465C49.6875 191.465 50.3438 191.301 50.8359 190.973C51.3359 190.637 51.5859 190.192 51.5859 189.637ZM64.4062 191.746C63.5625 192.739 62.3242 193.235 60.6914 193.235C59.3398 193.235 58.3086 192.844 57.5977 192.063C56.8945 191.274 56.5391 190.11 56.5312 188.571V180.321H58.6992V188.512C58.6992 190.434 59.4805 191.395 61.043 191.395C62.6992 191.395 63.8008 190.778 64.3477 189.543V180.321H66.5156V193H64.4531L64.4062 191.746ZM71.8594 180.321L71.918 181.727C72.8477 180.633 74.1016 180.086 75.6797 180.086C77.4531 180.086 78.6602 180.766 79.3008 182.125C79.7227 181.516 80.2695 181.024 80.9414 180.649C81.6211 180.274 82.4219 180.086 83.3438 180.086C86.125 180.086 87.5391 181.559 87.5859 184.504V193H85.418V184.633C85.418 183.727 85.2109 183.051 84.7969 182.606C84.3828 182.153 83.6875 181.926 82.7109 181.926C81.9062 181.926 81.2383 182.168 80.707 182.653C80.1758 183.129 79.8672 183.774 79.7812 184.586V193H77.6016V184.692C77.6016 182.848 76.6992 181.926 74.8945 181.926C73.4727 181.926 72.5 182.531 71.9766 183.742V193H69.8086V180.321H71.8594ZM96.1289 193.235C94.4102 193.235 93.0117 192.672 91.9336 191.547C90.8555 190.414 90.3164 188.903 90.3164 187.012V186.614C90.3164 185.356 90.5547 184.235 91.0312 183.25C91.5156 182.258 92.1875 181.485 93.0469 180.93C93.9141 180.367 94.8516 180.086 95.8594 180.086C97.5078 180.086 98.7891 180.629 99.7031 181.715C100.617 182.801 101.074 184.356 101.074 186.379V187.281H92.4844C92.5156 188.531 92.8789 189.543 93.5742 190.317C94.2773 191.082 95.168 191.465 96.2461 191.465C97.0117 191.465 97.6602 191.309 98.1914 190.996C98.7227 190.684 99.1875 190.27 99.5859 189.754L100.91 190.785C99.8477 192.418 98.2539 193.235 96.1289 193.235ZM95.8594 181.867C94.9844 181.867 94.25 182.188 93.6562 182.828C93.0625 183.461 92.6953 184.352 92.5547 185.5H98.9062V185.336C98.8438 184.235 98.5469 183.383 98.0156 182.781C97.4844 182.172 96.7656 181.867 95.8594 181.867ZM109.723 182.266C109.395 182.211 109.039 182.184 108.656 182.184C107.234 182.184 106.27 182.789 105.762 184V193H103.594V180.321H105.703L105.738 181.785C106.449 180.653 107.457 180.086 108.762 180.086C109.184 180.086 109.504 180.141 109.723 180.25V182.266Z" fill="#FCC438"/>
<path d="M552.531 265.586C552.32 267.391 551.652 268.785 550.527 269.77C549.41 270.746 547.922 271.234 546.062 271.234C544.047 271.234 542.43 270.512 541.211 269.066C540 267.621 539.395 265.688 539.395 263.266V261.625C539.395 260.039 539.676 258.645 540.238 257.441C540.809 256.238 541.613 255.316 542.652 254.676C543.691 254.027 544.895 253.703 546.262 253.703C548.074 253.703 549.527 254.211 550.621 255.227C551.715 256.234 552.352 257.633 552.531 259.422H550.27C550.074 258.062 549.648 257.078 548.992 256.469C548.344 255.859 547.434 255.555 546.262 255.555C544.824 255.555 543.695 256.086 542.875 257.148C542.062 258.211 541.656 259.723 541.656 261.684V263.336C541.656 265.188 542.043 266.66 542.816 267.754C543.59 268.848 544.672 269.395 546.062 269.395C547.312 269.395 548.27 269.113 548.934 268.551C549.605 267.98 550.051 266.992 550.27 265.586H552.531ZM554.699 264.543C554.699 263.301 554.941 262.184 555.426 261.191C555.918 260.199 556.598 259.434 557.465 258.895C558.34 258.355 559.336 258.086 560.453 258.086C562.18 258.086 563.574 258.684 564.637 259.879C565.707 261.074 566.242 262.664 566.242 264.648V264.801C566.242 266.035 566.004 267.145 565.527 268.129C565.059 269.105 564.383 269.867 563.5 270.414C562.625 270.961 561.617 271.234 560.477 271.234C558.758 271.234 557.363 270.637 556.293 269.441C555.23 268.246 554.699 266.664 554.699 264.695V264.543ZM556.879 264.801C556.879 266.207 557.203 267.336 557.852 268.188C558.508 269.039 559.383 269.465 560.477 269.465C561.578 269.465 562.453 269.035 563.102 268.176C563.75 267.309 564.074 266.098 564.074 264.543C564.074 263.152 563.742 262.027 563.078 261.168C562.422 260.301 561.547 259.867 560.453 259.867C559.383 259.867 558.52 260.293 557.863 261.145C557.207 261.996 556.879 263.215 556.879 264.801ZM571.012 258.32L571.082 259.914C572.051 258.695 573.316 258.086 574.879 258.086C577.559 258.086 578.91 259.598 578.934 262.621V271H576.766V262.609C576.758 261.695 576.547 261.02 576.133 260.582C575.727 260.145 575.09 259.926 574.223 259.926C573.52 259.926 572.902 260.113 572.371 260.488C571.84 260.863 571.426 261.355 571.129 261.965V271H568.961V258.32H571.012ZM589.586 267.637C589.586 267.051 589.363 266.598 588.918 266.277C588.48 265.949 587.711 265.668 586.609 265.434C585.516 265.199 584.645 264.918 583.996 264.59C583.355 264.262 582.879 263.871 582.566 263.418C582.262 262.965 582.109 262.426 582.109 261.801C582.109 260.762 582.547 259.883 583.422 259.164C584.305 258.445 585.43 258.086 586.797 258.086C588.234 258.086 589.398 258.457 590.289 259.199C591.188 259.941 591.637 260.891 591.637 262.047H589.457C589.457 261.453 589.203 260.941 588.695 260.512C588.195 260.082 587.562 259.867 586.797 259.867C586.008 259.867 585.391 260.039 584.945 260.383C584.5 260.727 584.277 261.176 584.277 261.73C584.277 262.254 584.484 262.648 584.898 262.914C585.312 263.18 586.059 263.434 587.137 263.676C588.223 263.918 589.102 264.207 589.773 264.543C590.445 264.879 590.941 265.285 591.262 265.762C591.59 266.23 591.754 266.805 591.754 267.484C591.754 268.617 591.301 269.527 590.395 270.215C589.488 270.895 588.312 271.234 586.867 271.234C585.852 271.234 584.953 271.055 584.172 270.695C583.391 270.336 582.777 269.836 582.332 269.195C581.895 268.547 581.676 267.848 581.676 267.098H583.844C583.883 267.824 584.172 268.402 584.711 268.832C585.258 269.254 585.977 269.465 586.867 269.465C587.688 269.465 588.344 269.301 588.836 268.973C589.336 268.637 589.586 268.191 589.586 267.637ZM602.406 269.746C601.562 270.738 600.324 271.234 598.691 271.234C597.34 271.234 596.309 270.844 595.598 270.062C594.895 269.273 594.539 268.109 594.531 266.57V258.32H596.699V266.512C596.699 268.434 597.48 269.395 599.043 269.395C600.699 269.395 601.801 268.777 602.348 267.543V258.32H604.516V271H602.453L602.406 269.746ZM609.859 258.32L609.918 259.727C610.848 258.633 612.102 258.086 613.68 258.086C615.453 258.086 616.66 258.766 617.301 260.125C617.723 259.516 618.27 259.023 618.941 258.648C619.621 258.273 620.422 258.086 621.344 258.086C624.125 258.086 625.539 259.559 625.586 262.504V271H623.418V262.633C623.418 261.727 623.211 261.051 622.797 260.605C622.383 260.152 621.688 259.926 620.711 259.926C619.906 259.926 619.238 260.168 618.707 260.652C618.176 261.129 617.867 261.773 617.781 262.586V271H615.602V262.691C615.602 260.848 614.699 259.926 612.895 259.926C611.473 259.926 610.5 260.531 609.977 261.742V271H607.809V258.32H609.859ZM634.129 271.234C632.41 271.234 631.012 270.672 629.934 269.547C628.855 268.414 628.316 266.902 628.316 265.012V264.613C628.316 263.355 628.555 262.234 629.031 261.25C629.516 260.258 630.188 259.484 631.047 258.93C631.914 258.367 632.852 258.086 633.859 258.086C635.508 258.086 636.789 258.629 637.703 259.715C638.617 260.801 639.074 262.355 639.074 264.379V265.281H630.484C630.516 266.531 630.879 267.543 631.574 268.316C632.277 269.082 633.168 269.465 634.246 269.465C635.012 269.465 635.66 269.309 636.191 268.996C636.723 268.684 637.188 268.27 637.586 267.754L638.91 268.785C637.848 270.418 636.254 271.234 634.129 271.234ZM633.859 259.867C632.984 259.867 632.25 260.188 631.656 260.828C631.062 261.461 630.695 262.352 630.555 263.5H636.906V263.336C636.844 262.234 636.547 261.383 636.016 260.781C635.484 260.172 634.766 259.867 633.859 259.867ZM647.723 260.266C647.395 260.211 647.039 260.184 646.656 260.184C645.234 260.184 644.27 260.789 643.762 262V271H641.594V258.32H643.703L643.738 259.785C644.449 258.652 645.457 258.086 646.762 258.086C647.184 258.086 647.504 258.141 647.723 258.25V260.266Z" fill="#FCC438"/>
<path d="M450 113.378L448.979 113.422L450 113.378ZM449.278 175.607C449.677 175.971 450.323 175.944 450.722 175.545L457.221 169.045C457.62 168.647 457.62 168.028 457.221 167.663C456.823 167.299 456.176 167.327 455.777 167.725L450 173.503L444.223 168.223C443.824 167.859 443.178 167.887 442.779 168.285C442.38 168.684 442.38 169.303 442.779 169.668L449.278 175.607ZM481 92.9325L479.979 92.9765L481 92.9325ZM470.329 103.155L470.283 104.134L470.329 103.155ZM460.672 103.155L460.718 102.177L460.672 103.155ZM448.979 113.422L448.979 174.929L451.021 174.841L451.021 113.334L448.979 113.422ZM479.979 91.0439L479.979 92.9765L482.022 92.8885L482.022 90.9559L479.979 91.0439ZM470.374 102.177L460.718 102.177L460.626 104.134L470.283 104.134L470.374 102.177ZM479.979 92.9765C479.979 97.9894 475.608 102.177 470.374 102.177L470.283 104.134C476.679 104.134 482.022 99.0154 482.022 92.8885L479.979 92.9765ZM451.021 113.334C451.021 108.321 455.393 104.134 460.626 104.134L460.718 102.177C454.322 102.177 448.979 107.295 448.979 113.422L451.021 113.334Z" fill="#FCC438"/>
<path d="M53.9999 112.921L55.0211 112.877L53.9999 112.921ZM53.2777 176.977C53.6765 177.342 54.3232 177.314 54.722 176.915L61.2212 170.416C61.62 170.017 61.62 169.398 61.2212 169.034C60.8224 168.669 60.1758 168.697 59.7769 169.096L53.9998 174.873L48.2227 169.594C47.8239 169.229 47.1773 169.257 46.7785 169.656C46.3796 170.055 46.3796 170.673 46.7785 171.038L53.2777 176.977ZM481 92.4757L482.021 92.4317L482.021 92.4317L481 92.4757ZM470.328 102.699L470.374 101.72L470.328 102.699ZM64.6717 102.698L64.7177 101.72L64.6717 102.698ZM52.9786 112.965L52.9786 176.299L55.0211 176.211L55.0211 112.877L52.9786 112.965ZM479.978 90.0439L479.978 92.5197L482.021 92.4317L482.021 89.9559L479.978 90.0439ZM470.374 101.72L64.7177 101.72L64.6258 103.677L470.282 103.677L470.374 101.72ZM479.978 92.5197C479.979 97.5327 475.607 101.72 470.374 101.72L470.282 103.677C476.678 103.677 482.021 98.5587 482.021 92.4317L479.978 92.5197ZM55.0211 112.877C55.0211 107.864 59.3926 103.677 64.6258 103.677L64.7177 101.72C58.3216 101.72 52.9786 106.838 52.9786 112.965L55.0211 112.877Z" fill="#FCC438"/>
<path d="M594.5 185.598L595.521 185.554L594.5 185.598ZM593.778 249.621C594.176 249.985 594.823 249.958 595.222 249.559L601.721 243.059C602.12 242.66 602.12 242.042 601.721 241.677C601.322 241.313 600.676 241.341 600.277 241.739L594.5 247.517L588.723 242.237C588.324 241.873 587.677 241.901 587.278 242.299C586.88 242.698 586.88 243.317 587.278 243.681L593.778 249.621ZM520.5 112.041L521.521 111.997L520.5 112.041ZM520.5 166.913L519.479 166.957L520.5 166.913ZM530.253 176.256L530.207 177.234L530.207 177.234L530.253 176.256ZM584.747 176.256L584.792 175.277L584.747 176.256ZM481 93.3557L479.979 93.3997L479.979 93.3997L481 93.3557ZM490.753 102.699L490.799 101.72L490.753 102.699ZM510.747 102.699L510.701 103.677L510.747 102.699ZM593.479 185.642L593.479 248.943L595.521 248.855L595.521 185.554L593.479 185.642ZM519.479 112.085L519.479 166.957L521.521 166.869L521.521 111.997L519.479 112.085ZM530.207 177.234L584.701 177.234L584.792 175.277L530.299 175.277L530.207 177.234ZM479.979 89.5442L479.979 93.3997L482.021 93.3117L482.021 89.4562L479.979 89.5442ZM490.707 103.677L510.701 103.677L510.793 101.72L490.799 101.72L490.707 103.677ZM479.979 93.3997C479.979 99.1488 484.706 103.677 490.707 103.677L490.799 101.72C485.889 101.72 482.021 98.0155 482.021 93.3117L479.979 93.3997ZM519.479 166.957C519.479 172.706 524.206 177.234 530.207 177.234L530.299 175.277C525.389 175.277 521.521 171.573 521.521 166.869L519.479 166.957ZM595.521 185.554C595.521 179.805 590.794 175.277 584.792 175.277L584.701 177.234C589.611 177.234 593.479 180.938 593.479 185.642L595.521 185.554ZM521.521 111.997C521.521 106.248 516.794 101.72 510.793 101.72L510.701 103.677C515.611 103.677 519.479 107.381 519.479 112.085L521.521 111.997Z" fill="#FCC438"/>
</g>
<defs>
<clipPath id="clip0">
<rect width="958" height="365" fill="white"/>
</clipPath>
</defs>
</svg>
