<svg width="289" height="160" viewBox="0 0 289 160" fill="none" xmlns="http://www.w3.org/2000/svg">
<g clip-path="url(#clip0)">
<rect width="289" height="160" fill="#011627"/>
<path d="M5 6H169V154H5V6Z" fill="white" fill-opacity="0.29"/>
<path d="M5.5 6.5H168.5V153.5H5.5V6.5Z" stroke="white" stroke-opacity="0.24"/>
<path d="M13 98H160V147H13V98Z" fill="white" fill-opacity="0.28"/>
<path d="M13.5 98.5H159.5V146.5H13.5V98.5Z" stroke="white" stroke-opacity="0.37"/>
<path d="M16.984 110V104.168H17.968V110H16.984ZM17.488 102.968C17.296 102.968 17.132 102.908 16.996 102.788C16.868 102.668 16.804 102.516 16.804 102.332C16.804 102.14 16.868 101.988 16.996 101.876C17.132 101.756 17.296 101.696 17.488 101.696C17.68 101.696 17.84 101.756 17.968 101.876C18.104 101.988 18.172 102.14 18.172 102.332C18.172 102.516 18.104 102.668 17.968 102.788C17.84 102.908 17.68 102.968 17.488 102.968ZM19.9371 110V104.168H20.7531L20.8371 105.008H20.8731C21.1531 104.728 21.4451 104.496 21.7491 104.312C22.0611 104.12 22.4211 104.024 22.8291 104.024C23.4451 104.024 23.8931 104.216 24.1731 104.6C24.4611 104.984 24.6051 105.552 24.6051 106.304V110H23.6211V106.436C23.6211 105.884 23.5331 105.488 23.3571 105.248C23.1811 105 22.9011 104.876 22.5171 104.876C22.2131 104.876 21.9451 104.952 21.7131 105.104C21.4811 105.256 21.2171 105.48 20.9211 105.776V110H19.9371ZM26.4996 112.46V104.168H27.3156L27.3996 104.84H27.4356C27.6996 104.616 27.9876 104.424 28.2996 104.264C28.6196 104.104 28.9516 104.024 29.2956 104.024C29.6716 104.024 30.0036 104.096 30.2916 104.24C30.5796 104.376 30.8196 104.576 31.0116 104.84C31.2036 105.096 31.3476 105.408 31.4436 105.776C31.5476 106.136 31.5996 106.544 31.5996 107C31.5996 107.496 31.5316 107.94 31.3956 108.332C31.2596 108.716 31.0756 109.044 30.8436 109.316C30.6116 109.588 30.3436 109.796 30.0396 109.94C29.7356 110.076 29.4156 110.144 29.0796 110.144C28.8076 110.144 28.5356 110.084 28.2636 109.964C27.9996 109.844 27.7316 109.68 27.4596 109.472L27.4836 110.492V112.46H26.4996ZM28.9116 109.316C29.1516 109.316 29.3716 109.264 29.5716 109.16C29.7796 109.048 29.9556 108.896 30.0996 108.704C30.2516 108.504 30.3676 108.26 30.4476 107.972C30.5356 107.684 30.5796 107.36 30.5796 107C30.5796 106.68 30.5516 106.388 30.4956 106.124C30.4396 105.86 30.3476 105.636 30.2196 105.452C30.0996 105.26 29.9396 105.112 29.7396 105.008C29.5476 104.904 29.3156 104.852 29.0436 104.852C28.7956 104.852 28.5436 104.92 28.2876 105.056C28.0396 105.192 27.7716 105.388 27.4836 105.644V108.704C27.7476 108.928 28.0036 109.088 28.2516 109.184C28.4996 109.272 28.7196 109.316 28.9116 109.316ZM34.8599 110.144C34.2359 110.144 33.7799 109.952 33.4919 109.568C33.2119 109.184 33.0719 108.616 33.0719 107.864V104.168H34.0679V107.732C34.0679 108.284 34.1519 108.684 34.3199 108.932C34.4959 109.172 34.7759 109.292 35.1599 109.292C35.4639 109.292 35.7319 109.216 35.9639 109.064C36.1959 108.904 36.4519 108.652 36.7319 108.308V104.168H37.7159V110H36.8999L36.8159 109.088H36.7799C36.5079 109.408 36.2199 109.664 35.9159 109.856C35.6199 110.048 35.2679 110.144 34.8599 110.144ZM41.5192 110.144C41.2072 110.144 40.9432 110.096 40.7272 110C40.5192 109.904 40.3472 109.772 40.2112 109.604C40.0832 109.436 39.9912 109.232 39.9352 108.992C39.8792 108.752 39.8512 108.488 39.8512 108.2V104.972H38.9872V104.228L39.8992 104.168L40.0192 102.536H40.8472V104.168H42.4192V104.972H40.8472V108.212C40.8472 108.572 40.9112 108.852 41.0392 109.052C41.1752 109.244 41.4112 109.34 41.7472 109.34C41.8512 109.34 41.9632 109.324 42.0832 109.292C42.2032 109.26 42.3112 109.224 42.4072 109.184L42.5992 109.928C42.4392 109.984 42.2632 110.032 42.0712 110.072C41.8872 110.12 41.7032 110.144 41.5192 110.144Z" fill="white"/>
<path d="M20.612 131.168H21.608L22.952 134.48C23.072 134.776 23.184 135.068 23.288 135.356C23.4 135.636 23.508 135.916 23.612 136.196H23.66C23.764 135.916 23.864 135.636 23.96 135.356C24.064 135.068 24.176 134.776 24.296 134.48L25.64 131.168H26.588L24.176 137H23.072L20.612 131.168ZM28.1673 135.488C28.1673 135.16 28.2433 134.876 28.3953 134.636C28.5553 134.388 28.8033 134.176 29.1393 134C29.4833 133.824 29.9233 133.68 30.4593 133.568C30.9953 133.456 31.6393 133.368 32.3913 133.304C32.3833 133.104 32.3513 132.916 32.2953 132.74C32.2393 132.564 32.1513 132.412 32.0313 132.284C31.9113 132.148 31.7513 132.04 31.5513 131.96C31.3593 131.88 31.1233 131.84 30.8433 131.84C30.4593 131.84 30.0913 131.916 29.7393 132.068C29.3873 132.212 29.0753 132.368 28.8033 132.536L28.4193 131.864C28.5633 131.768 28.7313 131.672 28.9233 131.576C29.1233 131.472 29.3313 131.38 29.5473 131.3C29.7713 131.22 30.0073 131.156 30.2553 131.108C30.5033 131.052 30.7553 131.024 31.0113 131.024C31.8113 131.024 32.4033 131.244 32.7873 131.684C33.1793 132.116 33.3753 132.696 33.3753 133.424V137H32.5713L32.4873 136.208H32.4513C32.1233 136.464 31.7593 136.684 31.3593 136.868C30.9673 137.052 30.5633 137.144 30.1473 137.144C29.8753 137.144 29.6193 137.104 29.3793 137.024C29.1393 136.952 28.9273 136.848 28.7433 136.712C28.5673 136.568 28.4273 136.396 28.3233 136.196C28.2193 135.988 28.1673 135.752 28.1673 135.488ZM29.1273 135.416C29.1273 135.584 29.1633 135.728 29.2353 135.848C29.3073 135.96 29.3993 136.056 29.5113 136.136C29.6313 136.208 29.7673 136.264 29.9193 136.304C30.0793 136.336 30.2433 136.352 30.4113 136.352C30.7473 136.352 31.0753 136.28 31.3953 136.136C31.7233 135.984 32.0553 135.768 32.3913 135.488V133.952C31.7673 134 31.2433 134.068 30.8193 134.156C30.4033 134.244 30.0673 134.352 29.8113 134.48C29.5633 134.6 29.3873 134.74 29.2833 134.9C29.1793 135.052 29.1273 135.224 29.1273 135.416ZM35.3626 128.456H38.3386V135.116C38.3386 135.548 38.4386 135.86 38.6386 136.052C38.8466 136.236 39.1266 136.328 39.4786 136.328C39.7986 136.328 40.1666 136.236 40.5826 136.052L40.8346 136.796C40.5706 136.892 40.3226 136.972 40.0906 137.036C39.8586 137.108 39.5826 137.144 39.2626 137.144C38.6386 137.144 38.1626 136.968 37.8346 136.616C37.5146 136.264 37.3546 135.74 37.3546 135.044V129.26H35.3626V128.456ZM47.6459 137H46.8419L46.7579 135.98H46.7099C46.4139 136.324 46.0899 136.604 45.7379 136.82C45.3939 137.036 44.9939 137.144 44.5379 137.144C43.8339 137.144 43.3179 136.948 42.9899 136.556C42.6699 136.156 42.5099 135.568 42.5099 134.792V131.168H43.5059V134.66C43.5059 135.212 43.6059 135.624 43.8059 135.896C44.0139 136.16 44.3619 136.292 44.8499 136.292C45.1859 136.292 45.4899 136.208 45.7619 136.04C46.0339 135.864 46.3339 135.588 46.6619 135.212V131.168H47.6459V137ZM49.6093 134.096C49.6093 133.616 49.6933 133.188 49.8613 132.812C50.0293 132.428 50.2493 132.104 50.5213 131.84C50.8013 131.576 51.1173 131.376 51.4693 131.24C51.8293 131.096 52.1973 131.024 52.5733 131.024C52.9893 131.024 53.3613 131.092 53.6893 131.228C54.0173 131.356 54.2933 131.54 54.5173 131.78C54.7493 132.02 54.9253 132.308 55.0453 132.644C55.1653 132.98 55.2253 133.352 55.2253 133.76C55.2253 133.864 55.2213 133.968 55.2133 134.072C55.2133 134.168 55.2053 134.252 55.1893 134.324H50.6293C50.6373 134.636 50.6973 134.916 50.8093 135.164C50.9293 135.412 51.0853 135.624 51.2773 135.8C51.4773 135.976 51.7093 136.112 51.9733 136.208C52.2453 136.304 52.5413 136.352 52.8613 136.352C53.2053 136.352 53.5173 136.304 53.7973 136.208C54.0853 136.112 54.3653 135.98 54.6373 135.812L54.9853 136.46C54.6973 136.644 54.3693 136.804 54.0013 136.94C53.6333 137.076 53.2133 137.144 52.7413 137.144C52.3093 137.144 51.9013 137.076 51.5173 136.94C51.1413 136.796 50.8093 136.596 50.5213 136.34C50.2413 136.076 50.0173 135.756 49.8493 135.38C49.6893 135.004 49.6093 134.576 49.6093 134.096ZM54.3133 133.616C54.3133 133.032 54.1613 132.584 53.8573 132.272C53.5533 131.96 53.1293 131.804 52.5853 131.804C52.3453 131.804 52.1133 131.844 51.8893 131.924C51.6733 132.004 51.4773 132.124 51.3013 132.284C51.1253 132.436 50.9773 132.624 50.8573 132.848C50.7373 133.072 50.6573 133.328 50.6173 133.616H54.3133ZM64.1919 131.384H69.3519V132.128H64.1919V131.384ZM64.1919 133.94H69.3519V134.684H64.1919V133.94ZM80.7545 129.188C80.3785 129.404 80.0825 129.672 79.8665 129.992C79.6585 130.304 79.5425 130.668 79.5185 131.084C79.6145 131.036 79.7185 131.012 79.8305 131.012C80.0785 131.012 80.2785 131.092 80.4305 131.252C80.5905 131.412 80.6705 131.62 80.6705 131.876C80.6705 132.156 80.5865 132.38 80.4185 132.548C80.2505 132.716 80.0385 132.8 79.7825 132.8C79.4705 132.8 79.2105 132.676 79.0025 132.428C78.8025 132.172 78.7025 131.816 78.7025 131.36C78.7025 130.76 78.8545 130.224 79.1585 129.752C79.4625 129.272 79.8865 128.892 80.4305 128.612L80.7545 129.188ZM83.5025 129.188C83.1265 129.404 82.8305 129.672 82.6145 129.992C82.4065 130.304 82.2905 130.668 82.2665 131.084C82.3625 131.036 82.4665 131.012 82.5785 131.012C82.8265 131.012 83.0265 131.092 83.1785 131.252C83.3385 131.412 83.4185 131.62 83.4185 131.876C83.4185 132.156 83.3345 132.38 83.1665 132.548C82.9985 132.716 82.7865 132.8 82.5305 132.8C82.2185 132.8 81.9585 132.676 81.7505 132.428C81.5505 132.172 81.4505 131.816 81.4505 131.36C81.4505 130.76 81.6025 130.224 81.9065 129.752C82.2105 129.272 82.6345 128.892 83.1785 128.612L83.5025 129.188ZM85.9938 132.224C86.3778 132.016 86.6738 131.756 86.8818 131.444C87.0978 131.124 87.2178 130.752 87.2418 130.328C87.1458 130.376 87.0418 130.4 86.9298 130.4C86.6738 130.4 86.4658 130.324 86.3058 130.172C86.1538 130.012 86.0778 129.804 86.0778 129.548C86.0778 129.268 86.1618 129.044 86.3298 128.876C86.4978 128.7 86.7098 128.612 86.9658 128.612C87.2858 128.612 87.5458 128.74 87.7458 128.996C87.9458 129.252 88.0458 129.608 88.0458 130.064C88.0458 130.664 87.8938 131.2 87.5898 131.672C87.2858 132.144 86.8658 132.52 86.3298 132.8L85.9938 132.224ZM88.7418 132.224C89.1258 132.016 89.4218 131.756 89.6298 131.444C89.8458 131.124 89.9658 130.752 89.9898 130.328C89.8938 130.376 89.7898 130.4 89.6778 130.4C89.4218 130.4 89.2138 130.324 89.0538 130.172C88.9018 130.012 88.8258 129.804 88.8258 129.548C88.8258 129.268 88.9098 129.044 89.0778 128.876C89.2458 128.7 89.4578 128.612 89.7138 128.612C90.0338 128.612 90.2938 128.74 90.4938 128.996C90.6938 129.252 90.7938 129.608 90.7938 130.064C90.7938 130.664 90.6418 131.2 90.3378 131.672C90.0338 132.144 89.6138 132.52 89.0778 132.8L88.7418 132.224Z" fill="white"/>
<path d="M8.08 18V10.128H12.616V10.968H9.076V13.632H12.076V14.472H9.076V18H8.08ZM16.0176 18.144C15.6576 18.144 15.3136 18.076 14.9856 17.94C14.6656 17.804 14.3816 17.608 14.1336 17.352C13.8856 17.088 13.6856 16.768 13.5336 16.392C13.3896 16.008 13.3176 15.576 13.3176 15.096C13.3176 14.608 13.3896 14.176 13.5336 13.8C13.6856 13.416 13.8856 13.092 14.1336 12.828C14.3816 12.564 14.6656 12.364 14.9856 12.228C15.3136 12.092 15.6576 12.024 16.0176 12.024C16.3776 12.024 16.7176 12.092 17.0376 12.228C17.3656 12.364 17.6536 12.564 17.9016 12.828C18.1496 13.092 18.3456 13.416 18.4896 13.8C18.6416 14.176 18.7176 14.608 18.7176 15.096C18.7176 15.576 18.6416 16.008 18.4896 16.392C18.3456 16.768 18.1496 17.088 17.9016 17.352C17.6536 17.608 17.3656 17.804 17.0376 17.94C16.7176 18.076 16.3776 18.144 16.0176 18.144ZM16.0176 17.328C16.2656 17.328 16.4936 17.276 16.7016 17.172C16.9096 17.06 17.0856 16.908 17.2296 16.716C17.3816 16.516 17.4976 16.28 17.5776 16.008C17.6576 15.736 17.6976 15.432 17.6976 15.096C17.6976 14.76 17.6576 14.456 17.5776 14.184C17.4976 13.904 17.3816 13.664 17.2296 13.464C17.0856 13.264 16.9096 13.112 16.7016 13.008C16.4936 12.896 16.2656 12.84 16.0176 12.84C15.7696 12.84 15.5416 12.896 15.3336 13.008C15.1256 13.112 14.9456 13.264 14.7936 13.464C14.6496 13.664 14.5376 13.904 14.4576 14.184C14.3776 14.456 14.3376 14.76 14.3376 15.096C14.3376 15.432 14.3776 15.736 14.4576 16.008C14.5376 16.28 14.6496 16.516 14.7936 16.716C14.9456 16.908 15.1256 17.06 15.3336 17.172C15.5416 17.276 15.7696 17.328 16.0176 17.328ZM20.2535 18V12.168H21.0695L21.1535 13.224H21.1895C21.3895 12.856 21.6295 12.564 21.9095 12.348C22.1975 12.132 22.5095 12.024 22.8455 12.024C23.0775 12.024 23.2855 12.064 23.4695 12.144L23.2775 13.008C23.1815 12.976 23.0935 12.952 23.0135 12.936C22.9335 12.92 22.8335 12.912 22.7135 12.912C22.4655 12.912 22.2055 13.012 21.9335 13.212C21.6695 13.412 21.4375 13.76 21.2375 14.256V18H20.2535ZM24.4137 18V12.168H25.2297L25.3137 13.008H25.3497C25.6057 12.728 25.8817 12.496 26.1777 12.312C26.4817 12.12 26.8097 12.024 27.1617 12.024C27.6097 12.024 27.9577 12.124 28.2057 12.324C28.4617 12.516 28.6497 12.788 28.7697 13.14C29.0737 12.804 29.3777 12.536 29.6817 12.336C29.9937 12.128 30.3297 12.024 30.6897 12.024C31.2897 12.024 31.7337 12.216 32.0217 12.6C32.3177 12.984 32.4657 13.552 32.4657 14.304V18H31.4817V14.436C31.4817 13.884 31.3937 13.488 31.2177 13.248C31.0417 13 30.7697 12.876 30.4017 12.876C29.9617 12.876 29.4737 13.176 28.9377 13.776V18H27.9537V14.436C27.9537 13.884 27.8657 13.488 27.6897 13.248C27.5137 13 27.2377 12.876 26.8617 12.876C26.4217 12.876 25.9337 13.176 25.3977 13.776V18H24.4137Z" fill="white"/>
<path d="M186.688 137.144C186.064 137.144 185.608 136.952 185.32 136.568C185.04 136.184 184.9 135.616 184.9 134.864V131.168H185.896V134.732C185.896 135.284 185.98 135.684 186.148 135.932C186.324 136.172 186.604 136.292 186.988 136.292C187.292 136.292 187.56 136.216 187.792 136.064C188.024 135.904 188.28 135.652 188.56 135.308V131.168H189.544V137H188.728L188.644 136.088H188.608C188.336 136.408 188.048 136.664 187.744 136.856C187.448 137.048 187.096 137.144 186.688 137.144ZM193.035 137.144C192.619 137.144 192.223 137.068 191.847 136.916C191.471 136.764 191.143 136.572 190.863 136.34L191.355 135.68C191.611 135.888 191.871 136.056 192.135 136.184C192.407 136.312 192.719 136.376 193.071 136.376C193.455 136.376 193.743 136.288 193.935 136.112C194.127 135.936 194.223 135.72 194.223 135.464C194.223 135.312 194.183 135.18 194.103 135.068C194.023 134.956 193.919 134.86 193.791 134.78C193.671 134.692 193.531 134.616 193.371 134.552C193.211 134.488 193.051 134.424 192.891 134.36C192.683 134.288 192.475 134.208 192.267 134.12C192.059 134.024 191.871 133.912 191.703 133.784C191.543 133.648 191.411 133.492 191.307 133.316C191.203 133.14 191.151 132.928 191.151 132.68C191.151 132.448 191.195 132.232 191.283 132.032C191.379 131.824 191.511 131.648 191.679 131.504C191.855 131.352 192.067 131.236 192.315 131.156C192.563 131.068 192.843 131.024 193.155 131.024C193.523 131.024 193.859 131.088 194.163 131.216C194.475 131.344 194.743 131.5 194.967 131.684L194.499 132.308C194.299 132.156 194.091 132.032 193.875 131.936C193.659 131.84 193.423 131.792 193.167 131.792C192.799 131.792 192.527 131.876 192.351 132.044C192.183 132.212 192.099 132.408 192.099 132.632C192.099 132.768 192.135 132.888 192.207 132.992C192.279 133.088 192.375 133.176 192.495 133.256C192.615 133.328 192.751 133.396 192.903 133.46C193.063 133.516 193.227 133.576 193.395 133.64C193.603 133.72 193.811 133.804 194.019 133.892C194.235 133.98 194.427 134.092 194.595 134.228C194.763 134.356 194.899 134.516 195.003 134.708C195.115 134.9 195.171 135.132 195.171 135.404C195.171 135.644 195.123 135.868 195.027 136.076C194.939 136.284 194.803 136.468 194.619 136.628C194.443 136.788 194.219 136.912 193.947 137C193.683 137.096 193.379 137.144 193.035 137.144ZM198.903 137.144C198.511 137.144 198.143 137.076 197.799 136.94C197.463 136.796 197.167 136.596 196.911 136.34C196.663 136.076 196.467 135.756 196.323 135.38C196.179 135.004 196.107 134.576 196.107 134.096C196.107 133.616 196.179 133.188 196.323 132.812C196.475 132.428 196.671 132.104 196.911 131.84C197.159 131.576 197.439 131.376 197.751 131.24C198.063 131.096 198.387 131.024 198.723 131.024C199.091 131.024 199.419 131.088 199.707 131.216C200.003 131.344 200.247 131.528 200.439 131.768C200.639 132.008 200.791 132.296 200.895 132.632C200.999 132.968 201.051 133.344 201.051 133.76C201.051 133.864 201.047 133.968 201.039 134.072C201.039 134.168 201.031 134.252 201.015 134.324H197.079C197.119 134.948 197.311 135.444 197.655 135.812C198.007 136.172 198.463 136.352 199.023 136.352C199.303 136.352 199.559 136.312 199.791 136.232C200.031 136.144 200.259 136.032 200.475 135.896L200.823 136.544C200.567 136.704 200.283 136.844 199.971 136.964C199.659 137.084 199.303 137.144 198.903 137.144ZM197.067 133.616H200.187C200.187 133.024 200.059 132.576 199.803 132.272C199.555 131.96 199.203 131.804 198.747 131.804C198.539 131.804 198.339 131.844 198.147 131.924C197.963 132.004 197.795 132.124 197.643 132.284C197.491 132.436 197.363 132.624 197.259 132.848C197.163 133.072 197.099 133.328 197.067 133.616ZM202.492 137V131.168H203.308L203.392 132.224H203.428C203.628 131.856 203.868 131.564 204.148 131.348C204.436 131.132 204.748 131.024 205.084 131.024C205.316 131.024 205.524 131.064 205.708 131.144L205.516 132.008C205.42 131.976 205.332 131.952 205.252 131.936C205.172 131.92 205.072 131.912 204.952 131.912C204.704 131.912 204.444 132.012 204.172 132.212C203.908 132.412 203.676 132.76 203.476 133.256V137H202.492ZM209.978 137L208.358 131.168H209.366L210.23 134.54C210.294 134.82 210.354 135.092 210.41 135.356C210.466 135.62 210.522 135.888 210.578 136.16H210.626C210.69 135.888 210.754 135.62 210.818 135.356C210.882 135.084 210.95 134.812 211.022 134.54L211.922 131.168H212.882L213.794 134.54C213.866 134.82 213.934 135.092 213.998 135.356C214.07 135.62 214.138 135.888 214.202 136.16H214.25C214.314 135.888 214.374 135.62 214.43 135.356C214.486 135.092 214.546 134.82 214.61 134.54L215.462 131.168H216.398L214.838 137H213.638L212.798 133.868C212.726 133.588 212.658 133.312 212.594 133.04C212.538 132.768 212.474 132.484 212.402 132.188H212.354C212.29 132.484 212.226 132.772 212.162 133.052C212.098 133.324 212.026 133.6 211.946 133.88L211.13 137H209.978ZM217.668 137V131.168H218.484L218.568 132.224H218.604C218.804 131.856 219.044 131.564 219.324 131.348C219.612 131.132 219.924 131.024 220.26 131.024C220.492 131.024 220.7 131.064 220.884 131.144L220.692 132.008C220.596 131.976 220.508 131.952 220.428 131.936C220.348 131.92 220.248 131.912 220.128 131.912C219.88 131.912 219.62 132.012 219.348 132.212C219.084 132.412 218.852 132.76 218.652 133.256V137H217.668ZM221.828 137V131.168H222.812V137H221.828ZM222.332 129.968C222.14 129.968 221.976 129.908 221.84 129.788C221.712 129.668 221.648 129.516 221.648 129.332C221.648 129.14 221.712 128.988 221.84 128.876C221.976 128.756 222.14 128.696 222.332 128.696C222.524 128.696 222.684 128.756 222.812 128.876C222.948 128.988 223.016 129.14 223.016 129.332C223.016 129.516 222.948 129.668 222.812 129.788C222.684 129.908 222.524 129.968 222.332 129.968ZM226.617 137.144C226.305 137.144 226.041 137.096 225.825 137C225.617 136.904 225.445 136.772 225.309 136.604C225.181 136.436 225.089 136.232 225.033 135.992C224.977 135.752 224.949 135.488 224.949 135.2V131.972H224.085V131.228L224.997 131.168L225.117 129.536H225.945V131.168H227.517V131.972H225.945V135.212C225.945 135.572 226.009 135.852 226.137 136.052C226.273 136.244 226.509 136.34 226.845 136.34C226.949 136.34 227.061 136.324 227.181 136.292C227.301 136.26 227.409 136.224 227.505 136.184L227.697 136.928C227.537 136.984 227.361 137.032 227.169 137.072C226.985 137.12 226.801 137.144 226.617 137.144ZM231.036 137.144C230.644 137.144 230.276 137.076 229.932 136.94C229.596 136.796 229.3 136.596 229.044 136.34C228.796 136.076 228.6 135.756 228.456 135.38C228.312 135.004 228.24 134.576 228.24 134.096C228.24 133.616 228.312 133.188 228.456 132.812C228.608 132.428 228.804 132.104 229.044 131.84C229.292 131.576 229.572 131.376 229.884 131.24C230.196 131.096 230.52 131.024 230.855 131.024C231.224 131.024 231.552 131.088 231.84 131.216C232.136 131.344 232.38 131.528 232.572 131.768C232.772 132.008 232.924 132.296 233.028 132.632C233.132 132.968 233.184 133.344 233.184 133.76C233.184 133.864 233.18 133.968 233.172 134.072C233.172 134.168 233.164 134.252 233.148 134.324H229.212C229.252 134.948 229.444 135.444 229.788 135.812C230.14 136.172 230.596 136.352 231.156 136.352C231.436 136.352 231.692 136.312 231.924 136.232C232.164 136.144 232.392 136.032 232.608 135.896L232.956 136.544C232.7 136.704 232.416 136.844 232.104 136.964C231.792 137.084 231.436 137.144 231.036 137.144ZM229.2 133.616H232.32C232.32 133.024 232.192 132.576 231.936 132.272C231.688 131.96 231.336 131.804 230.88 131.804C230.672 131.804 230.472 131.844 230.28 131.924C230.096 132.004 229.928 132.124 229.776 132.284C229.624 132.436 229.496 132.624 229.392 132.848C229.296 133.072 229.232 133.328 229.2 133.616ZM236.149 137.144C235.733 137.144 235.337 137.068 234.961 136.916C234.585 136.764 234.257 136.572 233.977 136.34L234.469 135.68C234.725 135.888 234.985 136.056 235.249 136.184C235.521 136.312 235.833 136.376 236.185 136.376C236.569 136.376 236.857 136.288 237.049 136.112C237.241 135.936 237.337 135.72 237.337 135.464C237.337 135.312 237.297 135.18 237.217 135.068C237.137 134.956 237.033 134.86 236.905 134.78C236.785 134.692 236.645 134.616 236.485 134.552C236.325 134.488 236.165 134.424 236.005 134.36C235.797 134.288 235.589 134.208 235.381 134.12C235.173 134.024 234.985 133.912 234.817 133.784C234.657 133.648 234.525 133.492 234.421 133.316C234.317 133.14 234.265 132.928 234.265 132.68C234.265 132.448 234.309 132.232 234.397 132.032C234.493 131.824 234.625 131.648 234.793 131.504C234.969 131.352 235.181 131.236 235.429 131.156C235.677 131.068 235.957 131.024 236.269 131.024C236.637 131.024 236.973 131.088 237.277 131.216C237.589 131.344 237.857 131.5 238.081 131.684L237.613 132.308C237.413 132.156 237.205 132.032 236.989 131.936C236.773 131.84 236.537 131.792 236.281 131.792C235.913 131.792 235.641 131.876 235.465 132.044C235.297 132.212 235.213 132.408 235.213 132.632C235.213 132.768 235.249 132.888 235.321 132.992C235.393 133.088 235.489 133.176 235.609 133.256C235.729 133.328 235.865 133.396 236.017 133.46C236.177 133.516 236.341 133.576 236.509 133.64C236.717 133.72 236.925 133.804 237.133 133.892C237.349 133.98 237.541 134.092 237.709 134.228C237.877 134.356 238.013 134.516 238.117 134.708C238.229 134.9 238.285 135.132 238.285 135.404C238.285 135.644 238.237 135.868 238.141 136.076C238.053 136.284 237.917 136.468 237.733 136.628C237.557 136.788 237.333 136.912 237.061 137C236.797 137.096 236.493 137.144 236.149 137.144Z" fill="#FFCD50"/>
<path d="M256.788 133.137L256.788 133.637L257.289 133.637L257.288 133.136L256.788 133.137ZM256.77 110.636L257.27 110.635L257.27 110.136L256.771 110.136L256.77 110.636ZM84.0002 110.5L84.0006 110L83.4998 110L83.5002 110.5L84.0002 110.5ZM83.6585 125.354C83.8539 125.549 84.1705 125.549 84.3656 125.354L87.5451 122.169C87.7402 121.974 87.7399 121.657 87.5445 121.462C87.3491 121.267 87.0325 121.267 86.8374 121.463L84.0112 124.293L81.1805 121.467C80.9851 121.272 80.6685 121.272 80.4734 121.468C80.2783 121.663 80.2786 121.98 80.474 122.175L83.6585 125.354ZM241.5 133.637L256.788 133.637L256.788 132.637L241.5 132.637L241.5 133.637ZM257.288 133.136L257.27 110.635L256.27 110.636L256.288 133.137L257.288 133.136ZM256.771 110.136L84.0006 110L83.9998 111L256.77 111.136L256.771 110.136ZM83.5002 110.5L83.5118 125.001L84.5118 125L84.5002 110.5L83.5002 110.5Z" fill="#FCC438"/>
</g>
<defs>
<clipPath id="clip0">
<rect width="289" height="160" fill="white"/>
</clipPath>
</defs>
</svg>
