<svg width="289" height="160" viewBox="0 0 289 160" fill="none" xmlns="http://www.w3.org/2000/svg">
<rect width="289" height="160" fill="#011627"/>
<path d="M5 6H169V154H5V6Z" fill="white" fill-opacity="0.29"/>
<path d="M5.5 6.5H168.5V153.5H5.5V6.5Z" stroke="white" stroke-opacity="0.24"/>
<path d="M13 98H160V147H13V98Z" fill="white" fill-opacity="0.28"/>
<path d="M13.5 98.5H159.5V146.5H13.5V98.5Z" stroke="white" stroke-opacity="0.37"/>
<path d="M16.984 110V104.168H17.968V110H16.984ZM17.488 102.968C17.296 102.968 17.132 102.908 16.996 102.788C16.868 102.668 16.804 102.516 16.804 102.332C16.804 102.14 16.868 101.988 16.996 101.876C17.132 101.756 17.296 101.696 17.488 101.696C17.68 101.696 17.84 101.756 17.968 101.876C18.104 101.988 18.172 102.14 18.172 102.332C18.172 102.516 18.104 102.668 17.968 102.788C17.84 102.908 17.68 102.968 17.488 102.968ZM19.9371 110V104.168H20.7531L20.8371 105.008H20.8731C21.1531 104.728 21.4451 104.496 21.7491 104.312C22.0611 104.12 22.4211 104.024 22.8291 104.024C23.4451 104.024 23.8931 104.216 24.1731 104.6C24.4611 104.984 24.6051 105.552 24.6051 106.304V110H23.6211V106.436C23.6211 105.884 23.5331 105.488 23.3571 105.248C23.1811 105 22.9011 104.876 22.5171 104.876C22.2131 104.876 21.9451 104.952 21.7131 105.104C21.4811 105.256 21.2171 105.48 20.9211 105.776V110H19.9371ZM26.4996 112.46V104.168H27.3156L27.3996 104.84H27.4356C27.6996 104.616 27.9876 104.424 28.2996 104.264C28.6196 104.104 28.9516 104.024 29.2956 104.024C29.6716 104.024 30.0036 104.096 30.2916 104.24C30.5796 104.376 30.8196 104.576 31.0116 104.84C31.2036 105.096 31.3476 105.408 31.4436 105.776C31.5476 106.136 31.5996 106.544 31.5996 107C31.5996 107.496 31.5316 107.94 31.3956 108.332C31.2596 108.716 31.0756 109.044 30.8436 109.316C30.6116 109.588 30.3436 109.796 30.0396 109.94C29.7356 110.076 29.4156 110.144 29.0796 110.144C28.8076 110.144 28.5356 110.084 28.2636 109.964C27.9996 109.844 27.7316 109.68 27.4596 109.472L27.4836 110.492V112.46H26.4996ZM28.9116 109.316C29.1516 109.316 29.3716 109.264 29.5716 109.16C29.7796 109.048 29.9556 108.896 30.0996 108.704C30.2516 108.504 30.3676 108.26 30.4476 107.972C30.5356 107.684 30.5796 107.36 30.5796 107C30.5796 106.68 30.5516 106.388 30.4956 106.124C30.4396 105.86 30.3476 105.636 30.2196 105.452C30.0996 105.26 29.9396 105.112 29.7396 105.008C29.5476 104.904 29.3156 104.852 29.0436 104.852C28.7956 104.852 28.5436 104.92 28.2876 105.056C28.0396 105.192 27.7716 105.388 27.4836 105.644V108.704C27.7476 108.928 28.0036 109.088 28.2516 109.184C28.4996 109.272 28.7196 109.316 28.9116 109.316ZM34.8599 110.144C34.2359 110.144 33.7799 109.952 33.4919 109.568C33.2119 109.184 33.0719 108.616 33.0719 107.864V104.168H34.0679V107.732C34.0679 108.284 34.1519 108.684 34.3199 108.932C34.4959 109.172 34.7759 109.292 35.1599 109.292C35.4639 109.292 35.7319 109.216 35.9639 109.064C36.1959 108.904 36.4519 108.652 36.7319 108.308V104.168H37.7159V110H36.8999L36.8159 109.088H36.7799C36.5079 109.408 36.2199 109.664 35.9159 109.856C35.6199 110.048 35.2679 110.144 34.8599 110.144ZM41.5192 110.144C41.2072 110.144 40.9432 110.096 40.7272 110C40.5192 109.904 40.3472 109.772 40.2112 109.604C40.0832 109.436 39.9912 109.232 39.9352 108.992C39.8792 108.752 39.8512 108.488 39.8512 108.2V104.972H38.9872V104.228L39.8992 104.168L40.0192 102.536H40.8472V104.168H42.4192V104.972H40.8472V108.212C40.8472 108.572 40.9112 108.852 41.0392 109.052C41.1752 109.244 41.4112 109.34 41.7472 109.34C41.8512 109.34 41.9632 109.324 42.0832 109.292C42.2032 109.26 42.3112 109.224 42.4072 109.184L42.5992 109.928C42.4392 109.984 42.2632 110.032 42.0712 110.072C41.8872 110.12 41.7032 110.144 41.5192 110.144Z" fill="white"/>
<path d="M20.612 131.168H21.608L22.952 134.48C23.072 134.776 23.184 135.068 23.288 135.356C23.4 135.636 23.508 135.916 23.612 136.196H23.66C23.764 135.916 23.864 135.636 23.96 135.356C24.064 135.068 24.176 134.776 24.296 134.48L25.64 131.168H26.588L24.176 137H23.072L20.612 131.168ZM28.1673 135.488C28.1673 135.16 28.2433 134.876 28.3953 134.636C28.5553 134.388 28.8033 134.176 29.1393 134C29.4833 133.824 29.9233 133.68 30.4593 133.568C30.9953 133.456 31.6393 133.368 32.3913 133.304C32.3833 133.104 32.3513 132.916 32.2953 132.74C32.2393 132.564 32.1513 132.412 32.0313 132.284C31.9113 132.148 31.7513 132.04 31.5513 131.96C31.3593 131.88 31.1233 131.84 30.8433 131.84C30.4593 131.84 30.0913 131.916 29.7393 132.068C29.3873 132.212 29.0753 132.368 28.8033 132.536L28.4193 131.864C28.5633 131.768 28.7313 131.672 28.9233 131.576C29.1233 131.472 29.3313 131.38 29.5473 131.3C29.7713 131.22 30.0073 131.156 30.2553 131.108C30.5033 131.052 30.7553 131.024 31.0113 131.024C31.8113 131.024 32.4033 131.244 32.7873 131.684C33.1793 132.116 33.3753 132.696 33.3753 133.424V137H32.5713L32.4873 136.208H32.4513C32.1233 136.464 31.7593 136.684 31.3593 136.868C30.9673 137.052 30.5633 137.144 30.1473 137.144C29.8753 137.144 29.6193 137.104 29.3793 137.024C29.1393 136.952 28.9273 136.848 28.7433 136.712C28.5673 136.568 28.4273 136.396 28.3233 136.196C28.2193 135.988 28.1673 135.752 28.1673 135.488ZM29.1273 135.416C29.1273 135.584 29.1633 135.728 29.2353 135.848C29.3073 135.96 29.3993 136.056 29.5113 136.136C29.6313 136.208 29.7673 136.264 29.9193 136.304C30.0793 136.336 30.2433 136.352 30.4113 136.352C30.7473 136.352 31.0753 136.28 31.3953 136.136C31.7233 135.984 32.0553 135.768 32.3913 135.488V133.952C31.7673 134 31.2433 134.068 30.8193 134.156C30.4033 134.244 30.0673 134.352 29.8113 134.48C29.5633 134.6 29.3873 134.74 29.2833 134.9C29.1793 135.052 29.1273 135.224 29.1273 135.416ZM35.3626 128.456H38.3386V135.116C38.3386 135.548 38.4386 135.86 38.6386 136.052C38.8466 136.236 39.1266 136.328 39.4786 136.328C39.7986 136.328 40.1666 136.236 40.5826 136.052L40.8346 136.796C40.5706 136.892 40.3226 136.972 40.0906 137.036C39.8586 137.108 39.5826 137.144 39.2626 137.144C38.6386 137.144 38.1626 136.968 37.8346 136.616C37.5146 136.264 37.3546 135.74 37.3546 135.044V129.26H35.3626V128.456ZM47.6459 137H46.8419L46.7579 135.98H46.7099C46.4139 136.324 46.0899 136.604 45.7379 136.82C45.3939 137.036 44.9939 137.144 44.5379 137.144C43.8339 137.144 43.3179 136.948 42.9899 136.556C42.6699 136.156 42.5099 135.568 42.5099 134.792V131.168H43.5059V134.66C43.5059 135.212 43.6059 135.624 43.8059 135.896C44.0139 136.16 44.3619 136.292 44.8499 136.292C45.1859 136.292 45.4899 136.208 45.7619 136.04C46.0339 135.864 46.3339 135.588 46.6619 135.212V131.168H47.6459V137ZM49.6093 134.096C49.6093 133.616 49.6933 133.188 49.8613 132.812C50.0293 132.428 50.2493 132.104 50.5213 131.84C50.8013 131.576 51.1173 131.376 51.4693 131.24C51.8293 131.096 52.1973 131.024 52.5733 131.024C52.9893 131.024 53.3613 131.092 53.6893 131.228C54.0173 131.356 54.2933 131.54 54.5173 131.78C54.7493 132.02 54.9253 132.308 55.0453 132.644C55.1653 132.98 55.2253 133.352 55.2253 133.76C55.2253 133.864 55.2213 133.968 55.2133 134.072C55.2133 134.168 55.2053 134.252 55.1893 134.324H50.6293C50.6373 134.636 50.6973 134.916 50.8093 135.164C50.9293 135.412 51.0853 135.624 51.2773 135.8C51.4773 135.976 51.7093 136.112 51.9733 136.208C52.2453 136.304 52.5413 136.352 52.8613 136.352C53.2053 136.352 53.5173 136.304 53.7973 136.208C54.0853 136.112 54.3653 135.98 54.6373 135.812L54.9853 136.46C54.6973 136.644 54.3693 136.804 54.0013 136.94C53.6333 137.076 53.2133 137.144 52.7413 137.144C52.3093 137.144 51.9013 137.076 51.5173 136.94C51.1413 136.796 50.8093 136.596 50.5213 136.34C50.2413 136.076 50.0173 135.756 49.8493 135.38C49.6893 135.004 49.6093 134.576 49.6093 134.096ZM54.3133 133.616C54.3133 133.032 54.1613 132.584 53.8573 132.272C53.5533 131.96 53.1293 131.804 52.5853 131.804C52.3453 131.804 52.1133 131.844 51.8893 131.924C51.6733 132.004 51.4773 132.124 51.3013 132.284C51.1253 132.436 50.9773 132.624 50.8573 132.848C50.7373 133.072 50.6573 133.328 50.6173 133.616H54.3133ZM64.1919 131.384H69.3519V132.128H64.1919V131.384ZM64.1919 133.94H69.3519V134.684H64.1919V133.94ZM78.9065 135.584C79.2345 135.824 79.5865 136.016 79.9625 136.16C80.3385 136.304 80.7905 136.376 81.3185 136.376C81.8465 136.376 82.2385 136.288 82.4945 136.112C82.7505 135.936 82.8785 135.72 82.8785 135.464C82.8785 135.24 82.7385 135.04 82.4585 134.864C82.1865 134.688 81.6945 134.512 80.9825 134.336C80.6785 134.264 80.3905 134.176 80.1185 134.072C79.8545 133.968 79.6225 133.848 79.4225 133.712C79.2225 133.568 79.0625 133.412 78.9425 133.244C78.8225 133.076 78.7625 132.888 78.7625 132.68C78.7625 132.448 78.8145 132.232 78.9185 132.032C79.0225 131.824 79.1745 131.648 79.3745 131.504C79.5825 131.352 79.8385 131.236 80.1425 131.156C80.4545 131.068 80.8105 131.024 81.2105 131.024C81.6505 131.024 82.0785 131.1 82.4945 131.252C82.9105 131.396 83.2625 131.568 83.5505 131.768L83.0705 132.404C82.8145 132.22 82.5305 132.072 82.2185 131.96C81.9065 131.848 81.5705 131.792 81.2105 131.792C80.9385 131.792 80.7105 131.816 80.5265 131.864C80.3425 131.904 80.1945 131.964 80.0825 132.044C79.9705 132.116 79.8905 132.204 79.8425 132.308C79.7945 132.412 79.7705 132.52 79.7705 132.632C79.7705 132.872 79.9345 133.072 80.2625 133.232C80.5905 133.384 81.0185 133.528 81.5465 133.664C82.3385 133.864 82.9225 134.092 83.2985 134.348C83.6825 134.604 83.8745 134.956 83.8745 135.404C83.8745 135.644 83.8185 135.868 83.7065 136.076C83.5945 136.284 83.4265 136.468 83.2025 136.628C82.9865 136.788 82.7145 136.912 82.3865 137C82.0665 137.096 81.6985 137.144 81.2825 137.144C80.7065 137.144 80.1745 137.056 79.6865 136.88C79.2065 136.696 78.7865 136.48 78.4265 136.232L78.9065 135.584ZM87.2298 131.972H85.5858V131.228L87.2658 131.168L87.3978 129.536H88.2138V131.168H91.0818V131.972H88.2138V134.744C88.2138 135.008 88.2378 135.24 88.2858 135.44C88.3338 135.632 88.4138 135.796 88.5258 135.932C88.6378 136.068 88.7898 136.172 88.9818 136.244C89.1738 136.308 89.4098 136.34 89.6898 136.34C89.9698 136.34 90.2218 136.316 90.4458 136.268C90.6698 136.22 90.8858 136.156 91.0938 136.076L91.3098 136.796C91.0458 136.892 90.7538 136.972 90.4338 137.036C90.1138 137.108 89.7938 137.144 89.4738 137.144C89.0498 137.144 88.6938 137.088 88.4058 136.976C88.1178 136.856 87.8858 136.692 87.7098 136.484C87.5418 136.268 87.4178 136.012 87.3378 135.716C87.2658 135.42 87.2298 135.092 87.2298 134.732V131.972ZM92.9251 135.488C92.9251 135.16 93.0011 134.876 93.1531 134.636C93.3131 134.388 93.5611 134.176 93.8971 134C94.2411 133.824 94.6811 133.68 95.2171 133.568C95.7531 133.456 96.3971 133.368 97.1491 133.304C97.1411 133.104 97.1091 132.916 97.0531 132.74C96.9971 132.564 96.9091 132.412 96.7891 132.284C96.6691 132.148 96.5091 132.04 96.3091 131.96C96.1171 131.88 95.8811 131.84 95.6011 131.84C95.2171 131.84 94.8491 131.916 94.4971 132.068C94.1451 132.212 93.8331 132.368 93.5611 132.536L93.1771 131.864C93.3211 131.768 93.4891 131.672 93.6811 131.576C93.8811 131.472 94.0891 131.38 94.3051 131.3C94.5291 131.22 94.7651 131.156 95.0131 131.108C95.2611 131.052 95.5131 131.024 95.7691 131.024C96.5691 131.024 97.1611 131.244 97.5451 131.684C97.9371 132.116 98.1331 132.696 98.1331 133.424V137H97.3291L97.2451 136.208H97.2091C96.8811 136.464 96.5171 136.684 96.1171 136.868C95.7251 137.052 95.3211 137.144 94.9051 137.144C94.6331 137.144 94.3771 137.104 94.1371 137.024C93.8971 136.952 93.6851 136.848 93.5011 136.712C93.3251 136.568 93.1851 136.396 93.0811 136.196C92.9771 135.988 92.9251 135.752 92.9251 135.488ZM93.8851 135.416C93.8851 135.584 93.9211 135.728 93.9931 135.848C94.0651 135.96 94.1571 136.056 94.2691 136.136C94.3891 136.208 94.5251 136.264 94.6771 136.304C94.8371 136.336 95.0011 136.352 95.1691 136.352C95.5051 136.352 95.8331 136.28 96.1531 136.136C96.4811 135.984 96.8131 135.768 97.1491 135.488V133.952C96.5251 134 96.0011 134.068 95.5771 134.156C95.1611 134.244 94.8251 134.352 94.5691 134.48C94.3211 134.6 94.1451 134.74 94.0411 134.9C93.9371 135.052 93.8851 135.224 93.8851 135.416ZM101.62 131.972H99.9764V131.228L101.656 131.168L101.788 129.536H102.604V131.168H105.472V131.972H102.604V134.744C102.604 135.008 102.628 135.24 102.676 135.44C102.724 135.632 102.804 135.796 102.916 135.932C103.028 136.068 103.18 136.172 103.372 136.244C103.564 136.308 103.8 136.34 104.08 136.34C104.36 136.34 104.612 136.316 104.836 136.268C105.06 136.22 105.276 136.156 105.484 136.076L105.7 136.796C105.436 136.892 105.144 136.972 104.824 137.036C104.504 137.108 104.184 137.144 103.864 137.144C103.44 137.144 103.084 137.088 102.796 136.976C102.508 136.856 102.276 136.692 102.1 136.484C101.932 136.268 101.808 136.012 101.728 135.716C101.656 135.42 101.62 135.092 101.62 134.732V131.972ZM107.172 134.096C107.172 133.616 107.256 133.188 107.424 132.812C107.592 132.428 107.812 132.104 108.084 131.84C108.364 131.576 108.68 131.376 109.032 131.24C109.392 131.096 109.76 131.024 110.136 131.024C110.552 131.024 110.924 131.092 111.252 131.228C111.58 131.356 111.856 131.54 112.08 131.78C112.312 132.02 112.488 132.308 112.608 132.644C112.728 132.98 112.788 133.352 112.788 133.76C112.788 133.864 112.784 133.968 112.776 134.072C112.776 134.168 112.768 134.252 112.752 134.324H108.192C108.2 134.636 108.26 134.916 108.372 135.164C108.492 135.412 108.648 135.624 108.84 135.8C109.04 135.976 109.272 136.112 109.536 136.208C109.808 136.304 110.104 136.352 110.424 136.352C110.768 136.352 111.08 136.304 111.36 136.208C111.648 136.112 111.928 135.98 112.2 135.812L112.548 136.46C112.26 136.644 111.932 136.804 111.564 136.94C111.196 137.076 110.776 137.144 110.304 137.144C109.872 137.144 109.464 137.076 109.08 136.94C108.704 136.796 108.372 136.596 108.084 136.34C107.804 136.076 107.58 135.756 107.412 135.38C107.252 135.004 107.172 134.576 107.172 134.096ZM111.876 133.616C111.876 133.032 111.724 132.584 111.42 132.272C111.116 131.96 110.692 131.804 110.148 131.804C109.908 131.804 109.676 131.844 109.452 131.924C109.236 132.004 109.04 132.124 108.864 132.284C108.688 132.436 108.54 132.624 108.42 132.848C108.3 133.072 108.22 133.328 108.18 133.616H111.876ZM116.167 136.136C116.167 135.832 116.259 135.588 116.443 135.404C116.635 135.212 116.867 135.116 117.139 135.116C117.411 135.116 117.639 135.212 117.823 135.404C118.015 135.588 118.111 135.832 118.111 136.136C118.111 136.44 118.015 136.684 117.823 136.868C117.639 137.052 117.411 137.144 117.139 137.144C116.867 137.144 116.635 137.052 116.443 136.868C116.259 136.684 116.167 136.44 116.167 136.136ZM121.346 131.168H122.342L123.686 134.48C123.806 134.776 123.918 135.068 124.022 135.356C124.134 135.636 124.242 135.916 124.346 136.196H124.394C124.498 135.916 124.598 135.636 124.694 135.356C124.798 135.068 124.91 134.776 125.03 134.48L126.374 131.168H127.322L124.91 137H123.806L121.346 131.168ZM128.902 135.488C128.902 135.16 128.978 134.876 129.13 134.636C129.29 134.388 129.538 134.176 129.874 134C130.218 133.824 130.658 133.68 131.194 133.568C131.73 133.456 132.374 133.368 133.126 133.304C133.118 133.104 133.086 132.916 133.03 132.74C132.974 132.564 132.886 132.412 132.766 132.284C132.646 132.148 132.486 132.04 132.286 131.96C132.094 131.88 131.858 131.84 131.578 131.84C131.194 131.84 130.826 131.916 130.474 132.068C130.122 132.212 129.81 132.368 129.538 132.536L129.154 131.864C129.298 131.768 129.466 131.672 129.658 131.576C129.858 131.472 130.066 131.38 130.282 131.3C130.506 131.22 130.742 131.156 130.99 131.108C131.238 131.052 131.49 131.024 131.746 131.024C132.546 131.024 133.138 131.244 133.522 131.684C133.914 132.116 134.11 132.696 134.11 133.424V137H133.306L133.222 136.208H133.186C132.858 136.464 132.494 136.684 132.094 136.868C131.702 137.052 131.298 137.144 130.882 137.144C130.61 137.144 130.354 137.104 130.114 137.024C129.874 136.952 129.662 136.848 129.478 136.712C129.302 136.568 129.162 136.396 129.058 136.196C128.954 135.988 128.902 135.752 128.902 135.488ZM129.862 135.416C129.862 135.584 129.898 135.728 129.97 135.848C130.042 135.96 130.134 136.056 130.246 136.136C130.366 136.208 130.502 136.264 130.654 136.304C130.814 136.336 130.978 136.352 131.146 136.352C131.482 136.352 131.81 136.28 132.13 136.136C132.458 135.984 132.79 135.768 133.126 135.488V133.952C132.502 134 131.978 134.068 131.554 134.156C131.138 134.244 130.802 134.352 130.546 134.48C130.298 134.6 130.122 134.74 130.018 134.9C129.914 135.052 129.862 135.224 129.862 135.416ZM136.097 128.456H139.073V135.116C139.073 135.548 139.173 135.86 139.373 136.052C139.581 136.236 139.861 136.328 140.213 136.328C140.533 136.328 140.901 136.236 141.317 136.052L141.569 136.796C141.305 136.892 141.057 136.972 140.825 137.036C140.593 137.108 140.317 137.144 139.997 137.144C139.373 137.144 138.897 136.968 138.569 136.616C138.249 136.264 138.089 135.74 138.089 135.044V129.26H136.097V128.456ZM148.38 137H147.576L147.492 135.98H147.444C147.148 136.324 146.824 136.604 146.472 136.82C146.128 137.036 145.728 137.144 145.272 137.144C144.568 137.144 144.052 136.948 143.724 136.556C143.404 136.156 143.244 135.568 143.244 134.792V131.168H144.24V134.66C144.24 135.212 144.34 135.624 144.54 135.896C144.748 136.16 145.096 136.292 145.584 136.292C145.92 136.292 146.224 136.208 146.496 136.04C146.768 135.864 147.068 135.588 147.396 135.212V131.168H148.38V137ZM150.344 134.096C150.344 133.616 150.428 133.188 150.596 132.812C150.764 132.428 150.984 132.104 151.256 131.84C151.536 131.576 151.852 131.376 152.204 131.24C152.564 131.096 152.932 131.024 153.308 131.024C153.724 131.024 154.096 131.092 154.424 131.228C154.752 131.356 155.028 131.54 155.252 131.78C155.484 132.02 155.66 132.308 155.78 132.644C155.9 132.98 155.96 133.352 155.96 133.76C155.96 133.864 155.956 133.968 155.948 134.072C155.948 134.168 155.94 134.252 155.924 134.324H151.364C151.372 134.636 151.432 134.916 151.544 135.164C151.664 135.412 151.82 135.624 152.012 135.8C152.212 135.976 152.444 136.112 152.708 136.208C152.98 136.304 153.276 136.352 153.596 136.352C153.94 136.352 154.252 136.304 154.532 136.208C154.82 136.112 155.1 135.98 155.372 135.812L155.72 136.46C155.432 136.644 155.104 136.804 154.736 136.94C154.368 137.076 153.948 137.144 153.476 137.144C153.044 137.144 152.636 137.076 152.252 136.94C151.876 136.796 151.544 136.596 151.256 136.34C150.976 136.076 150.752 135.756 150.584 135.38C150.424 135.004 150.344 134.576 150.344 134.096ZM155.048 133.616C155.048 133.032 154.896 132.584 154.592 132.272C154.288 131.96 153.864 131.804 153.32 131.804C153.08 131.804 152.848 131.844 152.624 131.924C152.408 132.004 152.212 132.124 152.036 132.284C151.86 132.436 151.712 132.624 151.592 132.848C151.472 133.072 151.392 133.328 151.352 133.616H155.048Z" fill="white"/>
<path d="M8.08 18V10.128H12.616V10.968H9.076V13.632H12.076V14.472H9.076V18H8.08ZM16.0176 18.144C15.6576 18.144 15.3136 18.076 14.9856 17.94C14.6656 17.804 14.3816 17.608 14.1336 17.352C13.8856 17.088 13.6856 16.768 13.5336 16.392C13.3896 16.008 13.3176 15.576 13.3176 15.096C13.3176 14.608 13.3896 14.176 13.5336 13.8C13.6856 13.416 13.8856 13.092 14.1336 12.828C14.3816 12.564 14.6656 12.364 14.9856 12.228C15.3136 12.092 15.6576 12.024 16.0176 12.024C16.3776 12.024 16.7176 12.092 17.0376 12.228C17.3656 12.364 17.6536 12.564 17.9016 12.828C18.1496 13.092 18.3456 13.416 18.4896 13.8C18.6416 14.176 18.7176 14.608 18.7176 15.096C18.7176 15.576 18.6416 16.008 18.4896 16.392C18.3456 16.768 18.1496 17.088 17.9016 17.352C17.6536 17.608 17.3656 17.804 17.0376 17.94C16.7176 18.076 16.3776 18.144 16.0176 18.144ZM16.0176 17.328C16.2656 17.328 16.4936 17.276 16.7016 17.172C16.9096 17.06 17.0856 16.908 17.2296 16.716C17.3816 16.516 17.4976 16.28 17.5776 16.008C17.6576 15.736 17.6976 15.432 17.6976 15.096C17.6976 14.76 17.6576 14.456 17.5776 14.184C17.4976 13.904 17.3816 13.664 17.2296 13.464C17.0856 13.264 16.9096 13.112 16.7016 13.008C16.4936 12.896 16.2656 12.84 16.0176 12.84C15.7696 12.84 15.5416 12.896 15.3336 13.008C15.1256 13.112 14.9456 13.264 14.7936 13.464C14.6496 13.664 14.5376 13.904 14.4576 14.184C14.3776 14.456 14.3376 14.76 14.3376 15.096C14.3376 15.432 14.3776 15.736 14.4576 16.008C14.5376 16.28 14.6496 16.516 14.7936 16.716C14.9456 16.908 15.1256 17.06 15.3336 17.172C15.5416 17.276 15.7696 17.328 16.0176 17.328ZM20.2535 18V12.168H21.0695L21.1535 13.224H21.1895C21.3895 12.856 21.6295 12.564 21.9095 12.348C22.1975 12.132 22.5095 12.024 22.8455 12.024C23.0775 12.024 23.2855 12.064 23.4695 12.144L23.2775 13.008C23.1815 12.976 23.0935 12.952 23.0135 12.936C22.9335 12.92 22.8335 12.912 22.7135 12.912C22.4655 12.912 22.2055 13.012 21.9335 13.212C21.6695 13.412 21.4375 13.76 21.2375 14.256V18H20.2535ZM24.4137 18V12.168H25.2297L25.3137 13.008H25.3497C25.6057 12.728 25.8817 12.496 26.1777 12.312C26.4817 12.12 26.8097 12.024 27.1617 12.024C27.6097 12.024 27.9577 12.124 28.2057 12.324C28.4617 12.516 28.6497 12.788 28.7697 13.14C29.0737 12.804 29.3777 12.536 29.6817 12.336C29.9937 12.128 30.3297 12.024 30.6897 12.024C31.2897 12.024 31.7337 12.216 32.0217 12.6C32.3177 12.984 32.4657 13.552 32.4657 14.304V18H31.4817V14.436C31.4817 13.884 31.3937 13.488 31.2177 13.248C31.0417 13 30.7697 12.876 30.4017 12.876C29.9617 12.876 29.4737 13.176 28.9377 13.776V18H27.9537V14.436C27.9537 13.884 27.8657 13.488 27.6897 13.248C27.5137 13 27.2377 12.876 26.8617 12.876C26.4217 12.876 25.9337 13.176 25.3977 13.776V18H24.4137Z" fill="white"/>
<path d="M17.344 32.584C17.672 32.824 18.024 33.016 18.4 33.16C18.776 33.304 19.228 33.376 19.756 33.376C20.284 33.376 20.676 33.288 20.932 33.112C21.188 32.936 21.316 32.72 21.316 32.464C21.316 32.24 21.176 32.04 20.896 31.864C20.624 31.688 20.132 31.512 19.42 31.336C19.116 31.264 18.828 31.176 18.556 31.072C18.292 30.968 18.06 30.848 17.86 30.712C17.66 30.568 17.5 30.412 17.38 30.244C17.26 30.076 17.2 29.888 17.2 29.68C17.2 29.448 17.252 29.232 17.356 29.032C17.46 28.824 17.612 28.648 17.812 28.504C18.02 28.352 18.276 28.236 18.58 28.156C18.892 28.068 19.248 28.024 19.648 28.024C20.088 28.024 20.516 28.1 20.932 28.252C21.348 28.396 21.7 28.568 21.988 28.768L21.508 29.404C21.252 29.22 20.968 29.072 20.656 28.96C20.344 28.848 20.008 28.792 19.648 28.792C19.376 28.792 19.148 28.816 18.964 28.864C18.78 28.904 18.632 28.964 18.52 29.044C18.408 29.116 18.328 29.204 18.28 29.308C18.232 29.412 18.208 29.52 18.208 29.632C18.208 29.872 18.372 30.072 18.7 30.232C19.028 30.384 19.456 30.528 19.984 30.664C20.776 30.864 21.36 31.092 21.736 31.348C22.12 31.604 22.312 31.956 22.312 32.404C22.312 32.644 22.256 32.868 22.144 33.076C22.032 33.284 21.864 33.468 21.64 33.628C21.424 33.788 21.152 33.912 20.824 34C20.504 34.096 20.136 34.144 19.72 34.144C19.144 34.144 18.612 34.056 18.124 33.88C17.644 33.696 17.224 33.48 16.864 33.232L17.344 32.584ZM25.6673 28.972H24.0233V28.228L25.7033 28.168L25.8353 26.536H26.6513V28.168H29.5193V28.972H26.6513V31.744C26.6513 32.008 26.6753 32.24 26.7233 32.44C26.7713 32.632 26.8513 32.796 26.9633 32.932C27.0753 33.068 27.2273 33.172 27.4193 33.244C27.6113 33.308 27.8473 33.34 28.1273 33.34C28.4073 33.34 28.6593 33.316 28.8833 33.268C29.1073 33.22 29.3233 33.156 29.5313 33.076L29.7473 33.796C29.4833 33.892 29.1913 33.972 28.8713 34.036C28.5513 34.108 28.2313 34.144 27.9113 34.144C27.4873 34.144 27.1313 34.088 26.8433 33.976C26.5553 33.856 26.3233 33.692 26.1473 33.484C25.9793 33.268 25.8553 33.012 25.7753 32.716C25.7033 32.42 25.6673 32.092 25.6673 31.732V28.972ZM31.3626 32.488C31.3626 32.16 31.4386 31.876 31.5906 31.636C31.7506 31.388 31.9986 31.176 32.3346 31C32.6786 30.824 33.1186 30.68 33.6546 30.568C34.1906 30.456 34.8346 30.368 35.5866 30.304C35.5786 30.104 35.5466 29.916 35.4906 29.74C35.4346 29.564 35.3466 29.412 35.2266 29.284C35.1066 29.148 34.9466 29.04 34.7466 28.96C34.5546 28.88 34.3186 28.84 34.0386 28.84C33.6546 28.84 33.2866 28.916 32.9346 29.068C32.5826 29.212 32.2706 29.368 31.9986 29.536L31.6146 28.864C31.7586 28.768 31.9266 28.672 32.1186 28.576C32.3186 28.472 32.5266 28.38 32.7426 28.3C32.9666 28.22 33.2026 28.156 33.4506 28.108C33.6986 28.052 33.9506 28.024 34.2066 28.024C35.0066 28.024 35.5986 28.244 35.9826 28.684C36.3746 29.116 36.5706 29.696 36.5706 30.424V34H35.7666L35.6826 33.208H35.6466C35.3186 33.464 34.9546 33.684 34.5546 33.868C34.1626 34.052 33.7586 34.144 33.3426 34.144C33.0706 34.144 32.8146 34.104 32.5746 34.024C32.3346 33.952 32.1226 33.848 31.9386 33.712C31.7626 33.568 31.6226 33.396 31.5186 33.196C31.4146 32.988 31.3626 32.752 31.3626 32.488ZM32.3226 32.416C32.3226 32.584 32.3586 32.728 32.4306 32.848C32.5026 32.96 32.5946 33.056 32.7066 33.136C32.8266 33.208 32.9626 33.264 33.1146 33.304C33.2746 33.336 33.4386 33.352 33.6066 33.352C33.9426 33.352 34.2706 33.28 34.5906 33.136C34.9186 32.984 35.2506 32.768 35.5866 32.488V30.952C34.9626 31 34.4386 31.068 34.0146 31.156C33.5986 31.244 33.2626 31.352 33.0066 31.48C32.7586 31.6 32.5826 31.74 32.4786 31.9C32.3746 32.052 32.3226 32.224 32.3226 32.416ZM40.0579 28.972H38.4139V28.228L40.0939 28.168L40.2259 26.536H41.0419V28.168H43.9099V28.972H41.0419V31.744C41.0419 32.008 41.0659 32.24 41.1139 32.44C41.1619 32.632 41.2419 32.796 41.3539 32.932C41.4659 33.068 41.6179 33.172 41.8099 33.244C42.0019 33.308 42.2379 33.34 42.5179 33.34C42.7979 33.34 43.0499 33.316 43.2739 33.268C43.4979 33.22 43.7139 33.156 43.9219 33.076L44.1379 33.796C43.8739 33.892 43.5819 33.972 43.2619 34.036C42.9419 34.108 42.6219 34.144 42.3019 34.144C41.8779 34.144 41.5219 34.088 41.2339 33.976C40.9459 33.856 40.7139 33.692 40.5379 33.484C40.3699 33.268 40.2459 33.012 40.1659 32.716C40.0939 32.42 40.0579 32.092 40.0579 31.732V28.972ZM45.6093 31.096C45.6093 30.616 45.6933 30.188 45.8613 29.812C46.0293 29.428 46.2493 29.104 46.5213 28.84C46.8013 28.576 47.1173 28.376 47.4693 28.24C47.8293 28.096 48.1973 28.024 48.5733 28.024C48.9893 28.024 49.3613 28.092 49.6893 28.228C50.0173 28.356 50.2933 28.54 50.5173 28.78C50.7493 29.02 50.9253 29.308 51.0453 29.644C51.1653 29.98 51.2253 30.352 51.2253 30.76C51.2253 30.864 51.2213 30.968 51.2133 31.072C51.2133 31.168 51.2053 31.252 51.1893 31.324H46.6293C46.6373 31.636 46.6973 31.916 46.8093 32.164C46.9293 32.412 47.0853 32.624 47.2773 32.8C47.4773 32.976 47.7093 33.112 47.9733 33.208C48.2453 33.304 48.5413 33.352 48.8613 33.352C49.2053 33.352 49.5173 33.304 49.7973 33.208C50.0853 33.112 50.3653 32.98 50.6373 32.812L50.9853 33.46C50.6973 33.644 50.3693 33.804 50.0013 33.94C49.6333 34.076 49.2133 34.144 48.7413 34.144C48.3093 34.144 47.9013 34.076 47.5173 33.94C47.1413 33.796 46.8093 33.596 46.5213 33.34C46.2413 33.076 46.0173 32.756 45.8493 32.38C45.6893 32.004 45.6093 31.576 45.6093 31.096ZM50.3133 30.616C50.3133 30.032 50.1613 29.584 49.8573 29.272C49.5533 28.96 49.1293 28.804 48.5853 28.804C48.3453 28.804 48.1133 28.844 47.8893 28.924C47.6733 29.004 47.4773 29.124 47.3013 29.284C47.1253 29.436 46.9773 29.624 46.8573 29.848C46.7373 30.072 46.6573 30.328 46.6173 30.616H50.3133ZM60.1919 28.384H65.3519V29.128H60.1919V28.384ZM60.1919 30.94H65.3519V31.684H60.1919V30.94ZM76.6345 34.228C76.6345 34.012 76.6385 33.808 76.6465 33.616C76.6625 33.416 76.6745 33.224 76.6825 33.04C76.6985 32.856 76.7105 32.672 76.7185 32.488C76.7345 32.304 76.7425 32.112 76.7425 31.912C76.7425 31.792 76.7185 31.68 76.6705 31.576C76.6225 31.464 76.5345 31.364 76.4065 31.276C76.2785 31.188 76.0985 31.116 75.8665 31.06C75.6425 31.004 75.3545 30.976 75.0025 30.976V30.352C75.3545 30.352 75.6425 30.324 75.8665 30.268C76.0985 30.212 76.2785 30.14 76.4065 30.052C76.5345 29.964 76.6225 29.868 76.6705 29.764C76.7185 29.652 76.7425 29.536 76.7425 29.416C76.7425 29.032 76.7225 28.656 76.6825 28.288C76.6505 27.912 76.6345 27.516 76.6345 27.1C76.6345 26.788 76.6785 26.532 76.7665 26.332C76.8545 26.124 76.9905 25.96 77.1745 25.84C77.3585 25.72 77.5905 25.636 77.8705 25.588C78.1505 25.532 78.4785 25.504 78.8545 25.504H79.5865V26.08H78.9625C78.6585 26.08 78.4065 26.1 78.2065 26.14C78.0145 26.18 77.8625 26.244 77.7505 26.332C77.6465 26.412 77.5745 26.524 77.5345 26.668C77.4945 26.804 77.4745 26.968 77.4745 27.16C77.4745 27.504 77.4865 27.86 77.5105 28.228C77.5345 28.588 77.5465 28.956 77.5465 29.332C77.5465 29.724 77.4665 30.024 77.3065 30.232C77.1545 30.432 76.8705 30.568 76.4545 30.64V30.688C76.8705 30.76 77.1545 30.9 77.3065 31.108C77.4665 31.308 77.5465 31.604 77.5465 31.996C77.5465 32.404 77.5345 32.776 77.5105 33.112C77.4865 33.448 77.4745 33.8 77.4745 34.168C77.4745 34.36 77.4945 34.524 77.5345 34.66C77.5745 34.804 77.6465 34.916 77.7505 34.996C77.8625 35.084 78.0145 35.148 78.2065 35.188C78.4065 35.228 78.6585 35.248 78.9625 35.248H79.5865V35.824H78.8545C78.4785 35.824 78.1505 35.796 77.8705 35.74C77.5905 35.692 77.3585 35.608 77.1745 35.488C76.9905 35.368 76.8545 35.204 76.7665 34.996C76.6785 34.796 76.6345 34.54 76.6345 34.228ZM31.0026 43.168H31.9986L33.3426 46.48C33.4626 46.776 33.5746 47.068 33.6786 47.356C33.7906 47.636 33.8986 47.916 34.0026 48.196H34.0506C34.1546 47.916 34.2546 47.636 34.3506 47.356C34.4546 47.068 34.5666 46.776 34.6866 46.48L36.0306 43.168H36.9786L34.5666 49H33.4626L31.0026 43.168ZM38.5579 47.488C38.5579 47.16 38.6339 46.876 38.7859 46.636C38.9459 46.388 39.1939 46.176 39.5299 46C39.8739 45.824 40.3139 45.68 40.8499 45.568C41.3859 45.456 42.0299 45.368 42.7819 45.304C42.7739 45.104 42.7419 44.916 42.6859 44.74C42.6299 44.564 42.5419 44.412 42.4219 44.284C42.3019 44.148 42.1419 44.04 41.9419 43.96C41.7499 43.88 41.5139 43.84 41.2339 43.84C40.8499 43.84 40.4819 43.916 40.1299 44.068C39.7779 44.212 39.4659 44.368 39.1939 44.536L38.8099 43.864C38.9539 43.768 39.1219 43.672 39.3139 43.576C39.5139 43.472 39.7219 43.38 39.9379 43.3C40.1619 43.22 40.3979 43.156 40.6459 43.108C40.8939 43.052 41.1459 43.024 41.4019 43.024C42.2019 43.024 42.7939 43.244 43.1779 43.684C43.5699 44.116 43.7659 44.696 43.7659 45.424V49H42.9619L42.8779 48.208H42.8419C42.5139 48.464 42.1499 48.684 41.7499 48.868C41.3579 49.052 40.9539 49.144 40.5379 49.144C40.2659 49.144 40.0099 49.104 39.7699 49.024C39.5299 48.952 39.3179 48.848 39.1339 48.712C38.9579 48.568 38.8179 48.396 38.7139 48.196C38.6099 47.988 38.5579 47.752 38.5579 47.488ZM39.5179 47.416C39.5179 47.584 39.5539 47.728 39.6259 47.848C39.6979 47.96 39.7899 48.056 39.9019 48.136C40.0219 48.208 40.1579 48.264 40.3099 48.304C40.4699 48.336 40.6339 48.352 40.8019 48.352C41.1379 48.352 41.4659 48.28 41.7859 48.136C42.1139 47.984 42.4459 47.768 42.7819 47.488V45.952C42.1579 46 41.6339 46.068 41.2099 46.156C40.7939 46.244 40.4579 46.352 40.2019 46.48C39.9539 46.6 39.7779 46.74 39.6739 46.9C39.5699 47.052 39.5179 47.224 39.5179 47.416ZM45.7533 40.456H48.7293V47.116C48.7293 47.548 48.8293 47.86 49.0293 48.052C49.2373 48.236 49.5173 48.328 49.8693 48.328C50.1893 48.328 50.5573 48.236 50.9733 48.052L51.2253 48.796C50.9613 48.892 50.7133 48.972 50.4813 49.036C50.2493 49.108 49.9733 49.144 49.6533 49.144C49.0293 49.144 48.5533 48.968 48.2253 48.616C47.9053 48.264 47.7453 47.74 47.7453 47.044V41.26H45.7533V40.456ZM58.0366 49H57.2326L57.1486 47.98H57.1006C56.8046 48.324 56.4806 48.604 56.1286 48.82C55.7846 49.036 55.3846 49.144 54.9286 49.144C54.2246 49.144 53.7086 48.948 53.3806 48.556C53.0606 48.156 52.9006 47.568 52.9006 46.792V43.168H53.8966V46.66C53.8966 47.212 53.9966 47.624 54.1966 47.896C54.4046 48.16 54.7526 48.292 55.2406 48.292C55.5766 48.292 55.8806 48.208 56.1526 48.04C56.4246 47.864 56.7246 47.588 57.0526 47.212V43.168H58.0366V49ZM59.9999 46.096C59.9999 45.616 60.0839 45.188 60.2519 44.812C60.4199 44.428 60.6399 44.104 60.9119 43.84C61.1919 43.576 61.5079 43.376 61.8599 43.24C62.2199 43.096 62.5879 43.024 62.9639 43.024C63.3799 43.024 63.7519 43.092 64.0799 43.228C64.4079 43.356 64.6839 43.54 64.9079 43.78C65.1399 44.02 65.3159 44.308 65.4359 44.644C65.5559 44.98 65.6159 45.352 65.6159 45.76C65.6159 45.864 65.6119 45.968 65.6039 46.072C65.6039 46.168 65.5959 46.252 65.5799 46.324H61.0199C61.0279 46.636 61.0879 46.916 61.1999 47.164C61.3199 47.412 61.4759 47.624 61.6679 47.8C61.8679 47.976 62.0999 48.112 62.3639 48.208C62.6359 48.304 62.9319 48.352 63.2519 48.352C63.5959 48.352 63.9079 48.304 64.1879 48.208C64.4759 48.112 64.7559 47.98 65.0279 47.812L65.3759 48.46C65.0879 48.644 64.7599 48.804 64.3919 48.94C64.0239 49.076 63.6039 49.144 63.1319 49.144C62.6999 49.144 62.2919 49.076 61.9079 48.94C61.5319 48.796 61.1999 48.596 60.9119 48.34C60.6319 48.076 60.4079 47.756 60.2399 47.38C60.0799 47.004 59.9999 46.576 59.9999 46.096ZM64.7039 45.616C64.7039 45.032 64.5519 44.584 64.2479 44.272C63.9439 43.96 63.5199 43.804 62.9759 43.804C62.7359 43.804 62.5039 43.844 62.2799 43.924C62.0639 44.004 61.8679 44.124 61.6919 44.284C61.5159 44.436 61.3679 44.624 61.2479 44.848C61.1279 45.072 61.0479 45.328 61.0079 45.616H64.7039ZM68.9952 43.84C68.9952 43.536 69.0872 43.292 69.2712 43.108C69.4632 42.916 69.6952 42.82 69.9672 42.82C70.2392 42.82 70.4672 42.916 70.6512 43.108C70.8432 43.292 70.9392 43.536 70.9392 43.84C70.9392 44.144 70.8432 44.388 70.6512 44.572C70.4672 44.756 70.2392 44.848 69.9672 44.848C69.6952 44.848 69.4632 44.756 69.2712 44.572C69.0872 44.388 68.9952 44.144 68.9952 43.84ZM68.9952 48.136C68.9952 47.832 69.0872 47.588 69.2712 47.404C69.4632 47.212 69.6952 47.116 69.9672 47.116C70.2392 47.116 70.4672 47.212 70.6512 47.404C70.8432 47.588 70.9392 47.832 70.9392 48.136C70.9392 48.44 70.8432 48.684 70.6512 48.868C70.4672 49.052 70.2392 49.144 69.9672 49.144C69.6952 49.144 69.4632 49.052 69.2712 48.868C69.0872 48.684 68.9952 48.44 68.9952 48.136ZM83.9498 41.188C83.5738 41.404 83.2778 41.672 83.0618 41.992C82.8538 42.304 82.7378 42.668 82.7138 43.084C82.8098 43.036 82.9138 43.012 83.0258 43.012C83.2738 43.012 83.4738 43.092 83.6258 43.252C83.7858 43.412 83.8658 43.62 83.8658 43.876C83.8658 44.156 83.7818 44.38 83.6138 44.548C83.4458 44.716 83.2338 44.8 82.9778 44.8C82.6658 44.8 82.4058 44.676 82.1978 44.428C81.9978 44.172 81.8978 43.816 81.8978 43.36C81.8978 42.76 82.0498 42.224 82.3538 41.752C82.6578 41.272 83.0818 40.892 83.6258 40.612L83.9498 41.188ZM86.6978 41.188C86.3218 41.404 86.0258 41.672 85.8098 41.992C85.6018 42.304 85.4858 42.668 85.4618 43.084C85.5578 43.036 85.6618 43.012 85.7738 43.012C86.0218 43.012 86.2218 43.092 86.3738 43.252C86.5338 43.412 86.6138 43.62 86.6138 43.876C86.6138 44.156 86.5298 44.38 86.3618 44.548C86.1938 44.716 85.9818 44.8 85.7258 44.8C85.4138 44.8 85.1538 44.676 84.9458 44.428C84.7458 44.172 84.6458 43.816 84.6458 43.36C84.6458 42.76 84.7978 42.224 85.1018 41.752C85.4058 41.272 85.8298 40.892 86.3738 40.612L86.6978 41.188ZM89.1891 44.224C89.5731 44.016 89.8691 43.756 90.0771 43.444C90.2931 43.124 90.4131 42.752 90.4371 42.328C90.3411 42.376 90.2371 42.4 90.1251 42.4C89.8691 42.4 89.6611 42.324 89.5011 42.172C89.3491 42.012 89.2731 41.804 89.2731 41.548C89.2731 41.268 89.3571 41.044 89.5251 40.876C89.6931 40.7 89.9051 40.612 90.1611 40.612C90.4811 40.612 90.7411 40.74 90.9411 40.996C91.1411 41.252 91.2411 41.608 91.2411 42.064C91.2411 42.664 91.0891 43.2 90.7851 43.672C90.4811 44.144 90.0611 44.52 89.5251 44.8L89.1891 44.224ZM91.9371 44.224C92.3211 44.016 92.6171 43.756 92.8251 43.444C93.0411 43.124 93.1611 42.752 93.1851 42.328C93.0891 42.376 92.9851 42.4 92.8731 42.4C92.6171 42.4 92.4091 42.324 92.2491 42.172C92.0971 42.012 92.0211 41.804 92.0211 41.548C92.0211 41.268 92.1051 41.044 92.2731 40.876C92.4411 40.7 92.6531 40.612 92.9091 40.612C93.2291 40.612 93.4891 40.74 93.6891 40.996C93.8891 41.252 93.9891 41.608 93.9891 42.064C93.9891 42.664 93.8371 43.2 93.5331 43.672C93.2291 44.144 92.8091 44.52 92.2731 44.8L91.9371 44.224ZM17.8 65.248C18.104 65.248 18.352 65.228 18.544 65.188C18.744 65.148 18.9 65.084 19.012 64.996C19.124 64.916 19.2 64.804 19.24 64.66C19.28 64.524 19.3 64.36 19.3 64.168C19.3 63.8 19.288 63.448 19.264 63.112C19.24 62.776 19.228 62.404 19.228 61.996C19.228 61.604 19.304 61.308 19.456 61.108C19.608 60.9 19.892 60.76 20.308 60.688V60.64C19.892 60.568 19.608 60.432 19.456 60.232C19.304 60.024 19.228 59.724 19.228 59.332C19.228 58.956 19.24 58.588 19.264 58.228C19.288 57.86 19.3 57.504 19.3 57.16C19.3 56.968 19.28 56.804 19.24 56.668C19.2 56.524 19.124 56.412 19.012 56.332C18.9 56.244 18.744 56.18 18.544 56.14C18.352 56.1 18.104 56.08 17.8 56.08H17.188V55.504H17.92C18.296 55.504 18.62 55.532 18.892 55.588C19.172 55.636 19.404 55.72 19.588 55.84C19.772 55.96 19.908 56.124 19.996 56.332C20.084 56.532 20.128 56.788 20.128 57.1C20.128 57.516 20.108 57.912 20.068 58.288C20.036 58.656 20.02 59.032 20.02 59.416C20.02 59.536 20.044 59.652 20.092 59.764C20.14 59.868 20.228 59.964 20.356 60.052C20.484 60.14 20.66 60.212 20.884 60.268C21.116 60.324 21.408 60.352 21.76 60.352V60.976C21.408 60.976 21.116 61.004 20.884 61.06C20.66 61.116 20.484 61.188 20.356 61.276C20.228 61.364 20.14 61.464 20.092 61.576C20.044 61.68 20.02 61.792 20.02 61.912C20.02 62.112 20.024 62.304 20.032 62.488C20.048 62.672 20.06 62.856 20.068 63.04C20.084 63.224 20.096 63.416 20.104 63.616C20.12 63.808 20.128 64.012 20.128 64.228C20.128 64.54 20.084 64.796 19.996 64.996C19.908 65.204 19.772 65.368 19.588 65.488C19.404 65.608 19.172 65.692 18.892 65.74C18.62 65.796 18.296 65.824 17.92 65.824H17.188V65.248H17.8Z" fill="white"/>
<path d="M186.688 137.144C186.064 137.144 185.608 136.952 185.32 136.568C185.04 136.184 184.9 135.616 184.9 134.864V131.168H185.896V134.732C185.896 135.284 185.98 135.684 186.148 135.932C186.324 136.172 186.604 136.292 186.988 136.292C187.292 136.292 187.56 136.216 187.792 136.064C188.024 135.904 188.28 135.652 188.56 135.308V131.168H189.544V137H188.728L188.644 136.088H188.608C188.336 136.408 188.048 136.664 187.744 136.856C187.448 137.048 187.096 137.144 186.688 137.144ZM193.035 137.144C192.619 137.144 192.223 137.068 191.847 136.916C191.471 136.764 191.143 136.572 190.863 136.34L191.355 135.68C191.611 135.888 191.871 136.056 192.135 136.184C192.407 136.312 192.719 136.376 193.071 136.376C193.455 136.376 193.743 136.288 193.935 136.112C194.127 135.936 194.223 135.72 194.223 135.464C194.223 135.312 194.183 135.18 194.103 135.068C194.023 134.956 193.919 134.86 193.791 134.78C193.671 134.692 193.531 134.616 193.371 134.552C193.211 134.488 193.051 134.424 192.891 134.36C192.683 134.288 192.475 134.208 192.267 134.12C192.059 134.024 191.871 133.912 191.703 133.784C191.543 133.648 191.411 133.492 191.307 133.316C191.203 133.14 191.151 132.928 191.151 132.68C191.151 132.448 191.195 132.232 191.283 132.032C191.379 131.824 191.511 131.648 191.679 131.504C191.855 131.352 192.067 131.236 192.315 131.156C192.563 131.068 192.843 131.024 193.155 131.024C193.523 131.024 193.859 131.088 194.163 131.216C194.475 131.344 194.743 131.5 194.967 131.684L194.499 132.308C194.299 132.156 194.091 132.032 193.875 131.936C193.659 131.84 193.423 131.792 193.167 131.792C192.799 131.792 192.527 131.876 192.351 132.044C192.183 132.212 192.099 132.408 192.099 132.632C192.099 132.768 192.135 132.888 192.207 132.992C192.279 133.088 192.375 133.176 192.495 133.256C192.615 133.328 192.751 133.396 192.903 133.46C193.063 133.516 193.227 133.576 193.395 133.64C193.603 133.72 193.811 133.804 194.019 133.892C194.235 133.98 194.427 134.092 194.595 134.228C194.763 134.356 194.899 134.516 195.003 134.708C195.115 134.9 195.171 135.132 195.171 135.404C195.171 135.644 195.123 135.868 195.027 136.076C194.939 136.284 194.803 136.468 194.619 136.628C194.443 136.788 194.219 136.912 193.947 137C193.683 137.096 193.379 137.144 193.035 137.144ZM198.903 137.144C198.511 137.144 198.143 137.076 197.799 136.94C197.463 136.796 197.167 136.596 196.911 136.34C196.663 136.076 196.467 135.756 196.323 135.38C196.179 135.004 196.107 134.576 196.107 134.096C196.107 133.616 196.179 133.188 196.323 132.812C196.475 132.428 196.671 132.104 196.911 131.84C197.159 131.576 197.439 131.376 197.751 131.24C198.063 131.096 198.387 131.024 198.723 131.024C199.091 131.024 199.419 131.088 199.707 131.216C200.003 131.344 200.247 131.528 200.439 131.768C200.639 132.008 200.791 132.296 200.895 132.632C200.999 132.968 201.051 133.344 201.051 133.76C201.051 133.864 201.047 133.968 201.039 134.072C201.039 134.168 201.031 134.252 201.015 134.324H197.079C197.119 134.948 197.311 135.444 197.655 135.812C198.007 136.172 198.463 136.352 199.023 136.352C199.303 136.352 199.559 136.312 199.791 136.232C200.031 136.144 200.259 136.032 200.475 135.896L200.823 136.544C200.567 136.704 200.283 136.844 199.971 136.964C199.659 137.084 199.303 137.144 198.903 137.144ZM197.067 133.616H200.187C200.187 133.024 200.059 132.576 199.803 132.272C199.555 131.96 199.203 131.804 198.747 131.804C198.539 131.804 198.339 131.844 198.147 131.924C197.963 132.004 197.795 132.124 197.643 132.284C197.491 132.436 197.363 132.624 197.259 132.848C197.163 133.072 197.099 133.328 197.067 133.616ZM202.492 137V131.168H203.308L203.392 132.224H203.428C203.628 131.856 203.868 131.564 204.148 131.348C204.436 131.132 204.748 131.024 205.084 131.024C205.316 131.024 205.524 131.064 205.708 131.144L205.516 132.008C205.42 131.976 205.332 131.952 205.252 131.936C205.172 131.92 205.072 131.912 204.952 131.912C204.704 131.912 204.444 132.012 204.172 132.212C203.908 132.412 203.676 132.76 203.476 133.256V137H202.492ZM209.978 137L208.358 131.168H209.366L210.23 134.54C210.294 134.82 210.354 135.092 210.41 135.356C210.466 135.62 210.522 135.888 210.578 136.16H210.626C210.69 135.888 210.754 135.62 210.818 135.356C210.882 135.084 210.95 134.812 211.022 134.54L211.922 131.168H212.882L213.794 134.54C213.866 134.82 213.934 135.092 213.998 135.356C214.07 135.62 214.138 135.888 214.202 136.16H214.25C214.314 135.888 214.374 135.62 214.43 135.356C214.486 135.092 214.546 134.82 214.61 134.54L215.462 131.168H216.398L214.838 137H213.638L212.798 133.868C212.726 133.588 212.658 133.312 212.594 133.04C212.538 132.768 212.474 132.484 212.402 132.188H212.354C212.29 132.484 212.226 132.772 212.162 133.052C212.098 133.324 212.026 133.6 211.946 133.88L211.13 137H209.978ZM217.668 137V131.168H218.484L218.568 132.224H218.604C218.804 131.856 219.044 131.564 219.324 131.348C219.612 131.132 219.924 131.024 220.26 131.024C220.492 131.024 220.7 131.064 220.884 131.144L220.692 132.008C220.596 131.976 220.508 131.952 220.428 131.936C220.348 131.92 220.248 131.912 220.128 131.912C219.88 131.912 219.62 132.012 219.348 132.212C219.084 132.412 218.852 132.76 218.652 133.256V137H217.668ZM221.828 137V131.168H222.812V137H221.828ZM222.332 129.968C222.14 129.968 221.976 129.908 221.84 129.788C221.712 129.668 221.648 129.516 221.648 129.332C221.648 129.14 221.712 128.988 221.84 128.876C221.976 128.756 222.14 128.696 222.332 128.696C222.524 128.696 222.684 128.756 222.812 128.876C222.948 128.988 223.016 129.14 223.016 129.332C223.016 129.516 222.948 129.668 222.812 129.788C222.684 129.908 222.524 129.968 222.332 129.968ZM226.617 137.144C226.305 137.144 226.041 137.096 225.825 137C225.617 136.904 225.445 136.772 225.309 136.604C225.181 136.436 225.089 136.232 225.033 135.992C224.977 135.752 224.949 135.488 224.949 135.2V131.972H224.085V131.228L224.997 131.168L225.117 129.536H225.945V131.168H227.517V131.972H225.945V135.212C225.945 135.572 226.009 135.852 226.137 136.052C226.273 136.244 226.509 136.34 226.845 136.34C226.949 136.34 227.061 136.324 227.181 136.292C227.301 136.26 227.409 136.224 227.505 136.184L227.697 136.928C227.537 136.984 227.361 137.032 227.169 137.072C226.985 137.12 226.801 137.144 226.617 137.144ZM231.036 137.144C230.644 137.144 230.276 137.076 229.932 136.94C229.596 136.796 229.3 136.596 229.044 136.34C228.796 136.076 228.6 135.756 228.456 135.38C228.312 135.004 228.24 134.576 228.24 134.096C228.24 133.616 228.312 133.188 228.456 132.812C228.608 132.428 228.804 132.104 229.044 131.84C229.292 131.576 229.572 131.376 229.884 131.24C230.196 131.096 230.52 131.024 230.855 131.024C231.224 131.024 231.552 131.088 231.84 131.216C232.136 131.344 232.38 131.528 232.572 131.768C232.772 132.008 232.924 132.296 233.028 132.632C233.132 132.968 233.184 133.344 233.184 133.76C233.184 133.864 233.18 133.968 233.172 134.072C233.172 134.168 233.164 134.252 233.148 134.324H229.212C229.252 134.948 229.444 135.444 229.788 135.812C230.14 136.172 230.596 136.352 231.156 136.352C231.436 136.352 231.692 136.312 231.924 136.232C232.164 136.144 232.392 136.032 232.608 135.896L232.956 136.544C232.7 136.704 232.416 136.844 232.104 136.964C231.792 137.084 231.436 137.144 231.036 137.144ZM229.2 133.616H232.32C232.32 133.024 232.192 132.576 231.936 132.272C231.688 131.96 231.336 131.804 230.88 131.804C230.672 131.804 230.472 131.844 230.28 131.924C230.096 132.004 229.928 132.124 229.776 132.284C229.624 132.436 229.496 132.624 229.392 132.848C229.296 133.072 229.232 133.328 229.2 133.616ZM236.149 137.144C235.733 137.144 235.337 137.068 234.961 136.916C234.585 136.764 234.257 136.572 233.977 136.34L234.469 135.68C234.725 135.888 234.985 136.056 235.249 136.184C235.521 136.312 235.833 136.376 236.185 136.376C236.569 136.376 236.857 136.288 237.049 136.112C237.241 135.936 237.337 135.72 237.337 135.464C237.337 135.312 237.297 135.18 237.217 135.068C237.137 134.956 237.033 134.86 236.905 134.78C236.785 134.692 236.645 134.616 236.485 134.552C236.325 134.488 236.165 134.424 236.005 134.36C235.797 134.288 235.589 134.208 235.381 134.12C235.173 134.024 234.985 133.912 234.817 133.784C234.657 133.648 234.525 133.492 234.421 133.316C234.317 133.14 234.265 132.928 234.265 132.68C234.265 132.448 234.309 132.232 234.397 132.032C234.493 131.824 234.625 131.648 234.793 131.504C234.969 131.352 235.181 131.236 235.429 131.156C235.677 131.068 235.957 131.024 236.269 131.024C236.637 131.024 236.973 131.088 237.277 131.216C237.589 131.344 237.857 131.5 238.081 131.684L237.613 132.308C237.413 132.156 237.205 132.032 236.989 131.936C236.773 131.84 236.537 131.792 236.281 131.792C235.913 131.792 235.641 131.876 235.465 132.044C235.297 132.212 235.213 132.408 235.213 132.632C235.213 132.768 235.249 132.888 235.321 132.992C235.393 133.088 235.489 133.176 235.609 133.256C235.729 133.328 235.865 133.396 236.017 133.46C236.177 133.516 236.341 133.576 236.509 133.64C236.717 133.72 236.925 133.804 237.133 133.892C237.349 133.98 237.541 134.092 237.709 134.228C237.877 134.356 238.013 134.516 238.117 134.708C238.229 134.9 238.285 135.132 238.285 135.404C238.285 135.644 238.237 135.868 238.141 136.076C238.053 136.284 237.917 136.468 237.733 136.628C237.557 136.788 237.333 136.912 237.061 137C236.797 137.096 236.493 137.144 236.149 137.144Z" fill="#FFCD50"/>
<path d="M234.252 94.144C233.892 94.144 233.548 94.076 233.22 93.94C232.9 93.804 232.616 93.608 232.368 93.352C232.12 93.088 231.92 92.768 231.768 92.392C231.624 92.008 231.552 91.576 231.552 91.096C231.552 90.608 231.624 90.176 231.768 89.8C231.92 89.416 232.12 89.092 232.368 88.828C232.616 88.564 232.9 88.364 233.22 88.228C233.548 88.092 233.892 88.024 234.252 88.024C234.612 88.024 234.952 88.092 235.272 88.228C235.6 88.364 235.888 88.564 236.136 88.828C236.384 89.092 236.58 89.416 236.724 89.8C236.876 90.176 236.952 90.608 236.952 91.096C236.952 91.576 236.876 92.008 236.724 92.392C236.58 92.768 236.384 93.088 236.136 93.352C235.888 93.608 235.6 93.804 235.272 93.94C234.952 94.076 234.612 94.144 234.252 94.144ZM234.252 93.328C234.5 93.328 234.728 93.276 234.936 93.172C235.144 93.06 235.32 92.908 235.464 92.716C235.616 92.516 235.732 92.28 235.812 92.008C235.892 91.736 235.932 91.432 235.932 91.096C235.932 90.76 235.892 90.456 235.812 90.184C235.732 89.904 235.616 89.664 235.464 89.464C235.32 89.264 235.144 89.112 234.936 89.008C234.728 88.896 234.5 88.84 234.252 88.84C234.004 88.84 233.776 88.896 233.568 89.008C233.36 89.112 233.18 89.264 233.028 89.464C232.884 89.664 232.772 89.904 232.692 90.184C232.612 90.456 232.572 90.76 232.572 91.096C232.572 91.432 232.612 91.736 232.692 92.008C232.772 92.28 232.884 92.516 233.028 92.716C233.18 92.908 233.36 93.06 233.568 93.172C233.776 93.276 234.004 93.328 234.252 93.328ZM238.488 94V88.168H239.304L239.388 89.008H239.424C239.704 88.728 239.996 88.496 240.3 88.312C240.612 88.12 240.972 88.024 241.38 88.024C241.996 88.024 242.444 88.216 242.724 88.6C243.012 88.984 243.156 89.552 243.156 90.304V94H242.172V90.436C242.172 89.884 242.084 89.488 241.908 89.248C241.732 89 241.452 88.876 241.068 88.876C240.764 88.876 240.496 88.952 240.264 89.104C240.032 89.256 239.768 89.48 239.472 89.776V94H238.488ZM248.122 94.144C247.626 94.144 247.17 94.052 246.754 93.868C246.338 93.684 245.974 93.42 245.662 93.076C245.358 92.724 245.118 92.296 244.942 91.792C244.774 91.28 244.69 90.704 244.69 90.064C244.69 89.432 244.778 88.864 244.954 88.36C245.13 87.856 245.374 87.428 245.686 87.076C245.998 86.724 246.366 86.456 246.79 86.272C247.214 86.08 247.678 85.984 248.182 85.984C248.662 85.984 249.082 86.084 249.442 86.284C249.81 86.476 250.11 86.7 250.342 86.956L249.802 87.604C249.594 87.38 249.358 87.2 249.094 87.064C248.83 86.928 248.53 86.86 248.194 86.86C247.818 86.86 247.478 86.936 247.174 87.088C246.87 87.232 246.61 87.444 246.394 87.724C246.178 87.996 246.01 88.328 245.89 88.72C245.778 89.112 245.722 89.552 245.722 90.04C245.722 90.536 245.778 90.984 245.89 91.384C246.01 91.776 246.174 92.112 246.382 92.392C246.59 92.672 246.842 92.888 247.138 93.04C247.442 93.192 247.782 93.268 248.158 93.268C248.542 93.268 248.878 93.192 249.166 93.04C249.454 92.88 249.726 92.66 249.982 92.38L250.534 93.004C250.222 93.364 249.87 93.644 249.478 93.844C249.086 94.044 248.634 94.144 248.122 94.144ZM251.906 94V85.456H252.89V87.784L252.854 88.984C253.134 88.72 253.426 88.496 253.73 88.312C254.034 88.12 254.39 88.024 254.798 88.024C255.414 88.024 255.862 88.216 256.142 88.6C256.43 88.984 256.574 89.552 256.574 90.304V94H255.59V90.436C255.59 89.884 255.502 89.488 255.326 89.248C255.15 89 254.87 88.876 254.486 88.876C254.182 88.876 253.914 88.952 253.682 89.104C253.45 89.256 253.186 89.48 252.89 89.776V94H251.906ZM259.777 94.144C259.289 94.144 258.881 94 258.553 93.712C258.233 93.424 258.073 93.016 258.073 92.488C258.073 91.848 258.357 91.36 258.925 91.024C259.493 90.68 260.401 90.44 261.649 90.304C261.649 90.12 261.629 89.94 261.589 89.764C261.557 89.588 261.497 89.432 261.409 89.296C261.321 89.16 261.197 89.052 261.037 88.972C260.885 88.884 260.689 88.84 260.449 88.84C260.113 88.84 259.797 88.904 259.501 89.032C259.205 89.16 258.941 89.304 258.709 89.464L258.325 88.78C258.597 88.604 258.929 88.436 259.321 88.276C259.713 88.108 260.145 88.024 260.617 88.024C261.329 88.024 261.845 88.244 262.165 88.684C262.485 89.116 262.645 89.696 262.645 90.424V94H261.829L261.745 93.304H261.709C261.429 93.536 261.129 93.736 260.809 93.904C260.489 94.064 260.145 94.144 259.777 94.144ZM260.065 93.352C260.345 93.352 260.609 93.288 260.857 93.16C261.105 93.024 261.369 92.828 261.649 92.572V90.952C261.161 91.016 260.749 91.092 260.413 91.18C260.085 91.268 259.817 91.372 259.609 91.492C259.409 91.612 259.261 91.752 259.165 91.912C259.077 92.064 259.033 92.232 259.033 92.416C259.033 92.752 259.133 92.992 259.333 93.136C259.533 93.28 259.777 93.352 260.065 93.352ZM264.48 94V88.168H265.296L265.38 89.008H265.416C265.696 88.728 265.988 88.496 266.292 88.312C266.604 88.12 266.964 88.024 267.372 88.024C267.988 88.024 268.436 88.216 268.716 88.6C269.004 88.984 269.148 89.552 269.148 90.304V94H268.164V90.436C268.164 89.884 268.076 89.488 267.9 89.248C267.724 89 267.444 88.876 267.06 88.876C266.756 88.876 266.488 88.952 266.256 89.104C266.024 89.256 265.76 89.48 265.464 89.776V94H264.48ZM273.011 96.688C272.651 96.688 272.323 96.652 272.027 96.58C271.731 96.516 271.475 96.416 271.259 96.28C271.051 96.144 270.887 95.98 270.767 95.788C270.655 95.596 270.599 95.372 270.599 95.116C270.599 94.868 270.675 94.632 270.827 94.408C270.979 94.184 271.187 93.98 271.451 93.796V93.748C271.307 93.66 271.183 93.54 271.079 93.388C270.983 93.228 270.935 93.032 270.935 92.8C270.935 92.552 271.003 92.336 271.139 92.152C271.275 91.968 271.419 91.824 271.571 91.72V91.672C271.379 91.512 271.203 91.3 271.043 91.036C270.891 90.764 270.815 90.452 270.815 90.1C270.815 89.78 270.871 89.492 270.983 89.236C271.103 88.98 271.263 88.764 271.463 88.588C271.663 88.404 271.895 88.264 272.159 88.168C272.431 88.072 272.715 88.024 273.011 88.024C273.171 88.024 273.319 88.04 273.455 88.072C273.599 88.096 273.727 88.128 273.839 88.168H275.867V88.924H274.667C274.803 89.06 274.915 89.232 275.003 89.44C275.099 89.648 275.147 89.876 275.147 90.124C275.147 90.436 275.091 90.72 274.979 90.976C274.867 91.224 274.715 91.436 274.523 91.612C274.331 91.78 274.103 91.912 273.839 92.008C273.583 92.104 273.307 92.152 273.011 92.152C272.867 92.152 272.719 92.136 272.567 92.104C272.415 92.064 272.271 92.012 272.135 91.948C272.031 92.036 271.943 92.136 271.871 92.248C271.799 92.352 271.763 92.484 271.763 92.644C271.763 92.828 271.835 92.98 271.979 93.1C272.123 93.22 272.395 93.28 272.795 93.28H273.923C274.603 93.28 275.111 93.392 275.447 93.616C275.791 93.832 275.963 94.184 275.963 94.672C275.963 94.944 275.895 95.2 275.759 95.44C275.623 95.688 275.427 95.904 275.171 96.088C274.915 96.272 274.603 96.416 274.235 96.52C273.875 96.632 273.467 96.688 273.011 96.688ZM273.011 91.492C273.179 91.492 273.335 91.46 273.479 91.396C273.631 91.332 273.763 91.24 273.875 91.12C273.995 91 274.087 90.856 274.151 90.688C274.215 90.512 274.247 90.316 274.247 90.1C274.247 89.668 274.127 89.336 273.887 89.104C273.647 88.864 273.355 88.744 273.011 88.744C272.667 88.744 272.375 88.864 272.135 89.104C271.895 89.336 271.775 89.668 271.775 90.1C271.775 90.316 271.807 90.512 271.871 90.688C271.935 90.856 272.023 91 272.135 91.12C272.255 91.24 272.387 91.332 272.531 91.396C272.683 91.46 272.843 91.492 273.011 91.492ZM273.155 96.004C273.435 96.004 273.687 95.968 273.911 95.896C274.143 95.832 274.339 95.744 274.499 95.632C274.659 95.528 274.783 95.404 274.871 95.26C274.959 95.116 275.003 94.968 275.003 94.816C275.003 94.544 274.903 94.356 274.703 94.252C274.503 94.148 274.211 94.096 273.827 94.096H272.819C272.707 94.096 272.583 94.088 272.447 94.072C272.319 94.064 272.191 94.04 272.063 94C271.855 94.152 271.703 94.312 271.607 94.48C271.511 94.648 271.463 94.816 271.463 94.984C271.463 95.296 271.611 95.544 271.907 95.728C272.211 95.912 272.627 96.004 273.155 96.004ZM279.289 94.144C278.897 94.144 278.529 94.076 278.185 93.94C277.849 93.796 277.553 93.596 277.297 93.34C277.049 93.076 276.853 92.756 276.709 92.38C276.565 92.004 276.493 91.576 276.493 91.096C276.493 90.616 276.565 90.188 276.709 89.812C276.861 89.428 277.057 89.104 277.297 88.84C277.545 88.576 277.825 88.376 278.137 88.24C278.449 88.096 278.773 88.024 279.109 88.024C279.477 88.024 279.805 88.088 280.093 88.216C280.389 88.344 280.633 88.528 280.825 88.768C281.025 89.008 281.177 89.296 281.281 89.632C281.385 89.968 281.437 90.344 281.437 90.76C281.437 90.864 281.433 90.968 281.425 91.072C281.425 91.168 281.417 91.252 281.401 91.324H277.465C277.505 91.948 277.697 92.444 278.041 92.812C278.393 93.172 278.849 93.352 279.409 93.352C279.689 93.352 279.945 93.312 280.177 93.232C280.417 93.144 280.645 93.032 280.861 92.896L281.209 93.544C280.953 93.704 280.669 93.844 280.357 93.964C280.045 94.084 279.689 94.144 279.289 94.144ZM277.453 90.616H280.573C280.573 90.024 280.445 89.576 280.189 89.272C279.941 88.96 279.589 88.804 279.133 88.804C278.925 88.804 278.725 88.844 278.533 88.924C278.349 89.004 278.181 89.124 278.029 89.284C277.877 89.436 277.749 89.624 277.645 89.848C277.549 90.072 277.485 90.328 277.453 90.616Z" fill="#FFCD50"/>
<path d="M238.508 47.144C238.092 47.144 237.696 47.068 237.32 46.916C236.944 46.764 236.616 46.572 236.336 46.34L236.828 45.68C237.084 45.888 237.344 46.056 237.608 46.184C237.88 46.312 238.192 46.376 238.544 46.376C238.928 46.376 239.216 46.288 239.408 46.112C239.6 45.936 239.696 45.72 239.696 45.464C239.696 45.312 239.656 45.18 239.576 45.068C239.496 44.956 239.392 44.86 239.264 44.78C239.144 44.692 239.004 44.616 238.844 44.552C238.684 44.488 238.524 44.424 238.364 44.36C238.156 44.288 237.948 44.208 237.74 44.12C237.532 44.024 237.344 43.912 237.176 43.784C237.016 43.648 236.884 43.492 236.78 43.316C236.676 43.14 236.624 42.928 236.624 42.68C236.624 42.448 236.668 42.232 236.756 42.032C236.852 41.824 236.984 41.648 237.152 41.504C237.328 41.352 237.54 41.236 237.788 41.156C238.036 41.068 238.316 41.024 238.628 41.024C238.996 41.024 239.332 41.088 239.636 41.216C239.948 41.344 240.216 41.5 240.44 41.684L239.972 42.308C239.772 42.156 239.564 42.032 239.348 41.936C239.132 41.84 238.896 41.792 238.64 41.792C238.272 41.792 238 41.876 237.824 42.044C237.656 42.212 237.572 42.408 237.572 42.632C237.572 42.768 237.608 42.888 237.68 42.992C237.752 43.088 237.848 43.176 237.968 43.256C238.088 43.328 238.224 43.396 238.376 43.46C238.536 43.516 238.7 43.576 238.868 43.64C239.076 43.72 239.284 43.804 239.492 43.892C239.708 43.98 239.9 44.092 240.068 44.228C240.236 44.356 240.372 44.516 240.476 44.708C240.588 44.9 240.644 45.132 240.644 45.404C240.644 45.644 240.596 45.868 240.5 46.076C240.412 46.284 240.276 46.468 240.092 46.628C239.916 46.788 239.692 46.912 239.42 47C239.156 47.096 238.852 47.144 238.508 47.144ZM244.375 47.144C243.983 47.144 243.615 47.076 243.271 46.94C242.935 46.796 242.639 46.596 242.383 46.34C242.135 46.076 241.939 45.756 241.795 45.38C241.651 45.004 241.579 44.576 241.579 44.096C241.579 43.616 241.651 43.188 241.795 42.812C241.947 42.428 242.143 42.104 242.383 41.84C242.631 41.576 242.911 41.376 243.223 41.24C243.535 41.096 243.859 41.024 244.195 41.024C244.563 41.024 244.891 41.088 245.179 41.216C245.475 41.344 245.719 41.528 245.911 41.768C246.111 42.008 246.263 42.296 246.367 42.632C246.471 42.968 246.523 43.344 246.523 43.76C246.523 43.864 246.519 43.968 246.511 44.072C246.511 44.168 246.503 44.252 246.487 44.324H242.551C242.591 44.948 242.783 45.444 243.127 45.812C243.479 46.172 243.935 46.352 244.495 46.352C244.775 46.352 245.031 46.312 245.263 46.232C245.503 46.144 245.731 46.032 245.947 45.896L246.295 46.544C246.039 46.704 245.755 46.844 245.443 46.964C245.131 47.084 244.775 47.144 244.375 47.144ZM242.539 43.616H245.659C245.659 43.024 245.531 42.576 245.275 42.272C245.027 41.96 244.675 41.804 244.219 41.804C244.011 41.804 243.811 41.844 243.619 41.924C243.435 42.004 243.267 42.124 243.115 42.284C242.963 42.436 242.835 42.624 242.731 42.848C242.635 43.072 242.571 43.328 242.539 43.616ZM249.683 47.144C249.371 47.144 249.107 47.096 248.891 47C248.683 46.904 248.511 46.772 248.375 46.604C248.247 46.436 248.155 46.232 248.099 45.992C248.043 45.752 248.015 45.488 248.015 45.2V41.972H247.151V41.228L248.063 41.168L248.183 39.536H249.011V41.168H250.583V41.972H249.011V45.212C249.011 45.572 249.075 45.852 249.203 46.052C249.339 46.244 249.575 46.34 249.911 46.34C250.015 46.34 250.127 46.324 250.247 46.292C250.367 46.26 250.475 46.224 250.571 46.184L250.763 46.928C250.603 46.984 250.427 47.032 250.235 47.072C250.051 47.12 249.867 47.144 249.683 47.144ZM254.182 47.144C253.63 47.144 253.118 47.04 252.646 46.832C252.174 46.624 251.766 46.34 251.422 45.98L252.022 45.284C252.302 45.58 252.63 45.82 253.006 46.004C253.39 46.18 253.786 46.268 254.194 46.268C254.714 46.268 255.118 46.152 255.406 45.92C255.694 45.68 255.838 45.368 255.838 44.984C255.838 44.784 255.802 44.616 255.73 44.48C255.666 44.336 255.574 44.216 255.454 44.12C255.342 44.016 255.206 43.924 255.046 43.844C254.886 43.764 254.714 43.68 254.53 43.592L253.402 43.1C253.218 43.02 253.03 42.924 252.838 42.812C252.646 42.7 252.474 42.564 252.322 42.404C252.17 42.244 252.046 42.056 251.95 41.84C251.854 41.616 251.806 41.36 251.806 41.072C251.806 40.776 251.866 40.5 251.986 40.244C252.114 39.988 252.286 39.768 252.502 39.584C252.726 39.392 252.986 39.244 253.282 39.14C253.586 39.036 253.918 38.984 254.278 38.984C254.75 38.984 255.186 39.076 255.586 39.26C255.986 39.436 256.326 39.668 256.606 39.956L256.066 40.604C255.826 40.372 255.558 40.192 255.262 40.064C254.974 39.928 254.646 39.86 254.278 39.86C253.838 39.86 253.482 39.964 253.21 40.172C252.946 40.372 252.814 40.652 252.814 41.012C252.814 41.204 252.85 41.368 252.922 41.504C253.002 41.632 253.106 41.748 253.234 41.852C253.362 41.948 253.502 42.036 253.654 42.116C253.806 42.188 253.962 42.256 254.122 42.32L255.238 42.8C255.462 42.896 255.674 43.008 255.874 43.136C256.074 43.256 256.246 43.4 256.39 43.568C256.534 43.728 256.646 43.92 256.726 44.144C256.814 44.36 256.858 44.612 256.858 44.9C256.858 45.212 256.794 45.504 256.666 45.776C256.546 46.048 256.37 46.288 256.138 46.496C255.906 46.696 255.626 46.856 255.298 46.976C254.97 47.088 254.598 47.144 254.182 47.144ZM259.855 47.144C259.543 47.144 259.279 47.096 259.063 47C258.855 46.904 258.683 46.772 258.547 46.604C258.419 46.436 258.327 46.232 258.271 45.992C258.215 45.752 258.187 45.488 258.187 45.2V41.972H257.323V41.228L258.235 41.168L258.355 39.536H259.183V41.168H260.755V41.972H259.183V45.212C259.183 45.572 259.247 45.852 259.375 46.052C259.511 46.244 259.747 46.34 260.083 46.34C260.187 46.34 260.299 46.324 260.419 46.292C260.539 46.26 260.647 46.224 260.743 46.184L260.935 46.928C260.775 46.984 260.599 47.032 260.407 47.072C260.223 47.12 260.039 47.144 259.855 47.144ZM263.16 47.144C262.672 47.144 262.264 47 261.936 46.712C261.616 46.424 261.456 46.016 261.456 45.488C261.456 44.848 261.74 44.36 262.308 44.024C262.876 43.68 263.784 43.44 265.032 43.304C265.032 43.12 265.012 42.94 264.972 42.764C264.94 42.588 264.88 42.432 264.792 42.296C264.704 42.16 264.58 42.052 264.42 41.972C264.268 41.884 264.072 41.84 263.832 41.84C263.496 41.84 263.18 41.904 262.884 42.032C262.588 42.16 262.324 42.304 262.092 42.464L261.708 41.78C261.98 41.604 262.312 41.436 262.704 41.276C263.096 41.108 263.528 41.024 264 41.024C264.712 41.024 265.228 41.244 265.548 41.684C265.868 42.116 266.028 42.696 266.028 43.424V47H265.212L265.128 46.304H265.092C264.812 46.536 264.512 46.736 264.192 46.904C263.872 47.064 263.528 47.144 263.16 47.144ZM263.448 46.352C263.728 46.352 263.992 46.288 264.24 46.16C264.488 46.024 264.752 45.828 265.032 45.572V43.952C264.544 44.016 264.132 44.092 263.796 44.18C263.468 44.268 263.2 44.372 262.992 44.492C262.792 44.612 262.644 44.752 262.548 44.912C262.46 45.064 262.416 45.232 262.416 45.416C262.416 45.752 262.516 45.992 262.716 46.136C262.916 46.28 263.16 46.352 263.448 46.352ZM269.535 47.144C269.223 47.144 268.959 47.096 268.743 47C268.535 46.904 268.363 46.772 268.227 46.604C268.099 46.436 268.007 46.232 267.951 45.992C267.895 45.752 267.867 45.488 267.867 45.2V41.972H267.003V41.228L267.915 41.168L268.035 39.536H268.863V41.168H270.435V41.972H268.863V45.212C268.863 45.572 268.927 45.852 269.055 46.052C269.191 46.244 269.427 46.34 269.763 46.34C269.867 46.34 269.979 46.324 270.099 46.292C270.219 46.26 270.327 46.224 270.423 46.184L270.615 46.928C270.455 46.984 270.279 47.032 270.087 47.072C269.903 47.12 269.719 47.144 269.535 47.144ZM273.953 47.144C273.561 47.144 273.193 47.076 272.849 46.94C272.513 46.796 272.217 46.596 271.961 46.34C271.713 46.076 271.517 45.756 271.373 45.38C271.229 45.004 271.157 44.576 271.157 44.096C271.157 43.616 271.229 43.188 271.373 42.812C271.525 42.428 271.721 42.104 271.961 41.84C272.209 41.576 272.489 41.376 272.801 41.24C273.113 41.096 273.437 41.024 273.773 41.024C274.141 41.024 274.469 41.088 274.757 41.216C275.053 41.344 275.297 41.528 275.489 41.768C275.689 42.008 275.841 42.296 275.945 42.632C276.049 42.968 276.101 43.344 276.101 43.76C276.101 43.864 276.097 43.968 276.089 44.072C276.089 44.168 276.081 44.252 276.065 44.324H272.129C272.169 44.948 272.361 45.444 272.705 45.812C273.057 46.172 273.513 46.352 274.073 46.352C274.353 46.352 274.609 46.312 274.841 46.232C275.081 46.144 275.309 46.032 275.525 45.896L275.873 46.544C275.617 46.704 275.333 46.844 275.021 46.964C274.709 47.084 274.353 47.144 273.953 47.144ZM272.117 43.616H275.237C275.237 43.024 275.109 42.576 274.853 42.272C274.605 41.96 274.253 41.804 273.797 41.804C273.589 41.804 273.389 41.844 273.197 41.924C273.013 42.004 272.845 42.124 272.693 42.284C272.541 42.436 272.413 42.624 272.309 42.848C272.213 43.072 272.149 43.328 272.117 43.616Z" fill="#FFCD50"/>
<path d="M255.5 50V81M255.5 99V133.5H241" stroke="#FCC438"/>
<path d="M101.146 42.6464C100.951 42.8417 100.951 43.1583 101.146 43.3536L104.328 46.5355C104.524 46.7308 104.84 46.7308 105.036 46.5355C105.231 46.3403 105.231 46.0237 105.036 45.8284L102.207 43L105.036 40.1716C105.231 39.9763 105.231 39.6597 105.036 39.4645C104.84 39.2692 104.524 39.2692 104.328 39.4645L101.146 42.6464ZM231 42.5L101.5 42.5V43.5L231 43.5V42.5Z" fill="#FCC438"/>
<path d="M50.6464 125.354C50.8417 125.549 51.1583 125.549 51.3536 125.354L54.5355 122.172C54.7308 121.976 54.7308 121.66 54.5355 121.464C54.3403 121.269 54.0237 121.269 53.8284 121.464L51 124.293L48.1716 121.464C47.9763 121.269 47.6597 121.269 47.4645 121.464C47.2692 121.66 47.2692 121.976 47.4645 122.172L50.6464 125.354ZM50.5 55L50.5 125L51.5 125L51.5 55L50.5 55Z" fill="#FCC438"/>
</svg>
