<svg width="289" height="160" viewBox="0 0 289 160" fill="none" xmlns="http://www.w3.org/2000/svg">
<g clip-path="url(#clip0)">
<rect width="289" height="160" fill="#011627"/>
<path d="M5 6H169V154H5V6Z" fill="white" fill-opacity="0.29"/>
<path d="M5.5 6.5H168.5V153.5H5.5V6.5Z" stroke="white" stroke-opacity="0.24"/>
<path d="M13 98H160V147H13V98Z" fill="white" fill-opacity="0.28"/>
<path d="M13.5 98.5H159.5V146.5H13.5V98.5Z" stroke="white" stroke-opacity="0.37"/>
<path d="M16.984 110V104.168H17.968V110H16.984ZM17.488 102.968C17.296 102.968 17.132 102.908 16.996 102.788C16.868 102.668 16.804 102.516 16.804 102.332C16.804 102.14 16.868 101.988 16.996 101.876C17.132 101.756 17.296 101.696 17.488 101.696C17.68 101.696 17.84 101.756 17.968 101.876C18.104 101.988 18.172 102.14 18.172 102.332C18.172 102.516 18.104 102.668 17.968 102.788C17.84 102.908 17.68 102.968 17.488 102.968ZM19.9371 110V104.168H20.7531L20.8371 105.008H20.8731C21.1531 104.728 21.4451 104.496 21.7491 104.312C22.0611 104.12 22.4211 104.024 22.8291 104.024C23.4451 104.024 23.8931 104.216 24.1731 104.6C24.4611 104.984 24.6051 105.552 24.6051 106.304V110H23.6211V106.436C23.6211 105.884 23.5331 105.488 23.3571 105.248C23.1811 105 22.9011 104.876 22.5171 104.876C22.2131 104.876 21.9451 104.952 21.7131 105.104C21.4811 105.256 21.2171 105.48 20.9211 105.776V110H19.9371ZM26.4996 112.46V104.168H27.3156L27.3996 104.84H27.4356C27.6996 104.616 27.9876 104.424 28.2996 104.264C28.6196 104.104 28.9516 104.024 29.2956 104.024C29.6716 104.024 30.0036 104.096 30.2916 104.24C30.5796 104.376 30.8196 104.576 31.0116 104.84C31.2036 105.096 31.3476 105.408 31.4436 105.776C31.5476 106.136 31.5996 106.544 31.5996 107C31.5996 107.496 31.5316 107.94 31.3956 108.332C31.2596 108.716 31.0756 109.044 30.8436 109.316C30.6116 109.588 30.3436 109.796 30.0396 109.94C29.7356 110.076 29.4156 110.144 29.0796 110.144C28.8076 110.144 28.5356 110.084 28.2636 109.964C27.9996 109.844 27.7316 109.68 27.4596 109.472L27.4836 110.492V112.46H26.4996ZM28.9116 109.316C29.1516 109.316 29.3716 109.264 29.5716 109.16C29.7796 109.048 29.9556 108.896 30.0996 108.704C30.2516 108.504 30.3676 108.26 30.4476 107.972C30.5356 107.684 30.5796 107.36 30.5796 107C30.5796 106.68 30.5516 106.388 30.4956 106.124C30.4396 105.86 30.3476 105.636 30.2196 105.452C30.0996 105.26 29.9396 105.112 29.7396 105.008C29.5476 104.904 29.3156 104.852 29.0436 104.852C28.7956 104.852 28.5436 104.92 28.2876 105.056C28.0396 105.192 27.7716 105.388 27.4836 105.644V108.704C27.7476 108.928 28.0036 109.088 28.2516 109.184C28.4996 109.272 28.7196 109.316 28.9116 109.316ZM34.8599 110.144C34.2359 110.144 33.7799 109.952 33.4919 109.568C33.2119 109.184 33.0719 108.616 33.0719 107.864V104.168H34.0679V107.732C34.0679 108.284 34.1519 108.684 34.3199 108.932C34.4959 109.172 34.7759 109.292 35.1599 109.292C35.4639 109.292 35.7319 109.216 35.9639 109.064C36.1959 108.904 36.4519 108.652 36.7319 108.308V104.168H37.7159V110H36.8999L36.8159 109.088H36.7799C36.5079 109.408 36.2199 109.664 35.9159 109.856C35.6199 110.048 35.2679 110.144 34.8599 110.144ZM41.5192 110.144C41.2072 110.144 40.9432 110.096 40.7272 110C40.5192 109.904 40.3472 109.772 40.2112 109.604C40.0832 109.436 39.9912 109.232 39.9352 108.992C39.8792 108.752 39.8512 108.488 39.8512 108.2V104.972H38.9872V104.228L39.8992 104.168L40.0192 102.536H40.8472V104.168H42.4192V104.972H40.8472V108.212C40.8472 108.572 40.9112 108.852 41.0392 109.052C41.1752 109.244 41.4112 109.34 41.7472 109.34C41.8512 109.34 41.9632 109.324 42.0832 109.292C42.2032 109.26 42.3112 109.224 42.4072 109.184L42.5992 109.928C42.4392 109.984 42.2632 110.032 42.0712 110.072C41.8872 110.12 41.7032 110.144 41.5192 110.144Z" fill="white"/>
<path d="M20.612 131.168H21.608L22.952 134.48C23.072 134.776 23.184 135.068 23.288 135.356C23.4 135.636 23.508 135.916 23.612 136.196H23.66C23.764 135.916 23.864 135.636 23.96 135.356C24.064 135.068 24.176 134.776 24.296 134.48L25.64 131.168H26.588L24.176 137H23.072L20.612 131.168ZM28.1673 135.488C28.1673 135.16 28.2433 134.876 28.3953 134.636C28.5553 134.388 28.8033 134.176 29.1393 134C29.4833 133.824 29.9233 133.68 30.4593 133.568C30.9953 133.456 31.6393 133.368 32.3913 133.304C32.3833 133.104 32.3513 132.916 32.2953 132.74C32.2393 132.564 32.1513 132.412 32.0313 132.284C31.9113 132.148 31.7513 132.04 31.5513 131.96C31.3593 131.88 31.1233 131.84 30.8433 131.84C30.4593 131.84 30.0913 131.916 29.7393 132.068C29.3873 132.212 29.0753 132.368 28.8033 132.536L28.4193 131.864C28.5633 131.768 28.7313 131.672 28.9233 131.576C29.1233 131.472 29.3313 131.38 29.5473 131.3C29.7713 131.22 30.0073 131.156 30.2553 131.108C30.5033 131.052 30.7553 131.024 31.0113 131.024C31.8113 131.024 32.4033 131.244 32.7873 131.684C33.1793 132.116 33.3753 132.696 33.3753 133.424V137H32.5713L32.4873 136.208H32.4513C32.1233 136.464 31.7593 136.684 31.3593 136.868C30.9673 137.052 30.5633 137.144 30.1473 137.144C29.8753 137.144 29.6193 137.104 29.3793 137.024C29.1393 136.952 28.9273 136.848 28.7433 136.712C28.5673 136.568 28.4273 136.396 28.3233 136.196C28.2193 135.988 28.1673 135.752 28.1673 135.488ZM29.1273 135.416C29.1273 135.584 29.1633 135.728 29.2353 135.848C29.3073 135.96 29.3993 136.056 29.5113 136.136C29.6313 136.208 29.7673 136.264 29.9193 136.304C30.0793 136.336 30.2433 136.352 30.4113 136.352C30.7473 136.352 31.0753 136.28 31.3953 136.136C31.7233 135.984 32.0553 135.768 32.3913 135.488V133.952C31.7673 134 31.2433 134.068 30.8193 134.156C30.4033 134.244 30.0673 134.352 29.8113 134.48C29.5633 134.6 29.3873 134.74 29.2833 134.9C29.1793 135.052 29.1273 135.224 29.1273 135.416ZM35.3626 128.456H38.3386V135.116C38.3386 135.548 38.4386 135.86 38.6386 136.052C38.8466 136.236 39.1266 136.328 39.4786 136.328C39.7986 136.328 40.1666 136.236 40.5826 136.052L40.8346 136.796C40.5706 136.892 40.3226 136.972 40.0906 137.036C39.8586 137.108 39.5826 137.144 39.2626 137.144C38.6386 137.144 38.1626 136.968 37.8346 136.616C37.5146 136.264 37.3546 135.74 37.3546 135.044V129.26H35.3626V128.456ZM47.6459 137H46.8419L46.7579 135.98H46.7099C46.4139 136.324 46.0899 136.604 45.7379 136.82C45.3939 137.036 44.9939 137.144 44.5379 137.144C43.8339 137.144 43.3179 136.948 42.9899 136.556C42.6699 136.156 42.5099 135.568 42.5099 134.792V131.168H43.5059V134.66C43.5059 135.212 43.6059 135.624 43.8059 135.896C44.0139 136.16 44.3619 136.292 44.8499 136.292C45.1859 136.292 45.4899 136.208 45.7619 136.04C46.0339 135.864 46.3339 135.588 46.6619 135.212V131.168H47.6459V137ZM49.6093 134.096C49.6093 133.616 49.6933 133.188 49.8613 132.812C50.0293 132.428 50.2493 132.104 50.5213 131.84C50.8013 131.576 51.1173 131.376 51.4693 131.24C51.8293 131.096 52.1973 131.024 52.5733 131.024C52.9893 131.024 53.3613 131.092 53.6893 131.228C54.0173 131.356 54.2933 131.54 54.5173 131.78C54.7493 132.02 54.9253 132.308 55.0453 132.644C55.1653 132.98 55.2253 133.352 55.2253 133.76C55.2253 133.864 55.2213 133.968 55.2133 134.072C55.2133 134.168 55.2053 134.252 55.1893 134.324H50.6293C50.6373 134.636 50.6973 134.916 50.8093 135.164C50.9293 135.412 51.0853 135.624 51.2773 135.8C51.4773 135.976 51.7093 136.112 51.9733 136.208C52.2453 136.304 52.5413 136.352 52.8613 136.352C53.2053 136.352 53.5173 136.304 53.7973 136.208C54.0853 136.112 54.3653 135.98 54.6373 135.812L54.9853 136.46C54.6973 136.644 54.3693 136.804 54.0013 136.94C53.6333 137.076 53.2133 137.144 52.7413 137.144C52.3093 137.144 51.9013 137.076 51.5173 136.94C51.1413 136.796 50.8093 136.596 50.5213 136.34C50.2413 136.076 50.0173 135.756 49.8493 135.38C49.6893 135.004 49.6093 134.576 49.6093 134.096ZM54.3133 133.616C54.3133 133.032 54.1613 132.584 53.8573 132.272C53.5533 131.96 53.1293 131.804 52.5853 131.804C52.3453 131.804 52.1133 131.844 51.8893 131.924C51.6733 132.004 51.4773 132.124 51.3013 132.284C51.1253 132.436 50.9773 132.624 50.8573 132.848C50.7373 133.072 50.6573 133.328 50.6173 133.616H54.3133ZM64.1919 131.384H69.3519V132.128H64.1919V131.384ZM64.1919 133.94H69.3519V134.684H64.1919V133.94ZM80.7545 129.188C80.3785 129.404 80.0825 129.672 79.8665 129.992C79.6585 130.304 79.5425 130.668 79.5185 131.084C79.6145 131.036 79.7185 131.012 79.8305 131.012C80.0785 131.012 80.2785 131.092 80.4305 131.252C80.5905 131.412 80.6705 131.62 80.6705 131.876C80.6705 132.156 80.5865 132.38 80.4185 132.548C80.2505 132.716 80.0385 132.8 79.7825 132.8C79.4705 132.8 79.2105 132.676 79.0025 132.428C78.8025 132.172 78.7025 131.816 78.7025 131.36C78.7025 130.76 78.8545 130.224 79.1585 129.752C79.4625 129.272 79.8865 128.892 80.4305 128.612L80.7545 129.188ZM83.5025 129.188C83.1265 129.404 82.8305 129.672 82.6145 129.992C82.4065 130.304 82.2905 130.668 82.2665 131.084C82.3625 131.036 82.4665 131.012 82.5785 131.012C82.8265 131.012 83.0265 131.092 83.1785 131.252C83.3385 131.412 83.4185 131.62 83.4185 131.876C83.4185 132.156 83.3345 132.38 83.1665 132.548C82.9985 132.716 82.7865 132.8 82.5305 132.8C82.2185 132.8 81.9585 132.676 81.7505 132.428C81.5505 132.172 81.4505 131.816 81.4505 131.36C81.4505 130.76 81.6025 130.224 81.9065 129.752C82.2105 129.272 82.6345 128.892 83.1785 128.612L83.5025 129.188ZM85.9938 132.224C86.3778 132.016 86.6738 131.756 86.8818 131.444C87.0978 131.124 87.2178 130.752 87.2418 130.328C87.1458 130.376 87.0418 130.4 86.9298 130.4C86.6738 130.4 86.4658 130.324 86.3058 130.172C86.1538 130.012 86.0778 129.804 86.0778 129.548C86.0778 129.268 86.1618 129.044 86.3298 128.876C86.4978 128.7 86.7098 128.612 86.9658 128.612C87.2858 128.612 87.5458 128.74 87.7458 128.996C87.9458 129.252 88.0458 129.608 88.0458 130.064C88.0458 130.664 87.8938 131.2 87.5898 131.672C87.2858 132.144 86.8658 132.52 86.3298 132.8L85.9938 132.224ZM88.7418 132.224C89.1258 132.016 89.4218 131.756 89.6298 131.444C89.8458 131.124 89.9658 130.752 89.9898 130.328C89.8938 130.376 89.7898 130.4 89.6778 130.4C89.4218 130.4 89.2138 130.324 89.0538 130.172C88.9018 130.012 88.8258 129.804 88.8258 129.548C88.8258 129.268 88.9098 129.044 89.0778 128.876C89.2458 128.7 89.4578 128.612 89.7138 128.612C90.0338 128.612 90.2938 128.74 90.4938 128.996C90.6938 129.252 90.7938 129.608 90.7938 130.064C90.7938 130.664 90.6418 131.2 90.3378 131.672C90.0338 132.144 89.6138 132.52 89.0778 132.8L88.7418 132.224Z" fill="white"/>
<path d="M9.436 13.596L9.064 14.796H11.428L11.056 13.596C10.912 13.156 10.776 12.72 10.648 12.288C10.52 11.848 10.392 11.4 10.264 10.944H10.216C10.096 11.4 9.972 11.848 9.844 12.288C9.716 12.72 9.58 13.156 9.436 13.596ZM7.036 18L9.7 10.128H10.828L13.492 18H12.424L11.68 15.6H8.812L8.056 18H7.036ZM16.5033 18.144C15.7673 18.144 15.1793 17.88 14.7393 17.352C14.3073 16.824 14.0913 16.072 14.0913 15.096C14.0913 14.624 14.1593 14.2 14.2953 13.824C14.4393 13.44 14.6273 13.116 14.8593 12.852C15.0913 12.588 15.3593 12.384 15.6633 12.24C15.9673 12.096 16.2873 12.024 16.6233 12.024C16.9593 12.024 17.2513 12.084 17.4993 12.204C17.7473 12.324 17.9993 12.488 18.2553 12.696L18.2073 11.7V9.456H19.2033V18H18.3873L18.3033 17.316H18.2673C18.0353 17.54 17.7673 17.736 17.4633 17.904C17.1673 18.064 16.8473 18.144 16.5033 18.144ZM16.7193 17.316C16.9913 17.316 17.2473 17.252 17.4873 17.124C17.7273 16.988 17.9673 16.784 18.2073 16.512V13.464C17.9593 13.24 17.7193 13.084 17.4873 12.996C17.2633 12.9 17.0313 12.852 16.7913 12.852C16.5593 12.852 16.3393 12.908 16.1313 13.02C15.9313 13.124 15.7553 13.276 15.6033 13.476C15.4513 13.668 15.3313 13.9 15.2433 14.172C15.1553 14.444 15.1113 14.748 15.1113 15.084C15.1113 15.788 15.2513 16.336 15.5313 16.728C15.8113 17.12 16.2073 17.316 16.7193 17.316ZM23.1596 18.144C22.4236 18.144 21.8356 17.88 21.3956 17.352C20.9636 16.824 20.7476 16.072 20.7476 15.096C20.7476 14.624 20.8156 14.2 20.9516 13.824C21.0956 13.44 21.2836 13.116 21.5156 12.852C21.7476 12.588 22.0156 12.384 22.3196 12.24C22.6236 12.096 22.9436 12.024 23.2796 12.024C23.6156 12.024 23.9076 12.084 24.1556 12.204C24.4036 12.324 24.6556 12.488 24.9116 12.696L24.8636 11.7V9.456H25.8596V18H25.0436L24.9596 17.316H24.9236C24.6916 17.54 24.4236 17.736 24.1196 17.904C23.8236 18.064 23.5036 18.144 23.1596 18.144ZM23.3756 17.316C23.6476 17.316 23.9036 17.252 24.1436 17.124C24.3836 16.988 24.6236 16.784 24.8636 16.512V13.464C24.6156 13.24 24.3756 13.084 24.1436 12.996C23.9196 12.9 23.6876 12.852 23.4476 12.852C23.2156 12.852 22.9956 12.908 22.7876 13.02C22.5876 13.124 22.4116 13.276 22.2596 13.476C22.1076 13.668 21.9876 13.9 21.8996 14.172C21.8116 14.444 21.7676 14.748 21.7676 15.084C21.7676 15.788 21.9076 16.336 22.1876 16.728C22.4676 17.12 22.8636 17.316 23.3756 17.316ZM27.9198 18V10.128H28.9158V13.428H32.5758V10.128H33.5838V18H32.5758V14.292H28.9158V18H27.9198ZM38.016 18.144C37.624 18.144 37.256 18.076 36.912 17.94C36.576 17.796 36.28 17.596 36.024 17.34C35.776 17.076 35.58 16.756 35.436 16.38C35.292 16.004 35.22 15.576 35.22 15.096C35.22 14.616 35.292 14.188 35.436 13.812C35.588 13.428 35.784 13.104 36.024 12.84C36.272 12.576 36.552 12.376 36.864 12.24C37.176 12.096 37.5 12.024 37.836 12.024C38.204 12.024 38.532 12.088 38.82 12.216C39.116 12.344 39.36 12.528 39.552 12.768C39.752 13.008 39.904 13.296 40.008 13.632C40.112 13.968 40.164 14.344 40.164 14.76C40.164 14.864 40.16 14.968 40.152 15.072C40.152 15.168 40.144 15.252 40.128 15.324H36.192C36.232 15.948 36.424 16.444 36.768 16.812C37.12 17.172 37.576 17.352 38.136 17.352C38.416 17.352 38.672 17.312 38.904 17.232C39.144 17.144 39.372 17.032 39.588 16.896L39.936 17.544C39.68 17.704 39.396 17.844 39.084 17.964C38.772 18.084 38.416 18.144 38.016 18.144ZM36.18 14.616H39.3C39.3 14.024 39.172 13.576 38.916 13.272C38.668 12.96 38.316 12.804 37.86 12.804C37.652 12.804 37.452 12.844 37.26 12.924C37.076 13.004 36.908 13.124 36.756 13.284C36.604 13.436 36.476 13.624 36.372 13.848C36.276 14.072 36.212 14.328 36.18 14.616ZM41.6051 18V12.168H42.4211L42.5051 13.224H42.5411C42.7411 12.856 42.9811 12.564 43.2611 12.348C43.5491 12.132 43.8611 12.024 44.1971 12.024C44.4291 12.024 44.6371 12.064 44.8211 12.144L44.6291 13.008C44.5331 12.976 44.4451 12.952 44.3651 12.936C44.2851 12.92 44.1851 12.912 44.0651 12.912C43.8171 12.912 43.5571 13.012 43.2851 13.212C43.0211 13.412 42.7891 13.76 42.5891 14.256V18H41.6051ZM47.9161 18.144C47.5561 18.144 47.2121 18.076 46.8841 17.94C46.5641 17.804 46.2801 17.608 46.0321 17.352C45.7841 17.088 45.5841 16.768 45.4321 16.392C45.2881 16.008 45.2161 15.576 45.2161 15.096C45.2161 14.608 45.2881 14.176 45.4321 13.8C45.5841 13.416 45.7841 13.092 46.0321 12.828C46.2801 12.564 46.5641 12.364 46.8841 12.228C47.2121 12.092 47.5561 12.024 47.9161 12.024C48.2761 12.024 48.6161 12.092 48.9361 12.228C49.2641 12.364 49.5521 12.564 49.8001 12.828C50.0481 13.092 50.2441 13.416 50.3881 13.8C50.5401 14.176 50.6161 14.608 50.6161 15.096C50.6161 15.576 50.5401 16.008 50.3881 16.392C50.2441 16.768 50.0481 17.088 49.8001 17.352C49.5521 17.608 49.2641 17.804 48.9361 17.94C48.6161 18.076 48.2761 18.144 47.9161 18.144ZM47.9161 17.328C48.1641 17.328 48.3921 17.276 48.6001 17.172C48.8081 17.06 48.9841 16.908 49.1281 16.716C49.2801 16.516 49.3961 16.28 49.4761 16.008C49.5561 15.736 49.5961 15.432 49.5961 15.096C49.5961 14.76 49.5561 14.456 49.4761 14.184C49.3961 13.904 49.2801 13.664 49.1281 13.464C48.9841 13.264 48.8081 13.112 48.6001 13.008C48.3921 12.896 48.1641 12.84 47.9161 12.84C47.6681 12.84 47.4401 12.896 47.2321 13.008C47.0241 13.112 46.8441 13.264 46.6921 13.464C46.5481 13.664 46.4361 13.904 46.3561 14.184C46.2761 14.456 46.2361 14.76 46.2361 15.096C46.2361 15.432 46.2761 15.736 46.3561 16.008C46.4361 16.28 46.5481 16.516 46.6921 16.716C46.8441 16.908 47.0241 17.06 47.2321 17.172C47.4401 17.276 47.6681 17.328 47.9161 17.328Z" fill="white"/>
<path d="M186.688 137.144C186.064 137.144 185.608 136.952 185.32 136.568C185.04 136.184 184.9 135.616 184.9 134.864V131.168H185.896V134.732C185.896 135.284 185.98 135.684 186.148 135.932C186.324 136.172 186.604 136.292 186.988 136.292C187.292 136.292 187.56 136.216 187.792 136.064C188.024 135.904 188.28 135.652 188.56 135.308V131.168H189.544V137H188.728L188.644 136.088H188.608C188.336 136.408 188.048 136.664 187.744 136.856C187.448 137.048 187.096 137.144 186.688 137.144ZM193.035 137.144C192.619 137.144 192.223 137.068 191.847 136.916C191.471 136.764 191.143 136.572 190.863 136.34L191.355 135.68C191.611 135.888 191.871 136.056 192.135 136.184C192.407 136.312 192.719 136.376 193.071 136.376C193.455 136.376 193.743 136.288 193.935 136.112C194.127 135.936 194.223 135.72 194.223 135.464C194.223 135.312 194.183 135.18 194.103 135.068C194.023 134.956 193.919 134.86 193.791 134.78C193.671 134.692 193.531 134.616 193.371 134.552C193.211 134.488 193.051 134.424 192.891 134.36C192.683 134.288 192.475 134.208 192.267 134.12C192.059 134.024 191.871 133.912 191.703 133.784C191.543 133.648 191.411 133.492 191.307 133.316C191.203 133.14 191.151 132.928 191.151 132.68C191.151 132.448 191.195 132.232 191.283 132.032C191.379 131.824 191.511 131.648 191.679 131.504C191.855 131.352 192.067 131.236 192.315 131.156C192.563 131.068 192.843 131.024 193.155 131.024C193.523 131.024 193.859 131.088 194.163 131.216C194.475 131.344 194.743 131.5 194.967 131.684L194.499 132.308C194.299 132.156 194.091 132.032 193.875 131.936C193.659 131.84 193.423 131.792 193.167 131.792C192.799 131.792 192.527 131.876 192.351 132.044C192.183 132.212 192.099 132.408 192.099 132.632C192.099 132.768 192.135 132.888 192.207 132.992C192.279 133.088 192.375 133.176 192.495 133.256C192.615 133.328 192.751 133.396 192.903 133.46C193.063 133.516 193.227 133.576 193.395 133.64C193.603 133.72 193.811 133.804 194.019 133.892C194.235 133.98 194.427 134.092 194.595 134.228C194.763 134.356 194.899 134.516 195.003 134.708C195.115 134.9 195.171 135.132 195.171 135.404C195.171 135.644 195.123 135.868 195.027 136.076C194.939 136.284 194.803 136.468 194.619 136.628C194.443 136.788 194.219 136.912 193.947 137C193.683 137.096 193.379 137.144 193.035 137.144ZM198.903 137.144C198.511 137.144 198.143 137.076 197.799 136.94C197.463 136.796 197.167 136.596 196.911 136.34C196.663 136.076 196.467 135.756 196.323 135.38C196.179 135.004 196.107 134.576 196.107 134.096C196.107 133.616 196.179 133.188 196.323 132.812C196.475 132.428 196.671 132.104 196.911 131.84C197.159 131.576 197.439 131.376 197.751 131.24C198.063 131.096 198.387 131.024 198.723 131.024C199.091 131.024 199.419 131.088 199.707 131.216C200.003 131.344 200.247 131.528 200.439 131.768C200.639 132.008 200.791 132.296 200.895 132.632C200.999 132.968 201.051 133.344 201.051 133.76C201.051 133.864 201.047 133.968 201.039 134.072C201.039 134.168 201.031 134.252 201.015 134.324H197.079C197.119 134.948 197.311 135.444 197.655 135.812C198.007 136.172 198.463 136.352 199.023 136.352C199.303 136.352 199.559 136.312 199.791 136.232C200.031 136.144 200.259 136.032 200.475 135.896L200.823 136.544C200.567 136.704 200.283 136.844 199.971 136.964C199.659 137.084 199.303 137.144 198.903 137.144ZM197.067 133.616H200.187C200.187 133.024 200.059 132.576 199.803 132.272C199.555 131.96 199.203 131.804 198.747 131.804C198.539 131.804 198.339 131.844 198.147 131.924C197.963 132.004 197.795 132.124 197.643 132.284C197.491 132.436 197.363 132.624 197.259 132.848C197.163 133.072 197.099 133.328 197.067 133.616ZM202.492 137V131.168H203.308L203.392 132.224H203.428C203.628 131.856 203.868 131.564 204.148 131.348C204.436 131.132 204.748 131.024 205.084 131.024C205.316 131.024 205.524 131.064 205.708 131.144L205.516 132.008C205.42 131.976 205.332 131.952 205.252 131.936C205.172 131.92 205.072 131.912 204.952 131.912C204.704 131.912 204.444 132.012 204.172 132.212C203.908 132.412 203.676 132.76 203.476 133.256V137H202.492ZM209.978 137L208.358 131.168H209.366L210.23 134.54C210.294 134.82 210.354 135.092 210.41 135.356C210.466 135.62 210.522 135.888 210.578 136.16H210.626C210.69 135.888 210.754 135.62 210.818 135.356C210.882 135.084 210.95 134.812 211.022 134.54L211.922 131.168H212.882L213.794 134.54C213.866 134.82 213.934 135.092 213.998 135.356C214.07 135.62 214.138 135.888 214.202 136.16H214.25C214.314 135.888 214.374 135.62 214.43 135.356C214.486 135.092 214.546 134.82 214.61 134.54L215.462 131.168H216.398L214.838 137H213.638L212.798 133.868C212.726 133.588 212.658 133.312 212.594 133.04C212.538 132.768 212.474 132.484 212.402 132.188H212.354C212.29 132.484 212.226 132.772 212.162 133.052C212.098 133.324 212.026 133.6 211.946 133.88L211.13 137H209.978ZM217.668 137V131.168H218.484L218.568 132.224H218.604C218.804 131.856 219.044 131.564 219.324 131.348C219.612 131.132 219.924 131.024 220.26 131.024C220.492 131.024 220.7 131.064 220.884 131.144L220.692 132.008C220.596 131.976 220.508 131.952 220.428 131.936C220.348 131.92 220.248 131.912 220.128 131.912C219.88 131.912 219.62 132.012 219.348 132.212C219.084 132.412 218.852 132.76 218.652 133.256V137H217.668ZM221.828 137V131.168H222.812V137H221.828ZM222.332 129.968C222.14 129.968 221.976 129.908 221.84 129.788C221.712 129.668 221.648 129.516 221.648 129.332C221.648 129.14 221.712 128.988 221.84 128.876C221.976 128.756 222.14 128.696 222.332 128.696C222.524 128.696 222.684 128.756 222.812 128.876C222.948 128.988 223.016 129.14 223.016 129.332C223.016 129.516 222.948 129.668 222.812 129.788C222.684 129.908 222.524 129.968 222.332 129.968ZM226.617 137.144C226.305 137.144 226.041 137.096 225.825 137C225.617 136.904 225.445 136.772 225.309 136.604C225.181 136.436 225.089 136.232 225.033 135.992C224.977 135.752 224.949 135.488 224.949 135.2V131.972H224.085V131.228L224.997 131.168L225.117 129.536H225.945V131.168H227.517V131.972H225.945V135.212C225.945 135.572 226.009 135.852 226.137 136.052C226.273 136.244 226.509 136.34 226.845 136.34C226.949 136.34 227.061 136.324 227.181 136.292C227.301 136.26 227.409 136.224 227.505 136.184L227.697 136.928C227.537 136.984 227.361 137.032 227.169 137.072C226.985 137.12 226.801 137.144 226.617 137.144ZM231.036 137.144C230.644 137.144 230.276 137.076 229.932 136.94C229.596 136.796 229.3 136.596 229.044 136.34C228.796 136.076 228.6 135.756 228.456 135.38C228.312 135.004 228.24 134.576 228.24 134.096C228.24 133.616 228.312 133.188 228.456 132.812C228.608 132.428 228.804 132.104 229.044 131.84C229.292 131.576 229.572 131.376 229.884 131.24C230.196 131.096 230.52 131.024 230.855 131.024C231.224 131.024 231.552 131.088 231.84 131.216C232.136 131.344 232.38 131.528 232.572 131.768C232.772 132.008 232.924 132.296 233.028 132.632C233.132 132.968 233.184 133.344 233.184 133.76C233.184 133.864 233.18 133.968 233.172 134.072C233.172 134.168 233.164 134.252 233.148 134.324H229.212C229.252 134.948 229.444 135.444 229.788 135.812C230.14 136.172 230.596 136.352 231.156 136.352C231.436 136.352 231.692 136.312 231.924 136.232C232.164 136.144 232.392 136.032 232.608 135.896L232.956 136.544C232.7 136.704 232.416 136.844 232.104 136.964C231.792 137.084 231.436 137.144 231.036 137.144ZM229.2 133.616H232.32C232.32 133.024 232.192 132.576 231.936 132.272C231.688 131.96 231.336 131.804 230.88 131.804C230.672 131.804 230.472 131.844 230.28 131.924C230.096 132.004 229.928 132.124 229.776 132.284C229.624 132.436 229.496 132.624 229.392 132.848C229.296 133.072 229.232 133.328 229.2 133.616ZM236.149 137.144C235.733 137.144 235.337 137.068 234.961 136.916C234.585 136.764 234.257 136.572 233.977 136.34L234.469 135.68C234.725 135.888 234.985 136.056 235.249 136.184C235.521 136.312 235.833 136.376 236.185 136.376C236.569 136.376 236.857 136.288 237.049 136.112C237.241 135.936 237.337 135.72 237.337 135.464C237.337 135.312 237.297 135.18 237.217 135.068C237.137 134.956 237.033 134.86 236.905 134.78C236.785 134.692 236.645 134.616 236.485 134.552C236.325 134.488 236.165 134.424 236.005 134.36C235.797 134.288 235.589 134.208 235.381 134.12C235.173 134.024 234.985 133.912 234.817 133.784C234.657 133.648 234.525 133.492 234.421 133.316C234.317 133.14 234.265 132.928 234.265 132.68C234.265 132.448 234.309 132.232 234.397 132.032C234.493 131.824 234.625 131.648 234.793 131.504C234.969 131.352 235.181 131.236 235.429 131.156C235.677 131.068 235.957 131.024 236.269 131.024C236.637 131.024 236.973 131.088 237.277 131.216C237.589 131.344 237.857 131.5 238.081 131.684L237.613 132.308C237.413 132.156 237.205 132.032 236.989 131.936C236.773 131.84 236.537 131.792 236.281 131.792C235.913 131.792 235.641 131.876 235.465 132.044C235.297 132.212 235.213 132.408 235.213 132.632C235.213 132.768 235.249 132.888 235.321 132.992C235.393 133.088 235.489 133.176 235.609 133.256C235.729 133.328 235.865 133.396 236.017 133.46C236.177 133.516 236.341 133.576 236.509 133.64C236.717 133.72 236.925 133.804 237.133 133.892C237.349 133.98 237.541 134.092 237.709 134.228C237.877 134.356 238.013 134.516 238.117 134.708C238.229 134.9 238.285 135.132 238.285 135.404C238.285 135.644 238.237 135.868 238.141 136.076C238.053 136.284 237.917 136.468 237.733 136.628C237.557 136.788 237.333 136.912 237.061 137C236.797 137.096 236.493 137.144 236.149 137.144Z" fill="#FFCD50"/>
<path d="M20.344 34.584C20.672 34.824 21.024 35.016 21.4 35.16C21.776 35.304 22.228 35.376 22.756 35.376C23.284 35.376 23.676 35.288 23.932 35.112C24.188 34.936 24.316 34.72 24.316 34.464C24.316 34.24 24.176 34.04 23.896 33.864C23.624 33.688 23.132 33.512 22.42 33.336C22.116 33.264 21.828 33.176 21.556 33.072C21.292 32.968 21.06 32.848 20.86 32.712C20.66 32.568 20.5 32.412 20.38 32.244C20.26 32.076 20.2 31.888 20.2 31.68C20.2 31.448 20.252 31.232 20.356 31.032C20.46 30.824 20.612 30.648 20.812 30.504C21.02 30.352 21.276 30.236 21.58 30.156C21.892 30.068 22.248 30.024 22.648 30.024C23.088 30.024 23.516 30.1 23.932 30.252C24.348 30.396 24.7 30.568 24.988 30.768L24.508 31.404C24.252 31.22 23.968 31.072 23.656 30.96C23.344 30.848 23.008 30.792 22.648 30.792C22.376 30.792 22.148 30.816 21.964 30.864C21.78 30.904 21.632 30.964 21.52 31.044C21.408 31.116 21.328 31.204 21.28 31.308C21.232 31.412 21.208 31.52 21.208 31.632C21.208 31.872 21.372 32.072 21.7 32.232C22.028 32.384 22.456 32.528 22.984 32.664C23.776 32.864 24.36 33.092 24.736 33.348C25.12 33.604 25.312 33.956 25.312 34.404C25.312 34.644 25.256 34.868 25.144 35.076C25.032 35.284 24.864 35.468 24.64 35.628C24.424 35.788 24.152 35.912 23.824 36C23.504 36.096 23.136 36.144 22.72 36.144C22.144 36.144 21.612 36.056 21.124 35.88C20.644 35.696 20.224 35.48 19.864 35.232L20.344 34.584ZM28.6673 30.972H27.0233V30.228L28.7033 30.168L28.8353 28.536H29.6513V30.168H32.5193V30.972H29.6513V33.744C29.6513 34.008 29.6753 34.24 29.7233 34.44C29.7713 34.632 29.8513 34.796 29.9633 34.932C30.0753 35.068 30.2273 35.172 30.4193 35.244C30.6113 35.308 30.8473 35.34 31.1273 35.34C31.4073 35.34 31.6593 35.316 31.8833 35.268C32.1073 35.22 32.3233 35.156 32.5313 35.076L32.7473 35.796C32.4833 35.892 32.1913 35.972 31.8713 36.036C31.5513 36.108 31.2313 36.144 30.9113 36.144C30.4873 36.144 30.1313 36.088 29.8433 35.976C29.5553 35.856 29.3233 35.692 29.1473 35.484C28.9793 35.268 28.8553 35.012 28.7753 34.716C28.7033 34.42 28.6673 34.092 28.6673 33.732V30.972ZM34.3626 34.488C34.3626 34.16 34.4386 33.876 34.5906 33.636C34.7506 33.388 34.9986 33.176 35.3346 33C35.6786 32.824 36.1186 32.68 36.6546 32.568C37.1906 32.456 37.8346 32.368 38.5866 32.304C38.5786 32.104 38.5466 31.916 38.4906 31.74C38.4346 31.564 38.3466 31.412 38.2266 31.284C38.1066 31.148 37.9466 31.04 37.7466 30.96C37.5546 30.88 37.3186 30.84 37.0386 30.84C36.6546 30.84 36.2866 30.916 35.9346 31.068C35.5826 31.212 35.2706 31.368 34.9986 31.536L34.6146 30.864C34.7586 30.768 34.9266 30.672 35.1186 30.576C35.3186 30.472 35.5266 30.38 35.7426 30.3C35.9666 30.22 36.2026 30.156 36.4506 30.108C36.6986 30.052 36.9506 30.024 37.2066 30.024C38.0066 30.024 38.5986 30.244 38.9826 30.684C39.3746 31.116 39.5706 31.696 39.5706 32.424V36H38.7666L38.6826 35.208H38.6466C38.3186 35.464 37.9546 35.684 37.5546 35.868C37.1626 36.052 36.7586 36.144 36.3426 36.144C36.0706 36.144 35.8146 36.104 35.5746 36.024C35.3346 35.952 35.1226 35.848 34.9386 35.712C34.7626 35.568 34.6226 35.396 34.5186 35.196C34.4146 34.988 34.3626 34.752 34.3626 34.488ZM35.3226 34.416C35.3226 34.584 35.3586 34.728 35.4306 34.848C35.5026 34.96 35.5946 35.056 35.7066 35.136C35.8266 35.208 35.9626 35.264 36.1146 35.304C36.2746 35.336 36.4386 35.352 36.6066 35.352C36.9426 35.352 37.2706 35.28 37.5906 35.136C37.9186 34.984 38.2506 34.768 38.5866 34.488V32.952C37.9626 33 37.4386 33.068 37.0146 33.156C36.5986 33.244 36.2626 33.352 36.0066 33.48C35.7586 33.6 35.5826 33.74 35.4786 33.9C35.3746 34.052 35.3226 34.224 35.3226 34.416ZM43.0579 30.972H41.4139V30.228L43.0939 30.168L43.2259 28.536H44.0419V30.168H46.9099V30.972H44.0419V33.744C44.0419 34.008 44.0659 34.24 44.1139 34.44C44.1619 34.632 44.2419 34.796 44.3539 34.932C44.4659 35.068 44.6179 35.172 44.8099 35.244C45.0019 35.308 45.2379 35.34 45.5179 35.34C45.7979 35.34 46.0499 35.316 46.2739 35.268C46.4979 35.22 46.7139 35.156 46.9219 35.076L47.1379 35.796C46.8739 35.892 46.5819 35.972 46.2619 36.036C45.9419 36.108 45.6219 36.144 45.3019 36.144C44.8779 36.144 44.5219 36.088 44.2339 35.976C43.9459 35.856 43.7139 35.692 43.5379 35.484C43.3699 35.268 43.2459 35.012 43.1659 34.716C43.0939 34.42 43.0579 34.092 43.0579 33.732V30.972ZM48.6093 33.096C48.6093 32.616 48.6933 32.188 48.8613 31.812C49.0293 31.428 49.2493 31.104 49.5213 30.84C49.8013 30.576 50.1173 30.376 50.4693 30.24C50.8293 30.096 51.1973 30.024 51.5733 30.024C51.9893 30.024 52.3613 30.092 52.6893 30.228C53.0173 30.356 53.2933 30.54 53.5173 30.78C53.7493 31.02 53.9253 31.308 54.0453 31.644C54.1653 31.98 54.2253 32.352 54.2253 32.76C54.2253 32.864 54.2213 32.968 54.2133 33.072C54.2133 33.168 54.2053 33.252 54.1893 33.324H49.6293C49.6373 33.636 49.6973 33.916 49.8093 34.164C49.9293 34.412 50.0853 34.624 50.2773 34.8C50.4773 34.976 50.7093 35.112 50.9733 35.208C51.2453 35.304 51.5413 35.352 51.8613 35.352C52.2053 35.352 52.5173 35.304 52.7973 35.208C53.0853 35.112 53.3653 34.98 53.6373 34.812L53.9853 35.46C53.6973 35.644 53.3693 35.804 53.0013 35.94C52.6333 36.076 52.2133 36.144 51.7413 36.144C51.3093 36.144 50.9013 36.076 50.5173 35.94C50.1413 35.796 49.8093 35.596 49.5213 35.34C49.2413 35.076 49.0173 34.756 48.8493 34.38C48.6893 34.004 48.6093 33.576 48.6093 33.096ZM53.3133 32.616C53.3133 32.032 53.1613 31.584 52.8573 31.272C52.5533 30.96 52.1293 30.804 51.5853 30.804C51.3453 30.804 51.1133 30.844 50.8893 30.924C50.6733 31.004 50.4773 31.124 50.3013 31.284C50.1253 31.436 49.9773 31.624 49.8573 31.848C49.7373 32.072 49.6573 32.328 49.6173 32.616H53.3133ZM63.1919 30.384H68.3519V31.128H63.1919V30.384ZM63.1919 32.94H68.3519V33.684H63.1919V32.94ZM79.6345 36.228C79.6345 36.012 79.6385 35.808 79.6465 35.616C79.6625 35.416 79.6745 35.224 79.6825 35.04C79.6985 34.856 79.7105 34.672 79.7185 34.488C79.7345 34.304 79.7425 34.112 79.7425 33.912C79.7425 33.792 79.7185 33.68 79.6705 33.576C79.6225 33.464 79.5345 33.364 79.4065 33.276C79.2785 33.188 79.0985 33.116 78.8665 33.06C78.6425 33.004 78.3545 32.976 78.0025 32.976V32.352C78.3545 32.352 78.6425 32.324 78.8665 32.268C79.0985 32.212 79.2785 32.14 79.4065 32.052C79.5345 31.964 79.6225 31.868 79.6705 31.764C79.7185 31.652 79.7425 31.536 79.7425 31.416C79.7425 31.032 79.7225 30.656 79.6825 30.288C79.6505 29.912 79.6345 29.516 79.6345 29.1C79.6345 28.788 79.6785 28.532 79.7665 28.332C79.8545 28.124 79.9905 27.96 80.1745 27.84C80.3585 27.72 80.5905 27.636 80.8705 27.588C81.1505 27.532 81.4785 27.504 81.8545 27.504H82.5865V28.08H81.9625C81.6585 28.08 81.4065 28.1 81.2065 28.14C81.0145 28.18 80.8625 28.244 80.7505 28.332C80.6465 28.412 80.5745 28.524 80.5345 28.668C80.4945 28.804 80.4745 28.968 80.4745 29.16C80.4745 29.504 80.4865 29.86 80.5105 30.228C80.5345 30.588 80.5465 30.956 80.5465 31.332C80.5465 31.724 80.4665 32.024 80.3065 32.232C80.1545 32.432 79.8705 32.568 79.4545 32.64V32.688C79.8705 32.76 80.1545 32.9 80.3065 33.108C80.4665 33.308 80.5465 33.604 80.5465 33.996C80.5465 34.404 80.5345 34.776 80.5105 35.112C80.4865 35.448 80.4745 35.8 80.4745 36.168C80.4745 36.36 80.4945 36.524 80.5345 36.66C80.5745 36.804 80.6465 36.916 80.7505 36.996C80.8625 37.084 81.0145 37.148 81.2065 37.188C81.4065 37.228 81.6585 37.248 81.9625 37.248H82.5865V37.824H81.8545C81.4785 37.824 81.1505 37.796 80.8705 37.74C80.5905 37.692 80.3585 37.608 80.1745 37.488C79.9905 37.368 79.8545 37.204 79.7665 36.996C79.6785 36.796 79.6345 36.54 79.6345 36.228ZM34.0026 45.168H34.9986L36.3426 48.48C36.4626 48.776 36.5746 49.068 36.6786 49.356C36.7906 49.636 36.8986 49.916 37.0026 50.196H37.0506C37.1546 49.916 37.2546 49.636 37.3506 49.356C37.4546 49.068 37.5666 48.776 37.6866 48.48L39.0306 45.168H39.9786L37.5666 51H36.4626L34.0026 45.168ZM41.5579 49.488C41.5579 49.16 41.6339 48.876 41.7859 48.636C41.9459 48.388 42.1939 48.176 42.5299 48C42.8739 47.824 43.3139 47.68 43.8499 47.568C44.3859 47.456 45.0299 47.368 45.7819 47.304C45.7739 47.104 45.7419 46.916 45.6859 46.74C45.6299 46.564 45.5419 46.412 45.4219 46.284C45.3019 46.148 45.1419 46.04 44.9419 45.96C44.7499 45.88 44.5139 45.84 44.2339 45.84C43.8499 45.84 43.4819 45.916 43.1299 46.068C42.7779 46.212 42.4659 46.368 42.1939 46.536L41.8099 45.864C41.9539 45.768 42.1219 45.672 42.3139 45.576C42.5139 45.472 42.7219 45.38 42.9379 45.3C43.1619 45.22 43.3979 45.156 43.6459 45.108C43.8939 45.052 44.1459 45.024 44.4019 45.024C45.2019 45.024 45.7939 45.244 46.1779 45.684C46.5699 46.116 46.7659 46.696 46.7659 47.424V51H45.9619L45.8779 50.208H45.8419C45.5139 50.464 45.1499 50.684 44.7499 50.868C44.3579 51.052 43.9539 51.144 43.5379 51.144C43.2659 51.144 43.0099 51.104 42.7699 51.024C42.5299 50.952 42.3179 50.848 42.1339 50.712C41.9579 50.568 41.8179 50.396 41.7139 50.196C41.6099 49.988 41.5579 49.752 41.5579 49.488ZM42.5179 49.416C42.5179 49.584 42.5539 49.728 42.6259 49.848C42.6979 49.96 42.7899 50.056 42.9019 50.136C43.0219 50.208 43.1579 50.264 43.3099 50.304C43.4699 50.336 43.6339 50.352 43.8019 50.352C44.1379 50.352 44.4659 50.28 44.7859 50.136C45.1139 49.984 45.4459 49.768 45.7819 49.488V47.952C45.1579 48 44.6339 48.068 44.2099 48.156C43.7939 48.244 43.4579 48.352 43.2019 48.48C42.9539 48.6 42.7779 48.74 42.6739 48.9C42.5699 49.052 42.5179 49.224 42.5179 49.416ZM48.7533 42.456H51.7293V49.116C51.7293 49.548 51.8293 49.86 52.0293 50.052C52.2373 50.236 52.5173 50.328 52.8693 50.328C53.1893 50.328 53.5573 50.236 53.9733 50.052L54.2253 50.796C53.9613 50.892 53.7133 50.972 53.4813 51.036C53.2493 51.108 52.9733 51.144 52.6533 51.144C52.0293 51.144 51.5533 50.968 51.2253 50.616C50.9053 50.264 50.7453 49.74 50.7453 49.044V43.26H48.7533V42.456ZM61.0366 51H60.2326L60.1486 49.98H60.1006C59.8046 50.324 59.4806 50.604 59.1286 50.82C58.7846 51.036 58.3846 51.144 57.9286 51.144C57.2246 51.144 56.7086 50.948 56.3806 50.556C56.0606 50.156 55.9006 49.568 55.9006 48.792V45.168H56.8966V48.66C56.8966 49.212 56.9966 49.624 57.1966 49.896C57.4046 50.16 57.7526 50.292 58.2406 50.292C58.5766 50.292 58.8806 50.208 59.1526 50.04C59.4246 49.864 59.7246 49.588 60.0526 49.212V45.168H61.0366V51ZM62.9999 48.096C62.9999 47.616 63.0839 47.188 63.2519 46.812C63.4199 46.428 63.6399 46.104 63.9119 45.84C64.1919 45.576 64.5079 45.376 64.8599 45.24C65.2199 45.096 65.5879 45.024 65.9639 45.024C66.3799 45.024 66.7519 45.092 67.0799 45.228C67.4079 45.356 67.6839 45.54 67.9079 45.78C68.1399 46.02 68.3159 46.308 68.4359 46.644C68.5559 46.98 68.6159 47.352 68.6159 47.76C68.6159 47.864 68.6119 47.968 68.6039 48.072C68.6039 48.168 68.5959 48.252 68.5799 48.324H64.0199C64.0279 48.636 64.0879 48.916 64.1999 49.164C64.3199 49.412 64.4759 49.624 64.6679 49.8C64.8679 49.976 65.0999 50.112 65.3639 50.208C65.6359 50.304 65.9319 50.352 66.2519 50.352C66.5959 50.352 66.9079 50.304 67.1879 50.208C67.4759 50.112 67.7559 49.98 68.0279 49.812L68.3759 50.46C68.0879 50.644 67.7599 50.804 67.3919 50.94C67.0239 51.076 66.6039 51.144 66.1319 51.144C65.6999 51.144 65.2919 51.076 64.9079 50.94C64.5319 50.796 64.1999 50.596 63.9119 50.34C63.6319 50.076 63.4079 49.756 63.2399 49.38C63.0799 49.004 62.9999 48.576 62.9999 48.096ZM67.7039 47.616C67.7039 47.032 67.5519 46.584 67.2479 46.272C66.9439 45.96 66.5199 45.804 65.9759 45.804C65.7359 45.804 65.5039 45.844 65.2799 45.924C65.0639 46.004 64.8679 46.124 64.6919 46.284C64.5159 46.436 64.3679 46.624 64.2479 46.848C64.1279 47.072 64.0479 47.328 64.0079 47.616H67.7039ZM71.9952 45.84C71.9952 45.536 72.0872 45.292 72.2712 45.108C72.4632 44.916 72.6952 44.82 72.9672 44.82C73.2392 44.82 73.4672 44.916 73.6512 45.108C73.8432 45.292 73.9392 45.536 73.9392 45.84C73.9392 46.144 73.8432 46.388 73.6512 46.572C73.4672 46.756 73.2392 46.848 72.9672 46.848C72.6952 46.848 72.4632 46.756 72.2712 46.572C72.0872 46.388 71.9952 46.144 71.9952 45.84ZM71.9952 50.136C71.9952 49.832 72.0872 49.588 72.2712 49.404C72.4632 49.212 72.6952 49.116 72.9672 49.116C73.2392 49.116 73.4672 49.212 73.6512 49.404C73.8432 49.588 73.9392 49.832 73.9392 50.136C73.9392 50.44 73.8432 50.684 73.6512 50.868C73.4672 51.052 73.2392 51.144 72.9672 51.144C72.6952 51.144 72.4632 51.052 72.2712 50.868C72.0872 50.684 71.9952 50.44 71.9952 50.136ZM86.9498 43.188C86.5738 43.404 86.2778 43.672 86.0618 43.992C85.8538 44.304 85.7378 44.668 85.7138 45.084C85.8098 45.036 85.9138 45.012 86.0258 45.012C86.2738 45.012 86.4738 45.092 86.6258 45.252C86.7858 45.412 86.8658 45.62 86.8658 45.876C86.8658 46.156 86.7818 46.38 86.6138 46.548C86.4458 46.716 86.2338 46.8 85.9778 46.8C85.6658 46.8 85.4058 46.676 85.1978 46.428C84.9978 46.172 84.8978 45.816 84.8978 45.36C84.8978 44.76 85.0498 44.224 85.3538 43.752C85.6578 43.272 86.0818 42.892 86.6258 42.612L86.9498 43.188ZM89.6978 43.188C89.3218 43.404 89.0258 43.672 88.8098 43.992C88.6018 44.304 88.4858 44.668 88.4618 45.084C88.5578 45.036 88.6618 45.012 88.7738 45.012C89.0218 45.012 89.2218 45.092 89.3738 45.252C89.5338 45.412 89.6138 45.62 89.6138 45.876C89.6138 46.156 89.5298 46.38 89.3618 46.548C89.1938 46.716 88.9818 46.8 88.7258 46.8C88.4138 46.8 88.1538 46.676 87.9458 46.428C87.7458 46.172 87.6458 45.816 87.6458 45.36C87.6458 44.76 87.7978 44.224 88.1018 43.752C88.4058 43.272 88.8298 42.892 89.3738 42.612L89.6978 43.188ZM92.1891 46.224C92.5731 46.016 92.8691 45.756 93.0771 45.444C93.2931 45.124 93.4131 44.752 93.4371 44.328C93.3411 44.376 93.2371 44.4 93.1251 44.4C92.8691 44.4 92.6611 44.324 92.5011 44.172C92.3491 44.012 92.2731 43.804 92.2731 43.548C92.2731 43.268 92.3571 43.044 92.5251 42.876C92.6931 42.7 92.9051 42.612 93.1611 42.612C93.4811 42.612 93.7411 42.74 93.9411 42.996C94.1411 43.252 94.2411 43.608 94.2411 44.064C94.2411 44.664 94.0891 45.2 93.7851 45.672C93.4811 46.144 93.0611 46.52 92.5251 46.8L92.1891 46.224ZM94.9371 46.224C95.3211 46.016 95.6171 45.756 95.8251 45.444C96.0411 45.124 96.1611 44.752 96.1851 44.328C96.0891 44.376 95.9851 44.4 95.8731 44.4C95.6171 44.4 95.4091 44.324 95.2491 44.172C95.0971 44.012 95.0211 43.804 95.0211 43.548C95.0211 43.268 95.1051 43.044 95.2731 42.876C95.4411 42.7 95.6531 42.612 95.9091 42.612C96.2291 42.612 96.4891 42.74 96.6891 42.996C96.8891 43.252 96.9891 43.608 96.9891 44.064C96.9891 44.664 96.8371 45.2 96.5331 45.672C96.2291 46.144 95.8091 46.52 95.2731 46.8L94.9371 46.224ZM20.8 67.248C21.104 67.248 21.352 67.228 21.544 67.188C21.744 67.148 21.9 67.084 22.012 66.996C22.124 66.916 22.2 66.804 22.24 66.66C22.28 66.524 22.3 66.36 22.3 66.168C22.3 65.8 22.288 65.448 22.264 65.112C22.24 64.776 22.228 64.404 22.228 63.996C22.228 63.604 22.304 63.308 22.456 63.108C22.608 62.9 22.892 62.76 23.308 62.688V62.64C22.892 62.568 22.608 62.432 22.456 62.232C22.304 62.024 22.228 61.724 22.228 61.332C22.228 60.956 22.24 60.588 22.264 60.228C22.288 59.86 22.3 59.504 22.3 59.16C22.3 58.968 22.28 58.804 22.24 58.668C22.2 58.524 22.124 58.412 22.012 58.332C21.9 58.244 21.744 58.18 21.544 58.14C21.352 58.1 21.104 58.08 20.8 58.08H20.188V57.504H20.92C21.296 57.504 21.62 57.532 21.892 57.588C22.172 57.636 22.404 57.72 22.588 57.84C22.772 57.96 22.908 58.124 22.996 58.332C23.084 58.532 23.128 58.788 23.128 59.1C23.128 59.516 23.108 59.912 23.068 60.288C23.036 60.656 23.02 61.032 23.02 61.416C23.02 61.536 23.044 61.652 23.092 61.764C23.14 61.868 23.228 61.964 23.356 62.052C23.484 62.14 23.66 62.212 23.884 62.268C24.116 62.324 24.408 62.352 24.76 62.352V62.976C24.408 62.976 24.116 63.004 23.884 63.06C23.66 63.116 23.484 63.188 23.356 63.276C23.228 63.364 23.14 63.464 23.092 63.576C23.044 63.68 23.02 63.792 23.02 63.912C23.02 64.112 23.024 64.304 23.032 64.488C23.048 64.672 23.06 64.856 23.068 65.04C23.084 65.224 23.096 65.416 23.104 65.616C23.12 65.808 23.128 66.012 23.128 66.228C23.128 66.54 23.084 66.796 22.996 66.996C22.908 67.204 22.772 67.368 22.588 67.488C22.404 67.608 22.172 67.692 21.892 67.74C21.62 67.796 21.296 67.824 20.92 67.824H20.188V67.248H20.8Z" fill="white"/>
<path d="M212 57L212.5 57L212 57ZM202 47L202 47.5L202 47ZM108.646 46.6464C108.451 46.8417 108.451 47.1583 108.646 47.3535L111.828 50.5355C112.024 50.7308 112.34 50.7308 112.536 50.5355C112.731 50.3403 112.731 50.0237 112.536 49.8284L109.707 47L112.536 44.1716C112.731 43.9763 112.731 43.6597 112.536 43.4645C112.34 43.2692 112.024 43.2692 111.828 43.4645L108.646 46.6464ZM212.5 125L212.5 57L211.5 57L211.5 125H212.5ZM202 46.5L109 46.5L109 47.5L202 47.5L202 46.5ZM212.5 57C212.5 51.201 207.799 46.5 202 46.5L202 47.5C207.247 47.5 211.5 51.7533 211.5 57L212.5 57Z" fill="#FCC438"/>
<path d="M51.6464 125.354C51.8417 125.549 52.1583 125.549 52.3536 125.354L55.5355 122.172C55.7308 121.976 55.7308 121.66 55.5355 121.464C55.3403 121.269 55.0237 121.269 54.8284 121.464L52 124.293L49.1716 121.464C48.9763 121.269 48.6597 121.269 48.4645 121.464C48.2692 121.66 48.2692 121.976 48.4645 122.172L51.6464 125.354ZM51.5 55L51.5 125L52.5 125L52.5 55L51.5 55Z" fill="#FCC438"/>
</g>
<defs>
<clipPath id="clip0">
<rect width="289" height="160" fill="white"/>
</clipPath>
</defs>
</svg>
